<svg xmlns="http://www.w3.org/2000/svg" width="642.977" height="454.005" viewBox="0 0 642.977 454.005">
  <g id="OBJECTS" transform="translate(-29.96 -88.306)">
    <g id="Group_296" data-name="Group 296" transform="translate(29.96 88.306)">
      <g id="Group_295" data-name="Group 295">
        <g id="Group_255" data-name="Group 255" transform="translate(2.999)">
          <path id="Path_679" data-name="Path 679" d="M109.195,540.09h502.14c15.984-24.428,92.278-145.913,45.891-171.787-51.633-28.8-41.508-36.2-40.324-168.807,1.286-144.13-84.009-124.406-225.012-72.774S257.547,115.575,149.3,146.972c-107.78,31.251-9.394,152.809-91.811,243.173C-11.53,465.811,78.177,523.361,109.195,540.09Z" transform="translate(-32.013 -88.306)" fill="#ebedff"/>
          <path id="Path_680" data-name="Path 680" d="M172.082,117.64s48.448,35.9,134.648.76S138.084,86.564,172.082,117.64Z" transform="translate(31.114 -86.061)" fill="#ebedff"/>
        </g>
        <g id="Group_256" data-name="Group 256" transform="translate(182.964 358.644)">
          <rect id="Rectangle_261" data-name="Rectangle 261" width="103.616" height="93.126" fill="#d2d5fb"/>
          <rect id="Rectangle_262" data-name="Rectangle 262" width="22.164" height="88.085" transform="translate(95.861 7.772) rotate(90)" fill="#babfe8"/>
          <rect id="Rectangle_263" data-name="Rectangle 263" width="22.164" height="88.085" transform="translate(95.864 35.696) rotate(90)" fill="#babfe8"/>
          <rect id="Rectangle_264" data-name="Rectangle 264" width="22.164" height="88.085" transform="translate(95.861 64.752) rotate(90)" fill="#babfe8"/>
          <circle id="Ellipse_72" data-name="Ellipse 72" cx="4.398" cy="4.398" r="4.398" transform="translate(47.425 15.092)" fill="#ebedff"/>
          <path id="Path_681" data-name="Path 681" d="M196.445,367.538a4.4,4.4,0,1,1-4.4-4.4A4.4,4.4,0,0,1,196.445,367.538Z" transform="translate(-140.225 -320.244)" fill="#ebedff"/>
          <path id="Path_682" data-name="Path 682" d="M196.445,388.568a4.4,4.4,0,1,1-4.4-4.4A4.4,4.4,0,0,1,196.445,388.568Z" transform="translate(-140.225 -310.549)" fill="#ebedff"/>
        </g>
        <g id="Group_259" data-name="Group 259" transform="translate(106.377 87.536)">
          <path id="Path_683" data-name="Path 683" d="M284.054,148.22H112.793a10.02,10.02,0,0,0-10.023,10.023V268.608a10.02,10.02,0,0,0,10.023,10.023H284.054a10.02,10.02,0,0,0,10.023-10.023V158.243A10.02,10.02,0,0,0,284.054,148.22Z" transform="translate(-102.77 -148.22)" fill="#fff"/>
          <path id="Path_684" data-name="Path 684" d="M110.432,268.78a2.544,2.544,0,0,1-2.542-2.542V155.872a2.544,2.544,0,0,1,2.542-2.542H281.694a2.544,2.544,0,0,1,2.542,2.542V266.238a2.544,2.544,0,0,1-2.542,2.542Z" transform="translate(-100.41 -145.864)" fill="#ebedff"/>
          <g id="Group_257" data-name="Group 257" transform="translate(131.492 7.48)">
            <path id="Path_685" data-name="Path 685" d="M242.562,153.34H192.77c2.688,12.945,12.842,55.417,34,76.587H245.1V155.882A2.544,2.544,0,0,0,242.562,153.34Z" transform="translate(-192.77 -153.34)" fill="#babfe8"/>
            <path id="Path_686" data-name="Path 686" d="M216.04,205.76v11.25h18.044l.292-11.25Z" transform="translate(-182.042 -129.173)" fill="#d2d5fb"/>
            <path id="Path_687" data-name="Path 687" d="M237.248,238.531v-24.9l-.292-.175H218.912s-8.605,22.251-9.1,27.467l.292.131h24.6A2.541,2.541,0,0,0,237.248,238.531Z" transform="translate(-184.914 -125.623)" fill="#babfe8"/>
          </g>
          <g id="Group_258" data-name="Group 258" transform="translate(7.875 7.48)">
            <path id="Path_688" data-name="Path 688" d="M110.7,153.34h49.792c-2.688,12.945-12.842,55.417-34,76.587H108.16V155.882A2.544,2.544,0,0,1,110.7,153.34Z" transform="translate(-108.16 -153.34)" fill="#babfe8"/>
            <path id="Path_689" data-name="Path 689" d="M126.5,205.76v11.25H108.452l-.292-11.25Z" transform="translate(-108.16 -129.173)" fill="#d2d5fb"/>
            <path id="Path_690" data-name="Path 690" d="M108.16,238.531v-24.9l.292-.175H126.5s8.605,22.251,9.1,27.467l-.292.131H110.7A2.541,2.541,0,0,1,108.16,238.531Z" transform="translate(-108.16 -125.623)" fill="#babfe8"/>
          </g>
        </g>
        <g id="Group_261" data-name="Group 261" transform="translate(359.324 93.453)">
          <path id="Path_691" data-name="Path 691" d="M365.563,152.27h-84.71a4.957,4.957,0,0,0-4.953,4.953v54.6a4.957,4.957,0,0,0,4.953,4.953h84.71a4.957,4.957,0,0,0,4.953-4.953v-54.6A4.938,4.938,0,0,0,365.563,152.27Z" transform="translate(-275.9 -152.27)" fill="#d2d5fb"/>
          <g id="Group_260" data-name="Group 260" transform="translate(0.015 0.015)">
            <path id="Path_692" data-name="Path 692" d="M370.526,161.66v-4.427a4.957,4.957,0,0,0-4.953-4.953h-84.71a4.957,4.957,0,0,0-4.953,4.953v4.427Z" transform="translate(-275.91 -152.28)" fill="#babfe8"/>
            <path id="Path_693" data-name="Path 693" d="M293.9,164.88H280.883a1.179,1.179,0,0,0-1.183,1.183v12.974a1.178,1.178,0,0,0,1.183,1.183H293.9a1.179,1.179,0,0,0,1.183-1.183V166.063A1.179,1.179,0,0,0,293.9,164.88Z" transform="translate(-274.163 -146.471)" fill="#ebedff"/>
            <path id="Path_694" data-name="Path 694" d="M309.5,164.88H296.483a1.179,1.179,0,0,0-1.183,1.183v12.974a1.179,1.179,0,0,0,1.183,1.183H309.5a1.178,1.178,0,0,0,1.183-1.183V166.063A1.188,1.188,0,0,0,309.5,164.88Z" transform="translate(-266.971 -146.471)" fill="#fff"/>
            <path id="Path_695" data-name="Path 695" d="M325.011,164.88H311.993a1.179,1.179,0,0,0-1.183,1.183v12.974a1.179,1.179,0,0,0,1.183,1.183h13.018a1.179,1.179,0,0,0,1.183-1.183V166.063A1.188,1.188,0,0,0,325.011,164.88Z" transform="translate(-259.82 -146.471)" fill="#babfe8"/>
            <path id="Path_696" data-name="Path 696" d="M340,164.88H326.983a1.179,1.179,0,0,0-1.183,1.183v12.974a1.179,1.179,0,0,0,1.183,1.183H340a1.188,1.188,0,0,0,1.183-1.183V166.063A1.179,1.179,0,0,0,340,164.88Z" transform="translate(-252.909 -146.471)" fill="#ebedff"/>
            <path id="Path_697" data-name="Path 697" d="M293.9,179.51H280.883a1.178,1.178,0,0,0-1.183,1.183v12.974a1.178,1.178,0,0,0,1.183,1.183H293.9a1.179,1.179,0,0,0,1.183-1.183V180.693A1.179,1.179,0,0,0,293.9,179.51Z" transform="translate(-274.163 -139.726)" fill="#babfe8"/>
            <path id="Path_698" data-name="Path 698" d="M309.5,179.51H296.483a1.179,1.179,0,0,0-1.183,1.183v12.974a1.179,1.179,0,0,0,1.183,1.183H309.5a1.178,1.178,0,0,0,1.183-1.183V180.693A1.188,1.188,0,0,0,309.5,179.51Z" transform="translate(-266.971 -139.726)" fill="#ebedff"/>
            <path id="Path_699" data-name="Path 699" d="M325.011,179.51H311.993a1.179,1.179,0,0,0-1.183,1.183v12.974a1.179,1.179,0,0,0,1.183,1.183h13.018a1.178,1.178,0,0,0,1.183-1.183V180.693A1.188,1.188,0,0,0,325.011,179.51Z" transform="translate(-259.82 -139.726)" fill="#fff"/>
            <path id="Path_700" data-name="Path 700" d="M340,179.51H326.983a1.178,1.178,0,0,0-1.183,1.183v12.974a1.178,1.178,0,0,0,1.183,1.183H340a1.188,1.188,0,0,0,1.183-1.183V180.693A1.179,1.179,0,0,0,340,179.51Z" transform="translate(-252.909 -139.726)" fill="#ebedff"/>
          </g>
        </g>
        <g id="Group_262" data-name="Group 262" transform="translate(291.796 290.005)">
          <rect id="Rectangle_265" data-name="Rectangle 265" width="301.044" height="10.987" fill="#d2d5fb"/>
          <rect id="Rectangle_266" data-name="Rectangle 266" width="258.397" height="151.333" transform="translate(18.307 10.987)" fill="#d2d5fb"/>
          <rect id="Rectangle_267" data-name="Rectangle 267" width="258.397" height="16.144" transform="translate(18.307 10.987)" fill="#babfe8"/>
        </g>
        <g id="Group_265" data-name="Group 265" transform="translate(474.478 42.083)">
          <circle id="Ellipse_73" data-name="Ellipse 73" cx="33.91" cy="33.91" r="33.91" transform="translate(0 47.956) rotate(-45)" fill="#d2d5fb"/>
          <g id="Group_264" data-name="Group 264" transform="translate(22.972 22.968)">
            <circle id="Ellipse_74" data-name="Ellipse 74" cx="24.984" cy="24.984" r="24.984" fill="#ebedff"/>
            <g id="Group_263" data-name="Group 263" transform="translate(16.017 8.532)">
              <path id="Path_701" data-name="Path 701" d="M382.524,166.035a1.144,1.144,0,0,1-.847-.38,1.115,1.115,0,0,1,.117-1.578l7.743-6.692V139.78a1.11,1.11,0,0,1,2.221,0V157.9a1.175,1.175,0,0,1-.38.847l-8.138,7.028A1.084,1.084,0,0,1,382.524,166.035Z" transform="translate(-381.403 -138.67)" fill="#d2d5fb"/>
            </g>
          </g>
        </g>
        <g id="Group_266" data-name="Group 266" transform="translate(318.021 191.239)">
          <path id="Path_702" data-name="Path 702" d="M354.665,291.126H256.542a8.91,8.91,0,0,1-8.912-8.912v-54.1a8.91,8.91,0,0,1,8.912-8.912h98.122a8.91,8.91,0,0,1,8.912,8.912v54.1A8.91,8.91,0,0,1,354.665,291.126Z" transform="translate(-247.63 -219.2)" fill="#d2d5fb"/>
          <path id="Path_703" data-name="Path 703" d="M324.818,219.57a8.9,8.9,0,0,0-5.888,8.372v54.1a8.9,8.9,0,0,0,5.888,8.372,8.9,8.9,0,0,0,5.888-8.372v-54.1A8.9,8.9,0,0,0,324.818,219.57Z" transform="translate(-214.759 -219.029)" fill="#babfe8"/>
          <path id="Path_704" data-name="Path 704" d="M313.124,296.638h-12.93v-48.8H274.48v56.337h38.644a3.769,3.769,0,1,0,0-7.539Z" transform="translate(-235.251 -205.996)" fill="#babfe8"/>
          <path id="Path_705" data-name="Path 705" d="M312.9,296.638H300.194v-48.8H274.48v48.8h0a7.538,7.538,0,0,0,7.539,7.539h31.105a3.781,3.781,0,0,0,3.769-3.974A3.932,3.932,0,0,0,312.9,296.638Z" transform="translate(-235.251 -205.996)" fill="#babfe8"/>
          <path id="Path_706" data-name="Path 706" d="M311.532,300.408a3.779,3.779,0,0,0-3.769-3.769h-12.93v-48.8H286.11v48.8a7.539,7.539,0,0,0,7.539,7.539h14.1A3.772,3.772,0,0,0,311.532,300.408Z" transform="translate(-229.89 -205.996)" fill="#9ba3d3"/>
          <path id="Path_707" data-name="Path 707" d="M322.688,222.9h-57.2a2.507,2.507,0,0,0-2.5,2.5h0a2.5,2.5,0,0,0,2.5,2.5h57.2a2.507,2.507,0,0,0,2.5-2.5h0A2.5,2.5,0,0,0,322.688,222.9Z" transform="translate(-240.549 -217.494)" fill="#babfe8"/>
        </g>
        <rect id="Rectangle_268" data-name="Rectangle 268" width="96.311" height="23.099" transform="translate(460.164 267.081)" fill="#babfe8"/>
        <rect id="Rectangle_269" data-name="Rectangle 269" width="99.291" height="16.144" transform="translate(450.902 250.937)" fill="#d2d5fb"/>
        <rect id="Rectangle_270" data-name="Rectangle 270" width="95.186" height="20.206" transform="translate(460.574 230.702)" fill="#d2d5fb"/>
        <rect id="Rectangle_271" data-name="Rectangle 271" width="95.186" height="7.086" transform="translate(460.574 243.836)" fill="#babfe8"/>
        <g id="Group_272" data-name="Group 272" transform="translate(0 240.378)">
          <g id="Group_267" data-name="Group 267" transform="translate(46.557 9.215)">
            <path id="Path_708" data-name="Path 708" d="M100.739,387.33l1.68.351c1.972-5.274,3.755-13.427.862-21.974-4.938-14.581-7.305-32.961-16.743-46.753-12.9-18.847-15.984-59.814-15.984-59.814s-15.691,32.508-5,63.145S88.9,360.944,95.3,366.934C102.127,373.319,102,381.6,100.739,387.33Z" transform="translate(-61.826 -259.14)" fill="#babfe8"/>
            <path id="Path_709" data-name="Path 709" d="M99.438,387.4l1.315.278c1.972-5.274,3.755-13.427.862-21.974-4.938-14.581-7.305-32.961-16.743-46.753-12.9-18.847-15.984-59.814-15.984-59.814s-8.678,43.8,1.373,59.23S80.766,330.044,88,344.7s9.511,18.818,11.7,27.336C101.1,377.5,100.242,383.649,99.438,387.4Z" transform="translate(-60.174 -259.14)" fill="#9ba3d3"/>
          </g>
          <g id="Group_268" data-name="Group 268" transform="translate(90.12)">
            <path id="Path_710" data-name="Path 710" d="M95.306,402.2s3.214-4.792,1.33-22.646S89.623,344.61,92.5,325.12s24.122-68.9,24.238-72.16,5.625,56.863-5.347,80.809-12.36,32.216-12.039,44.693-.394,22.529-1.607,25.466Z" transform="translate(-91.643 -252.833)" fill="#babfe8"/>
            <path id="Path_711" data-name="Path 711" d="M97.727,366.106c1.14,7.963,1.622,27.979-.409,32.815-.19.453-.453.2-.774-.614.643-3.331,1.11-9.131.1-18.789-1.885-17.868-7.013-34.948-4.135-54.438s24.122-68.9,24.238-72.16c0,0-3.638,40.88-14.464,69.194A83.281,83.281,0,0,0,97.727,366.106Z" transform="translate(-91.638 -252.793)" fill="#9ba3d3"/>
          </g>
          <g id="Group_269" data-name="Group 269" transform="translate(102.533 36.083)">
            <path id="Path_712" data-name="Path 712" d="M102.9,387.034s-9.307-25.641,6.239-47.746,40.441-50.478,40.894-61.758c0,0,6.6,53.561-13.675,68.639s-34.539,17.445-30.93,40.777Z" transform="translate(-100.139 -277.53)" fill="#babfe8"/>
            <path id="Path_713" data-name="Path 713" d="M123.957,335.357c-22.617,18.277-24.4,39.418-20.849,49.237a2.409,2.409,0,0,0,1.476,1.49c-3.112-22.514,11.016-25.027,31.047-39.915,20.294-15.078,13.675-68.639,13.675-68.639S146.574,317.095,123.957,335.357Z" transform="translate(-99.425 -277.53)" fill="#9ba3d3"/>
          </g>
          <g id="Group_270" data-name="Group 270" transform="translate(0 63.492)">
            <path id="Path_714" data-name="Path 714" d="M107.438,384.619l-5.114-18.5C83.273,298.55,29.96,296.3,29.96,296.3c5.567,1.11,34.509,23.172,38.995,42.793,2.1,9.219,11.527,15.765,19.841,20.1a24.718,24.718,0,0,1,12.287,15.151c1.593,5.567,2.425,10.5,2.425,10.5Z" transform="translate(-29.96 -296.285)" fill="#babfe8"/>
            <path id="Path_715" data-name="Path 715" d="M78.451,340.033c6.239,11.951,14.26,16.816,21.462,18.453-20.761-60.077-69.954-62.2-69.954-62.2a21.091,21.091,0,0,1,5.7,2.966C45.9,304.983,67.435,318.921,78.451,340.033Z" transform="translate(-29.96 -296.29)" fill="#9ba3d3"/>
          </g>
          <g id="Group_271" data-name="Group 271" transform="translate(51.263 135.608)">
            <path id="Path_716" data-name="Path 716" d="M131.484,345.65H75.746a10.7,10.7,0,0,0-10.534,12.565L75.22,414.64a8.322,8.322,0,0,0,8.2,6.867h40.4a8.333,8.333,0,0,0,8.2-6.867l10.008-56.425A10.7,10.7,0,0,0,131.484,345.65Z" transform="translate(-65.047 -345.65)" fill="#d2d5fb"/>
            <path id="Path_717" data-name="Path 717" d="M141.644,353.437a10.7,10.7,0,0,0-10.3-7.787H75.62a10.713,10.713,0,0,0-10.3,7.787Z" transform="translate(-64.921 -345.65)" fill="#babfe8"/>
            <path id="Path_718" data-name="Path 718" d="M117.426,345.65H103.21a10.7,10.7,0,0,1,10.534,12.565L103.736,414.64a8.31,8.31,0,0,1-8.2,6.867h14.216a8.333,8.333,0,0,0,8.2-6.867l10.008-56.425A10.7,10.7,0,0,0,117.426,345.65Z" transform="translate(-50.989 -345.65)" fill="#babfe8"/>
          </g>
        </g>
        <g id="Group_294" data-name="Group 294" transform="translate(101.522 138.358)">
          <g id="Group_280" data-name="Group 280" transform="translate(276.797 6.359)">
            <g id="Group_275" data-name="Group 275" transform="translate(0 29.685)">
              <path id="Path_719" data-name="Path 719" d="M400.913,219.491c4.792.818,27.628,4.734,32.084,7.831,3.828,2.674,22.412,56.995,18.5,59.829s-27.19,5.435-27.19,5.435l2.615,19.607-26.635,6.063a48.513,48.513,0,0,1-19.461.424L358.4,314.589l4.573-56.6-29.834,17.138A4.5,4.5,0,0,1,327.1,273.3L295.31,218.337,304.3,214.1l27.336,32.8,26.328-20.878s5.932-4.135,27.73-5.976Z" transform="translate(-285.946 -204.714)" fill="#ffb147"/>
              <path id="Path_720" data-name="Path 720" d="M306.578,217.646s-4.617-9.467-6.268-9.935-.146,3.813-.146,3.813-5.756-4.412-10.3-3.784,8.386,8.81,9.672,13.222C299.536,220.963,306.856,217.675,306.578,217.646Z" transform="translate(-288.9 -207.676)" fill="#ffa683"/>
              <g id="Group_274" data-name="Group 274" transform="translate(38.103 43.384)">
                <g id="Group_273" data-name="Group 273">
                  <path id="Path_721" data-name="Path 721" d="M319.612,274.787h47.381a4.633,4.633,0,0,0,4.631-4.632V242a4.633,4.633,0,0,0-4.631-4.631H319.612A4.633,4.633,0,0,0,314.98,242v28.154A4.633,4.633,0,0,0,319.612,274.787Z" transform="translate(-314.98 -237.37)" fill="#fff"/>
                  <path id="Path_722" data-name="Path 722" d="M336.836,265.317h40.09a3.916,3.916,0,0,0,3.916-3.916v.424a3.916,3.916,0,0,0-3.916-3.916h-40.09a3.916,3.916,0,0,0-3.916,3.916V261.4A3.925,3.925,0,0,0,336.836,265.317Z" transform="translate(-306.709 -227.901)" fill="#fff"/>
                  <path id="Path_723" data-name="Path 723" d="M359.771,257.92V260.7a4.643,4.643,0,0,1-4.588,4.631H350.61A4.614,4.614,0,0,0,355.2,260.7V257.92Z" transform="translate(-298.554 -227.896)" fill="#e6e1ef"/>
                </g>
                <path id="Path_724" data-name="Path 724" d="M328.41,253.788a6.458,6.458,0,1,1,6.458,6.458A6.46,6.46,0,0,1,328.41,253.788Z" transform="translate(-308.788 -232.778)" fill="#e6e1ef"/>
              </g>
              <path id="Path_725" data-name="Path 725" d="M390.843,258.069l-5.406-23.289,10.388,27.146a4,4,0,0,1-3,5.435l-27.19,6.166,21.273-8.313A5.952,5.952,0,0,0,390.843,258.069Z" transform="translate(-253.522 -195.18)" fill="#7327cc" opacity="0.42"/>
              <path id="Path_726" data-name="Path 726" d="M393.506,272.888l-31.777,2.761-.438-10.914,33.56-7.656Z" transform="translate(-255.527 -184.899)" fill="#ba95f4"/>
              <path id="Path_727" data-name="Path 727" d="M381.065,272.6c.745.336,1.636,9.482,2.294,17.781l12.623-2.878L393.367,267.9l-31.777,2.761S379.692,271.976,381.065,272.6Z" transform="translate(-255.389 -179.911)" fill="#7327cc" opacity="0.42"/>
              <path id="Path_728" data-name="Path 728" d="M365.61,270.281s-5.581,1.812-12.55-5.172a1.19,1.19,0,0,1,.833-2.031l11.279-.088Z" transform="translate(-259.482 -182.174)" fill="#ffa683"/>
            </g>
            <g id="Group_277" data-name="Group 277" transform="translate(56.892 137.778)">
              <g id="Group_276" data-name="Group 276">
                <path id="Path_729" data-name="Path 729" d="M409.336,436.646l-15.735-.234c-3-10.855-18.014-125.254-18.014-125.254l-19.578,41.756,9.6,83.454-14.7.088s-23.07-72.131-23.07-87.136c0-11.44,11.528-48.448,17.021-65.41l.438-.117,20.5,3.74a48.251,48.251,0,0,0,19.461-.424l23.975-5.45.044.029C411.688,313,409.336,436.646,409.336,436.646Z" transform="translate(-327.84 -281.66)" fill="#5725a5"/>
                <path id="Path_730" data-name="Path 730" d="M386.907,436.636s1.14-56.469,1.067-102.228v-6.151c-.073-19.855-.38-37.256-1.1-46.578l-10.388,2.367h0l4.894,152.37,5.333.219Z" transform="translate(-305.411 -281.651)" fill="#441982" opacity="0.35"/>
                <path id="Path_731" data-name="Path 731" d="M355.574,427.191l4.018-.132-9.6-83.454,19.578-41.756L340.92,342.627Z" transform="translate(-321.81 -272.352)" fill="#441982"/>
              </g>
              <path id="Path_732" data-name="Path 732" d="M350.9,387.565c-3.521,7.057-19.987,10.49-19.987,10.49a4.531,4.531,0,0,0,.643,4.734c1.855,2.659,19.154,1.2,21.331.73a7.57,7.57,0,0,0,3.682-2.206,12.172,12.172,0,0,0,2.25,1.987c.8.394,5.23-.453,5.23-.453,1.067-2.805.117-13.573-.161-15.3H350.9Z" transform="translate(-326.601 -232.842)" fill="#441982"/>
              <path id="Path_733" data-name="Path 733" d="M379.948,387.565c-3.521,7.057-19.987,10.49-19.987,10.49a4.531,4.531,0,0,0,.643,4.734c1.855,2.659,19.154,1.2,21.331.73a7.57,7.57,0,0,0,3.682-2.206,12.173,12.173,0,0,0,2.25,1.987c.8.394,5.23-.453,5.23-.453,1.067-2.805.117-13.573-.161-15.3H379.948Z" transform="translate(-313.208 -232.842)" fill="#441982"/>
            </g>
            <g id="Group_279" data-name="Group 279" transform="translate(83.753)">
              <g id="Group_278" data-name="Group 278">
                <path id="Path_734" data-name="Path 734" d="M370.379,208.675v13.178L362.62,227.4l-5.23-5.041.117-5.406a10.258,10.258,0,0,0,2.016.2,11,11,0,0,0,10.534-8.5A2.262,2.262,0,0,0,370.379,208.675Z" transform="translate(-341.078 -177.537)" fill="#ffa683"/>
                <path id="Path_735" data-name="Path 735" d="M376.281,204.791a2.49,2.49,0,0,0-3.316-.307l-.073.073c-4.558-1.081-10.9-5.917-10.9-5.917a75.676,75.676,0,0,1-10.592,4.924V210.4a11.142,11.142,0,0,0,10.885,11.4,11.011,11.011,0,0,0,10.534-8.518C376.559,213.791,377.786,206.413,376.281,204.791Z" transform="translate(-343.839 -182.156)" fill="#ffa683"/>
                <path id="Path_736" data-name="Path 736" d="M375.555,223.638l-.029-.015V218.5c3.492.073,4.6-6.925,3.141-8.5a2.5,2.5,0,0,0-3.316-.321l-.073.073a101.876,101.876,0,0,1-10.87-3.565,18.183,18.183,0,0,1-10.636,2.571c-1.593-.38-7.787-2.455-7.539-10.476.248-8.109,22.032-17.547,34.086-4.339C385.052,199.108,387.828,221.505,375.555,223.638Z" transform="translate(-346.225 -187.358)" fill="#441982"/>
              </g>
              <path id="Path_737" data-name="Path 737" d="M359.523,217.163a10.267,10.267,0,0,1-2.016-.219l-.117,5.42,3.375,3.258v-6.355c8.693,0,9.292-10.607,9.292-10.607A11,11,0,0,1,359.523,217.163Z" transform="translate(-341.078 -177.537)" fill="#f48260"/>
              <path id="Path_738" data-name="Path 738" d="M372.822,202.81l-.073.073a13.266,13.266,0,0,1-1.958-.643c.219,2.761.307,9.643-3.4,13.354-.891-1.14-2.98-3.579-4.924-3.959a22.684,22.684,0,0,0-6,.073,2.735,2.735,0,0,0-1.563.731l-1.9,1.8a10.958,10.958,0,0,1-1.286-2.206,10.773,10.773,0,0,0,20.966-.409,2.339,2.339,0,0,0,.906-.058v-.015Zm-8.8,13.047c-4.515,2.1-7.641.409-8.489-.643a.623.623,0,0,1,.044-.818l.76-.833c.862-.95,3.682-.6,4.851-.6,1.242,0,2.177,1.052,2.864,1.782C364.333,215.039,364.377,215.7,364.026,215.857Z" transform="translate(-343.696 -180.496)" fill="#441982"/>
            </g>
          </g>
          <g id="Group_283" data-name="Group 283" transform="translate(161.518)">
            <path id="Path_739" data-name="Path 739" d="M299.306,439.074c-1.943-57.667-9.555-163.284-9.555-163.284H232.245s-7.612,105.618-9.555,163.284h16.363s18.584-124.041,22.178-135.393c3.609,11.352,21.711,135.393,21.711,135.393Z" transform="translate(-204.146 -140.229)" fill="#5725a5"/>
            <path id="Path_740" data-name="Path 740" d="M282.022,439.074h-5.128L260.18,275.79h12.273C272.467,275.79,280.079,381.408,282.022,439.074Z" transform="translate(-186.862 -140.229)" fill="#5725a5"/>
            <path id="Path_741" data-name="Path 741" d="M282.022,439.074h-5.128L260.18,275.79h12.273C272.467,275.79,280.079,381.408,282.022,439.074Z" transform="translate(-186.862 -140.229)" fill="#441982" opacity="0.35"/>
            <path id="Path_742" data-name="Path 742" d="M230.368,387.565c-3.521,7.057-19.987,10.49-19.987,10.49a4.531,4.531,0,0,0,.643,4.734c1.855,2.659,19.154,1.2,21.331.73a7.57,7.57,0,0,0,3.682-2.206,12.173,12.173,0,0,0,2.25,1.987c.8.394,5.23-.453,5.23-.453,1.067-2.805.117-13.573-.161-15.3H230.368Z" transform="translate(-209.998 -88.705)" fill="#441982"/>
            <path id="Path_743" data-name="Path 743" d="M278.015,387.565c3.521,7.057,19.987,10.49,19.987,10.49a4.531,4.531,0,0,1-.643,4.734c-1.856,2.659-19.154,1.2-21.331.73a7.569,7.569,0,0,1-3.682-2.206,12.173,12.173,0,0,1-2.25,1.987c-.8.394-5.23-.453-5.23-.453-1.067-2.805-.117-13.573.161-15.3h12.988Z" transform="translate(-184.93 -88.705)" fill="#441982"/>
            <g id="Group_281" data-name="Group 281" transform="translate(2.676 43.063)">
              <path id="Path_744" data-name="Path 744" d="M267.051,213.62l-3.9-1.14H249.387l-3.9,1.14-9.716,91.036h41Z" transform="translate(-200.792 -212.48)" fill="#fff"/>
              <path id="Path_745" data-name="Path 745" d="M256.523,213.26s-24.136,6.721-28.022,12.316c-3.638,5.23-17.562,33.793-16.626,50.814a3.179,3.179,0,0,0,3.579,2.981l18.394-4.062L227.2,312s18.949,3.813,29.644,3.156Z" transform="translate(-211.829 -212.12)" fill="#7327cc"/>
              <path id="Path_746" data-name="Path 746" d="M257.235,213.26s24.136,6.721,28.022,12.316c3.638,5.23,17.927,32.654,17.006,49.675a3.179,3.179,0,0,1-3.58,2.981L279.91,275.31,286.558,312s-18.8,4.3-29.5,3.638Z" transform="translate(-190.977 -212.12)" fill="#7327cc"/>
              <path id="Path_747" data-name="Path 747" d="M258.578,220.125l-6.75-3.755-6.268,3.755,4,5.523s-3.828,56.439-3.974,62.473c-.015.906,2.367,3.857,4.544,6.355.6.687,1.183,1.344,1.695,1.914.511-.57,1.1-1.227,1.695-1.914,2.177-2.5,4.558-5.45,4.544-6.355-.146-6.034-3.536-62.254-3.536-62.254Z" transform="translate(-196.278 -210.687)" fill="#ba95f4"/>
              <path id="Path_748" data-name="Path 748" d="M230.4,262.9l56.863-9.555L284.18,240.15l-64.87,6.312Z" transform="translate(-208.38 -199.723)" fill="#7327cc"/>
              <path id="Path_749" data-name="Path 749" d="M265.931,251.94s8.313-2.7,11.118-2.265,1.5-9.234-13.339-9.526Z" transform="translate(-187.911 -199.723)" fill="#ffa683"/>
              <path id="Path_750" data-name="Path 750" d="M246.212,243.7a16.153,16.153,0,0,0-12.229-4.3c-4.12.351-7.2,6.151-7.2,6.151Z" transform="translate(-204.937 -200.092)" fill="#ffa683"/>
              <path id="Path_751" data-name="Path 751" d="M225.18,270.784l25.29-17.664-22.777,3.8Z" transform="translate(-205.674 -193.744)" fill="#441982" opacity="0.35"/>
              <path id="Path_752" data-name="Path 752" d="M228.218,248.086l-4.558-.117,9.234-14.1Z" transform="translate(-206.375 -202.619)" fill="#441982" opacity="0.35"/>
              <path id="Path_753" data-name="Path 753" d="M273.186,252.122s4.719.088,5.216-.657-5.932-16.524-5.932-16.524S277.218,250.778,273.186,252.122Z" transform="translate(-183.872 -202.125)" fill="#441982" opacity="0.35"/>
              <path id="Path_754" data-name="Path 754" d="M286.53,293.67l-3.755-20.776h0L279.9,256.984,257.12,253.01V254.3l16.729,12.112,4.953,28.811C283.3,294.4,286.53,293.67,286.53,293.67Z" transform="translate(-190.949 -193.795)" fill="#441982" opacity="0.35"/>
            </g>
            <path id="Path_755" data-name="Path 755" d="M257.763,294.86h0a17.532,17.532,0,0,0-6.034,10.446L229.96,430.282H235.7S251.013,325.936,257.763,294.86Z" transform="translate(-200.795 -131.438)" fill="#441982"/>
            <g id="Group_282" data-name="Group 282" transform="translate(42.125)">
              <path id="Path_756" data-name="Path 756" d="M257.7,215.754l-5.756,3.492-6.122-3.492V204.27H257.7Z" transform="translate(-235.608 -173.202)" fill="#ffa683"/>
              <path id="Path_757" data-name="Path 757" d="M239.867,204.84s-2.381-8.883.073-13.368,6.6-9.453,10.665-6.648c0,0,2.44-3.2,11.045-1.11s12.857,2.162,15.925.555.731,14.2-5.64,15.122c0,0-.511,4.135-1.768,5.6s-16.656,2.235-16.656,2.235Z" transform="translate(-238.83 -183.005)" fill="#441982"/>
              <path id="Path_758" data-name="Path 758" d="M250.883,190.073c-.438-.5-1.315,1.666-3.375,3.448a24.558,24.558,0,0,1-5.7,3.492v8.576s1.782,11.644,12.258,11.644c8.649,0,11.747-11.6,11.747-11.6V195.6C265.8,195.6,255.5,195.216,250.883,190.073Z" transform="translate(-237.456 -179.78)" fill="#ffa683"/>
              <path id="Path_759" data-name="Path 759" d="M257.694,207.4v2.352a9.126,9.126,0,0,1-5.479,1.812,11.164,11.164,0,0,1-6.385-1.856V207.36a11.165,11.165,0,0,0,6.385,1.856A9.256,9.256,0,0,0,257.694,207.4Z" transform="translate(-235.603 -171.777)" fill="#f48260"/>
              <path id="Path_760" data-name="Path 760" d="M247.837,199.979a4.179,4.179,0,0,0-8.357,0,5.446,5.446,0,0,0,4.851,4.88C246.639,204.858,247.837,202.287,247.837,199.979Z" transform="translate(-238.531 -177.107)" fill="#ffa683"/>
              <path id="Path_761" data-name="Path 761" d="M255.5,199.979a4.179,4.179,0,1,1,8.357,0,5.446,5.446,0,0,1-4.851,4.88C256.7,204.858,255.5,202.287,255.5,199.979Z" transform="translate(-231.145 -177.107)" fill="#ffa683"/>
            </g>
          </g>
          <g id="Group_293" data-name="Group 293" transform="translate(0 2.733)">
            <g id="Group_284" data-name="Group 284" transform="translate(20.81 200.882)">
              <path id="Path_762" data-name="Path 762" d="M147.761,389.58v9.453a4.179,4.179,0,0,1-3.945,4.383H115.239c-1.534,0-2.133-2.221-.847-3.156,3.769-2.717,16.276-6.6,20.235-9.307Z" transform="translate(-113.69 -291.385)" fill="#7327cc"/>
              <path id="Path_763" data-name="Path 763" d="M149.679,326.359c-1.885,25.261-6.911,91.256-8.211,94.952-1.607,4.588-14.245,2.133-13.441.818.278-.468,2.674-.731,4.339-4.368.526-1.11.336-8.079.248-9.292-.8-11.191-4.88-68.756-6.034-86.1A109.109,109.109,0,0,0,149.679,326.359Z" transform="translate(-107.747 -322.37)" fill="#ffa683"/>
            </g>
            <g id="Group_285" data-name="Group 285" transform="translate(66.599 201.861)">
              <path id="Path_764" data-name="Path 764" d="M150.4,389.58v9.453a4.179,4.179,0,0,0,3.945,4.383h28.578c1.534,0,2.133-2.221.847-3.156-3.769-2.717-16.276-6.6-20.235-9.307Z" transform="translate(-142.554 -292.363)" fill="#7327cc"/>
              <path id="Path_765" data-name="Path 765" d="M166.668,421.82c.789,1.315-11.834,3.769-13.441-.818-1.286-3.7-6.312-69.472-8.2-94.821a73.579,73.579,0,0,0,23.026-3.141c-1.242,18.423-5.2,74.132-5.976,85.119-.073,1.213-.263,8.182.248,9.292C163.979,421.075,166.39,421.352,166.668,421.82Z" transform="translate(-145.03 -323.04)" fill="#ffa683"/>
            </g>
            <path id="Path_766" data-name="Path 766" d="M123.3,270.4l.219.321-1.315,2.761C122.58,272.358,122.945,271.335,123.3,270.4Z" transform="translate(-88.957 -145.447)" fill="#ba95f4"/>
            <path id="Path_767" data-name="Path 767" d="M129.45,224.05" transform="translate(-85.614 -166.816)" fill="#ba95f4"/>
            <g id="Group_286" data-name="Group 286" transform="translate(26.427 117.545)">
              <path id="Path_768" data-name="Path 768" d="M191.573,345c-31.646,17.532-71.488,0-71.488,0a136.676,136.676,0,0,1,4.237-69.136l.029-.044c.365-1.11.745-2.148,1.1-3.083a68.714,68.714,0,0,1,3.054-7.13h.029c1.709,1.125,22.923,14.406,51.823,0h.555l-.029-.058a.7.7,0,0,1-.073-.175c-.015-.015-.015-.029-.029-.044h.19C195.766,302.908,191.573,345,191.573,345Z" transform="translate(-117.535 -265.33)" fill="#ffb147"/>
              <path id="Path_769" data-name="Path 769" d="M174.392,345a61.45,61.45,0,0,1-17.678,6.37c7.714-20.747.672-67.222-1.914-82.256a67.662,67.662,0,0,0,8.357-3.492h.555l-.029-.058a.7.7,0,0,1-.073-.175c-.015-.015-.015-.029-.029-.044h.19C178.585,302.9,174.392,345,174.392,345Z" transform="translate(-100.355 -265.325)" fill="#441982" opacity="0.35"/>
            </g>
            <path id="Path_770" data-name="Path 770" d="M149.683,326.363c-1.885,25.247-6.911,91.256-8.211,94.952a4.061,4.061,0,0,1-3.17,2.308c5.026-16.758,4.573-95.142,4.573-95.142-5.245.175-11.776-2.469-16.217-4.442-.117-1.885.015-.292-.088-1.68A108.249,108.249,0,0,0,149.683,326.363Z" transform="translate(-86.942 -121.492)" fill="#f48260"/>
            <path id="Path_771" data-name="Path 771" d="M162.314,417.451c-.511-1.11-.321-8.079-.248-9.292.789-10.987,4.734-66.7,5.976-85.119-.935.292-1.87.541-2.791.789-.5.132-.993.248-1.49.38-.541.131-1.081.248-1.622.365a75.911,75.911,0,0,1-17.109,1.607c.044.6.088,1.227.146,1.87a134.973,134.973,0,0,0,15.94-.847c-.76,14.347-4.412,87.179-1.885,92.074.716,1.417,2.951,2.63,5.815,3.638,1.169-.351,1.855-.774,1.651-1.11C166.39,421.352,163.979,421.075,162.314,417.451Z" transform="translate(-78.431 -121.179)" fill="#f48260"/>
            <g id="Group_290" data-name="Group 290" transform="translate(0 39.602)">
              <path id="Path_772" data-name="Path 772" d="M192.992,220.059s4.967-7.816,6.443-8.065-.248,3.346-.248,3.346,5.464-3.287,9.365-2.294-8.2,6.867-9.745,10.592C198.822,223.653,192.744,220.059,192.992,220.059Z" transform="translate(-56.323 -211.982)" fill="#ffa683"/>
              <path id="Path_773" data-name="Path 773" d="M130.633,277.192c0-.628-6-5.625-6.414-5.873-.058-.073-.1-.161-.161-.248l-3.828,7.977s9.234,7.758,10.154,7c.628-.526-1.578-3.989-3.185-8.693C128.792,277.163,130.633,277.645,130.633,277.192Z" transform="translate(-89.865 -184.74)" fill="#ffa683"/>
              <g id="Group_289" data-name="Group 289" transform="translate(0 7.23)">
                <path id="Path_774" data-name="Path 774" d="M191.262,251.688a15.373,15.373,0,0,1,1.695,7.714,10.235,10.235,0,0,1-3.156,6.633,11.138,11.138,0,0,0-1.037,1.183c-.073.088-.146.19-.219.292-5.552,7.568-.292,18.526.57,20.191.044.073.058.117.088.161a.16.16,0,0,0,.029.058h-.555c-28.9,14.42-50.1,1.14-51.823,0h-.117a.16.16,0,0,0,.029-.058c.482-.891,6.443-12.463.657-20.352a11.685,11.685,0,0,0-1.256-1.461c-4.631-4.646-3.346-12.083-1.417-16.115l-16.042,22.6,15.268,22.836-4.427,9.321S99,275.751,99.452,273.618s24.443-44.605,32.376-50.259,23.829-6.414,23.829-6.414h11.615s11.834-.614,21.579,6.268l20.177,20.118,26.328-25.962,7,4.237s-23.785,32.216-32.245,41.873a3.817,3.817,0,0,1-5.435.321Z" transform="translate(-99.447 -216.93)" fill="#ba95f4"/>
                <path id="Path_775" data-name="Path 775" d="M184.706,259.749c-4.982,3.828-26.021-22.894-22.646-17.036s-2.615,13.485-7.992,26.576c-4.631,11.323.219,18.906,1.636,20.761a69.432,69.432,0,0,0,8.708-3.609h.555a.16.16,0,0,1-.029-.058.932.932,0,0,0-.088-.161c-.862-1.666-6.122-12.623-.57-20.191.073-.1.146-.19.219-.292a13.069,13.069,0,0,1,1.037-1.183,10.3,10.3,0,0,0,3.156-6.633A15.372,15.372,0,0,0,167,250.208l13.412,12.1a3.816,3.816,0,0,0,5.435-.321c8.459-9.643,32.245-41.873,32.245-41.873C218.017,219.717,190.272,255.453,184.706,259.749Z" transform="translate(-75.168 -215.466)" fill="#976cea"/>
                <g id="Group_287" data-name="Group 287" transform="translate(15.082 21.564)">
                  <path id="Path_776" data-name="Path 776" d="M130.005,243.115s2.951-9.234,4.894-11.425c0,0-23.961,30.638-25.086,34.13s19.432,22.734,19.432,22.734l-15.268-22.836Z" transform="translate(-109.77 -231.69)" fill="#976cea"/>
                  <path id="Path_777" data-name="Path 777" d="M124.04,239.51a18.62,18.62,0,0,0-1.33,3.974Z" transform="translate(-103.804 -228.085)" fill="#976cea"/>
                </g>
                <g id="Group_288" data-name="Group 288" transform="translate(0.063 0.35)" opacity="0.25">
                  <path id="Path_778" data-name="Path 778" d="M159.408,217.17h-21.36a75.38,75.38,0,0,0-8.9,1.563h37.183A40.417,40.417,0,0,0,159.408,217.17Z" transform="translate(-85.816 -217.17)" fill="#fff"/>
                  <path id="Path_779" data-name="Path 779" d="M192.969,217.21l-1.519,1.5h3.989Z" transform="translate(-57.094 -217.152)" fill="#fff"/>
                  <path id="Path_780" data-name="Path 780" d="M199.749,222.7H187.433l-1.593,1.563h12.74C199,223.694,199.384,223.182,199.749,222.7Z" transform="translate(-59.68 -214.621)" fill="#fff"/>
                  <path id="Path_781" data-name="Path 781" d="M181.932,222.7H120.583c-.438.468-.891.979-1.373,1.563h64.3Z" transform="translate(-90.399 -214.621)" fill="#fff"/>
                  <path id="Path_782" data-name="Path 782" d="M196.3,228.22H181.823l-1.592,1.563h14.888C195.527,229.257,195.921,228.731,196.3,228.22Z" transform="translate(-62.267 -212.076)" fill="#fff"/>
                  <path id="Path_783" data-name="Path 783" d="M191.916,228.22H116.191c-.351.511-.716,1.037-1.081,1.563h78.384Z" transform="translate(-92.289 -212.076)" fill="#fff"/>
                  <path id="Path_784" data-name="Path 784" d="M201.694,233.75h-89.21c-.336.511-.657,1.037-.993,1.563h91.767Z" transform="translate(-93.958 -209.526)" fill="#fff"/>
                  <path id="Path_785" data-name="Path 785" d="M192.8,233.75H176.213l-1.593,1.563H191.6C192.006,234.787,192.4,234.276,192.8,233.75Z" transform="translate(-64.853 -209.526)" fill="#fff"/>
                  <path id="Path_786" data-name="Path 786" d="M130.789,239.616c-.175.38-.351.789-.511,1.227h85.806c.395-.511.8-1.037,1.213-1.563H109.02c-.321.526-.628,1.037-.95,1.563h21.857Z" transform="translate(-95.534 -206.977)" fill="#fff"/>
                  <path id="Path_787" data-name="Path 787" d="M126.813,244.8h-21.1c-.307.526-.614,1.052-.906,1.563H125.7Z" transform="translate(-97.037 -204.432)" fill="#fff"/>
                  <path id="Path_788" data-name="Path 788" d="M168.559,246.363H182.6c.409-.5.833-1.023,1.256-1.563H166.82Z" transform="translate(-68.449 -204.432)" fill="#fff"/>
                  <path id="Path_789" data-name="Path 789" d="M122.508,246.363H182.38a11.145,11.145,0,0,0-.015-1.563H122.42A13.815,13.815,0,0,0,122.508,246.363Z" transform="translate(-88.919 -204.432)" fill="#fff"/>
                  <path id="Path_790" data-name="Path 790" d="M122.519,250.33H102.532c-.307.541-.584,1.067-.862,1.563h19.738Z" transform="translate(-98.485 -201.882)" fill="#fff"/>
                  <path id="Path_791" data-name="Path 791" d="M124.678,250.637a12.486,12.486,0,0,1,1.1,1.257h51.443c.015-.029.044-.044.058-.073a13.074,13.074,0,0,1,1.037-1.183c.1-.1.19-.2.278-.307H124.4C124.488,250.432,124.575,250.535,124.678,250.637Z" transform="translate(-88.006 -201.882)" fill="#fff"/>
                  <path id="Path_792" data-name="Path 792" d="M119.564,255.86H99.49a6.183,6.183,0,0,0,.993,1.563H120.6Z" transform="translate(-99.49 -199.333)" fill="#fff"/>
                  <path id="Path_793" data-name="Path 793" d="M127.192,257.423H173.3a14.074,14.074,0,0,1,.117-1.563H127.09C127.148,256.371,127.178,256.9,127.192,257.423Z" transform="translate(-86.766 -199.333)" fill="#fff"/>
                  <path id="Path_794" data-name="Path 794" d="M126.25,262.943h48.769c-.161-.5-.321-1.023-.468-1.563H126.718C126.571,261.935,126.411,262.461,126.25,262.943Z" transform="translate(-87.153 -196.788)" fill="#fff"/>
                  <path id="Path_795" data-name="Path 795" d="M122.789,261.38h-18.6c.482.511.993,1.037,1.519,1.563h18.131Z" transform="translate(-97.323 -196.788)" fill="#fff"/>
                  <path id="Path_796" data-name="Path 796" d="M131.375,268.473h35.664c1.373-.453,2.761-.979,4.164-1.563H127.62C128.657,267.407,129.928,267.947,131.375,268.473Z" transform="translate(-86.521 -194.239)" fill="#fff"/>
                  <path id="Path_797" data-name="Path 797" d="M125.673,266.91H109.66c.526.526,1.052,1.037,1.578,1.563H126.71Z" transform="translate(-94.801 -194.239)" fill="#fff"/>
                  <path id="Path_798" data-name="Path 798" d="M125.416,272.44h-10.1c.57.541,1.11,1.067,1.622,1.563h7.743Z" transform="translate(-92.192 -191.689)" fill="#fff"/>
                </g>
              </g>
            </g>
            <g id="Group_292" data-name="Group 292" transform="translate(41.875)">
              <g id="Group_291" data-name="Group 291" transform="translate(5.467 17.272)">
                <path id="Path_799" data-name="Path 799" d="M148.785,220.69l-5.347,3.258-5.7-3.258V210.01h11.045Z" transform="translate(-129.135 -190.561)" fill="#ffa683"/>
                <path id="Path_800" data-name="Path 800" d="M145.72,212.91v6.443l-1.33.8c.044-.278.1-.541.146-.8C145.062,216.416,145.515,214.123,145.72,212.91Z" transform="translate(-126.069 -189.224)" fill="#ffa683"/>
                <path id="Path_801" data-name="Path 801" d="M151.125,201.16v8.079s-1.622,6.063-5.815,9.088C145.909,214.908,150.409,204.827,151.125,201.16Z" transform="translate(-125.645 -194.641)" fill="#ffa683"/>
                <path id="Path_802" data-name="Path 802" d="M148.785,212.924v2.192a8.563,8.563,0,0,1-5.1,1.68,10.35,10.35,0,0,1-5.946-1.724V212.88a10.35,10.35,0,0,0,5.946,1.724A8.371,8.371,0,0,0,148.785,212.924Z" transform="translate(-129.135 -189.237)" fill="#f48260"/>
                <path id="Path_803" data-name="Path 803" d="M157.506,204.634c-.058,0-.117.015-.175.015v-2.688s-15.428.964-18.219-5.23c-.248-.57-4.105,6.545-4.105,6.545v1.432a3.876,3.876,0,0,0-3.156,3.813,5.169,5.169,0,0,0,3.565,4.383c.906,3.024,3.653,9.175,11,9.175,5.99,0,9.117-5.99,10.315-9.044.058,0,.1.029.161.029a5.058,5.058,0,0,0,4.515-4.529A3.91,3.91,0,0,0,157.506,204.634Z" transform="translate(-131.85 -196.698)" fill="#ffa683"/>
              </g>
              <path id="Path_804" data-name="Path 804" d="M158.413,218.573c.015-.029.132-.058.19-.058a5.071,5.071,0,0,0,4.515-4.529,3.885,3.885,0,0,0-3.886-3.886c-.058,0-.117.015-.175.015V207.44s-15.428.964-18.219-5.23c-.248-.57-4.105,6.545-4.105,6.545v1.417A3.892,3.892,0,0,0,133.575,214a5.151,5.151,0,0,0,3.565,4.368,13.748,13.748,0,0,0,5.055,7.451v4.515c-18.555-11.162-16.407-35.474-7.13-40.061,4.164-2.045,6.18-.38,6.18-.38,14.537-12.8,26.342,2.25,29.893,7.992,4.865,7.86,24.531,59.347,4.12,66.272-37.344,12.682-25.6-34.6-22.018-38.279C156.294,222.693,158.091,219.9,158.413,218.573Z" transform="translate(-128.108 -184.876)" fill="#441982"/>
            </g>
          </g>
        </g>
      </g>
    </g>
  </g>
</svg>
