<svg id="Group_925" data-name="Group 925" xmlns="http://www.w3.org/2000/svg" xmlns:xlink="http://www.w3.org/1999/xlink" width="550.735" height="543.87" viewBox="0 0 550.735 543.87">
  <defs>
    <clipPath id="clip-path">
      <rect id="Rectangle_520" data-name="Rectangle 520" width="550.735" height="543.87" fill="none"/>
    </clipPath>
    <clipPath id="clip-path-4">
      <rect id="Rectangle_481" data-name="Rectangle 481" width="36.361" height="44.838" fill="none"/>
    </clipPath>
    <clipPath id="clip-path-5">
      <rect id="Rectangle_482" data-name="Rectangle 482" width="27.014" height="35.74" fill="none"/>
    </clipPath>
    <clipPath id="clip-path-6">
      <rect id="Rectangle_483" data-name="Rectangle 483" width="74.006" height="101.096" fill="none"/>
    </clipPath>
    <clipPath id="clip-path-7">
      <rect id="Rectangle_484" data-name="Rectangle 484" width="38.712" height="13.372" fill="none"/>
    </clipPath>
    <clipPath id="clip-path-9">
      <rect id="Rectangle_486" data-name="Rectangle 486" width="9.953" height="10.731" fill="none"/>
    </clipPath>
    <clipPath id="clip-path-10">
      <rect id="Rectangle_487" data-name="Rectangle 487" width="38.157" height="16.769" fill="none"/>
    </clipPath>
    <clipPath id="clip-path-11">
      <rect id="Rectangle_488" data-name="Rectangle 488" width="8.395" height="10.808" fill="none"/>
    </clipPath>
    <clipPath id="clip-path-12">
      <rect id="Rectangle_489" data-name="Rectangle 489" width="15.032" height="8.385" fill="none"/>
    </clipPath>
    <clipPath id="clip-path-13">
      <rect id="Rectangle_490" data-name="Rectangle 490" width="7.585" height="23.793" fill="none"/>
    </clipPath>
    <clipPath id="clip-path-14">
      <rect id="Rectangle_491" data-name="Rectangle 491" width="31.259" height="45.812" fill="none"/>
    </clipPath>
    <clipPath id="clip-path-15">
      <rect id="Rectangle_492" data-name="Rectangle 492" width="17.099" height="29.598" fill="none"/>
    </clipPath>
    <clipPath id="clip-path-16">
      <rect id="Rectangle_493" data-name="Rectangle 493" width="155.811" height="151.016" fill="none"/>
    </clipPath>
    <clipPath id="clip-path-17">
      <rect id="Rectangle_494" data-name="Rectangle 494" width="28.464" height="30.099" fill="none"/>
    </clipPath>
    <clipPath id="clip-path-18">
      <rect id="Rectangle_495" data-name="Rectangle 495" width="28.463" height="30.099" fill="none"/>
    </clipPath>
    <clipPath id="clip-path-19">
      <rect id="Rectangle_496" data-name="Rectangle 496" width="101.264" height="138.779" fill="none"/>
    </clipPath>
    <clipPath id="clip-path-21">
      <rect id="Rectangle_498" data-name="Rectangle 498" width="1.191" height="2.178" fill="none"/>
    </clipPath>
    <clipPath id="clip-path-22">
      <rect id="Rectangle_499" data-name="Rectangle 499" width="34.557" height="15.047" fill="none"/>
    </clipPath>
    <clipPath id="clip-path-23">
      <rect id="Rectangle_500" data-name="Rectangle 500" width="22.801" height="11.727" fill="none"/>
    </clipPath>
    <clipPath id="clip-path-24">
      <rect id="Rectangle_501" data-name="Rectangle 501" width="8.538" height="3.553" fill="none"/>
    </clipPath>
    <clipPath id="clip-path-25">
      <rect id="Rectangle_502" data-name="Rectangle 502" width="4.21" height="4.192" fill="none"/>
    </clipPath>
    <clipPath id="clip-path-26">
      <rect id="Rectangle_503" data-name="Rectangle 503" width="64.249" height="64.266" fill="none"/>
    </clipPath>
    <clipPath id="clip-path-27">
      <rect id="Rectangle_504" data-name="Rectangle 504" width="35.619" height="23.672" fill="none"/>
    </clipPath>
    <clipPath id="clip-path-28">
      <rect id="Rectangle_505" data-name="Rectangle 505" width="13.871" height="7.369" fill="none"/>
    </clipPath>
    <clipPath id="clip-path-29">
      <rect id="Rectangle_506" data-name="Rectangle 506" width="19.647" height="20.982" fill="none"/>
    </clipPath>
    <clipPath id="clip-path-30">
      <rect id="Rectangle_507" data-name="Rectangle 507" width="19.263" height="23.547" fill="none"/>
    </clipPath>
    <clipPath id="clip-path-31">
      <rect id="Rectangle_508" data-name="Rectangle 508" width="111.918" height="111.736" fill="none"/>
    </clipPath>
    <clipPath id="clip-path-32">
      <rect id="Rectangle_509" data-name="Rectangle 509" width="6.825" height="7.899" fill="none"/>
    </clipPath>
    <clipPath id="clip-path-33">
      <rect id="Rectangle_510" data-name="Rectangle 510" width="37.356" height="21.913" fill="none"/>
    </clipPath>
    <clipPath id="clip-path-34">
      <rect id="Rectangle_511" data-name="Rectangle 511" width="7.395" height="8.768" fill="none"/>
    </clipPath>
    <clipPath id="clip-path-35">
      <rect id="Rectangle_512" data-name="Rectangle 512" width="3.136" height="7.584" fill="none"/>
    </clipPath>
    <clipPath id="clip-path-36">
      <rect id="Rectangle_513" data-name="Rectangle 513" width="72.049" height="71.67" fill="none"/>
    </clipPath>
    <clipPath id="clip-path-37">
      <rect id="Rectangle_514" data-name="Rectangle 514" width="6.342" height="8.841" fill="none"/>
    </clipPath>
    <clipPath id="clip-path-38">
      <rect id="Rectangle_515" data-name="Rectangle 515" width="61.22" height="20.67" fill="none"/>
    </clipPath>
    <clipPath id="clip-path-39">
      <rect id="Rectangle_516" data-name="Rectangle 516" width="10.182" height="13.495" fill="none"/>
    </clipPath>
    <clipPath id="clip-path-40">
      <rect id="Rectangle_517" data-name="Rectangle 517" width="28.445" height="16.384" fill="none"/>
    </clipPath>
    <clipPath id="clip-path-41">
      <rect id="Rectangle_518" data-name="Rectangle 518" width="95.484" height="95.639" fill="none"/>
    </clipPath>
  </defs>
  <g id="Group_924" data-name="Group 924" clip-path="url(#clip-path)">
    <rect id="Rectangle_479" data-name="Rectangle 479" width="13.789" height="0.397" transform="translate(395.53 516.09)" fill="#ebebeb"/>
    <g id="Group_808" data-name="Group 808">
      <g id="Group_807" data-name="Group 807" clip-path="url(#clip-path)">
        <path id="Path_1246" data-name="Path 1246" d="M324.778,165.263c45.836,88.787,25.082,190.658-46.356,227.537S111.916,387.6,66.08,298.815,41,108.155,112.435,71.276s166.507,5.2,212.343,93.986" transform="translate(24.459 33.948)" fill="#e0e0e0"/>
        <path id="Path_1247" data-name="Path 1247" d="M295.284,162.424c37,71.662,20.244,153.889-37.415,183.655s-134.394-4.2-171.391-75.859S66.234,116.331,123.894,86.563s134.394,4.2,171.391,75.861" transform="translate(39.17 44.42)" fill="#fff"/>
        <path id="Path_1248" data-name="Path 1248" d="M270.9,159.957c29.63,57.395,16.214,123.247-29.965,147.086s-107.634-3.36-137.264-60.754S87.458,123.042,133.637,99.2s107.634,3.361,137.264,60.756" transform="translate(51.542 53.087)" fill="#e0e0e0"/>
        <path id="Path_1249" data-name="Path 1249" d="M243.591,159.418c22.755,44.075,13.584,94.064-20.482,111.652s-80.129-3.888-102.883-47.962-13.584-94.066,20.482-111.653,80.129,3.886,102.883,47.963" transform="translate(63.146 61.733)" fill="#fff"/>
        <path id="Path_1250" data-name="Path 1250" d="M220.792,159.487c16.227,31.43,10.555,66.626-12.666,78.613s-55.2-3.774-71.424-35.2-10.555-66.626,12.666-78.613,55.2,3.772,71.424,35.2" transform="translate(74.71 70.5)" fill="#e0e0e0"/>
        <path id="Path_1251" data-name="Path 1251" d="M204.826,158.342c11.72,22.7,8.467,47.686-7.262,55.805s-37.983-3.7-49.7-26.4-8.469-47.686,7.262-55.805,37.983,3.7,49.7,26.4" transform="translate(82.55 75.841)" fill="#fff"/>
        <path id="Path_1252" data-name="Path 1252" d="M312.962,63.114l-42.27,21.823-3.139,41.517,35.664,21.485,42.27-21.823L309.13,104.989Z" transform="translate(156.836 36.996)" fill="#e0e0e0"/>
        <path id="Path_1253" data-name="Path 1253" d="M171.327,204.984a7.886,7.886,0,0,1-4.663-14.823L373.622,83.317a7.885,7.885,0,0,1,7.233,14.012L173.9,204.173a7.842,7.842,0,0,1-2.57.811" transform="translate(95.193 48.324)" fill="#ebebeb"/>
        <path id="Path_1254" data-name="Path 1254" d="M318.167,169.5v7.319l3.769.355a19.562,19.562,0,0,0,2.811,6.759l-2.421,2.925,5.174,5.174,2.925-2.421a19.563,19.563,0,0,0,6.759,2.811l.355,3.769h7.319l.355-3.769a19.563,19.563,0,0,0,6.759-2.811l2.925,2.421,5.174-5.174-2.421-2.925a19.563,19.563,0,0,0,2.811-6.759l3.769-.355V169.5l-3.769-.355a19.563,19.563,0,0,0-2.811-6.759l2.421-2.925L354.9,154.29l-2.925,2.421a19.563,19.563,0,0,0-6.759-2.811l-.355-3.769h-7.319l-.355,3.769a19.563,19.563,0,0,0-6.759,2.811L327.5,154.29l-5.174,5.174,2.421,2.923a19.583,19.583,0,0,0-2.811,6.76Zm23.031-6.248a9.907,9.907,0,1,1-9.907,9.907,9.906,9.906,0,0,1,9.907-9.907" transform="translate(186.505 88.005)" fill="#e0e0e0"/>
        <path id="Path_1255" data-name="Path 1255" d="M319.349,193.473l2.1,1.74,3.718-3.718-1.738-2.1a14.034,14.034,0,0,0,2.019-4.857l2.708-.254v-5.258l-2.708-.255a14.034,14.034,0,0,0-2.019-4.857l1.738-2.1-3.718-3.72-2.1,1.74a14.046,14.046,0,0,0-4.857-2.019l-.255-2.708h-5.258l-.255,2.708a14.046,14.046,0,0,0-4.857,2.019l-2.1-1.74-3.718,3.72,1.738,2.1a14.05,14.05,0,0,0-2.019,4.857l-2.706.255v5.258l2.706.254a14.063,14.063,0,0,0,2.019,4.857l-1.738,2.1,3.718,3.718,2.1-1.74a14.048,14.048,0,0,0,4.857,2.021l.255,2.706h5.258l.255-2.708a14.015,14.015,0,0,0,4.857-2.019m-14.859-11.82a7.118,7.118,0,1,1,7.119,7.119,7.118,7.118,0,0,1-7.119-7.119" transform="translate(172.961 96.783)" fill="#e0e0e0"/>
        <path id="Path_1256" data-name="Path 1256" d="M333.656,218.815a16.71,16.71,0,0,0,5.782-2.4l2.5,2.07,4.427-4.427-2.072-2.5a16.7,16.7,0,0,0,2.4-5.782l3.223-.3v-6.259l-3.223-.3a16.7,16.7,0,0,0-2.4-5.782l2.072-2.5-4.427-4.427-2.5,2.072a16.714,16.714,0,0,0-5.782-2.4l-.3-3.223H327.09l-.3,3.223a16.7,16.7,0,0,0-5.782,2.4l-2.5-2.072-4.427,4.427,2.07,2.5a16.7,16.7,0,0,0-2.4,5.782l-3.223.3v6.259l3.223.3a16.719,16.719,0,0,0,2.4,5.783l-2.07,2.5,4.427,4.427,2.5-2.07a16.7,16.7,0,0,0,5.782,2.4l.3,3.223h6.261Zm-11.909-16.477a8.475,8.475,0,1,1,8.475,8.475,8.475,8.475,0,0,1-8.475-8.475" transform="translate(182.023 107.059)" fill="#e0e0e0"/>
        <path id="Path_1257" data-name="Path 1257" d="M18.22,54.894v7.319l3.769.355a19.584,19.584,0,0,0,2.811,6.76l-2.421,2.923,5.174,5.174,2.925-2.421a19.532,19.532,0,0,0,6.759,2.811l.355,3.769h7.319l.355-3.769a19.563,19.563,0,0,0,6.759-2.811l2.925,2.421,5.174-5.174L57.7,69.327a19.563,19.563,0,0,0,2.811-6.759l3.769-.355V54.894l-3.769-.355A19.563,19.563,0,0,0,57.7,47.78l2.421-2.925L54.95,39.681,52.025,42.1a19.563,19.563,0,0,0-6.759-2.811l-.355-3.769H37.592l-.355,3.769A19.563,19.563,0,0,0,30.478,42.1l-2.925-2.421-5.174,5.174L24.8,47.78a19.563,19.563,0,0,0-2.811,6.759Zm23.031-6.248a9.907,9.907,0,1,1-9.907,9.907,9.906,9.906,0,0,1,9.907-9.907" transform="translate(10.68 20.823)" fill="#e0e0e0"/>
        <path id="Path_1258" data-name="Path 1258" d="M44.154,282.829l2.1,1.74,3.72-3.718-1.74-2.1a14.034,14.034,0,0,0,2.019-4.857l2.708-.254v-5.258l-2.708-.255a14.033,14.033,0,0,0-2.019-4.857l1.74-2.1-3.72-3.72-2.1,1.74A14.037,14.037,0,0,0,39.3,257.17l-.257-2.708H33.784l-.255,2.708a14.045,14.045,0,0,0-4.857,2.019l-2.1-1.74-3.716,3.72,1.737,2.1a14.051,14.051,0,0,0-2.019,4.857l-2.708.255v5.258l2.708.254a14.064,14.064,0,0,0,2.019,4.857l-1.737,2.1,3.716,3.718,2.1-1.74a14.015,14.015,0,0,0,4.857,2.019l.255,2.708h5.258l.257-2.708a14.008,14.008,0,0,0,4.855-2.019m-14.859-11.82a7.118,7.118,0,1,1,7.12,7.119,7.119,7.119,0,0,1-7.12-7.119" transform="translate(11.645 149.162)" fill="#e0e0e0"/>
        <path id="Path_1259" data-name="Path 1259" d="M339.932,62.731l2.1,1.74,3.718-3.718-1.738-2.1a14.033,14.033,0,0,0,2.019-4.857l2.708-.254V48.283l-2.708-.255a14.033,14.033,0,0,0-2.019-4.857l1.738-2.1-3.718-3.72-2.1,1.74a14.046,14.046,0,0,0-4.857-2.019l-.255-2.708h-5.258l-.255,2.708a14.047,14.047,0,0,0-4.857,2.019l-2.1-1.74-3.718,3.72,1.738,2.1a14.052,14.052,0,0,0-2.019,4.857l-2.708.255v5.258l2.708.254a14.065,14.065,0,0,0,2.019,4.857l-1.738,2.1,3.718,3.718,2.1-1.74a14.016,14.016,0,0,0,4.857,2.019l.255,2.708h5.258l.255-2.708a14.016,14.016,0,0,0,4.857-2.019m-14.859-11.82a7.118,7.118,0,1,1,7.119,7.119,7.118,7.118,0,0,1-7.119-7.119" transform="translate(185.026 20.144)" fill="#e0e0e0"/>
        <path id="Path_1260" data-name="Path 1260" d="M24.29,188.986l2.1,1.74,3.716-3.718-1.738-2.1a14.067,14.067,0,0,0,2.021-4.857L33.1,179.8v-5.258l-2.708-.255a14.054,14.054,0,0,0-2.021-4.857l1.738-2.1-3.716-3.72-2.1,1.74a14.067,14.067,0,0,0-4.858-2.019l-.254-2.708h-5.26l-.255,2.706a14.105,14.105,0,0,0-4.857,2.021l-2.1-1.74-3.716,3.72,1.738,2.1a14.051,14.051,0,0,0-2.019,4.857L0,174.538V179.8l2.709.254a14.064,14.064,0,0,0,2.019,4.857l-1.738,2.1,3.716,3.718,2.1-1.74a14.071,14.071,0,0,0,4.857,2.019l.255,2.708h5.26l.254-2.708a14.067,14.067,0,0,0,4.858-2.019M9.429,177.166a7.119,7.119,0,1,1,7.119,7.119,7.119,7.119,0,0,1-7.119-7.119" transform="translate(-0.001 94.153)" fill="#e0e0e0"/>
        <path id="Path_1261" data-name="Path 1261" d="M195.626,34.66l-2.716.254,0,5.26,2.714.255a14.067,14.067,0,0,0,2.007,4.862l-1.734,2.1,3.718,3.718,2.1-1.734a13.991,13.991,0,0,0,4.862,2l.255,2.716h5.258l.257-2.714a14.111,14.111,0,0,0,4.862-2.007l2.1,1.734,3.716-3.718-1.734-2.1a14.037,14.037,0,0,0,2.007-4.862l2.716-.255V34.916l-2.716-.257a14.049,14.049,0,0,0-2.007-4.862l1.734-2.094-3.718-3.72-2.094,1.735a14.049,14.049,0,0,0-4.862-2.007L212.087,21h-5.258l-.255,2.716a14.037,14.037,0,0,0-4.862,2.007l-2.1-1.735L195.9,27.7l1.735,2.094a14.047,14.047,0,0,0-2.008,4.863m18.866-2.149a7.118,7.118,0,1,1-10.068,0,7.116,7.116,0,0,1,10.068,0" transform="translate(113.081 12.308)" fill="#e0e0e0"/>
        <path id="Path_1262" data-name="Path 1262" d="M66.359,310.873a16.729,16.729,0,0,0,5.782-2.4l2.5,2.07,4.427-4.427L77,303.611a16.7,16.7,0,0,0,2.4-5.782l3.223-.3v-6.259l-3.223-.3A16.7,16.7,0,0,0,77,285.18l2.072-2.5-4.427-4.426-2.5,2.07a16.668,16.668,0,0,0-5.782-2.4l-.3-3.225H59.793l-.3,3.225a16.668,16.668,0,0,0-5.782,2.4l-2.5-2.07-4.427,4.426,2.07,2.5a16.729,16.729,0,0,0-2.4,5.782l-3.223.3v6.259l3.223.3a16.75,16.75,0,0,0,2.4,5.783l-2.07,2.5,4.427,4.427,2.5-2.07a16.729,16.729,0,0,0,5.782,2.4l.3,3.225h6.261ZM54.449,294.4a8.475,8.475,0,1,1,8.475,8.475,8.475,8.475,0,0,1-8.475-8.475" transform="translate(25.337 161.023)" fill="#e0e0e0"/>
        <path id="Path_1263" data-name="Path 1263" d="M215.409,13.787a22,22,0,0,0-3.142,7.617l-4.254.4v8.237l4.254.4a22.014,22.014,0,0,0,3.142,7.617l-2.716,3.282,5.824,5.824,3.282-2.717a22.005,22.005,0,0,0,7.617,3.144l.4,4.254,8.237,0,.4-4.253a22.017,22.017,0,0,0,7.617-3.144l3.282,2.717,5.824-5.824-2.717-3.282a22.018,22.018,0,0,0,3.144-7.617l4.253-.4V21.8l-4.253-.4a22.005,22.005,0,0,0-3.144-7.617l2.717-3.282-5.824-5.824L246.072,7.4a22,22,0,0,0-7.617-3.144L238.054,0h-8.237l-.4,4.254A22,22,0,0,0,221.8,7.4l-3.282-2.716-5.824,5.824Zm26.412,4.251a11.151,11.151,0,1,1-15.77,0,11.152,11.152,0,0,1,15.77,0" transform="translate(121.935)" fill="#e0e0e0"/>
        <path id="Path_1264" data-name="Path 1264" d="M253.9,279.217a22,22,0,0,0-3.142,7.617l-4.254.4v8.239l4.254.4a22.014,22.014,0,0,0,3.142,7.617l-2.716,3.282,5.824,5.824,3.282-2.717a21.975,21.975,0,0,0,7.617,3.144l.4,4.254,8.237,0,.4-4.253a22,22,0,0,0,7.617-3.144l3.282,2.717,5.824-5.824-2.717-3.282a22.006,22.006,0,0,0,3.144-7.617l4.253-.4,0-8.237-4.254-.4a22.005,22.005,0,0,0-3.144-7.617l2.717-3.282-5.824-5.824-3.282,2.717a21.987,21.987,0,0,0-7.617-3.144l-.4-4.254h-8.237l-.4,4.254a22,22,0,0,0-7.617,3.142l-3.282-2.716-5.824,5.824Zm26.412,4.251a11.151,11.151,0,1,1-15.77,0,11.152,11.152,0,0,1,15.77,0" transform="translate(144.498 155.592)" fill="#e0e0e0"/>
        <path id="Path_1265" data-name="Path 1265" d="M136.312,152.942l12.575,2.641,15.887,27.46L152.2,180.4Z" transform="translate(79.904 89.652)" fill="#9a7ae5"/>
        <path id="Path_1266" data-name="Path 1266" d="M124.961,189.863l33.892-19.61,12.575,2.641-32.507,18.795Z" transform="translate(73.25 99.8)" fill="#b291f2"/>
        <path id="Path_1267" data-name="Path 1267" d="M124.961,189.863l33.892-19.61,12.575,2.641-32.507,18.795Z" transform="translate(73.25 99.8)" fill="#b291f2"/>
      </g>
    </g>
    <g id="Group_858" data-name="Group 858">
      <g id="Group_857" data-name="Group 857" clip-path="url(#clip-path)">
        <path id="Path_1268" data-name="Path 1268" d="M77.549,136.734c3.843,6.332,7.628,12.759,11.349,19.172,3.735,6.38,7.434,12.894,11.181,18.977l.176.285a1.065,1.065,0,0,0,.073.1.858.858,0,0,1,.084.155c.068.121.241.281.341.438l.557.535.706.581a24.512,24.512,0,0,0,3.8,2.3,74.729,74.729,0,0,0,9.492,3.873c6.708,2.275,13.881,4.215,20.923,5.934l-.833,7.768a125.98,125.98,0,0,1-23.127-2.2,72.675,72.675,0,0,1-11.741-3.239,38.09,38.09,0,0,1-6.107-2.911l-1.58-1.039c-.533-.4-1.068-.826-1.6-1.261-.542-.519-1.069-.983-1.6-1.581l-.782-.945-.354-.45-.216-.3c-2.333-3.161-4.489-6.272-6.584-9.431q-3.172-4.713-6.173-9.487c-4.035-6.359-7.894-12.772-11.609-19.331Z" transform="translate(37.476 80.152)" fill="#ffb573"/>
        <path id="Path_1269" data-name="Path 1269" d="M60.625,140.972c-2.064,10.117,19.91,35.715,19.91,35.715L96.85,164.647s-4.429-13.82-12.063-24.779c-8.04-11.543-21.869-10.144-24.162,1.1" transform="translate(35.457 77.287)" fill="#407bff"/>
        <g id="Group_811" data-name="Group 811" transform="translate(95.946 209.134)" opacity="0.5">
          <g id="Group_810" data-name="Group 810">
            <g id="Group_809" data-name="Group 809" clip-path="url(#clip-path-4)">
              <path id="Path_1270" data-name="Path 1270" d="M60.625,140.972c-2.064,10.117,19.91,35.715,19.91,35.715L96.85,164.647s-4.429-13.82-12.063-24.779c-8.04-11.543-21.869-10.144-24.162,1.1" transform="translate(-60.488 -131.847)" fill="#fff"/>
            </g>
          </g>
        </g>
        <g id="Group_814" data-name="Group 814" transform="translate(95.922 218.234)" opacity="0.1">
          <g id="Group_813" data-name="Group 813">
            <g id="Group_812" data-name="Group 812" clip-path="url(#clip-path-5)">
              <path id="Path_1271" data-name="Path 1271" d="M60.48,138.864c3.919-2.57,8.853-1.562,14.674,5.685,5.75,7.176,11.473,19.929,12.334,23.652l-6.948,5.122S60.058,149.646,60.48,138.864" transform="translate(-60.473 -137.584)"/>
            </g>
          </g>
        </g>
        <path id="Path_1272" data-name="Path 1272" d="M90.114,132.156s17.118,30.545,13.494,92.367L46.4,232.482c-1.616-8.729-2.057-52.339-16.284-92.541a150.7,150.7,0,0,1,18.815-5.084c7.262-1.369,17.813-3.074,24.321-3.382a108.516,108.516,0,0,1,16.866.68" transform="translate(17.651 77.016)" fill="#407bff"/>
        <g id="Group_817" data-name="Group 817" transform="translate(47.763 208.396)" opacity="0.5">
          <g id="Group_816" data-name="Group 816">
            <g id="Group_815" data-name="Group 815" clip-path="url(#clip-path-6)">
              <path id="Path_1273" data-name="Path 1273" d="M103.616,224.531c-17.242,2.4-48.839,6.789-57.214,7.947-1.015-5.456-1.57-24.6-5.33-48.03-1-6.25-2.237-12.816-3.775-19.494a232.1,232.1,0,0,0-7.185-25.014,150.238,150.238,0,0,1,18.812-5.076c7.265-1.38,17.813-3.077,24.332-3.394a109.61,109.61,0,0,1,16.861.682s17.115,30.55,13.5,92.38" transform="translate(-30.111 -131.382)" fill="#fff"/>
            </g>
          </g>
        </g>
        <path id="Path_1274" data-name="Path 1274" d="M55.436,334.451l-14.019.222a1.011,1.011,0,0,0-.971.807l-2.113,10.312a1.7,1.7,0,0,0,1.345,2,1.661,1.661,0,0,0,.376.03c4.535-.144,7.833-.476,13.529-.565,3.509-.057,14.1.143,18.941.067s5.4-4.871,3.412-5.28c-8.927-1.8-15.662-4.378-18.55-6.887a2.788,2.788,0,0,0-1.949-.7" transform="translate(22.452 196.05)" fill="#263238"/>
        <path id="Path_1275" data-name="Path 1275" d="M135.957,334.451l-14.019.222a1.013,1.013,0,0,0-.971.807l-2.113,10.312a1.7,1.7,0,0,0,1.345,2,1.661,1.661,0,0,0,.376.03c4.535-.144,7.833-.476,13.529-.565,3.509-.057,14.1.143,18.941.067s5.4-4.871,3.412-5.28c-8.927-1.8-15.662-4.378-18.55-6.887a2.788,2.788,0,0,0-1.949-.7" transform="translate(69.653 196.05)" fill="#263238"/>
        <g id="Group_820" data-name="Group 820" transform="translate(60.754 530.499)" opacity="0.6">
          <g id="Group_819" data-name="Group 819">
            <g id="Group_818" data-name="Group 818" clip-path="url(#clip-path-7)">
              <path id="Path_1276" data-name="Path 1276" d="M55.436,334.451l-14.019.222a1.011,1.011,0,0,0-.971.807l-2.113,10.312a1.7,1.7,0,0,0,1.345,2,1.661,1.661,0,0,0,.376.03c4.535-.144,7.833-.476,13.529-.565,3.509-.057,14.1.143,18.941.067s5.4-4.871,3.412-5.28c-8.927-1.8-15.662-4.378-18.55-6.887a2.788,2.788,0,0,0-1.949-.7" transform="translate(-38.302 -334.449)" fill="#fafafa"/>
            </g>
          </g>
        </g>
        <g id="Group_823" data-name="Group 823" transform="translate(188.475 530.499)" opacity="0.6">
          <g id="Group_822" data-name="Group 822">
            <g id="Group_821" data-name="Group 821" clip-path="url(#clip-path-7)">
              <path id="Path_1277" data-name="Path 1277" d="M135.957,334.451l-14.019.222a1.013,1.013,0,0,0-.971.807l-2.113,10.312a1.7,1.7,0,0,0,1.345,2,1.661,1.661,0,0,0,.376.03c4.535-.144,7.833-.476,13.529-.565,3.509-.057,14.1.143,18.941.067s5.4-4.871,3.412-5.28c-8.927-1.8-15.662-4.378-18.55-6.887a2.788,2.788,0,0,0-1.949-.7" transform="translate(-118.823 -334.449)" fill="#fafafa"/>
            </g>
          </g>
        </g>
        <path id="Path_1278" data-name="Path 1278" d="M185.109,419.771H166.028s-16.814-99.628-27.156-110.97c-5.932-6.519-22.286-25.776-35.118-40.987C94.506,256.854,87.083,248,86.671,247.527a.049.049,0,0,1-.016-.032s-.761,51.234-2.855,71.68-26.41,100.6-26.41,100.6h-19.1s11.484-95.282,9.676-117.251C47,290.973,41,248,40.735,216.216c-.063-8.47.872-18.162.872-18.162l57.214-7.947s5.774,13.7,8.121,18.019c1.84,3.394,53.772,66.4,63.559,95.251,9.8,28.853,14.609,116.394,14.609,116.394" transform="translate(22.446 111.438)" fill="#263238"/>
        <path id="Path_1279" data-name="Path 1279" d="M41.092,116.1c2.622,7.612,6.148,21.737,1.4,27.72a75.549,75.549,0,0,1,22.616,10.562c1.593-5.12,2.684-10.01,1.705-13.944-9.016-.871-9.692-7.376-9.017-13.668Z" transform="translate(24.088 68.056)" fill="#ffb573"/>
        <g id="Group_826" data-name="Group 826" transform="translate(71.922 188.509)" opacity="0.2">
          <g id="Group_825" data-name="Group 825">
            <g id="Group_824" data-name="Group 824" clip-path="url(#clip-path-9)">
              <path id="Path_1280" data-name="Path 1280" d="M45.41,118.844l9.885,6.31a25.177,25.177,0,0,0-.149,4.422c-3.4-.019-8.489-3.041-9.328-6.483a11.823,11.823,0,0,1-.408-4.249" transform="translate(-45.343 -118.844)"/>
            </g>
          </g>
        </g>
        <path id="Path_1281" data-name="Path 1281" d="M56.33,96.836c8.511,2.284,7.812,21,4.464,23.317C54.531,124.478,45.774,94,56.33,96.836" transform="translate(30.132 56.655)" fill="#263238"/>
        <path id="Path_1282" data-name="Path 1282" d="M39.585,115.3c2.124,10.505,2.835,16.763,8.943,21.456,9.187,7.062,21.591.39,22.649-10.539.95-9.838-2.684-25.365-13.641-28.139A14.619,14.619,0,0,0,39.585,115.3" transform="translate(23.025 57.211)" fill="#ffb573"/>
        <path id="Path_1283" data-name="Path 1283" d="M33.52,105.3c1.745,6.982,9.988,20.159,14.035,19.226,4.381-1.01,4.354-10.811.928-19.226Z" transform="translate(19.649 61.725)" fill="#263238"/>
        <path id="Path_1284" data-name="Path 1284" d="M37.935,119.381a10.192,10.192,0,0,0,6.908,3.582c3.563.279,4.655-3.072,3.091-6.075-1.41-2.7-4.96-6.1-8.258-4.976-3.25,1.11-3.848,4.924-1.742,7.469" transform="translate(21.514 65.471)" fill="#ffb573"/>
        <path id="Path_1285" data-name="Path 1285" d="M49.873,109.846c.121.863.674,1.5,1.239,1.42s.923-.841.8-1.7-.676-1.5-1.239-1.42-.925.841-.8,1.7" transform="translate(29.221 63.388)" fill="#263238"/>
        <path id="Path_1286" data-name="Path 1286" d="M56.022,108.991c.121.863.674,1.5,1.237,1.42s.923-.841.8-1.7-.674-1.5-1.237-1.42-.925.839-.8,1.7" transform="translate(32.825 62.887)" fill="#263238"/>
        <path id="Path_1287" data-name="Path 1287" d="M54.1,108.9s2.654,4.7,5.146,6.806c-1.326,1.637-4.011,1.347-4.011,1.347Z" transform="translate(31.71 63.836)" fill="#ed893e"/>
        <path id="Path_1288" data-name="Path 1288" d="M55.854,116.678a.255.255,0,0,0-.1-.5,6.889,6.889,0,0,1-5.943-1.9.255.255,0,0,0-.385.335,7.3,7.3,0,0,0,6.4,2.068l.03-.006" transform="translate(28.934 66.938)" fill="#263238"/>
        <path id="Path_1289" data-name="Path 1289" d="M48.011,108.741a.514.514,0,0,0,.316-.244,4.058,4.058,0,0,1,3.012-2.145.511.511,0,0,0-.071-1.02A5.074,5.074,0,0,0,47.434,108a.511.511,0,0,0,.577.744" transform="translate(27.767 61.744)" fill="#263238"/>
        <path id="Path_1290" data-name="Path 1290" d="M60.018,107.02a.5.5,0,0,0,.154-.07.511.511,0,0,0,.14-.709,5.082,5.082,0,0,0-4.037-2.348.512.512,0,0,0,.011,1.023,4.058,4.058,0,0,1,3.176,1.894.515.515,0,0,0,.557.209" transform="translate(32.692 60.901)" fill="#263238"/>
        <path id="Path_1291" data-name="Path 1291" d="M38.992,123.344a21.4,21.4,0,0,1-6.173-15.913c.471-9.884,19.767-15.53,29.494-14.119s5.861,11.532,5.861,11.532-13.392,1.656-18.255,3.377-1.009,4.23-1.009,4.23Z" transform="translate(19.224 54.573)" fill="#263238"/>
        <path id="Path_1292" data-name="Path 1292" d="M37.468,137.476l4.749-5.931,15.4,2.965,7.815,8.957.983-10.339,2.892-3.466,6.318,2.733v6.47l-4.5-1.464-3.9,9.03-12.295-5.057L52.2,144.858Z" transform="translate(21.963 76.006)" fill="#407bff"/>
        <g id="Group_829" data-name="Group 829" transform="translate(59.431 205.668)" opacity="0.6">
          <g id="Group_828" data-name="Group 828">
            <g id="Group_827" data-name="Group 827" clip-path="url(#clip-path-10)">
              <path id="Path_1293" data-name="Path 1293" d="M37.468,137.476l4.749-5.931,15.4,2.965,7.815,8.957.983-10.339,2.892-3.466,6.318,2.733v6.47l-4.5-1.464-3.9,9.03-12.295-5.057L52.2,144.858Z" transform="translate(-37.468 -129.662)" fill="#fff"/>
            </g>
          </g>
        </g>
        <g id="Group_832" data-name="Group 832" transform="translate(89.194 211.629)" opacity="0.1">
          <g id="Group_831" data-name="Group 831">
            <g id="Group_830" data-name="Group 830" clip-path="url(#clip-path-11)">
              <path id="Path_1294" data-name="Path 1294" d="M56.231,144.228l1.493-10.808,6.9,3.242-4.5-1.464Z" transform="translate(-56.231 -133.42)"/>
            </g>
          </g>
        </g>
        <g id="Group_835" data-name="Group 835" transform="translate(74.162 214.053)" opacity="0.1">
          <g id="Group_834" data-name="Group 834">
            <g id="Group_833" data-name="Group 833" clip-path="url(#clip-path-12)">
              <path id="Path_1295" data-name="Path 1295" d="M61.787,143.333l-11.394-8.385-3.639,6.811,2.738-3.482Z" transform="translate(-46.755 -134.948)"/>
            </g>
          </g>
        </g>
        <g id="Group_838" data-name="Group 838" transform="translate(54.948 237.669)" opacity="0.1">
          <g id="Group_837" data-name="Group 837">
            <g id="Group_836" data-name="Group 836" clip-path="url(#clip-path-13)">
              <path id="Path_1296" data-name="Path 1296" d="M38.416,173.63c-1-6.25-2.237-12.816-3.775-19.494a11.989,11.989,0,0,1,7.36-4.3s1.57,15.132-3.585,23.793" transform="translate(-34.642 -149.837)"/>
            </g>
          </g>
        </g>
        <path id="Path_1297" data-name="Path 1297" d="M43.132,145.95c-1.188,6.511-2.37,13.237-3.382,19.818-.528,3.295-.969,6.591-1.359,9.834s-.646,6.467-.706,9.411c-.014.736,0,1.426.022,2.094.029.606.1,1.305.133,1.6a2.378,2.378,0,0,0-.558-.771c-.254-.214-.4-.184-.276-.073a5.773,5.773,0,0,0,2.527.761,26.862,26.862,0,0,0,4.191.23,125.2,125.2,0,0,0,19.293-2.409l2.67,7.342a76.383,76.383,0,0,1-20.711,7.269,36.987,36.987,0,0,1-6.1.588,19.751,19.751,0,0,1-7.509-1.324,12.569,12.569,0,0,1-4.457-3.023A12.182,12.182,0,0,1,24,192a30.414,30.414,0,0,1-.654-3.494c-.125-1.045-.224-2.07-.282-3.052a93.866,93.866,0,0,1,.114-11.181c.208-3.605.595-7.135,1-10.65.88-7.035,2.014-13.866,3.507-20.838Z" transform="translate(13.449 83.698)" fill="#ffb573"/>
        <path id="Path_1298" data-name="Path 1298" d="M35.434,137.242c-15.362,6.443-14.388,43.1-14.388,43.1L41.963,181.8s6.71-15.2,9.7-28.206c3.136-13.627-6.02-20.636-16.233-16.354" transform="translate(12.329 79.715)" fill="#407bff"/>
        <g id="Group_841" data-name="Group 841" transform="translate(33.362 215.704)" opacity="0.5">
          <g id="Group_840" data-name="Group 840">
            <g id="Group_839" data-name="Group 839" clip-path="url(#clip-path-14)">
              <path id="Path_1299" data-name="Path 1299" d="M35.434,137.242c-15.362,6.443-14.388,43.1-14.388,43.1L41.963,181.8s6.71-15.2,9.7-28.206c3.136-13.627-6.02-20.636-16.233-16.354" transform="translate(-21.032 -135.989)" fill="#fff"/>
            </g>
          </g>
        </g>
        <g id="Group_844" data-name="Group 844" transform="translate(109.1 349.654)" opacity="0.2">
          <g id="Group_843" data-name="Group 843">
            <g id="Group_842" data-name="Group 842" clip-path="url(#clip-path-15)">
              <path id="Path_1300" data-name="Path 1300" d="M85.881,250.035C76.634,239.076,69.21,230.223,68.8,229.747a.049.049,0,0,1-.016-.032l.333-9.278a47.992,47.992,0,0,1,16.766,29.6" transform="translate(-68.781 -220.436)"/>
            </g>
          </g>
        </g>
        <path id="Path_1301" data-name="Path 1301" d="M216.476,211.942l-32.5,18.8L152.268,249.09c-1.126.65-2.268,1.255-3.426,1.824,0,.016-.016.016-.032.032-13.021,7.487-24.76,10.31-35.055,10.31-31.026,0-48.855-25.584-48.855-25.584a60.98,60.98,0,0,1,13.657-94.887L110.8,122.134l31.962-18.5,12.578,2.633,5.3,9.154,10.58,18.3L138.468,152.7l-31.454,18.192a29.268,29.268,0,0,0,2.57,52.027A29.4,29.4,0,0,0,123.811,219l30.74-17.8,33.469-19.366,12.58,2.647,7.945,13.738Z" transform="translate(28.194 60.751)" fill="#263238"/>
        <path id="Path_1302" data-name="Path 1302" d="M148.05,133.727,115.295,152.7l-12.467-2.712-15.2-27.853,31.962-18.495,12.578,2.633,5.3,9.152Z" transform="translate(51.369 60.751)" fill="#407bff"/>
        <path id="Path_1303" data-name="Path 1303" d="M177.136,183.043l-32.5,18.8-13.958-1.824L115.212,172.3l33.469-19.367,12.578,2.649,7.947,13.736Z" transform="translate(67.535 89.65)" fill="#407bff"/>
        <g id="Group_847" data-name="Group 847" transform="translate(76.293 164.383)" opacity="0.2">
          <g id="Group_846" data-name="Group 846">
            <g id="Group_845" data-name="Group 845" clip-path="url(#clip-path-16)">
              <path id="Path_1304" data-name="Path 1304" d="M56.293,224.192a61.113,61.113,0,0,1,22.264-83.406l64.21-37.152,15.887,27.458L94.446,168.244A29.318,29.318,0,1,0,123.813,219l30.742-17.789,9.93-5.745,23.537-13.617L203.909,209.3l-33.892,19.612L139.7,246.456a61.112,61.112,0,0,1-83.406-22.264" transform="translate(-48.098 -103.634)" fill="#fff"/>
            </g>
          </g>
        </g>
        <g id="Group_850" data-name="Group 850" transform="translate(170.961 164.383)" opacity="0.4">
          <g id="Group_849" data-name="Group 849">
            <g id="Group_848" data-name="Group 848" clip-path="url(#clip-path-17)">
              <path id="Path_1305" data-name="Path 1305" d="M107.781,103.634l12.575,2.641,15.887,27.46-12.575-2.643Z" transform="translate(-107.781 -103.634)" fill="#fff"/>
            </g>
          </g>
        </g>
        <g id="Group_853" data-name="Group 853" transform="translate(216.215 242.595)" opacity="0.4">
          <g id="Group_852" data-name="Group 852">
            <g id="Group_851" data-name="Group 851" clip-path="url(#clip-path-18)">
              <path id="Path_1306" data-name="Path 1306" d="M136.312,152.942l12.575,2.641,15.887,27.46L152.2,180.4Z" transform="translate(-136.311 -152.942)" fill="#fff"/>
            </g>
          </g>
        </g>
        <path id="Path_1307" data-name="Path 1307" d="M85.922,112.168l.523.968-.523.539Z" transform="translate(50.366 65.751)" fill="#407bff"/>
        <path id="Path_1308" data-name="Path 1308" d="M45.505,174.665l11.765-9.949,6.943,11.543s-7.246,8.109-15.649,4.966Z" transform="translate(26.674 96.554)" fill="#ffb573"/>
        <path id="Path_1309" data-name="Path 1309" d="M63.639,163.253l3.115,9.842-6.89,4.021-6.943-11.541Z" transform="translate(31.022 95.697)" fill="#ffb573"/>
        <path id="Path_1310" data-name="Path 1310" d="M120.714,118.88l11.008-15.9-8.185-5.669L145.454,79.6,134.573,95.309l8.185,5.669Z" transform="translate(70.761 46.658)" fill="#b291f2"/>
        <path id="Path_1311" data-name="Path 1311" d="M128.513,123.812l17.339-8.561-4.408-8.927,27.761-4.862-17.139,8.462,4.408,8.927Z" transform="translate(75.333 59.476)" fill="#b291f2"/>
        <path id="Path_1312" data-name="Path 1312" d="M155.917,169.764l19.075-3.161-1.627-9.822,27.979,3.4-18.858,3.125,1.629,9.822Z" transform="translate(91.396 91.903)" fill="#b291f2"/>
        <path id="Path_1313" data-name="Path 1313" d="M149.291,169.151l13.326-14.011-7.214-6.862,24.384-14.131L166.615,148l7.214,6.86Z" transform="translate(87.512 78.635)" fill="#b291f2"/>
        <g id="Group_856" data-name="Group 856" transform="translate(191.475 126.254)" opacity="0.5">
          <g id="Group_855" data-name="Group 855">
            <g id="Group_854" data-name="Group 854" clip-path="url(#clip-path-19)">
              <path id="Path_1314" data-name="Path 1314" d="M120.714,118.88l11.008-15.9-8.185-5.669L145.454,79.6,134.573,95.309l8.185,5.669Z" transform="translate(-120.714 -79.596)" fill="#b291f2"/>
              <path id="Path_1315" data-name="Path 1315" d="M128.513,123.812l17.339-8.561-4.408-8.927,27.761-4.862-17.139,8.462,4.408,8.927Z" transform="translate(-116.142 -66.778)" fill="#b291f2"/>
              <path id="Path_1316" data-name="Path 1316" d="M155.917,169.764l19.075-3.161-1.627-9.822,27.979,3.4-18.858,3.125,1.629,9.822Z" transform="translate(-100.079 -34.351)" fill="#b291f2"/>
              <path id="Path_1317" data-name="Path 1317" d="M149.291,169.151l13.326-14.011-7.214-6.862,24.384-14.131L166.615,148l7.214,6.86Z" transform="translate(-103.963 -47.619)" fill="#b291f2"/>
            </g>
          </g>
        </g>
        <path id="Path_1318" data-name="Path 1318" d="M87.632,122.134l15.2,27.853,32.653-18.895-15.887-27.458Z" transform="translate(51.369 60.749)" fill="#b291f2"/>
        <path id="Path_1319" data-name="Path 1319" d="M107.781,103.634l12.575,2.641,15.887,27.46-12.575-2.643Z" transform="translate(63.18 60.749)" fill="#9a7ae5"/>
        <path id="Path_1320" data-name="Path 1320" d="M97.212,139.84l32.653-18.895,12.575,2.641-32.761,18.966Z" transform="translate(56.984 70.897)" fill="#7d50c7"/>
        <path id="Path_1321" data-name="Path 1321" d="M115.213,172.306l15.462,27.7,33.892-19.61L148.68,152.942Z" transform="translate(67.536 89.652)" fill="#b291f2"/>
        <path id="Path_1322" data-name="Path 1322" d="M136.312,152.942l12.575,2.641,15.887,27.46L152.2,180.4Z" transform="translate(79.904 89.652)" fill="#9a7ae5"/>
        <path id="Path_1323" data-name="Path 1323" d="M124.961,189.863l33.892-19.61,12.575,2.641-32.507,18.795Z" transform="translate(73.25 99.8)" fill="#7d50c7"/>
      </g>
    </g>
    <g id="Group_923" data-name="Group 923">
      <g id="Group_922" data-name="Group 922" clip-path="url(#clip-path)">
        <path id="Path_1324" data-name="Path 1324" d="M332.627,117.178a27.254,27.254,0,0,1-14.882,17.391,25.781,25.781,0,0,1-2.773,1.1c-.471.16-.958.306-1.437.427a27.079,27.079,0,0,1-14.631-.054l-.122-.033q-1.418-.416-2.744-.947c-.466-.189-.93-.395-1.378-.615a.64.64,0,0,1-.127-.055,23.521,23.521,0,0,1-2.162-1.16,3.431,3.431,0,0,1-.508-.314A19.788,19.788,0,0,1,290,131.651q-.533-.378-1.023-.8a23.335,23.335,0,0,1-1.834-1.653c-.474-.466-.933-.955-1.369-1.456a27.049,27.049,0,0,1-2.619-3.534c-.217-.335-.42-.687-.614-1.044a4.358,4.358,0,0,1-.311-.571,27.322,27.322,0,1,1,50.4-5.415" transform="translate(163.544 48.308)" fill="#7d50c7"/>
        <path id="Path_1325" data-name="Path 1325" d="M281.958,109.566c-.217-.336-.42-.687-.614-1.045a4.547,4.547,0,0,1-.312-.569,5.93,5.93,0,0,1,1.1-.525.232.232,0,0,1,.1-.038Z" transform="translate(164.737 62.949)" fill="#407bff"/>
        <g id="Group_861" data-name="Group 861" transform="translate(445.771 170.337)" opacity="0.5" style="isolation: isolate">
          <g id="Group_860" data-name="Group 860">
            <g id="Group_859" data-name="Group 859" clip-path="url(#clip-path-21)">
              <path id="Path_1326" data-name="Path 1326" d="M281.958,109.566c-.217-.336-.42-.687-.614-1.045a4.547,4.547,0,0,1-.312-.569,5.93,5.93,0,0,1,1.1-.525.232.232,0,0,1,.1-.038Z" transform="translate(-281.034 -107.388)" fill="#fff"/>
            </g>
          </g>
        </g>
        <path id="Path_1327" data-name="Path 1327" d="M315.787,117.262a.077.077,0,0,1-.016.024q-1.135,1.951-2.108,3.74c-.471.16-.958.308-1.437.428a27.1,27.1,0,0,1-14.631-.054l-.122-.035q-1.416-.414-2.744-.945c-.466-.189-.93-.395-1.378-.617a.664.664,0,0,1-.125-.054,23.335,23.335,0,0,1-2.163-1.16,3.514,3.514,0,0,1-.508-.314,19.784,19.784,0,0,1-1.867-1.266q-.533-.378-1.023-.8a23.665,23.665,0,0,1-1.834-1.654c-.474-.465-.933-.953-1.369-1.456a27.028,27.028,0,0,1-2.619-3.532c-.216-.336-.42-.687-.612-1.044a2.8,2.8,0,0,1,.782-1.1.281.281,0,0,1,.1-.038s5.847.516,10.965,1.5l.332.065c.569.133,1.137.265,1.7.416a80.57,80.57,0,0,1,8.064,2.39c.672.228,1.342.474,2.008.73.224.081.438.16.661.243a81.942,81.942,0,0,1,9.947,4.533" transform="translate(164.853 62.949)" fill="#407bff"/>
        <g id="Group_864" data-name="Group 864" transform="translate(446.083 170.337)" opacity="0.5" style="isolation: isolate">
          <g id="Group_863" data-name="Group 863">
            <g id="Group_862" data-name="Group 862" clip-path="url(#clip-path-22)">
              <path id="Path_1328" data-name="Path 1328" d="M315.787,117.262a.077.077,0,0,1-.016.024q-1.135,1.951-2.108,3.74c-.471.16-.958.308-1.437.428a27.1,27.1,0,0,1-14.631-.054l-.122-.035q-1.416-.414-2.744-.945c-.466-.189-.93-.395-1.378-.617a.664.664,0,0,1-.125-.054,23.335,23.335,0,0,1-2.163-1.16,3.514,3.514,0,0,1-.508-.314,19.784,19.784,0,0,1-1.867-1.266q-.533-.378-1.023-.8a23.665,23.665,0,0,1-1.834-1.654c-.474-.465-.933-.953-1.369-1.456a27.028,27.028,0,0,1-2.619-3.532c-.216-.336-.42-.687-.612-1.044a2.8,2.8,0,0,1,.782-1.1.281.281,0,0,1,.1-.038s5.847.516,10.965,1.5l.332.065c.569.133,1.137.265,1.7.416a80.57,80.57,0,0,1,8.064,2.39c.672.228,1.342.474,2.008.73.224.081.438.16.661.243a81.942,81.942,0,0,1,9.947,4.533" transform="translate(-281.23 -107.388)" fill="#fff"/>
            </g>
          </g>
        </g>
        <path id="Path_1329" data-name="Path 1329" d="M285.477,111.044l2.7,5.09a19.916,19.916,0,0,1-1.867-1.267c-.355-.251-.7-.519-1.025-.8l.046-.7Z" transform="translate(167.23 65.093)" fill="#263238"/>
        <path id="Path_1330" data-name="Path 1330" d="M296.562,113.539l-1.474,1.761-2.048,2.46q-1.418-.414-2.744-.945c-.466-.189-.93-.395-1.378-.615a.81.81,0,0,1-.127-.056l3.994-1.332Z" transform="translate(169.285 66.555)" fill="#263238"/>
        <path id="Path_1331" data-name="Path 1331" d="M305.556,119.444l-3.314-1.845s-1.618.233-3.916.825a42.942,42.942,0,0,0-4.792,1.515c-.466-.189-.93-.395-1.378-.617a.869.869,0,0,1-.127-.054,23.539,23.539,0,0,1-2.162-1.161,3.5,3.5,0,0,1-.508-.312,19.509,19.509,0,0,1-1.867-1.267,15.944,15.944,0,0,0-.977-1.5,7.342,7.342,0,0,0-.795-.877l-1.085-.079c-.474-.465-.933-.955-1.369-1.456a17.326,17.326,0,0,1,8.613-4.213,14.642,14.642,0,0,1,2.506-.192,17.28,17.28,0,0,1,7,1.581l.008,0a8.231,8.231,0,0,1,3.247,2.451,7.508,7.508,0,0,1,.91,7.2" transform="translate(166.047 63.432)" fill="#263238"/>
        <g id="Group_867" data-name="Group 867" transform="translate(449.314 171.643)" opacity="0.1">
          <g id="Group_866" data-name="Group 866">
            <g id="Group_865" data-name="Group 865" clip-path="url(#clip-path-23)">
              <path id="Path_1332" data-name="Path 1332" d="M305.556,119.444l-3.314-1.845s-1.618.233-3.916.825a42.942,42.942,0,0,0-4.792,1.515c-.466-.189-.93-.395-1.378-.617a.869.869,0,0,1-.127-.054,23.539,23.539,0,0,1-2.162-1.161,3.5,3.5,0,0,1-.508-.312,19.509,19.509,0,0,1-1.867-1.267,15.944,15.944,0,0,0-.977-1.5,7.342,7.342,0,0,0-.795-.877l-1.085-.079c-.474-.465-.933-.955-1.369-1.456a17.326,17.326,0,0,1,8.613-4.213,14.642,14.642,0,0,1,2.506-.192,17.28,17.28,0,0,1,7,1.581l.008,0a8.231,8.231,0,0,1,3.247,2.451,7.508,7.508,0,0,1,.91,7.2" transform="translate(-283.267 -108.211)" fill="#fff"/>
            </g>
          </g>
        </g>
        <path id="Path_1333" data-name="Path 1333" d="M300.328,115.111c-.722,2.219-3.709,3.98-6.548,5.184a40.857,40.857,0,0,1-3.867,1.388.636.636,0,0,1-.127-.054,23.51,23.51,0,0,1-2.162-1.16c-.69-2.552-1.347-7.2,2.429-8.431a5.642,5.642,0,0,1,.88-.2,2.486,2.486,0,0,0,.736-.6,4.043,4.043,0,0,0,.474-.669,9.253,9.253,0,0,0,.971-3c.071-.387.132-.8.174-1.256.027-.163.037-.33.056-.5.013-.214.04-.443.049-.677.021-.306.035-.623.044-.961l8.215.01a.79.79,0,0,1-.062.087,13.573,13.573,0,0,0-1.06,1.708l0,.008a10.77,10.77,0,0,0-1.372,6.164,6.52,6.52,0,0,0,.3,1.258,1.765,1.765,0,0,1,.278.22,1.344,1.344,0,0,1,.6,1.475" transform="translate(168.29 61.07)" fill="#eec1bb"/>
        <g id="Group_870" data-name="Group 870" transform="translate(461.408 165.246)" opacity="0.2" style="isolation: isolate">
          <g id="Group_869" data-name="Group 869">
            <g id="Group_868" data-name="Group 868" clip-path="url(#clip-path-24)">
              <path id="Path_1334" data-name="Path 1334" d="M291.211,104.178a23.532,23.532,0,0,1-.32,3.4c5.363,1.012,8.538-3.385,8.538-3.385Z" transform="translate(-290.891 -104.178)"/>
            </g>
          </g>
        </g>
        <path id="Path_1335" data-name="Path 1335" d="M301.334,88.305s-9.089-2.933-12.214,4.237a11.742,11.742,0,0,0,1.867,12.433Z" transform="translate(168.875 51.415)" fill="#263238"/>
        <path id="Path_1336" data-name="Path 1336" d="M301.553,90.871c-6.83-1.681-9.926,1.437-12.158,8.353-2.787,8.642-2.373,15.369,6.627,15.591,12.225.3,16.874-21.155,5.531-23.943" transform="translate(168.748 53.005)" fill="#eec1bb"/>
        <path id="Path_1337" data-name="Path 1337" d="M292.668,96.415a14.867,14.867,0,0,1-2.684,2.344,1.934,1.934,0,0,0,1.61,1.215Z" transform="translate(169.985 56.517)" fill="#d4827d"/>
        <path id="Path_1338" data-name="Path 1338" d="M294.418,97.022c-.151.56.029,1.091.4,1.193s.8-.27.947-.828-.029-1.09-.4-1.193-.8.27-.947.828" transform="translate(172.553 56.378)" fill="#263238"/>
        <path id="Path_1339" data-name="Path 1339" d="M295.489,96.529l-1.085-.8s.328,1.185,1.085.8" transform="translate(172.576 56.113)" fill="#263238"/>
        <path id="Path_1340" data-name="Path 1340" d="M290.066,95.765c-.151.558.029,1.091.4,1.193s.8-.27.947-.828-.029-1.091-.4-1.193-.8.27-.947.828" transform="translate(170.001 55.641)" fill="#263238"/>
        <path id="Path_1341" data-name="Path 1341" d="M291.137,95.272l-1.085-.8s.328,1.185,1.085.8" transform="translate(170.025 55.376)" fill="#263238"/>
        <path id="Path_1342" data-name="Path 1342" d="M295.172,93.748a3.658,3.658,0,0,1,2.708,1.761" transform="translate(173.026 54.954)" fill="none" stroke="#263238" stroke-linecap="round" stroke-linejoin="round" stroke-width="0.394"/>
        <path id="Path_1343" data-name="Path 1343" d="M293.144,92.931a3.279,3.279,0,0,0-2.86-.108" transform="translate(170.161 54.261)" fill="none" stroke="#263238" stroke-linecap="round" stroke-linejoin="round" stroke-width="0.394"/>
        <path id="Path_1344" data-name="Path 1344" d="M305.512,105.092s-1.813-6.4-.265-10.61c0,0-12.174-8.857-16.22,4.717,0,0,1.677-12.525,13.484-9.909,11.788,2.611,7.534,19.778.213,23.406,0,0,3.9-3.609,2.789-7.6" transform="translate(169.424 52.13)" fill="#263238"/>
        <path id="Path_1345" data-name="Path 1345" d="M298.55,88.2s-5.41-2.46-7.3-1.266,7.566,13.951,13.357,16.152c0,0,.784,7.019-1.407,9.82,0,0,7.185-1.083,9.444-11.3s-7.825-16.1-14.1-13.408" transform="translate(170.584 50.767)" fill="#263238"/>
        <path id="Path_1346" data-name="Path 1346" d="M298.634,100.641a3.084,3.084,0,0,1,3.9-1.943c2.059.752,2,5.344-3.521,5.093-.793-.036-1.037-.877-.377-3.15" transform="translate(174.832 57.747)" fill="#eec1bb"/>
        <path id="Path_1347" data-name="Path 1347" d="M302.026,93.007s3.485-5.55,9.719-3.931,5.341,11.647.65,18.3-2.887,9.431-2.887,9.431-3.45-1.094-2.219-7.623a24.466,24.466,0,0,0-1,4.134s-1.729-3.762,1.71-9.652-4.278-4.354-4.278-4.354Z" transform="translate(177.044 52.042)" fill="#263238"/>
        <path id="Path_1348" data-name="Path 1348" d="M291.435,87.212s1.179,10.2,8.662,14.6" transform="translate(170.835 51.123)" fill="none" stroke="#263238" stroke-linecap="round" stroke-linejoin="round" stroke-width="0.394"/>
        <path id="Path_1349" data-name="Path 1349" d="M295.678,100.852a5.649,5.649,0,0,1-4.262.858" transform="translate(170.824 59.118)" fill="none" stroke="#263238" stroke-linecap="round" stroke-linejoin="round" stroke-width="0.394"/>
        <path id="Path_1350" data-name="Path 1350" d="M292.065,97.419a1.558,1.558,0,1,0,1.838-1.374A1.623,1.623,0,0,0,292.065,97.419Z" transform="translate(171.186 56.286)" fill="none" stroke="#263238" stroke-linecap="round" stroke-linejoin="round" stroke-width="0.287"/>
        <path id="Path_1351" data-name="Path 1351" d="M288.689,96.606a1.558,1.558,0,1,0,1.838-1.372A1.623,1.623,0,0,0,288.689,96.606Z" transform="translate(169.207 55.81)" fill="none" stroke="#263238" stroke-linecap="round" stroke-linejoin="round" stroke-width="0.287"/>
        <path id="Path_1352" data-name="Path 1352" d="M292.9,97.3s-.479-1.864-2.3-.714" transform="translate(170.346 56.4)" fill="none" stroke="#263238" stroke-linecap="round" stroke-linejoin="round" stroke-width="0.287"/>
        <path id="Path_1353" data-name="Path 1353" d="M293.976,97.264s8.613,1.347,9.619,1.593" transform="translate(172.325 57.015)" fill="none" stroke="#263238" stroke-linecap="round" stroke-linejoin="round" stroke-width="0.287"/>
        <path id="Path_1354" data-name="Path 1354" d="M304.981,116.277a25.447,25.447,0,0,1-2.773,1.1c-.471.16-.958.306-1.437.427a39.851,39.851,0,0,1,3.545-4.167.061.061,0,0,0,.016-.024s.254.98.649,2.663" transform="translate(176.308 66.599)" fill="#407bff"/>
        <g id="Group_873" data-name="Group 873" transform="translate(477.079 180.211)" opacity="0.5" style="isolation: isolate">
          <g id="Group_872" data-name="Group 872">
            <g id="Group_871" data-name="Group 871" clip-path="url(#clip-path-25)">
              <path id="Path_1355" data-name="Path 1355" d="M304.981,116.277a25.447,25.447,0,0,1-2.773,1.1c-.471.16-.958.306-1.437.427a39.851,39.851,0,0,1,3.545-4.167.061.061,0,0,0,.016-.024s.254.98.649,2.663" transform="translate(-300.771 -113.612)" fill="#fff"/>
            </g>
          </g>
        </g>
        <path id="Path_1356" data-name="Path 1356" d="M309.067,143.648a.456.456,0,0,1-.014-.912q.9-.026,1.789-.106a.463.463,0,0,1,.493.414.456.456,0,0,1-.414.495q-.916.081-1.842.109Zm6.305-.834a.456.456,0,0,1-.1-.9,31.275,31.275,0,0,0,15.38-8.787.455.455,0,1,1,.657.63,32.17,32.17,0,0,1-15.825,9.044.5.5,0,0,1-.106.013m-19.634-1.669a.472.472,0,0,1-.178-.035,31.963,31.963,0,0,1-14.074-11.579.455.455,0,0,1,.755-.509,31.071,31.071,0,0,0,13.674,11.249.455.455,0,0,1-.178.874m-16.147-15.356a.456.456,0,0,1-.411-.255c-.268-.554-.522-1.117-.758-1.685a.456.456,0,1,1,.842-.351c.228.554.474,1.1.736,1.637a.454.454,0,0,1-.211.608.442.442,0,0,1-.2.046m58.448-3.463a.438.438,0,0,1-.148-.025.454.454,0,0,1-.282-.579c.192-.563.373-1.136.536-1.715a.456.456,0,0,1,.877.249q-.255.892-.552,1.762a.457.457,0,0,1-.431.308m1.624-7.587-.041,0a.455.455,0,0,1-.412-.495q.078-.895.106-1.791a.477.477,0,0,1,.469-.443.455.455,0,0,1,.441.47q-.029.921-.109,1.845a.455.455,0,0,1-.454.416m-63.229-3.954h-.017a.455.455,0,0,1-.438-.473A32.343,32.343,0,0,1,281.8,93.039a.455.455,0,1,1,.745.523,31.4,31.4,0,0,0-5.656,16.785.455.455,0,0,1-.455.438m63.146-2.411a.456.456,0,0,1-.452-.4,31.221,31.221,0,0,0-6.925-16.3.455.455,0,0,1,.7-.577,32.136,32.136,0,0,1,7.127,16.776.455.455,0,0,1-.4.5c-.017,0-.035,0-.052,0M285.052,90.232a.448.448,0,0,1-.312-.125.453.453,0,0,1-.019-.642c.425-.449.86-.885,1.309-1.309a.456.456,0,0,1,.625.663q-.652.616-1.272,1.271a.45.45,0,0,1-.33.143M321.9,83.454a.441.441,0,0,1-.2-.044q-.8-.388-1.639-.733a.456.456,0,0,1,.347-.842q.859.354,1.686.753a.455.455,0,0,1-.2.866m-23.936-1.5a.455.455,0,0,1-.146-.887,32.074,32.074,0,0,1,18.213-.692.456.456,0,0,1-.227.883,31.173,31.173,0,0,0-17.694.671.468.468,0,0,1-.146.024" transform="translate(161.775 46.533)" fill="#263238"/>
        <g id="Group_876" data-name="Group 876" transform="translate(437.754 125.913)" opacity="0.5">
          <g id="Group_875" data-name="Group 875">
            <g id="Group_874" data-name="Group 874" clip-path="url(#clip-path-26)">
              <path id="Path_1357" data-name="Path 1357" d="M309.067,143.648a.456.456,0,0,1-.014-.912q.9-.026,1.789-.106a.463.463,0,0,1,.493.414.456.456,0,0,1-.414.495q-.916.081-1.842.109Zm6.305-.834a.456.456,0,0,1-.1-.9,31.275,31.275,0,0,0,15.38-8.787.455.455,0,1,1,.657.63,32.17,32.17,0,0,1-15.825,9.044.5.5,0,0,1-.106.013m-19.634-1.669a.472.472,0,0,1-.178-.035,31.963,31.963,0,0,1-14.074-11.579.455.455,0,0,1,.755-.509,31.071,31.071,0,0,0,13.674,11.249.455.455,0,0,1-.178.874m-16.147-15.356a.456.456,0,0,1-.411-.255c-.268-.554-.522-1.117-.758-1.685a.456.456,0,1,1,.842-.351c.228.554.474,1.1.736,1.637a.454.454,0,0,1-.211.608.442.442,0,0,1-.2.046m58.448-3.463a.438.438,0,0,1-.148-.025.454.454,0,0,1-.282-.579c.192-.563.373-1.136.536-1.715a.456.456,0,0,1,.877.249q-.255.892-.552,1.762a.457.457,0,0,1-.431.308m1.624-7.587-.041,0a.455.455,0,0,1-.412-.495q.078-.895.106-1.791a.477.477,0,0,1,.469-.443.455.455,0,0,1,.441.47q-.029.921-.109,1.845a.455.455,0,0,1-.454.416m-63.229-3.954h-.017a.455.455,0,0,1-.438-.473A32.343,32.343,0,0,1,281.8,93.039a.455.455,0,1,1,.745.523,31.4,31.4,0,0,0-5.656,16.785.455.455,0,0,1-.455.438m63.146-2.411a.456.456,0,0,1-.452-.4,31.221,31.221,0,0,0-6.925-16.3.455.455,0,0,1,.7-.577,32.136,32.136,0,0,1,7.127,16.776.455.455,0,0,1-.4.5c-.017,0-.035,0-.052,0M285.052,90.232a.448.448,0,0,1-.312-.125.453.453,0,0,1-.019-.642c.425-.449.86-.885,1.309-1.309a.456.456,0,0,1,.625.663q-.652.616-1.272,1.271a.45.45,0,0,1-.33.143M321.9,83.454a.441.441,0,0,1-.2-.044q-.8-.388-1.639-.733a.456.456,0,0,1,.347-.842q.859.354,1.686.753a.455.455,0,0,1-.2.866m-23.936-1.5a.455.455,0,0,1-.146-.887,32.074,32.074,0,0,1,18.213-.692.456.456,0,0,1-.227.883,31.173,31.173,0,0,0-17.694.671.468.468,0,0,1-.146.024" transform="translate(-275.979 -79.381)" fill="#fff"/>
            </g>
          </g>
        </g>
        <path id="Path_1358" data-name="Path 1358" d="M218.756,92.877a47.377,47.377,0,0,1-20.882,29.532,46.112,46.112,0,0,1-4.229,2.4c-.419.2-.842.409-1.277.6-.2.1-.419.2-.622.3a47.612,47.612,0,0,1-8.464,2.844,39.343,39.343,0,0,1-4.016.771,43.943,43.943,0,0,1-7.274.5,15.354,15.354,0,0,1-1.729-.056,46.09,46.09,0,0,1-8.526-1.142c-1.283-.293-2.555-.634-3.78-1.045-.627-.176-1.231-.381-1.829-.614a44.865,44.865,0,0,1-8.331-3.978,2.108,2.108,0,0,1-.4-.238c-.712-.441-1.421-.9-2.1-1.394a45.313,45.313,0,0,1-8.037-7.035.665.665,0,0,1-.181-.2c-.42-.438-.818-.9-1.215-1.369-.687-.841-1.342-1.675-1.967-2.566a47.567,47.567,0,1,1,84.864-17.3" transform="translate(73.153 20.318)" fill="#7d50c7"/>
        <path id="Path_1359" data-name="Path 1359" d="M134.227,81.1l-.515,5.79c-.42-.438-.817-.9-1.213-1.369-.687-.841-1.343-1.675-1.967-2.566a13.555,13.555,0,0,1,3.7-1.854" transform="translate(76.516 47.54)" fill="#e0e0e0"/>
        <path id="Path_1360" data-name="Path 1360" d="M172.556,100.379l0,.016a15.06,15.06,0,0,1-1.012,3.348,9.553,9.553,0,0,1-.579,1.1,43.759,43.759,0,0,1-7.274.495,15,15,0,0,1-1.729-.054,46.376,46.376,0,0,1-8.526-1.142c-1.283-.3-2.555-.634-3.78-1.045a19,19,0,0,1-1.827-.615,44.772,44.772,0,0,1-8.332-3.977,5.248,5.248,0,0,1-.214-.7,10.073,10.073,0,0,1-.311-2.333,15.261,15.261,0,0,1,1.5-6.767c.1-.22.211-.424.311-.644.174-.335.344-.654.516-.972a.948.948,0,0,1,.111-.2A26.13,26.13,0,0,1,145.2,81.8a14.552,14.552,0,0,1,1.256-1.225,18.61,18.61,0,0,1,4.643-3.282.054.054,0,0,1,.035-.008,9.361,9.361,0,0,1,2.881-.787c3.919-.485,8.215,1.152,11.382,2.739a.192.192,0,0,1,.089.038c.308.151.614.3.9.466,1.9,1.006,3.242,1.9,3.58,2.059,0,0,.493,1.251,1.068,3.222.17.609.358,1.271.535,2a44.022,44.022,0,0,1,.877,4.333,33.265,33.265,0,0,1,.425,5.028,22.837,22.837,0,0,1-.314,4" transform="translate(81.457 44.792)" fill="#263238"/>
        <path id="Path_1361" data-name="Path 1361" d="M188.29,62.234S191.854,81.4,185.064,86.7s-42.435,2.5-47.038-4.96S146.8,52,146.8,52Z" transform="translate(80.344 30.479)" fill="#263238"/>
        <path id="Path_1362" data-name="Path 1362" d="M188.861,93.184l-1.718,6.572a47.822,47.822,0,0,1-8.464,2.842,39.373,39.373,0,0,1-4.018.771,43.592,43.592,0,0,1-7.274.5,15.749,15.749,0,0,1-1.729-.054,46.377,46.377,0,0,1-8.526-1.142c-1.283-.3-2.555-.636-3.78-1.047a19,19,0,0,1-1.827-.614,44.676,44.676,0,0,1-8.332-3.978,2.046,2.046,0,0,1-.4-.238c-.714-.441-1.423-.9-2.106-1.394a45.315,45.315,0,0,1-8.037-7.035,34.928,34.928,0,0,1,3.513-6.305s.738-.3,2.072-.73l.07-.017a53.893,53.893,0,0,1,5.774-1.409c1.531-.284,3.268-.554,5.131-.728.314-.025.614-.054.945-.076.214-.016.414-.035.646-.048l.014,0c.365-.03.746-.057,1.118-.054,1.2-.065,2.446-.089,3.74-.052.343,0,.7.013,1.05.029a49.338,49.338,0,0,1,6.337.688c1.142.2,2.256.452,3.345.734l.016,0a44.08,44.08,0,0,1,4.64,1.551c.569.213,1.121.436,1.669.676.354.162.725.312,1.075.49l.014,0c.311.136.6.284.914.42.438.214.861.425,1.282.652a56.978,56.978,0,0,1,6.616,4.008l.016,0a51.4,51.4,0,0,1,6.215,4.973" transform="translate(77.758 46.269)" fill="#263238"/>
        <path id="Path_1363" data-name="Path 1363" d="M142.126,64.273s.2-30.87,26.708-21.731c33.267,11.47,10.605,50.821-5.712,44.382s-21-22.651-21-22.651" transform="translate(83.312 23.946)" fill="#263238"/>
        <g id="Group_879" data-name="Group 879" transform="translate(218.283 125.555)" opacity="0.2" style="isolation: isolate">
          <g id="Group_878" data-name="Group 878">
            <g id="Group_877" data-name="Group 877" clip-path="url(#clip-path-27)">
              <path id="Path_1364" data-name="Path 1364" d="M173.234,89.747l-7.488,10.439-1.891,2.643-.6-.95-6.514-10.624a62.447,62.447,0,0,0-6.3,10.239,19.181,19.181,0,0,1-1.829-.614c.274-7.863.836-12.372.836-12.372l-7.921,4.384-1.77.977-1.846,1.025-.3.16,3.74-12.617a21.73,21.73,0,0,1,3.759-1.921c.287-.114.588-.224.872-.322.511-.174,1.02-.335,1.537-.46.344-.084.7-.165,1.061-.228a19.048,19.048,0,0,1,3.726-.351c.469.011.955.024,1.416.065a24.093,24.093,0,0,1,8.461,2.348,31.8,31.8,0,0,1,3.4,1.869,34.288,34.288,0,0,1,3.058,2.133c.528.4,1.02.8,1.47,1.183l1.058.926a27.038,27.038,0,0,1,2.064,2.068" transform="translate(-137.615 -79.156)"/>
            </g>
          </g>
        </g>
        <path id="Path_1365" data-name="Path 1365" d="M146.379,101.228l7.657-10.918,9.926-1.965c-6.724-7.328.121-18.69.121-18.69l-13.871,1.569a40.354,40.354,0,0,1,.119,5.8c-.495,8.315-4.257,8.124-4.257,8.124l1.659,4.156Z" transform="translate(85.626 40.831)" fill="#e4897b"/>
        <g id="Group_882" data-name="Group 882" transform="translate(235.837 110.486)" opacity="0.2" style="isolation: isolate">
          <g id="Group_881" data-name="Group 881">
            <g id="Group_880" data-name="Group 880" clip-path="url(#clip-path-28)">
              <path id="Path_1366" data-name="Path 1366" d="M148.682,71.224a40.359,40.359,0,0,1,.119,5.8c6.71-1.053,13.752-7.369,13.752-7.369Z" transform="translate(-148.682 -69.655)"/>
            </g>
          </g>
        </g>
        <path id="Path_1367" data-name="Path 1367" d="M161.5,46.5c-11.83-1.664-16.53,4.134-19.11,16.2-3.226,15.083-1.37,26.383,13.879,25.209C176.981,86.316,181.149,49.26,161.5,46.5" transform="translate(82.683 27.092)" fill="#e4897b"/>
        <path id="Path_1368" data-name="Path 1368" d="M148.3,56.869a25.215,25.215,0,0,1-4.132,4.422,3.281,3.281,0,0,0,2.93,1.777Z" transform="translate(84.512 33.336)" fill="#de5753"/>
        <path id="Path_1369" data-name="Path 1369" d="M151.441,57.483c-.159.969.235,1.84.88,1.946s1.3-.593,1.458-1.561-.235-1.84-.88-1.946-1.3.592-1.458,1.561" transform="translate(88.752 32.774)" fill="#263238"/>
        <path id="Path_1370" data-name="Path 1370" d="M153.24,56.409l-1.97-1.174s.757,1.946,1.97,1.174" transform="translate(88.673 32.378)" fill="#263238"/>
        <path id="Path_1371" data-name="Path 1371" d="M143.87,56.106c-.159.969.235,1.84.88,1.946s1.3-.593,1.458-1.561-.233-1.84-.879-1.946-1.3.593-1.459,1.561" transform="translate(84.314 31.967)" fill="#263238"/>
        <path id="Path_1372" data-name="Path 1372" d="M145.67,55.032l-1.97-1.174s.757,1.946,1.97,1.174" transform="translate(84.235 31.571)" fill="#263238"/>
        <path id="Path_1373" data-name="Path 1373" d="M152.227,51.762s3.385.035,4.879,2.511" transform="translate(89.233 30.342)" fill="none" stroke="#263238" stroke-linecap="round" stroke-linejoin="round" stroke-width="0.744"/>
        <path id="Path_1374" data-name="Path 1374" d="M148.643,50.83a5.576,5.576,0,0,0-4.852.309" transform="translate(84.288 29.564)" fill="none" stroke="#263238" stroke-linecap="round" stroke-linejoin="round" stroke-width="0.744"/>
        <path id="Path_1375" data-name="Path 1375" d="M171,69.857s-4.164-10.5-2.27-17.884c0,0-22.1-12.875-26.6,10.758,0,0,.682-21.452,21.085-19.061,20.371,2.386,16.132,32.13,4.381,39.517,0,0,5.972-6.768,3.406-13.329" transform="translate(83.312 25.489)" fill="#263238"/>
        <path id="Path_1376" data-name="Path 1376" d="M159.006,63.035a5.243,5.243,0,0,1,6.254-3.956c3.61.915,4.3,8.688-5.076,9.214-1.345.076-1.9-1.307-1.179-5.258" transform="translate(93.02 34.536)" fill="#e4897b"/>
        <path id="Path_1377" data-name="Path 1377" d="M144.925,64.176a30.405,30.405,0,0,1,.941,4.276c.257.008.516.014.772.01,3.494.025,5.123-1.12,5.87-2.4a4.518,4.518,0,0,0,.566-2.057,4.392,4.392,0,0,0-.092-1.217c-1.861,1.094-5.12,1.324-6.867,1.374-.731.027-1.191.01-1.191.01" transform="translate(84.953 36.808)" fill="#263238"/>
        <path id="Path_1378" data-name="Path 1378" d="M145.676,64.166l.309,1.253c3.293.014,5.612-.417,6.649-1.409a4.382,4.382,0,0,0-.092-1.217c-1.861,1.094-5.12,1.323-6.867,1.372" transform="translate(85.393 36.809)" fill="#fff"/>
        <path id="Path_1379" data-name="Path 1379" d="M146.005,67.252c3.494.024,5.123-1.12,5.87-2.4a11.263,11.263,0,0,0-3.886.742,4.219,4.219,0,0,0-1.984,1.653" transform="translate(85.586 38.018)" fill="#de5753"/>
        <path id="Path_1380" data-name="Path 1380" d="M162.934,50.371s2.027,20.137,14.32,21.612S174.1,46.148,174.1,46.148s-18.942-10.361-30.3-1.128.273,19.055.273,19.055,1.367-15.181,18.866-13.7" transform="translate(81.371 24.145)" fill="#263238"/>
        <path id="Path_1381" data-name="Path 1381" d="M154.438,46.116s-3.317,13.088,5.726,19.117" transform="translate(90.181 27.033)" fill="none" stroke="#263238" stroke-linecap="round" stroke-linejoin="round" stroke-width="0.514"/>
        <path id="Path_1382" data-name="Path 1382" d="M158.623,77.974l-7.53,7.46,4.168,13.63,8.564-14.306Z" transform="translate(88.569 45.707)" fill="#263238"/>
        <path id="Path_1383" data-name="Path 1383" d="M152.624,77.327l-1.715,7.479-10.255,7.16L146.3,79.605Z" transform="translate(82.45 45.328)" fill="#263238"/>
        <path id="Path_1384" data-name="Path 1384" d="M177.894,91.027,176.2,97.052c-.419.2-.842.409-1.277.6-.2.1-.42.2-.622.3a47.737,47.737,0,0,1-8.464,2.842,39.286,39.286,0,0,1-4.018.771,43.572,43.572,0,0,1-7.273.5c.414-1.239.845-2.409,1.269-3.55A122.812,122.812,0,0,1,161.242,86c.452-.906.853-1.659,1.188-2.267s.582-1.053.747-1.342c.155-.257.235-.385.235-.385l5.694,3.551c.016,0,.011.019.027.024Z" transform="translate(90.595 48.073)" fill="#e0e0e0"/>
        <path id="Path_1385" data-name="Path 1385" d="M149.726,79.086a15.5,15.5,0,0,0-1.183,1.47,42.327,42.327,0,0,0-2.915,4.767.874.874,0,0,0-.113.2c-.17.319-.341.638-.516.972-.1.222-.211.424-.311.646-1.036,2.1-2.178,4.674-3.348,7.791a1.6,1.6,0,0,0-.135.376,45.164,45.164,0,0,1-8.037-7.035,4.069,4.069,0,0,0-.266.59l.086-.795c-.42-.438-.818-.9-1.217-1.369a42.4,42.4,0,0,1,1.731-4.421l5.25-1.041.07-.019,4.852-.936Z" transform="translate(77.242 46.359)" fill="#e0e0e0"/>
        <path id="Path_1386" data-name="Path 1386" d="M153.894,76.964a11.717,11.717,0,0,0-2.21,2.259c-.228.29-.462.595-.687.934a4.669,4.669,0,0,0-.438.631,82.782,82.782,0,0,0-5.81,10.645c-.106.252-.227.5-.336.753-.308.644-.609,1.309-.909,1.987-.5,1.091-.979,2.2-1.459,3.31a4.767,4.767,0,0,0-.189.462c-.711-.439-1.423-.9-2.1-1.394a43.173,43.173,0,0,1-4.226-3.28l1.938-1.784-3.217-4.708a37.65,37.65,0,0,1,7.975-5.25c.314-.173.611-.332.92-.473a66.622,66.622,0,0,1,10.716-4.084.055.055,0,0,1,.035-.008" transform="translate(78.694 45.115)" fill="#263238"/>
        <g id="Group_885" data-name="Group 885" transform="translate(212.941 122.079)" opacity="0.7" style="isolation: isolate">
          <g id="Group_884" data-name="Group 884">
            <g id="Group_883" data-name="Group 883" clip-path="url(#clip-path-29)">
              <path id="Path_1387" data-name="Path 1387" d="M153.894,76.964a11.717,11.717,0,0,0-2.21,2.259c-.228.29-.462.595-.687.934a4.669,4.669,0,0,0-.438.631,82.782,82.782,0,0,0-5.81,10.645c-.106.252-.227.5-.336.753-.308.644-.609,1.309-.909,1.987-.5,1.091-.979,2.2-1.459,3.31a4.767,4.767,0,0,0-.189.462c-.711-.439-1.423-.9-2.1-1.394a43.173,43.173,0,0,1-4.226-3.28l1.938-1.784-3.217-4.708a37.65,37.65,0,0,1,7.975-5.25c.314-.173.611-.332.92-.473a66.622,66.622,0,0,1,10.716-4.084.055.055,0,0,1,.035-.008" transform="translate(-134.247 -76.964)" fill="#fff"/>
            </g>
          </g>
        </g>
        <path id="Path_1388" data-name="Path 1388" d="M164.054,98.4l2.427,3.682a39.371,39.371,0,0,1-4.018.771,43.932,43.932,0,0,1-7.274.5,15.328,15.328,0,0,1-1.727-.056c.171-.611.341-1.207.511-1.8.755-2.657,1.548-5.193,2.311-7.525,1.126-3.42,2.191-6.43,3.072-8.783.454-1.2.857-2.244,1.175-3.066a5.463,5.463,0,0,0,.238-.612c.444-1.087.7-1.7.7-1.7a30.686,30.686,0,0,1,8.28,7.041c.014,0,.011.019.027.022.228.281.46.546.658.818l.016,0a28.4,28.4,0,0,1,2.275,3.207l-8.351,3.488-2.3.968,1.991,3.028Z" transform="translate(89.957 46.784)" fill="#263238"/>
        <g id="Group_888" data-name="Group 888" transform="translate(243.416 126.594)" opacity="0.7" style="isolation: isolate">
          <g id="Group_887" data-name="Group 887">
            <g id="Group_886" data-name="Group 886" clip-path="url(#clip-path-30)">
              <path id="Path_1389" data-name="Path 1389" d="M164.054,98.4l2.427,3.682a39.371,39.371,0,0,1-4.018.771,43.932,43.932,0,0,1-7.274.5,15.328,15.328,0,0,1-1.727-.056c.171-.611.341-1.207.511-1.8.755-2.657,1.548-5.193,2.311-7.525,1.126-3.42,2.191-6.43,3.072-8.783.454-1.2.857-2.244,1.175-3.066a5.463,5.463,0,0,0,.238-.612c.444-1.087.7-1.7.7-1.7a30.686,30.686,0,0,1,8.28,7.041c.014,0,.011.019.027.022.228.281.46.546.658.818l.016,0a28.4,28.4,0,0,1,2.275,3.207l-8.351,3.488-2.3.968,1.991,3.028Z" transform="translate(-153.459 -79.809)" fill="#fff"/>
            </g>
          </g>
        </g>
        <path id="Path_1390" data-name="Path 1390" d="M172.9,91.32a46.682,46.682,0,0,1-4.227,2.4c-.42.2-.844.409-1.278.6l2.968-6.626A12.9,12.9,0,0,1,172.9,91.32" transform="translate(98.125 51.406)" fill="#e0e0e0"/>
        <path id="Path_1391" data-name="Path 1391" d="M179.907,141.121a.793.793,0,0,1-.062-1.583c1.039-.084,2.075-.2,3.1-.339a.793.793,0,1,1,.219,1.57q-1.587.221-3.193.351c-.022,0-.043,0-.065,0m10.894-2a.793.793,0,0,1-.22-1.554,54.435,54.435,0,0,0,25.98-16.617.793.793,0,0,1,1.2,1.039,56.013,56.013,0,0,1-26.735,17.1.774.774,0,0,1-.222.032m-34.284-1.193a.777.777,0,0,1-.271-.048,55.643,55.643,0,0,1-25.481-18.909.794.794,0,0,1,1.269-.953,54.071,54.071,0,0,0,24.756,18.373.793.793,0,0,1-.273,1.537m-29.413-25.3a.793.793,0,0,1-.7-.412q-.771-1.409-1.464-2.863a.793.793,0,1,1,1.432-.68q.671,1.411,1.423,2.781a.794.794,0,0,1-.695,1.175m101.332-11.1a.835.835,0,0,1-.222-.032.792.792,0,0,1-.539-.983q.431-1.489.784-3.025a.793.793,0,0,1,1.547.355q-.362,1.577-.807,3.112a.8.8,0,0,1-.761.573M230.6,88.2l-.032,0a.79.79,0,0,1-.761-.822q.038-1.047.04-2.086c0-.346,0-.693-.011-1.039a.794.794,0,0,1,.779-.809.772.772,0,0,1,.807.777q.012.535.011,1.071,0,1.071-.041,2.146a.793.793,0,0,1-.792.763M120.314,86.822a.792.792,0,0,1-.793-.785l0-.646a56.309,56.309,0,0,1,8.624-29.9.792.792,0,1,1,1.34.845A54.747,54.747,0,0,0,121.1,85.391l0,.628a.8.8,0,0,1-.785.8ZM229.9,77.139a.8.8,0,0,1-.782-.665,54.345,54.345,0,0,0-13.459-27.744.793.793,0,1,1,1.174-1.068,55.946,55.946,0,0,1,13.851,28.553.794.794,0,0,1-.654.912.72.72,0,0,1-.13.011M133.511,50.327a.783.783,0,0,1-.514-.19.792.792,0,0,1-.089-1.117q1.047-1.225,2.16-2.387a.794.794,0,0,1,1.145,1.1q-1.08,1.125-2.1,2.317a.787.787,0,0,1-.6.278m63.481-14.983a.781.781,0,0,1-.308-.063q-1.435-.6-2.912-1.133a.793.793,0,1,1,.53-1.494q1.525.542,3,1.166a.794.794,0,0,1-.309,1.524m-41.748-.523a.793.793,0,0,1-.292-1.531A55.778,55.778,0,0,1,186.563,30.5a.793.793,0,0,1-.317,1.554,54.2,54.2,0,0,0-30.71,2.706.788.788,0,0,1-.292.056" transform="translate(70.059 17.226)" fill="#263238"/>
        <g id="Group_891" data-name="Group 891" transform="translate(189.575 46.612)" opacity="0.5">
          <g id="Group_890" data-name="Group 890">
            <g id="Group_889" data-name="Group 889" clip-path="url(#clip-path-31)">
              <path id="Path_1392" data-name="Path 1392" d="M179.907,141.121a.793.793,0,0,1-.062-1.583c1.039-.084,2.075-.2,3.1-.339a.793.793,0,1,1,.219,1.57q-1.587.221-3.193.351c-.022,0-.043,0-.065,0m10.894-2a.793.793,0,0,1-.22-1.554,54.435,54.435,0,0,0,25.98-16.617.793.793,0,0,1,1.2,1.039,56.013,56.013,0,0,1-26.735,17.1.774.774,0,0,1-.222.032m-34.284-1.193a.777.777,0,0,1-.271-.048,55.643,55.643,0,0,1-25.481-18.909.794.794,0,0,1,1.269-.953,54.071,54.071,0,0,0,24.756,18.373.793.793,0,0,1-.273,1.537m-29.413-25.3a.793.793,0,0,1-.7-.412q-.771-1.409-1.464-2.863a.793.793,0,1,1,1.432-.68q.671,1.411,1.423,2.781a.794.794,0,0,1-.695,1.175m101.332-11.1a.835.835,0,0,1-.222-.032.792.792,0,0,1-.539-.983q.431-1.489.784-3.025a.793.793,0,0,1,1.547.355q-.362,1.577-.807,3.112a.8.8,0,0,1-.761.573M230.6,88.2l-.032,0a.79.79,0,0,1-.761-.822q.038-1.047.04-2.086c0-.346,0-.693-.011-1.039a.794.794,0,0,1,.779-.809.772.772,0,0,1,.807.777q.012.535.011,1.071,0,1.071-.041,2.146a.793.793,0,0,1-.792.763M120.314,86.822a.792.792,0,0,1-.793-.785l0-.646a56.309,56.309,0,0,1,8.624-29.9.792.792,0,1,1,1.34.845A54.747,54.747,0,0,0,121.1,85.391l0,.628a.8.8,0,0,1-.785.8ZM229.9,77.139a.8.8,0,0,1-.782-.665,54.345,54.345,0,0,0-13.459-27.744.793.793,0,1,1,1.174-1.068,55.946,55.946,0,0,1,13.851,28.553.794.794,0,0,1-.654.912.72.72,0,0,1-.13.011M133.511,50.327a.783.783,0,0,1-.514-.19.792.792,0,0,1-.089-1.117q1.047-1.225,2.16-2.387a.794.794,0,0,1,1.145,1.1q-1.08,1.125-2.1,2.317a.787.787,0,0,1-.6.278m63.481-14.983a.781.781,0,0,1-.308-.063q-1.435-.6-2.912-1.133a.793.793,0,1,1,.53-1.494q1.525.542,3,1.166a.794.794,0,0,1-.309,1.524m-41.748-.523a.793.793,0,0,1-.292-1.531A55.778,55.778,0,0,1,186.563,30.5a.793.793,0,0,1-.317,1.554,54.2,54.2,0,0,0-30.71,2.706.788.788,0,0,1-.292.056" transform="translate(-119.516 -29.386)" fill="#fff"/>
            </g>
          </g>
        </g>
        <path id="Path_1393" data-name="Path 1393" d="M262.179,147.47a30.533,30.533,0,0,1,1.516,23.2q-.288.909-.66,1.789a28.632,28.632,0,0,1-1.313,2.827c-.354.673-.734,1.336-1.142,1.967a30.326,30.326,0,0,1-12.472,11.216c-.138.068-.285.14-.427.2-.7.341-1.4.636-2.106.9a31.066,31.066,0,0,1-7.266,1.791,30.806,30.806,0,0,1-7.982-.089c-.926-.128-1.853-.3-2.765-.514a31.128,31.128,0,0,1-4.059-1.278,30.644,30.644,0,1,1,38.676-42.009" transform="translate(119.581 76.371)" fill="#7d50c7"/>
        <path id="Path_1394" data-name="Path 1394" d="M223.119,171.651c-.926-.127-1.853-.3-2.765-.514a30.65,30.65,0,0,1-4.059-1.278,24.38,24.38,0,0,1,2.27-6.055c.014-.043.032-.051.032-.051Z" transform="translate(126.789 95.99)" fill="#263238"/>
        <g id="Group_894" data-name="Group 894" transform="translate(343.083 259.741)" opacity="0.3" style="isolation: isolate">
          <g id="Group_893" data-name="Group 893">
            <g id="Group_892" data-name="Group 892" clip-path="url(#clip-path-32)">
              <path id="Path_1395" data-name="Path 1395" d="M223.119,171.651c-.926-.127-1.853-.3-2.765-.514a30.65,30.65,0,0,1-4.059-1.278,24.38,24.38,0,0,1,2.27-6.055c.014-.043.032-.051.032-.051Z" transform="translate(-216.293 -163.751)" fill="#fff"/>
            </g>
          </g>
        </g>
        <path id="Path_1396" data-name="Path 1396" d="M255.028,163.861c.349.876.7,1.783,1.026,2.728a.491.491,0,0,1,.049.124,20.106,20.106,0,0,1,.679,2.317c-.354.673-.734,1.337-1.14,1.968a30.341,30.341,0,0,1-12.474,11.216c-.138.067-.284.14-.427.2-.7.341-1.394.638-2.1.906a28.585,28.585,0,0,1-2.846.925,28.062,28.062,0,0,1-4.422.864,29.3,29.3,0,0,1-4.47.208,43.932,43.932,0,0,1-6.84-8.916c-5.43-8.945-9.593-20.157-9.636-24.059a.01.01,0,0,1,0-.014c-.013-1.654,1.746-3.174,4.408-4.544.179-.1.354-.184.538-.273l.265-.13a71.473,71.473,0,0,1,12.218-4.042c.255-.057.508-.122.755-.176.842-.206,1.648-.4,2.436-.576l.008,0c1.16-.26,2.24-.492,3.223-.688l.01,0c1-.206,1.908-.376,2.655-.525,1.469-.274,2.357-.412,2.357-.412.048.146.089.3.128.449,1.19,3.295,8.239,9.106,13.6,22.464" transform="translate(124.519 82.622)" fill="#263238"/>
        <path id="Path_1397" data-name="Path 1397" d="M254.682,155.113c.114.956.23,1.889.341,2.79a28.456,28.456,0,0,1-1.313,2.827c-.354.673-.734,1.336-1.142,1.967A30.34,30.34,0,0,1,240.1,173.914c-.138.067-.286.138-.427.2-.7.341-1.4.636-2.106.9a31.064,31.064,0,0,1-7.266,1.791,30.8,30.8,0,0,1-7.982-.089c-.926-.127-1.853-.3-2.765-.514-.106-.289-.214-.555-.308-.817-1.91-5.115-1.6-6.291-1.482-6.519.014-.041.032-.049.032-.049s.436-.271,1.194-.72c1.87-1.109,5.64-3.3,9.33-5.109l.679-.331c.6-.268,1.207-.533,1.808-.793,2.8-1.185,5.658-2.243,8.567-3.153.853-.281,1.71-.528,2.574-.782.638-.186,1.274-.373,1.907-.544,2.674-.741,5.371-1.342,8.1-1.824.906-.171,1.816-.309,2.727-.447" transform="translate(127.594 90.925)" fill="#263238"/>
        <g id="Group_897" data-name="Group 897" transform="translate(345.261 246.038)" opacity="0.3" style="isolation: isolate">
          <g id="Group_896" data-name="Group 896">
            <g id="Group_895" data-name="Group 895" clip-path="url(#clip-path-33)">
              <path id="Path_1398" data-name="Path 1398" d="M254.682,155.113c.114.956.23,1.889.341,2.79a28.456,28.456,0,0,1-1.313,2.827c-.354.673-.734,1.336-1.142,1.967A30.34,30.34,0,0,1,240.1,173.914c-.138.067-.286.138-.427.2-.7.341-1.4.636-2.106.9a31.064,31.064,0,0,1-7.266,1.791,30.8,30.8,0,0,1-7.982-.089c-.926-.127-1.853-.3-2.765-.514-.106-.289-.214-.555-.308-.817-1.91-5.115-1.6-6.291-1.482-6.519.014-.041.032-.049.032-.049s.436-.271,1.194-.72c1.87-1.109,5.64-3.3,9.33-5.109l.679-.331c.6-.268,1.207-.533,1.808-.793,2.8-1.185,5.658-2.243,8.567-3.153.853-.281,1.71-.528,2.574-.782.638-.186,1.274-.373,1.907-.544,2.674-.741,5.371-1.342,8.1-1.824.906-.171,1.816-.309,2.727-.447" transform="translate(-217.667 -155.113)" fill="#fff"/>
            </g>
          </g>
        </g>
        <path id="Path_1399" data-name="Path 1399" d="M240.2,161.3l5.43,2.5a34,34,0,0,0-7.679,9.533c-.7.341-1.4.636-2.106.9a31.064,31.064,0,0,1-7.266,1.791,20.906,20.906,0,0,0-5.2-2.213,25.22,25.22,0,0,1,3.564-6.759,27.567,27.567,0,0,0-6.346,1.068,66.824,66.824,0,0,1,6-5.913c.811-.692,1.643-1.361,2.462-1.943a16.155,16.155,0,0,1,2.76-1.588,35.8,35.8,0,0,1,4.625-1.727,13.159,13.159,0,0,1,5.688-.347,12.6,12.6,0,0,1,4.308,1.646Z" transform="translate(129.312 91.702)" fill="#fff"/>
        <path id="Path_1400" data-name="Path 1400" d="M236.657,157.912a1.068,1.068,0,0,1-.038.178,2.006,2.006,0,0,0-.1.333.138.138,0,0,0-.024.09c-.577,2.1-2.5,9.341-3.458,14.861a28.479,28.479,0,0,1-2.847.925,33.143,33.143,0,0,1-4.537-10.815c-.106-.471-.2-.961-.27-1.459Z" transform="translate(132.118 92.566)" fill="#b291f2"/>
        <path id="Path_1401" data-name="Path 1401" d="M230.532,169.923c6.338-4.172,6.959-8.053,6.959-8.053-6.27-1.949-6.135-10.707-6.135-10.707l-7.395,5.5a26.685,26.685,0,0,1,1.992,3.271c2.478,4.909.267,6.05.267,6.05-.119,3.374,4.313,3.94,4.313,3.94" transform="translate(131.282 88.61)" fill="#eec1bb"/>
        <g id="Group_900" data-name="Group 900" transform="translate(355.242 239.773)" opacity="0.2" style="isolation: isolate">
          <g id="Group_899" data-name="Group 899">
            <g id="Group_898" data-name="Group 898" clip-path="url(#clip-path-34)">
              <path id="Path_1402" data-name="Path 1402" d="M223.96,156.661a26.727,26.727,0,0,1,1.994,3.271c5.5-2.687,5.4-8.77,5.4-8.77Z" transform="translate(-223.96 -151.164)"/>
            </g>
          </g>
        </g>
        <path id="Path_1403" data-name="Path 1403" d="M222.268,139.172c-7.265,3.071-7.958,7.95-5.325,15.66,3.291,9.636,8.175,15.405,16.412,9.566,11.189-7.929.976-30.328-11.087-25.227" transform="translate(126.346 81.143)" fill="#eec1bb"/>
        <path id="Path_1404" data-name="Path 1404" d="M219.587,147.261a16.712,16.712,0,0,1-.839,3.907,2.166,2.166,0,0,0,2.262.011Z" transform="translate(128.227 86.322)" fill="#d4827d"/>
        <path id="Path_1405" data-name="Path 1405" d="M221.965,146.224c.238.6.757.963,1.159.8s.533-.776.3-1.378-.757-.961-1.159-.8-.533.776-.3,1.378" transform="translate(130.043 84.885)" fill="#263238"/>
        <path id="Path_1406" data-name="Path 1406" d="M222.78,144.809l-1.513,0s1.088.844,1.513,0" transform="translate(129.704 84.885)" fill="#263238"/>
        <path id="Path_1407" data-name="Path 1407" d="M217.211,148.013c.238.6.757.963,1.159.8s.533-.777.3-1.38-.757-.961-1.158-.8-.535.776-.3,1.378" transform="translate(127.257 85.933)" fill="#263238"/>
        <path id="Path_1408" data-name="Path 1408" d="M218.026,146.6l-1.513,0s1.088.844,1.513,0" transform="translate(126.917 85.934)" fill="#263238"/>
        <path id="Path_1409" data-name="Path 1409" d="M220.63,142.733a4.1,4.1,0,0,1,3.615-.233" transform="translate(129.33 83.329)" fill="none" stroke="#263238" stroke-linecap="round" stroke-linejoin="round" stroke-width="0.442"/>
        <path id="Path_1410" data-name="Path 1410" d="M218.2,143.733a3.676,3.676,0,0,0-2.643,1.821" transform="translate(126.355 84.254)" fill="none" stroke="#263238" stroke-linecap="round" stroke-linejoin="round" stroke-width="0.442"/>
        <path id="Path_1411" data-name="Path 1411" d="M221.6,152.5a19.95,19.95,0,0,1,1.915,2.165c.151-.078.3-.157.449-.243,2.024-1.107,2.6-2.289,2.619-3.264a2.984,2.984,0,0,0-.333-1.369,2.85,2.85,0,0,0-.444-.673,10.877,10.877,0,0,1-3.521,2.995c-.412.251-.684.389-.684.389" transform="translate(129.901 87.411)" fill="#263238"/>
        <path id="Path_1412" data-name="Path 1412" d="M222.035,152.113l.579.623c1.9-1.048,3.1-2.041,3.387-2.946a2.91,2.91,0,0,0-.444-.673,10.894,10.894,0,0,1-3.521,2.995" transform="translate(130.154 87.411)" fill="#fff"/>
        <path id="Path_1413" data-name="Path 1413" d="M223.093,153.67c2.024-1.107,2.6-2.29,2.619-3.266a7.415,7.415,0,0,0-2,1.677,2.775,2.775,0,0,0-.615,1.589" transform="translate(130.774 88.165)" fill="#de5753"/>
        <path id="Path_1414" data-name="Path 1414" d="M235.694,149.385s-5.92-4.532-7.354-9.357c0,0-16.882.206-11.414,15.118,0,0-6.892-12.38,5.472-17.949,12.345-5.561,20.037,12.723,15.89,20.892,0,0,1.085-5.859-2.595-8.7" transform="translate(126.036 79.816)" fill="#263238"/>
        <path id="Path_1415" data-name="Path 1415" d="M227.772,147.422a3.461,3.461,0,0,1,2.2-4.362c2.356-.707,5.382,3.461.254,6.94-.736.5-1.521-.094-2.452-2.578" transform="translate(133.42 83.814)" fill="#eec1bb"/>
        <path id="Path_1416" data-name="Path 1416" d="M227.735,141.519A29.9,29.9,0,0,0,240,156.153c6.919,4.064,4.922,11.568,4.922,11.568s7.85-7.877-2.822-19.266c0,0-1.415-14.146-11.724-13.1,0,0-1.835-3.628-9.393.93s-10.612,14.436-7.6,23.656S225.6,176.583,225.6,176.583s-19.735-28.24,2.132-35.064" transform="translate(124.412 78.541)" fill="#263238"/>
        <path id="Path_1417" data-name="Path 1417" d="M222.7,138.687a22.734,22.734,0,0,0,2.486,6.564,34.545,34.545,0,0,0,4.118,5.831A29.767,29.767,0,0,0,234.6,155.9a19.245,19.245,0,0,0,6.464,3.069,19.359,19.359,0,0,1-6.606-2.857,30.308,30.308,0,0,1-5.531-4.686,35.337,35.337,0,0,1-4.4-5.793,23.406,23.406,0,0,1-2.831-6.8Z" transform="translate(129.952 81.296)" fill="#263238"/>
        <path id="Path_1418" data-name="Path 1418" d="M242.793,156.114q-.29.909-.66,1.789a28.463,28.463,0,0,1-1.313,2.827c-.354.673-.734,1.337-1.142,1.968a14.317,14.317,0,0,1,.414-4.411,7.813,7.813,0,0,1,1.7-3.174s.357.36,1,1" transform="translate(140.484 90.925)" fill="#263238"/>
        <g id="Group_903" data-name="Group 903" transform="translate(380.141 246.038)" opacity="0.3" style="isolation: isolate">
          <g id="Group_902" data-name="Group 902">
            <g id="Group_901" data-name="Group 901" clip-path="url(#clip-path-35)">
              <path id="Path_1419" data-name="Path 1419" d="M242.793,156.114q-.29.909-.66,1.789a28.463,28.463,0,0,1-1.313,2.827c-.354.673-.734,1.337-1.142,1.968a14.317,14.317,0,0,1,.414-4.411,7.813,7.813,0,0,1,1.7-3.174s.357.36,1,1" transform="translate(-239.657 -155.113)" fill="#fff"/>
            </g>
          </g>
        </g>
        <path id="Path_1420" data-name="Path 1420" d="M236.664,198.817a36.1,36.1,0,0,1-8.8-1.091.511.511,0,1,1,.249-.991,34.992,34.992,0,0,0,19.843-.823.511.511,0,1,1,.331.966,35.741,35.741,0,0,1-11.624,1.94m-13.524-2.673a.489.489,0,0,1-.193-.038q-.959-.393-1.894-.841a.51.51,0,1,1,.443-.92q.907.433,1.84.815a.511.511,0,0,1-.2.983m37.988-7.114a.512.512,0,0,1-.352-.882q.733-.692,1.416-1.426a.511.511,0,1,1,.747.7q-.707.754-1.459,1.469a.509.509,0,0,1-.352.141m-51.841-3.066a.5.5,0,0,1-.393-.186,36.235,36.235,0,0,1-8.051-18.79.511.511,0,0,1,1.015-.119,34.927,34.927,0,0,0,3.326,11.284,35.324,35.324,0,0,0,4.5,6.974.511.511,0,0,1-.393.836m56.49-2.348a.5.5,0,0,1-.292-.092.509.509,0,0,1-.127-.711,35.065,35.065,0,0,0,6.278-18.845.482.482,0,0,1,.528-.493.513.513,0,0,1,.493.528A36.061,36.061,0,0,1,266.2,183.4a.508.508,0,0,1-.419.221M201.119,162.34h-.013a.511.511,0,0,1-.5-.525q.026-1.04.116-2.07a.511.511,0,0,1,1.018.087q-.086,1-.114,2.011a.511.511,0,0,1-.511.5m68.276-12.8a.514.514,0,0,1-.471-.314c-.257-.614-.534-1.226-.831-1.832a.511.511,0,1,1,.917-.45q.459.937.857,1.888a.509.509,0,0,1-.273.668.516.516,0,0,1-.2.041m-63.668-3.769a.512.512,0,0,1-.444-.763,35.873,35.873,0,0,1,14.7-14.193.511.511,0,0,1,.471.907,34.838,34.838,0,0,0-14.287,13.789.509.509,0,0,1-.444.26M265.089,142a.511.511,0,0,1-.411-.206q-.6-.809-1.248-1.577a.511.511,0,1,1,.782-.657q.664.788,1.286,1.624a.511.511,0,0,1-.409.815m-4.827-5.26a.509.509,0,0,1-.338-.128,35.018,35.018,0,0,0-17.976-8.451.511.511,0,1,1,.157-1.01,36.042,36.042,0,0,1,18.5,8.7.511.511,0,0,1-.339.893m-35.356-6.992a.511.511,0,0,1-.17-.993q.983-.345,1.975-.63a.511.511,0,1,1,.282.982c-.641.184-1.282.387-1.918.612a.529.529,0,0,1-.17.029" transform="translate(117.595 74.532)" fill="#263238"/>
        <g id="Group_906" data-name="Group 906" transform="translate(318.203 201.679)" opacity="0.5">
          <g id="Group_905" data-name="Group 905">
            <g id="Group_904" data-name="Group 904" clip-path="url(#clip-path-36)">
              <path id="Path_1421" data-name="Path 1421" d="M236.664,198.817a36.1,36.1,0,0,1-8.8-1.091.511.511,0,1,1,.249-.991,34.992,34.992,0,0,0,19.843-.823.511.511,0,1,1,.331.966,35.741,35.741,0,0,1-11.624,1.94m-13.524-2.673a.489.489,0,0,1-.193-.038q-.959-.393-1.894-.841a.51.51,0,1,1,.443-.92q.907.433,1.84.815a.511.511,0,0,1-.2.983m37.988-7.114a.512.512,0,0,1-.352-.882q.733-.692,1.416-1.426a.511.511,0,1,1,.747.7q-.707.754-1.459,1.469a.509.509,0,0,1-.352.141m-51.841-3.066a.5.5,0,0,1-.393-.186,36.235,36.235,0,0,1-8.051-18.79.511.511,0,0,1,1.015-.119,34.927,34.927,0,0,0,3.326,11.284,35.324,35.324,0,0,0,4.5,6.974.511.511,0,0,1-.393.836m56.49-2.348a.5.5,0,0,1-.292-.092.509.509,0,0,1-.127-.711,35.065,35.065,0,0,0,6.278-18.845.482.482,0,0,1,.528-.493.513.513,0,0,1,.493.528A36.061,36.061,0,0,1,266.2,183.4a.508.508,0,0,1-.419.221M201.119,162.34h-.013a.511.511,0,0,1-.5-.525q.026-1.04.116-2.07a.511.511,0,0,1,1.018.087q-.086,1-.114,2.011a.511.511,0,0,1-.511.5m68.276-12.8a.514.514,0,0,1-.471-.314c-.257-.614-.534-1.226-.831-1.832a.511.511,0,1,1,.917-.45q.459.937.857,1.888a.509.509,0,0,1-.273.668.516.516,0,0,1-.2.041m-63.668-3.769a.512.512,0,0,1-.444-.763,35.873,35.873,0,0,1,14.7-14.193.511.511,0,0,1,.471.907,34.838,34.838,0,0,0-14.287,13.789.509.509,0,0,1-.444.26M265.089,142a.511.511,0,0,1-.411-.206q-.6-.809-1.248-1.577a.511.511,0,1,1,.782-.657q.664.788,1.286,1.624a.511.511,0,0,1-.409.815m-4.827-5.26a.509.509,0,0,1-.338-.128,35.018,35.018,0,0,0-17.976-8.451.511.511,0,1,1,.157-1.01,36.042,36.042,0,0,1,18.5,8.7.511.511,0,0,1-.339.893m-35.356-6.992a.511.511,0,0,1-.17-.993q.983-.345,1.975-.63a.511.511,0,1,1,.282.982c-.641.184-1.282.387-1.918.612a.529.529,0,0,1-.17.029" transform="translate(-200.608 -127.147)" fill="#fff"/>
            </g>
          </g>
        </g>
        <path id="Path_1422" data-name="Path 1422" d="M294.138,57.223A40.627,40.627,0,0,1,252.256,103.4a22.4,22.4,0,0,1-2.573-.192,40.3,40.3,0,0,1-19.16-7.155l-.016-.011a29.871,29.871,0,0,1-2.738-2.086,38.992,38.992,0,0,1-3.6-3.417,40.656,40.656,0,1,1,69.971-33.313" transform="translate(124.969 12.958)" fill="#7d50c7"/>
        <path id="Path_1423" data-name="Path 1423" d="M226.452,71.977a29.309,29.309,0,0,1-2.738-2.086,39,39,0,0,1-3.605-3.417,11.769,11.769,0,0,1,3.594-3.014,4.962,4.962,0,0,1,.7-.287l.014,0c.011-.016.038-.019.051-.022Z" transform="translate(129.025 37.018)" fill="#407bff"/>
        <g id="Group_909" data-name="Group 909" transform="translate(349.136 100.153)" opacity="0.7" style="isolation: isolate">
          <g id="Group_908" data-name="Group 908">
            <g id="Group_907" data-name="Group 907" clip-path="url(#clip-path-37)">
              <path id="Path_1424" data-name="Path 1424" d="M226.452,71.982a29.309,29.309,0,0,1-2.738-2.086,39,39,0,0,1-3.605-3.417,11.769,11.769,0,0,1,3.594-3.014,3.771,3.771,0,0,1,.7-.3l.013,0c.027,0,.04-.019.067-.022l0,.013Z" transform="translate(-220.111 -63.141)" fill="#fff"/>
            </g>
          </g>
        </g>
        <path id="Path_1425" data-name="Path 1425" d="M283.6,60.792a40.516,40.516,0,0,1-29.571,19.845,40.01,40.01,0,0,1-7.165.344,22.737,22.737,0,0,1-2.571-.192,40.291,40.291,0,0,1-19.161-7.155l-.014-.011a29.585,29.585,0,0,1-2.738-2.086c.171-2.324.4-4.571.688-6.719l0-.013.014,0a.513.513,0,0,1,.054-.008l.013,0c.734-.143,7.346-1.315,16.758-2.422.417-.057.849-.1,1.28-.149,2.007-.235,4.138-.462,6.353-.671,1.283-.122,2.6-.235,3.948-.352,4.086-.332,8.415-.6,12.815-.742,1.106-.029,2.222-.06,3.329-.076,5.377-.1,10.783,0,15.971.411" transform="translate(130.358 35.374)" fill="#407bff"/>
        <g id="Group_912" data-name="Group 912" transform="translate(352.741 95.72)" opacity="0.7" style="isolation: isolate">
          <g id="Group_911" data-name="Group 911">
            <g id="Group_910" data-name="Group 910" clip-path="url(#clip-path-38)">
              <path id="Path_1426" data-name="Path 1426" d="M283.6,60.792a40.516,40.516,0,0,1-29.571,19.845,40.01,40.01,0,0,1-7.165.344,22.737,22.737,0,0,1-2.571-.192,40.291,40.291,0,0,1-19.161-7.155l-.014-.011a29.585,29.585,0,0,1-2.738-2.086c.171-2.324.409-4.573.7-6.721l0-.013a.513.513,0,0,1,.054-.008l.013,0c.734-.143,7.346-1.315,16.758-2.422.417-.057.849-.1,1.28-.149,2.007-.235,4.138-.462,6.353-.671,1.283-.122,2.6-.235,3.948-.352,4.086-.332,8.415-.6,12.815-.742,1.106-.029,2.222-.06,3.329-.076,5.377-.1,10.783,0,15.971.411" transform="translate(-222.383 -60.346)" fill="#fff"/>
            </g>
          </g>
        </g>
        <path id="Path_1427" data-name="Path 1427" d="M246.5,64.669,243.3,68.12,239.9,71.792a69,69,0,0,0-.485,7.292,22.791,22.791,0,0,1-2.573-.192c.387-4.543.674-7.415.674-7.415l-1.445-4.124-.966-2.741,5.277-1.029Z" transform="translate(137.814 37.271)" fill="#263238"/>
        <path id="Path_1428" data-name="Path 1428" d="M257.482,69.9c-4.3,5.147-16.58,5.157-16.58,5.157s-7.806-1.02-6.551-3.588c4.33-1.343,6.189-3.707,6.711-6.475a13.043,13.043,0,0,0-.249-5.123,27.252,27.252,0,0,0-.761-2.774l13.375-13.086c-.947,7.552-1.488,21.276,4.056,25.89" transform="translate(137.293 25.799)" fill="#e4897b"/>
        <g id="Group_915" data-name="Group 915" transform="translate(378.106 77.296)" opacity="0.2" style="isolation: isolate">
          <g id="Group_914" data-name="Group 914">
            <g id="Group_913" data-name="Group 913" clip-path="url(#clip-path-39)">
              <path id="Path_1429" data-name="Path 1429" d="M248.513,48.731c.642,9.021-6.362,12.5-9.89,13.5a13.044,13.044,0,0,0-.249-5.123Z" transform="translate(-238.374 -48.731)"/>
            </g>
          </g>
        </g>
        <path id="Path_1430" data-name="Path 1430" d="M255.223,56.948l-13.354,8.386L240.323,60.3l-4.981,2.563a4.346,4.346,0,0,0-2.23,4.9l1.369,5.568,6.679-4.95,4.3,4.6,15.968-10.6Z" transform="translate(136.574 33.382)" fill="#407bff"/>
        <g id="Group_918" data-name="Group 918" transform="translate(369.561 90.33)" opacity="0.6" style="isolation: isolate">
          <g id="Group_917" data-name="Group 917">
            <g id="Group_916" data-name="Group 916" clip-path="url(#clip-path-40)">
              <path id="Path_1431" data-name="Path 1431" d="M255.223,56.948l-13.354,8.386L240.323,60.3l-4.981,2.563a4.346,4.346,0,0,0-2.23,4.9l1.369,5.568,6.679-4.95,4.3,4.6,15.968-10.6Z" transform="translate(-232.987 -56.948)" fill="#fff"/>
            </g>
          </g>
        </g>
        <path id="Path_1432" data-name="Path 1432" d="M225.272,34.763s-.246,14.65,8.118,19.145,4.76-22.232,4.76-22.232Z" transform="translate(132.051 18.568)" fill="#263238"/>
        <path id="Path_1433" data-name="Path 1433" d="M256.132,63.425a13.145,13.145,0,0,1-14.28,7.066,14.638,14.638,0,0,1-9.192-5.628,15.342,15.342,0,0,1-.876-1.285c-4.933-8.267-8.2-23.452.3-30.455A14.257,14.257,0,0,1,255.1,40.855c2.524,10.1,4.483,15.925,1.034,22.57" transform="translate(132.97 17.477)" fill="#e4897b"/>
        <path id="Path_1434" data-name="Path 1434" d="M236.444,41.944a1.306,1.306,0,0,1-.5,1.762c-.538.167-1.161-.365-1.418-1.169s-.024-1.6.5-1.761,1.158.351,1.42,1.167" transform="translate(137.412 23.885)" fill="#263238"/>
        <path id="Path_1435" data-name="Path 1435" d="M230.677,43.747a1.317,1.317,0,0,1-.5,1.762c-.525.162-1.161-.365-1.418-1.169s-.024-1.6.5-1.761,1.177.4,1.42,1.167" transform="translate(134.032 24.943)" fill="#263238"/>
        <path id="Path_1436" data-name="Path 1436" d="M232.467,42.983a30.176,30.176,0,0,1-1.7,8.132,4.911,4.911,0,0,0,4.116-.49Z" transform="translate(135.273 25.196)" fill="#de5753"/>
        <path id="Path_1437" data-name="Path 1437" d="M227.161,42.48a.52.52,0,0,0,.493-.163,4.015,4.015,0,0,1,3.285-1.467.495.495,0,1,0,.132-.98h0a4.935,4.935,0,0,0-4.164,1.794.5.5,0,0,0,.032.7l.009.008a.781.781,0,0,0,.214.109" transform="translate(132.933 23.364)" fill="#263238"/>
        <path id="Path_1438" data-name="Path 1438" d="M237.883,39.31a.476.476,0,0,0,.235-.178.494.494,0,0,0-.251-.652l-.01,0a4.934,4.934,0,0,0-4.541.24.5.5,0,0,0-.135.687.508.508,0,0,0,.688.135,4.007,4.007,0,0,1,3.6-.132.51.51,0,0,0,.414-.1" transform="translate(136.638 22.295)" fill="#263238"/>
        <path id="Path_1439" data-name="Path 1439" d="M237.614,30.986l.619,4.582a3.421,3.421,0,0,1,2.752,3.735c-.458,4.11,3.174,9.347,6.643,10.908,0,0-.333-1.642,1.133-1.615s3.29,8.553,1.677,13.268c0,0,3.079-4.689,3.042-14.13-.035-8.73-1.553-15.616-4.062-18.343Z" transform="translate(139.286 17.23)" fill="#263238"/>
        <path id="Path_1440" data-name="Path 1440" d="M252.546,43.054a9.9,9.9,0,0,1-3.924,6.476c-2.812,2.038-5.422-.192-5.656-3.477-.179-2.922,1.023-7.588,4.349-8.3s5.682,2.106,5.231,5.3" transform="translate(142.413 22.069)" fill="#e4897b"/>
        <path id="Path_1441" data-name="Path 1441" d="M234.259,50.834a27.283,27.283,0,0,1,2.381,3.158c.214-.089.428-.179.638-.281,2.882-1.294,3.789-2.847,3.924-4.176a4.083,4.083,0,0,0-.308-1.9,3.973,3.973,0,0,0-.535-.964c-1.117,1.6-3.709,3.012-5.125,3.71-.59.3-.975.457-.975.457" transform="translate(137.32 27.356)" fill="#263238"/>
        <path id="Path_1442" data-name="Path 1442" d="M234.874,50.376l.727.914c2.709-1.225,4.454-2.454,4.933-3.658a3.9,3.9,0,0,0-.533-.964c-1.118,1.6-3.71,3.011-5.127,3.709" transform="translate(137.68 27.356)" fill="#fff"/>
        <path id="Path_1443" data-name="Path 1443" d="M236.163,52.651c2.881-1.294,3.789-2.847,3.923-4.176a10.15,10.15,0,0,0-2.914,2.073,3.806,3.806,0,0,0-1.009,2.1" transform="translate(138.436 28.415)" fill="#de5753"/>
        <path id="Path_1444" data-name="Path 1444" d="M254.445,48.837l0-.014c-.533-1.869-1.131-3.634-1.624-5.03-.354-.977-.655-1.772-.882-2.329-.211-.531-.338-.842-.338-.842l-1.448-.595a20.515,20.515,0,0,1,.49,2.164c.3,1.71.476,3.958-.419,5,0,0-5.956,1.464-7.986,2.333s-2.969,3.461-2.969,3.461-4.868-.368-6.432,3.474a15.632,15.632,0,0,1-4.527-4.644c-.056-.1-.125-.2-.179-.3,0,0,1.545,10.009,7.912,14.591a11.285,11.285,0,0,0,8.442,1.873A17,17,0,0,0,254.9,61.98c.964-1.256,1.186-3.312,1.012-5.669a39.253,39.253,0,0,0-1.469-7.474m-14.65,4.7a7.664,7.664,0,0,1,4.007-2.784,1.655,1.655,0,0,1,.24-.06,6.8,6.8,0,0,1,1.036-.225,4.572,4.572,0,0,1,4.762,2.874,4.261,4.261,0,0,1-.04,3.674,3.661,3.661,0,0,1-5.277,1.521,4.147,4.147,0,0,1-1.171-1.042L241.6,58.792s2.308,1.461.972,3.274c-1.351,1.829-6.305,1.922-7.425-2.63-1.167-4.7,4.647-5.9,4.647-5.9" transform="translate(133.726 23.463)" fill="#263238"/>
        <path id="Path_1445" data-name="Path 1445" d="M245.857,38.18s-21.75,10.938-21.241-4.812c0,0,11.311-8.957,22.332-8.407s11.709,11.793,11.709,11.793Z" transform="translate(131.662 14.618)" fill="#263238"/>
        <path id="Path_1446" data-name="Path 1446" d="M256.441,113.235a47.607,47.607,0,0,1-25.469-7.39.678.678,0,1,1,.725-1.147,46.245,46.245,0,0,0,24.745,7.181l.607,0h.008a.677.677,0,0,1,.008,1.355Zm20.271-4.546a.678.678,0,0,1-.29-1.291q1.209-.571,2.374-1.21a.678.678,0,0,1,.652,1.19q-1.2.654-2.446,1.247a.7.7,0,0,1-.29.065m8.1-4.9a.677.677,0,0,1-.408-1.218,46.511,46.511,0,0,0,15.724-21.15.677.677,0,1,1,1.271.468,47.842,47.842,0,0,1-16.179,21.764.678.678,0,0,1-.408.136m-58.925-1.859a.679.679,0,0,1-.439-.162q-1.047-.892-2.04-1.845a.678.678,0,1,1,.937-.979q.966.923,1.981,1.792a.677.677,0,0,1-.439,1.193M212.631,83.366a.677.677,0,0,1-.63-.43,48,48,0,0,1-2.375-27.021.678.678,0,0,1,1.329.27,46.205,46.205,0,0,0-.92,9.171,46.968,46.968,0,0,0,3.226,17.083.676.676,0,0,1-.631.926m90.857-21.019a.679.679,0,0,1-.676-.623q-.1-1.325-.29-2.657a.678.678,0,0,1,1.343-.186q.188,1.37.3,2.733a.675.675,0,0,1-.622.73c-.017,0-.036,0-.054,0m-2.316-11.319a.68.68,0,0,1-.642-.462q-.426-1.271-.923-2.506a.678.678,0,1,1,1.258-.5q.509,1.268.952,2.579a.679.679,0,0,1-.427.858.7.7,0,0,1-.217.035m-89.06-.825a.678.678,0,0,1-.638-.907q.466-1.3,1-2.56a.677.677,0,1,1,1.247.53q-.521,1.228-.974,2.489a.678.678,0,0,1-.639.449m85.153-7.8a.677.677,0,0,1-.587-.336,46.465,46.465,0,0,0-19.164-18.089.677.677,0,1,1,.615-1.207A47.82,47.82,0,0,1,297.85,41.382a.677.677,0,0,1-.246.926.659.659,0,0,1-.339.092M224.778,31.223a.677.677,0,0,1-.455-1.179,47.593,47.593,0,0,1,24.408-11.808.678.678,0,1,1,.22,1.337,46.25,46.25,0,0,0-23.717,11.473.673.673,0,0,1-.457.176M258.3,18.984h-.027c-.6-.024-1.2-.025-1.808-.033q-.431,0-.861.01a.637.637,0,0,1-.693-.663.678.678,0,0,1,.663-.692c.331-.008.665-.008.99-.01q.883,0,1.762.033a.678.678,0,0,1-.025,1.355" transform="translate(122.326 10.315)" fill="#263238"/>
        <g id="Group_921" data-name="Group 921" transform="translate(331.007 27.911)" opacity="0.5">
          <g id="Group_920" data-name="Group 920">
            <g id="Group_919" data-name="Group 919" clip-path="url(#clip-path-41)">
              <path id="Path_1447" data-name="Path 1447" d="M256.441,113.235a47.607,47.607,0,0,1-25.469-7.39.678.678,0,1,1,.725-1.147,46.245,46.245,0,0,0,24.745,7.181l.607,0h.008a.677.677,0,0,1,.008,1.355Zm20.271-4.546a.678.678,0,0,1-.29-1.291q1.209-.571,2.374-1.21a.678.678,0,0,1,.652,1.19q-1.2.654-2.446,1.247a.7.7,0,0,1-.29.065m8.1-4.9a.677.677,0,0,1-.408-1.218,46.511,46.511,0,0,0,15.724-21.15.677.677,0,1,1,1.271.468,47.842,47.842,0,0,1-16.179,21.764.678.678,0,0,1-.408.136m-58.925-1.859a.679.679,0,0,1-.439-.162q-1.047-.892-2.04-1.845a.678.678,0,1,1,.937-.979q.966.923,1.981,1.792a.677.677,0,0,1-.439,1.193M212.631,83.366a.677.677,0,0,1-.63-.43,48,48,0,0,1-2.375-27.021.678.678,0,0,1,1.329.27,46.205,46.205,0,0,0-.92,9.171,46.968,46.968,0,0,0,3.226,17.083.676.676,0,0,1-.631.926m90.857-21.019a.679.679,0,0,1-.676-.623q-.1-1.325-.29-2.657a.678.678,0,0,1,1.343-.186q.188,1.37.3,2.733a.675.675,0,0,1-.622.73c-.017,0-.036,0-.054,0m-2.316-11.319a.68.68,0,0,1-.642-.462q-.426-1.271-.923-2.506a.678.678,0,1,1,1.258-.5q.509,1.268.952,2.579a.679.679,0,0,1-.427.858.7.7,0,0,1-.217.035m-89.06-.825a.678.678,0,0,1-.638-.907q.466-1.3,1-2.56a.677.677,0,1,1,1.247.53q-.521,1.228-.974,2.489a.678.678,0,0,1-.639.449m85.153-7.8a.677.677,0,0,1-.587-.336,46.465,46.465,0,0,0-19.164-18.089.677.677,0,1,1,.615-1.207A47.82,47.82,0,0,1,297.85,41.382a.677.677,0,0,1-.246.926.659.659,0,0,1-.339.092M224.778,31.223a.677.677,0,0,1-.455-1.179,47.593,47.593,0,0,1,24.408-11.808.678.678,0,1,1,.22,1.337,46.25,46.25,0,0,0-23.717,11.473.673.673,0,0,1-.457.176M258.3,18.984h-.027c-.6-.024-1.2-.025-1.808-.033q-.431,0-.861.01a.637.637,0,0,1-.693-.663.678.678,0,0,1,.663-.692c.331-.008.665-.008.99-.01q.883,0,1.762.033a.678.678,0,0,1-.025,1.355" transform="translate(-208.681 -17.596)" fill="#fff"/>
            </g>
          </g>
        </g>
      </g>
    </g>
  </g>
</svg>
