<svg id="Group_1092" data-name="Group 1092" xmlns="http://www.w3.org/2000/svg" xmlns:xlink="http://www.w3.org/1999/xlink" width="541.402" height="543.87" viewBox="0 0 541.402 543.87">
  <defs>
    <clipPath id="clip-path">
      <rect id="Rectangle_600" data-name="Rectangle 600" width="541.402" height="543.87" fill="none"/>
    </clipPath>
    <clipPath id="clip-path-2">
      <path id="Path_1448" data-name="Path 1448" d="M239.991,2.856c-1.724.182-3.691.379-6.329.723C125.828,17.675,58.34,117.713,50.326,129.958,17.864,179.556,0,243.791,0,306.013v.079C.015,373.4,20.934,438.333,66.889,479.852c38.927,35.169,84.235,42.217,137.908,52.206,33.268,6.192,140.869,24.307,235-38.545,9.652-6.444,22.258-14.981,36.346-29.5,83.731-86.307,83.522-243.791,17.684-345.473a251.459,251.459,0,0,0-49.489-56.151C381.335,9.6,307.681,1.48,267.525,1.481a260.175,260.175,0,0,0-27.533,1.375" transform="translate(0 -1.481)" fill="none"/>
    </clipPath>
    <linearGradient id="linear-gradient" x1="0.145" y1="0.838" x2="0.145" y2="0.838" gradientUnits="objectBoundingBox">
      <stop offset="0" stop-color="#dae3fe"/>
      <stop offset="1" stop-color="#e9effd"/>
    </linearGradient>
    <clipPath id="clip-path-3">
      <rect id="Rectangle_531" data-name="Rectangle 531" width="541.403" height="543.871" fill="none"/>
    </clipPath>
    <clipPath id="clip-path-4">
      <rect id="Rectangle_526" data-name="Rectangle 526" width="80.175" height="263.125" fill="none"/>
    </clipPath>
    <clipPath id="clip-path-5">
      <rect id="Rectangle_527" data-name="Rectangle 527" width="101.655" height="72.506" fill="none"/>
    </clipPath>
    <clipPath id="clip-path-6">
      <rect id="Rectangle_528" data-name="Rectangle 528" width="104.014" height="78.422" fill="none"/>
    </clipPath>
    <clipPath id="clip-path-7">
      <rect id="Rectangle_529" data-name="Rectangle 529" width="51.299" height="55.699" fill="none"/>
    </clipPath>
    <clipPath id="clip-path-8">
      <rect id="Rectangle_530" data-name="Rectangle 530" width="64.987" height="25.116" fill="none"/>
    </clipPath>
    <clipPath id="clip-path-9">
      <path id="Path_1468" data-name="Path 1468" d="M1122.912,240.034A151.793,151.793,0,1,0,1274.7,88.241a151.793,151.793,0,0,0-151.793,151.793" transform="translate(-1122.912 -88.241)" fill="none"/>
    </clipPath>
    <clipPath id="clip-path-10">
      <path id="Path_1469" data-name="Path 1469" d="M1235.122,330a129.55,129.55,0,1,0,129.55-129.55A129.55,129.55,0,0,0,1235.122,330" transform="translate(-1235.122 -200.452)" fill="none"/>
    </clipPath>
    <clipPath id="clip-path-11">
      <path id="Path_1470" data-name="Path 1470" d="M1224.2,315.487a125.961,125.961,0,1,1,125.961,125.961A126.1,126.1,0,0,1,1224.2,315.487m-7.177,0c0,73.413,59.725,133.138,133.138,133.138S1483.3,388.9,1483.3,315.487s-59.725-133.138-133.138-133.138-133.138,59.726-133.138,133.138" transform="translate(-1217.021 -182.349)" fill="none"/>
    </clipPath>
    <linearGradient id="linear-gradient-2" x1="-0.906" y1="1.907" x2="-0.905" y2="1.907" xlink:href="#linear-gradient"/>
    <clipPath id="clip-path-12">
      <path id="Path_1471" data-name="Path 1471" d="M1490.23,534.54a78.98,78.98,0,1,0,78.98-78.98,78.98,78.98,0,0,0-78.98,78.98" transform="translate(-1490.23 -455.56)" fill="#7d50c7"/>
    </clipPath>
    <clipPath id="clip-path-13">
      <path id="Path_1472" data-name="Path 1472" d="M1479.3,520.026a75.391,75.391,0,1,1,75.391,75.391,75.476,75.476,0,0,1-75.391-75.391m-7.177,0a82.568,82.568,0,1,0,82.569-82.569,82.662,82.662,0,0,0-82.569,82.569" transform="translate(-1472.125 -437.457)" fill="none"/>
    </clipPath>
    <linearGradient id="linear-gradient-3" x1="-1.767" y1="2.768" x2="-1.766" y2="2.768" xlink:href="#linear-gradient"/>
    <clipPath id="clip-path-14">
      <path id="Path_1473" data-name="Path 1473" d="M1734.294,730.223a30.6,30.6,0,1,0,30.6-30.6,30.6,30.6,0,0,0-30.6,30.6" transform="translate(-1734.294 -699.624)" fill="none"/>
    </clipPath>
    <clipPath id="clip-path-15">
      <path id="Path_1474" data-name="Path 1474" d="M1723.367,715.709a27.01,27.01,0,1,1,27.011,27.01,27.042,27.042,0,0,1-27.011-27.01m-7.177,0a34.188,34.188,0,1,0,34.188-34.188,34.226,34.226,0,0,0-34.187,34.188" transform="translate(-1716.19 -681.521)" fill="none"/>
    </clipPath>
    <linearGradient id="linear-gradient-4" x1="-4.975" y1="5.978" x2="-4.973" y2="5.978" xlink:href="#linear-gradient"/>
    <clipPath id="clip-path-16">
      <rect id="Rectangle_540" data-name="Rectangle 540" width="183.329" height="4.841" transform="translate(0 129.637) rotate(-45.002)" fill="none"/>
    </clipPath>
    <linearGradient id="linear-gradient-5" x1="-2.004" y1="3.007" x2="-2.003" y2="3.007" gradientUnits="objectBoundingBox">
      <stop offset="0" stop-color="#09005d"/>
      <stop offset="1" stop-color="#1a0f91"/>
    </linearGradient>
    <clipPath id="clip-path-17">
      <path id="Path_1475" data-name="Path 1475" d="M1874.161,708.794l-27,34.34a1.364,1.364,0,0,0,1.915,1.915l34.34-27c1.778-1.778-5.638-9.531-8.518-9.531a1,1,0,0,0-.741.272" transform="translate(-1846.857 -708.522)" fill="none"/>
    </clipPath>
    <linearGradient id="linear-gradient-6" x1="-8.945" y1="10.283" x2="-8.94" y2="10.283" gradientUnits="objectBoundingBox">
      <stop offset="0" stop-color="#ff928e"/>
      <stop offset="1" stop-color="#fe7062"/>
    </linearGradient>
    <clipPath id="clip-path-19">
      <path id="Path_1478" data-name="Path 1478" d="M1703.361,69.183l-6.251,15.552a3.96,3.96,0,0,1-2.808,2.387l-16.356,3.667a3.961,3.961,0,0,0-1.674,6.9l12.86,10.751a3.96,3.96,0,0,1,1.4,3.409l-1.566,16.689a3.961,3.961,0,0,0,6.048,3.725l14.2-8.908a3.96,3.96,0,0,1,3.675-.281l15.388,6.647a3.961,3.961,0,0,0,5.412-4.6l-4.084-16.257a3.961,3.961,0,0,1,.868-3.582L1741.551,92.7a3.96,3.96,0,0,0-2.7-6.569L1722.124,85a3.96,3.96,0,0,1-3.138-1.933l-8.542-14.422a3.96,3.96,0,0,0-7.083.541" transform="translate(-1674.849 -66.699)" fill="none"/>
    </clipPath>
    <linearGradient id="linear-gradient-7" x1="-3.871" y1="6.309" x2="-3.868" y2="6.309" xlink:href="#linear-gradient-6"/>
    <clipPath id="clip-path-21">
      <rect id="Rectangle_544" data-name="Rectangle 544" width="30.85" height="33.364" fill="none"/>
    </clipPath>
    <clipPath id="clip-path-22">
      <rect id="Rectangle_545" data-name="Rectangle 545" width="42.274" height="38.361" fill="none"/>
    </clipPath>
    <clipPath id="clip-path-23">
      <rect id="Rectangle_547" data-name="Rectangle 547" width="2.422" height="3.285" fill="none"/>
    </clipPath>
    <clipPath id="clip-path-24">
      <path id="Path_1481" data-name="Path 1481" d="M1441.318,297.675l-4.569,11.366a2.893,2.893,0,0,1-2.052,1.745l-11.953,2.68a2.894,2.894,0,0,0-1.223,5.045l9.4,7.857a2.9,2.9,0,0,1,1.025,2.491l-1.145,12.2a2.894,2.894,0,0,0,4.42,2.722l10.377-6.51a2.894,2.894,0,0,1,2.686-.205l11.246,4.858a2.9,2.9,0,0,0,3.955-3.363l-2.985-11.881a2.9,2.9,0,0,1,.635-2.618l8.095-9.194a2.9,2.9,0,0,0-1.976-4.8l-12.222-.832a2.9,2.9,0,0,1-2.293-1.413l-6.243-10.54a2.894,2.894,0,0,0-5.176.4" transform="translate(-1420.481 -295.86)" fill="none"/>
    </clipPath>
    <linearGradient id="linear-gradient-8" x1="-5.302" y1="8.937" x2="-5.298" y2="8.937" xlink:href="#linear-gradient-6"/>
    <clipPath id="clip-path-26">
      <rect id="Rectangle_550" data-name="Rectangle 550" width="22.545" height="24.382" fill="none"/>
    </clipPath>
    <clipPath id="clip-path-27">
      <rect id="Rectangle_551" data-name="Rectangle 551" width="30.894" height="28.036" fill="none"/>
    </clipPath>
    <clipPath id="clip-path-28">
      <rect id="Rectangle_553" data-name="Rectangle 553" width="1.77" height="2.403" fill="none"/>
    </clipPath>
    <clipPath id="clip-path-29">
      <path id="Path_1484" data-name="Path 1484" d="M1903.333,850.52,1795.42,982.044a4.531,4.531,0,0,0,3.5,7.4h20.744l-101.251,193.975,12.257,38.2h34.819a16,16,0,0,0,14.523-9.29l100.462-217.563,14.463,1.655a12.852,12.852,0,0,0,14.291-12.012l7.586-128.615a7.6,7.6,0,0,0-7.677-8.078,7.405,7.405,0,0,0-5.8,2.8" transform="translate(-1718.416 -847.717)" fill="none"/>
    </clipPath>
    <linearGradient id="linear-gradient-9" x1="-0.539" y1="1.041" x2="-0.539" y2="1.041" xlink:href="#linear-gradient-6"/>
    <clipPath id="clip-path-30">
      <path id="Path_1485" data-name="Path 1485" d="M1296.114,1744.1,1367.6,1902.89a26.215,26.215,0,0,0,23.9,15.453h36.85a13.454,13.454,0,0,0,11.765-6.928l1.311-2.362a10.536,10.536,0,0,1-9.384-5.746L1336.8,1716.7Z" transform="translate(-1296.114 -1716.697)" fill="none"/>
    </clipPath>
    <linearGradient id="linear-gradient-10" x1="-0.947" y1="0.915" x2="-0.946" y2="0.915" xlink:href="#linear-gradient-6"/>
    <clipPath id="clip-path-31">
      <path id="Path_1486" data-name="Path 1486" d="M702.1,1635.553c-25.183,22.662-122.887,172.474-122.887,172.474l12.035,34.67h14.788a45.4,45.4,0,0,0,37.794-20.245l105.1-157.9a15.633,15.633,0,0,1,22.7-3.607l-5.2-12.605a41.264,41.264,0,0,0-14.522-18.3,34.383,34.383,0,0,0-19.9-6.389c-16.694,0-29.9,11.9-29.9,11.9" transform="translate(-579.217 -1623.651)" fill="none"/>
    </clipPath>
    <linearGradient id="linear-gradient-11" x1="-0.226" y1="0.894" x2="-0.225" y2="0.894" xlink:href="#linear-gradient-6"/>
    <clipPath id="clip-path-32">
      <path id="Path_1487" data-name="Path 1487" d="M2.574,1980.6c15.422,5.418,66.789,74.788,91.895,109.689a47.537,47.537,0,0,0,38.6,19.775h13.9a37.89,37.89,0,0,0,32.458-18.342l2.08-3.454c-25.125,14.4-46.536-11.961-78.794-69.762s-48.448-63.317-48.448-63.317C20.166,1958.615,2.574,1980.6,2.574,1980.6" transform="translate(-2.574 -1955.194)" fill="none"/>
    </clipPath>
    <linearGradient id="linear-gradient-12" x1="0.116" y1="0.833" x2="0.116" y2="0.833" xlink:href="#linear-gradient-6"/>
    <clipPath id="clip-path-34">
      <rect id="Rectangle_559" data-name="Rectangle 559" width="2.67" height="8.236" fill="none"/>
    </clipPath>
    <clipPath id="clip-path-35">
      <rect id="Rectangle_560" data-name="Rectangle 560" width="95.973" height="118.825" fill="none"/>
    </clipPath>
    <clipPath id="clip-path-36">
      <rect id="Rectangle_561" data-name="Rectangle 561" width="60.383" height="73.407" fill="none"/>
    </clipPath>
    <clipPath id="clip-path-37">
      <rect id="Rectangle_562" data-name="Rectangle 562" width="4.912" height="6.338" fill="none"/>
    </clipPath>
    <clipPath id="clip-path-38">
      <path id="Path_1492" data-name="Path 1492" d="M906.854,1074.368c6.339,12.35,13.38,19.168,20.425,22.409,1.258-7.694,5.751-14.081,9.051-17.875-12.567-7.148-15.849-25.5-15.849-25.5Z" transform="translate(-906.854 -1053.403)" fill="none"/>
    </clipPath>
    <clipPath id="clip-path-39">
      <path id="Path_1493" data-name="Path 1493" d="M1018.942,1166.814c-3.3,3.794-7.793,10.18-9.051,17.875,22.394,10.3,44.818-15.63,44.818-15.63l-4.8-6.008c-13.952,8.258-23.923,7.773-30.971,3.763" transform="translate(-1009.891 -1163.051)" fill="none"/>
    </clipPath>
    <linearGradient id="linear-gradient-13" x1="-3.602" y1="6.658" x2="-3.599" y2="6.658" gradientUnits="objectBoundingBox">
      <stop offset="0" stop-color="#febbba"/>
      <stop offset="1" stop-color="#ff928e"/>
    </linearGradient>
    <clipPath id="clip-path-40">
      <path id="Path_1494" data-name="Path 1494" d="M1215.78,1112.5c-1.918-2.927-3.664-.935-3.664-.935-5.416,5.042-1.65,11.608-1.65,11.608,1.84,2.966,10.255,5.679,14.427-.408,4.125-6.018-.1-11.294-1.692-13.425a1.3,1.3,0,0,0-1.111-.506c-2.272,0-6.31,3.665-6.31,3.665" transform="translate(-1209.192 -1108.834)" fill="none"/>
    </clipPath>
    <linearGradient id="linear-gradient-14" x1="-8.12" y1="11.82" x2="-8.113" y2="11.82" xlink:href="#linear-gradient-13"/>
    <clipPath id="clip-path-42">
      <path id="Path_1496" data-name="Path 1496" d="M207.588,1877.078c1.138,5.928,4.876,21.585,13.958,30.855a1.363,1.363,0,0,0,2,.006c-2.3-2.4-5.151-6.491-8.484-13.446-5.123-10.689-6.072-17.282-5.93-21.188a3.6,3.6,0,0,0-1.543,3.773" transform="translate(-207.518 -1873.305)" fill="none"/>
    </clipPath>
    <linearGradient id="linear-gradient-15" x1="-2.518" y1="4.896" x2="-2.506" y2="4.896" gradientUnits="objectBoundingBox">
      <stop offset="0" stop-color="#4f52ff"/>
      <stop offset="1" stop-color="#4042e2"/>
    </linearGradient>
    <clipPath id="clip-path-43">
      <path id="Path_1497" data-name="Path 1497" d="M215.646,1866.879c-.014.008-.026.02-.041.029-.142,3.906.807,10.5,5.93,21.188,3.333,6.955,6.185,11.051,8.484,13.447a1.591,1.591,0,0,0,.379-.666c1.706-5.927,5.308-22.393-3.066-34.189a13.44,13.44,0,0,0-5.861-1.36,11.479,11.479,0,0,0-5.826,1.553" transform="translate(-215.592 -1865.326)" fill="none"/>
    </clipPath>
    <linearGradient id="linear-gradient-16" x1="-2.105" y1="4.808" x2="-2.095" y2="4.808" xlink:href="#linear-gradient-5"/>
    <clipPath id="clip-path-44">
      <path id="Path_1498" data-name="Path 1498" d="M264.573,1836.571l-5.3,5.828a2.8,2.8,0,0,0-.512,2.962,7.3,7.3,0,0,0,2.7,3.324,2.783,2.783,0,0,0,3.461-.326l5.307-5.091a2.793,2.793,0,0,0,.471-3.437l-1.657-2.8a2.793,2.793,0,0,0-4.471-.457" transform="translate(-258.547 -1835.657)" fill="none"/>
    </clipPath>
    <linearGradient id="linear-gradient-17" x1="-3.922" y1="13.093" x2="-3.906" y2="13.093" xlink:href="#linear-gradient-13"/>
    <clipPath id="clip-path-45">
      <path id="Path_1499" data-name="Path 1499" d="M1188.943,1637.3c-9.026,7.684-15.157,10.286-18.969,11.147a3.6,3.6,0,0,0,4.042.528c5.441-2.614,19.623-10.229,26.264-21.378a1.363,1.363,0,0,0-.505-1.935c-1.729,2.836-4.96,6.639-10.832,11.638" transform="translate(-1169.974 -1625.662)" fill="none"/>
    </clipPath>
    <linearGradient id="linear-gradient-18" x1="-7.466" y1="6.347" x2="-7.46" y2="6.347" xlink:href="#linear-gradient-15"/>
    <clipPath id="clip-path-46">
      <path id="Path_1500" data-name="Path 1500" d="M1152.755,1636.321s-1.583,6.475,3.172,11.249c.012.012.026.021.038.032,3.812-.861,9.943-3.463,18.969-11.147,5.873-5,9.1-8.8,10.832-11.639a1.588,1.588,0,0,0-.741-.2c-.365-.008-.768-.013-1.2-.013-6.93,0-22.351,1.26-31.067,11.713" transform="translate(-1152.502 -1624.608)" fill="none"/>
    </clipPath>
    <linearGradient id="linear-gradient-19" x1="-7.365" y1="5.848" x2="-7.359" y2="5.848" xlink:href="#linear-gradient-5"/>
    <clipPath id="clip-path-47">
      <path id="Path_1501" data-name="Path 1501" d="M1117.561,1635.722l-2.642,1.9a2.793,2.793,0,0,0-.056,4.494l6.278,4.756a2.8,2.8,0,0,0,3,.245,7.3,7.3,0,0,0,3.07-2.984,2.783,2.783,0,0,0-.634-3.419l-5.545-4.83a2.792,2.792,0,0,0-3.465-.162" transform="translate(-1113.756 -1635.196)" fill="none"/>
    </clipPath>
    <linearGradient id="linear-gradient-20" x1="-15.24" y1="17.679" x2="-15.227" y2="17.679" xlink:href="#linear-gradient-13"/>
    <clipPath id="clip-path-48">
      <path id="Path_1502" data-name="Path 1502" d="M322.71,1445.087s-12.228,1.865-19.8,6.287-23.871,28.932-23.871,28.932,4.257,8.082,9.394,9.322l46.408-32.155,37.038-43.072-1.758-19.978-29.6-2.4s-10.82,36.86-17.815,53.061" transform="translate(-279.043 -1392.026)" fill="none"/>
    </clipPath>
    <linearGradient id="linear-gradient-21" x1="-0.258" y1="2.128" x2="-0.257" y2="2.128" xlink:href="#linear-gradient-5"/>
    <clipPath id="clip-path-49">
      <path id="Path_1503" data-name="Path 1503" d="M576.592,1386.951s2.9,26.463,36.258,22,37.555-9.909,37.555-9.909-2.9,16.9,33.584,37.223c0,0,5.545-4.186,6.766-8.939l-25.564-42.135c-3.556-5.527-6.854-6.983-13.347-5.967-14.357,2.245-41.24,5.172-45.309,4.477l-26.776-6.844Z" transform="translate(-576.592 -1376.857)" fill="none"/>
    </clipPath>
    <linearGradient id="linear-gradient-22" x1="-0.843" y1="2.615" x2="-0.841" y2="2.615" xlink:href="#linear-gradient-5"/>
    <clipPath id="clip-path-50">
      <path id="Path_1504" data-name="Path 1504" d="M582.374,997.935c-9.723.494-25.091,5.116-35.018,14.255a119.894,119.894,0,0,1,11.246,14.255c3.127-2.936,7.618-5.381,13.941-6.948a412.939,412.939,0,0,1-19.8,57.975,2.113,2.113,0,0,0,1.234,2.848c6.091,2.123,24.054,7.178,38.462-.963l31.942-45.738a39.134,39.134,0,0,0,6.6-16.493l1.261-8.251s-26.28-11.009-47.108-11.009q-1.4,0-2.765.068" transform="translate(-547.356 -997.867)" fill="none"/>
    </clipPath>
    <clipPath id="clip-path-51">
      <path id="Path_1505" data-name="Path 1505" d="M512.933,1120.427c-1.1,5.713,2.481,12.364,4.415,13.3.891.429,10.588-4.567,8.743-8.641-1.388-3.065-6.141-5.93-8.41-7.16-1.973-4.068-9.85-22.363,2.058-33.543a119.872,119.872,0,0,0-11.246-14.255c-11.454,10.545-15.647,27.109,4.439,50.3" transform="translate(-498.886 -1070.124)" fill="none"/>
    </clipPath>
    <linearGradient id="linear-gradient-23" x1="-1.279" y1="4.606" x2="-1.275" y2="4.606" xlink:href="#linear-gradient-13"/>
    <clipPath id="clip-path-52">
      <path id="Path_1506" data-name="Path 1506" d="M683.733,1095.63l8.881-1.916Z" transform="translate(-683.733 -1093.713)" fill="none"/>
    </clipPath>
    <linearGradient id="linear-gradient-24" x1="-31.974" y1="36.478" x2="-31.928" y2="36.478" gradientUnits="objectBoundingBox">
      <stop offset="0" stop-color="#53d8ff"/>
      <stop offset="1" stop-color="#3840f7"/>
    </linearGradient>
    <clipPath id="clip-path-53">
      <path id="Path_1507" data-name="Path 1507" d="M789.549,953.261a2.7,2.7,0,0,0,.39,3.033c2.021,2.251,6.793,5.906,15.095,3.287a2.516,2.516,0,0,0,1.713-2.043L808.92,942.7l-11.026-5.776Z" transform="translate(-789.251 -936.927)" fill="none"/>
    </clipPath>
    <linearGradient id="linear-gradient-25" x1="-4.961" y1="13.239" x2="-4.955" y2="13.239" xlink:href="#linear-gradient-13"/>
    <clipPath id="clip-path-54">
      <path id="Path_1508" data-name="Path 1508" d="M804.164,848.451c-1.095,3.71,3.785,12.768,3.785,12.768,3.114,5.879,8.863,9.278,15.686,8.09s5.552-5.018,5.224-10.919-5.224-17.145-5.224-17.145-18.376,3.5-19.471,7.207" transform="translate(-804.004 -841.244)" fill="none"/>
    </clipPath>
    <linearGradient id="linear-gradient-26" x1="-3.855" y1="9.59" x2="-3.85" y2="9.59" xlink:href="#linear-gradient-13"/>
    <clipPath id="clip-path-55">
      <path id="Path_1509" data-name="Path 1509" d="M789.616,779.573l-.285.539a.464.464,0,0,1-.855-.088.462.462,0,0,0-.835-.12c-.82,1.313-3.035,3.442-8.959,4.536-8.418,1.554-13.984,4.96-14.122,10.777a.464.464,0,0,1-.718.383c-.621-.379-1.616-.557-2.946.561-2.312,1.944-1.366,6.987,3.7,11.135a.46.46,0,0,1-.022.742c-.919.6-2.288,2.021,1.261,3.919a11.952,11.952,0,0,0,7.468,1.627.462.462,0,0,0,.375-.558l-1.127-5.113a.464.464,0,0,1,.453-.563h1.755l.389-.171a.937.937,0,0,0,.458-1.287c-.962-1.859-2.838-6.12-.415-7.114,3.123-1.281,15.494-3.8,18.163-8.193,2.565-4.219.292-9.664-3.124-11.214a.5.5,0,0,0-.2-.044.461.461,0,0,0-.411.245" transform="translate(-759.703 -779.328)" fill="none"/>
    </clipPath>
    <linearGradient id="linear-gradient-27" x1="-2.816" y1="7.909" x2="-2.812" y2="7.909" xlink:href="#linear-gradient-5"/>
    <clipPath id="clip-path-56">
      <path id="Path_1510" data-name="Path 1510" d="M806.777,898.618c-3.22,2.014,1.671,8.047,4.26,8.316l.827-3.148s-1.436-5.524-3.962-5.525a2.111,2.111,0,0,0-1.126.356" transform="translate(-805.716 -898.262)" fill="none"/>
    </clipPath>
    <linearGradient id="linear-gradient-28" x1="-13.126" y1="30.784" x2="-13.109" y2="30.784" xlink:href="#linear-gradient-13"/>
    <clipPath id="clip-path-57">
      <path id="Path_1511" data-name="Path 1511" d="M1170.823,995.464l12.026,35.375h7.65l13.752-37.4Z" transform="translate(-1170.823 -993.434)" fill="none"/>
    </clipPath>
    <linearGradient id="linear-gradient-29" x1="-4.484" y1="7.191" x2="-4.48" y2="7.191" xlink:href="#linear-gradient-6"/>
    <clipPath id="clip-path-58">
      <path id="Path_1512" data-name="Path 1512" d="M1068.168,654.908c-.038,2.986-.038,61.444,29.638,70.937s43.08-39.968,42.016-75.195Z" transform="translate(-1068.165 -650.65)" fill="none"/>
    </clipPath>
    <linearGradient id="linear-gradient-30" x1="-2.91" y1="4.899" x2="-2.907" y2="4.899" xlink:href="#linear-gradient-6"/>
    <clipPath id="clip-path-59">
      <rect id="Rectangle_586" data-name="Rectangle 586" width="47.443" height="5.76" fill="none"/>
    </clipPath>
    <linearGradient id="linear-gradient-31" x1="-28.193" y1="6.816" x2="-28.17" y2="6.816" xlink:href="#linear-gradient-6"/>
    <clipPath id="clip-path-60">
      <path id="Path_1513" data-name="Path 1513" d="M1143.125,1176.7l-12.007,6.442h47.443l-12.007-6.442Z" transform="translate(-1131.118 -1176.704)" fill="none"/>
    </clipPath>
    <linearGradient id="linear-gradient-32" x1="-6.239" y1="8.313" x2="-6.234" y2="8.313" xlink:href="#linear-gradient-6"/>
    <clipPath id="clip-path-61">
      <path id="Path_1514" data-name="Path 1514" d="M1113.008,605.279l-81.335,4.949c-2.6.159-4.736,2.087-4.736,4.286v4.5c0,2.2,2.133,3.882,4.739,3.742l81.33-4.376c2.606-.14,4.739-2.054,4.739-4.252v-5.135c0-2.1-1.948-3.72-4.395-3.72q-.17,0-.341.01" transform="translate(-1026.937 -605.268)" fill="none"/>
    </clipPath>
    <linearGradient id="linear-gradient-33" x1="-2.2" y1="15.47" x2="-2.198" y2="15.47" xlink:href="#linear-gradient-6"/>
    <clipPath id="clip-path-62">
      <path id="Path_1515" data-name="Path 1515" d="M1322.983,862.413c-4.583,2.822-6.569,7.15-5.314,11.577a3.861,3.861,0,0,0,4.554,2.356c2.031-.408,3.284-2.125,2.8-3.834-.692-2.442.936-4.047,2.423-4.963,2.617-1.611,6.277-1.971,8.512-.838,2.708,1.373,2.757,4.663,2.32,7.182-2.588,14.938-29.88,17.82-30.274,17.859-2.073.2-3.561,1.777-3.325,3.523a3.61,3.61,0,0,0,3.751,2.821q.215,0,.434-.021a74.926,74.926,0,0,0,16.726-3.916c11.748-4.306,18.722-11,20.169-19.348,1.463-8.447-3.069-12.117-5.9-13.553a15.688,15.688,0,0,0-7.055-1.565,19,19,0,0,0-9.821,2.718" transform="translate(-1304.655 -859.695)" fill="none"/>
    </clipPath>
    <linearGradient id="linear-gradient-34" x1="-4.368" y1="6.685" x2="-4.365" y2="6.685" xlink:href="#linear-gradient-6"/>
    <clipPath id="clip-path-63">
      <path id="Path_1516" data-name="Path 1516" d="M997.346,861.26c-2.832,1.436-7.364,5.105-5.9,13.553,1.447,8.352,8.421,15.042,20.168,19.348a74.925,74.925,0,0,0,16.727,3.916q.219.021.434.021a3.61,3.61,0,0,0,3.751-2.821c.237-1.746-1.252-3.323-3.325-3.523-.395-.04-27.687-2.921-30.275-17.859-.436-2.519-.388-5.809,2.32-7.182,2.235-1.134,5.9-.773,8.512.838,1.488.916,3.115,2.521,2.423,4.963-.485,1.71.768,3.426,2.8,3.834a3.861,3.861,0,0,0,4.555-2.356c1.255-4.428-.731-8.756-5.314-11.577a19,19,0,0,0-9.821-2.718,15.688,15.688,0,0,0-7.055,1.565" transform="translate(-991.161 -859.695)" fill="none"/>
    </clipPath>
    <linearGradient id="linear-gradient-35" x1="-3.284" y1="6.664" x2="-3.28" y2="6.664" xlink:href="#linear-gradient-6"/>
    <clipPath id="clip-path-65">
      <rect id="Rectangle_591" data-name="Rectangle 591" width="8.569" height="1.697" fill="none"/>
    </clipPath>
    <clipPath id="clip-path-66">
      <rect id="Rectangle_592" data-name="Rectangle 592" width="44.697" height="3.64" fill="none"/>
    </clipPath>
    <clipPath id="clip-path-67">
      <rect id="Rectangle_593" data-name="Rectangle 593" width="25.76" height="48.56" fill="none"/>
    </clipPath>
    <clipPath id="clip-path-68">
      <rect id="Rectangle_594" data-name="Rectangle 594" width="1.453" height="4.135" fill="none"/>
    </clipPath>
    <clipPath id="clip-path-69">
      <path id="Path_1521" data-name="Path 1521" d="M1244.6,1107.762c-5.136,4.793-2.669,11.25,2.795,13.583s8.106-2.765,5.388-9.7c0,0-1.87-5.323-5.15-5.324a4.508,4.508,0,0,0-3.032,1.444" transform="translate(-1241.785 -1106.318)" fill="none"/>
    </clipPath>
    <linearGradient id="linear-gradient-36" x1="-10.947" y1="14.467" x2="-10.938" y2="14.467" xlink:href="#linear-gradient-13"/>
    <clipPath id="clip-path-71">
      <path id="Path_1523" data-name="Path 1523" d="M2071.015,2289.852c-.093.149-9.484,15.175-27.89,32.658-16.963,16.114-45.279,37.676-83.842,48.89a1.364,1.364,0,1,0,.762,2.619c39.126-11.378,67.833-33.251,85.026-49.6,18.635-17.716,28.169-32.984,28.263-33.137a1.363,1.363,0,1,0-2.319-1.435" transform="translate(-1958.3 -2289.205)" fill="none"/>
    </clipPath>
    <linearGradient id="linear-gradient-37" x1="-3.357" y1="1.061" x2="-3.355" y2="1.061" xlink:href="#linear-gradient"/>
  </defs>
  <g id="Group_1091" data-name="Group 1091" clip-path="url(#clip-path)">
    <g id="Group_931" data-name="Group 931" transform="translate(0 0.294)">
      <g id="Group_930" data-name="Group 930" clip-path="url(#clip-path-2)">
        <rect id="Rectangle_525" data-name="Rectangle 525" width="787.979" height="787.759" transform="matrix(0.729, -0.685, 0.685, 0.729, -276.901, 260.118)" fill="url(#linear-gradient)"/>
      </g>
    </g>
    <g id="Group_948" data-name="Group 948" transform="translate(0 -0.001)">
      <g id="Group_947" data-name="Group 947" clip-path="url(#clip-path-3)">
        <path id="Path_1449" data-name="Path 1449" d="M84.769,914.313a2.593,2.593,0,0,1,5.026.233c5.048,25.572,20.385,92.213,49.151,129.2,46.838,60.225,73.765,154.15,37.2,198.817,0,0-175.64-46.835-91.38-328.252" transform="translate(-49.625 -731.588)" fill="#bdd0fb"/>
        <g id="Group_934" data-name="Group 934" transform="translate(37.269 218.364)" opacity="0.43">
          <g id="Group_933" data-name="Group 933">
            <g id="Group_932" data-name="Group 932" clip-path="url(#clip-path-4)">
              <path id="Path_1450" data-name="Path 1450" d="M188.007,1102.016c0,.823.063,1.5.1,2.235l.157,2.159.362,4.311c.261,2.871.566,5.737.87,8.6q.946,8.595,2.086,17.167c1.529,11.427,3.368,22.812,5.377,34.166,1.993,11.359,4.3,22.661,6.854,33.91s5.279,22.46,8.365,33.579a553.751,553.751,0,0,0,22.339,65.5c4.544,10.614,9.368,21.115,14.79,31.314a299.718,299.718,0,0,0,18.048,29.534.455.455,0,0,0,.755-.507l0-.005a334.931,334.931,0,0,1-17.13-29.89c-5.228-10.228-9.856-20.751-14.2-31.378s-8.257-21.439-11.924-32.326-6.875-21.928-10.023-32.98c-6.2-22.137-11.223-44.6-15.621-67.172q-3.263-16.941-5.869-34-1.323-8.526-2.471-17.079l-1.072-8.561-.492-4.284-.222-2.142c-.061-.7-.139-1.457-.168-2.074l0-.1a.451.451,0,0,0-.9.02" transform="translate(-188.007 -1101.567)" fill="#fff"/>
            </g>
          </g>
        </g>
        <path id="Path_1451" data-name="Path 1451" d="M381.438,817.348a2.481,2.481,0,0,1,4.545,1.585c-2.347,24.828-6.461,90.125,9.828,131.892,26.523,68.007,25.593,161.486-20.12,192.475,0,0-148.294-90.865,5.747-325.952" transform="translate(-249.713 -654.423)" fill="#91b3fa"/>
        <path id="Path_1452" data-name="Path 1452" d="M563.519,990.494c-.226.756-.352,1.4-.518,2.078l-.445,2.023-.845,4.052c-.545,2.7-1.048,5.416-1.551,8.127q-1.479,8.14-2.774,16.311c-1.717,10.9-3.138,21.838-4.395,32.8-1.272,10.96-2.237,21.956-2.968,32.967s-1.288,22.038-1.49,33.077a529.452,529.452,0,0,0,2.619,66.168c1.273,10.974,2.833,21.92,5.026,32.752a286.482,286.482,0,0,0,8.5,32.007.443.443,0,0,0,.845-.263l0-.006a320.807,320.807,0,0,1-7.546-32.084c-2-10.806-3.374-21.718-4.46-32.65s-1.722-21.912-2.114-32.9-.321-21.984-.194-32.977c.348-21.993,1.873-43.958,4-65.86q1.627-16.425,3.889-32.783,1.111-8.18,2.389-16.336l1.351-8.143.717-4.063.38-2.025c.135-.661.27-1.375.411-1.947l.024-.1a.439.439,0,0,0-.847-.231" transform="translate(-439.699 -793.897)" fill="#bdd0fb"/>
        <g id="Group_937" data-name="Group 937" transform="translate(63.406 0.001)" opacity="0.3">
          <g id="Group_936" data-name="Group 936">
            <g id="Group_935" data-name="Group 935" clip-path="url(#clip-path-5)">
              <path id="Path_1453" data-name="Path 1453" d="M321.8,72.5a1.61,1.61,0,0,1-1.6-1.442c-.19-1.809-.3-3.653-.338-5.48a1.61,1.61,0,0,1,1.579-1.641h.032a1.61,1.61,0,0,1,1.609,1.579c.033,1.736.141,3.488.321,5.206a1.61,1.61,0,0,1-1.434,1.769,1.574,1.574,0,0,1-.169.009m.1-14.025a1.64,1.64,0,0,1-.191-.011,1.61,1.61,0,0,1-1.41-1.788c.215-1.814.509-3.636.875-5.416a1.61,1.61,0,1,1,3.154.648c-.348,1.692-.627,3.424-.831,5.147a1.61,1.61,0,0,1-1.6,1.421m3.189-13.653a1.611,1.611,0,0,1-1.517-2.151c.611-1.717,1.305-3.429,2.063-5.088a1.61,1.61,0,1,1,2.929,1.337c-.719,1.575-1.378,3.2-1.959,4.831a1.61,1.61,0,0,1-1.516,1.07m6.164-12.6A1.611,1.611,0,0,1,329.9,29.75c.981-1.538,2.04-3.051,3.148-4.5a1.61,1.61,0,0,1,2.557,1.957c-1.052,1.375-2.058,2.812-2.99,4.274a1.609,1.609,0,0,1-1.359.744m8.818-10.909a1.61,1.61,0,0,1-1.131-2.755c1.294-1.278,2.662-2.52,4.064-3.688a1.61,1.61,0,1,1,2.061,2.473c-1.333,1.11-2.633,2.29-3.863,3.505a1.6,1.6,0,0,1-1.131.465m11.011-8.686a1.61,1.61,0,0,1-.852-2.977c1.547-.962,3.156-1.87,4.78-2.7a1.61,1.61,0,0,1,1.462,2.869c-1.543.787-3.071,1.649-4.541,2.563a1.6,1.6,0,0,1-.849.243M410.078,8.8a1.6,1.6,0,0,1-.665-.145c-1.575-.716-3.2-1.372-4.836-1.951a1.61,1.61,0,1,1,1.075-3.035c1.721.609,3.435,1.3,5.093,2.054a1.61,1.61,0,0,1-.667,3.077m-46.34-2.193a1.61,1.61,0,0,1-.525-3.132c1.723-.594,3.492-1.121,5.26-1.565a1.61,1.61,0,1,1,.785,3.123c-1.678.421-3.359.921-4.995,1.485a1.611,1.611,0,0,1-.525.089m33-2.133a1.615,1.615,0,0,1-.322-.032c-1.7-.345-3.429-.621-5.152-.822a1.61,1.61,0,0,1,.372-3.2c1.812.211,3.637.5,5.421.865a1.61,1.61,0,0,1-.319,3.188m-19.316-.916a1.61,1.61,0,0,1-.169-3.211c1.81-.193,3.653-.311,5.478-.348h.034a1.61,1.61,0,0,1,.033,3.219c-1.733.036-3.483.148-5.2.332-.058.006-.116.009-.173.009" transform="translate(-319.86 0.002)" fill="#91b3fa"/>
              <path id="Path_1454" data-name="Path 1454" d="M809.374,53.793a1.6,1.6,0,0,1-.918-.288c-.681-.474-1.384-.941-2.088-1.39A1.61,1.61,0,1,1,808.1,49.4c.741.472,1.48.964,2.2,1.462a1.61,1.61,0,0,1-.921,2.932" transform="translate(-709.33 -39.404)" fill="#91b3fa"/>
            </g>
          </g>
        </g>
        <g id="Group_940" data-name="Group 940" transform="translate(87.989 50.17)" opacity="0.3">
          <g id="Group_939" data-name="Group 939">
            <g id="Group_938" data-name="Group 938" clip-path="url(#clip-path-6)">
              <path id="Path_1455" data-name="Path 1455" d="M948.121,258.841a1.611,1.611,0,0,1-1.588-1.355c-.131-.819-.282-1.65-.448-2.468a1.61,1.61,0,1,1,3.156-.64c.174.861.333,1.736.472,2.6a1.61,1.61,0,0,1-1.335,1.844,1.588,1.588,0,0,1-.256.02" transform="translate(-846.506 -253.087)" fill="#91b3fa"/>
              <path id="Path_1456" data-name="Path 1456" d="M521.781,376.22q-1.111,0-2.231-.038a1.61,1.61,0,0,1,.108-3.219c1.722.058,3.443.046,5.133-.037a1.61,1.61,0,1,1,.158,3.216c-1.046.052-2.112.077-3.169.077m-10.686-.9a1.627,1.627,0,0,1-.273-.023c-1.771-.3-3.548-.684-5.283-1.133a1.61,1.61,0,1,1,.807-3.116c1.648.426,3.336.788,5.019,1.076a1.61,1.61,0,0,1-.27,3.2m22.268-.175a1.61,1.61,0,0,1-.3-3.192c1.671-.314,3.352-.7,5-1.161a1.61,1.61,0,1,1,.861,3.1c-1.731.481-3.5.892-5.262,1.223a1.629,1.629,0,0,1-.3.028m-35.537-3.636a1.611,1.611,0,0,1-.612-.122c-1.659-.684-3.309-1.446-4.9-2.267a1.61,1.61,0,0,1,1.473-2.862c1.514.779,3.081,1.5,4.657,2.153a1.61,1.61,0,0,1-.614,3.1m48.726-.4a1.61,1.61,0,0,1-.639-3.088c1.561-.674,3.114-1.425,4.618-2.231a1.61,1.61,0,1,1,1.521,2.837c-1.583.849-3.219,1.64-4.862,2.35a1.606,1.606,0,0,1-.638.133m11.984-6.834a1.61,1.61,0,0,1-.947-2.912c1.379-1,2.733-2.075,4.022-3.186a1.61,1.61,0,1,1,2.1,2.438c-1.357,1.17-2.781,2.3-4.233,3.353a1.6,1.6,0,0,1-.945.307m10.209-9.284a1.61,1.61,0,0,1-1.207-2.675c1.13-1.28,2.217-2.62,3.233-3.986a1.61,1.61,0,1,1,2.583,1.922c-1.069,1.437-2.214,2.849-3.4,4.195a1.607,1.607,0,0,1-1.208.545m7.941-11.289a1.61,1.61,0,0,1-1.409-2.385c.822-1.495,1.589-3.041,2.28-4.6a1.61,1.61,0,1,1,2.942,1.307c-.728,1.639-1.535,3.268-2.4,4.841a1.61,1.61,0,0,1-1.412.835m5.271-12.762a1.612,1.612,0,0,1-1.548-2.056c.471-1.635.878-3.312,1.21-4.984a1.61,1.61,0,0,1,3.158.628c-.35,1.761-.778,3.526-1.274,5.247a1.611,1.611,0,0,1-1.546,1.165m2.337-13.6c-.033,0-.066,0-.1,0a1.61,1.61,0,0,1-1.509-1.7c.076-1.253.115-2.522.115-3.775q0-.68-.015-1.357a1.609,1.609,0,0,1,1.575-1.644,1.592,1.592,0,0,1,1.644,1.574q.016.712.016,1.428c0,1.317-.041,2.654-.121,3.971a1.61,1.61,0,0,1-1.605,1.512" transform="translate(-482.007 -297.798)" fill="#91b3fa"/>
              <path id="Path_1457" data-name="Path 1457" d="M447.557,572.133a1.6,1.6,0,0,1-.925-.292c-.713-.5-1.429-1.027-2.128-1.563a1.61,1.61,0,1,1,1.958-2.556c.664.509,1.344,1.008,2.021,1.484a1.61,1.61,0,0,1-.927,2.927" transform="translate(-443.873 -505.087)" fill="#91b3fa"/>
            </g>
          </g>
        </g>
        <path id="Path_1458" data-name="Path 1458" d="M414.17,160.227a.753.753,0,0,0,.843.231l8.6-3.161a39.885,39.885,0,0,0,11.38,6.128l2.1,8.909a.753.753,0,0,0,.657.576l10.929,1.107a.753.753,0,0,0,.759-.433l3.84-8.308a39.887,39.887,0,0,0,12.377-3.722l7.787,4.82a.752.752,0,0,0,.872-.057l8.511-6.945a.753.753,0,0,0,.23-.843l-3.161-8.6a39.9,39.9,0,0,0,6.128-11.38l8.909-2.1a.752.752,0,0,0,.576-.657l1.107-10.929a.752.752,0,0,0-.433-.759l-8.307-3.84a39.876,39.876,0,0,0-3.722-12.377l4.82-7.787a.752.752,0,0,0-.057-.872l-6.945-8.511a.752.752,0,0,0-.843-.231l-8.6,3.161a39.892,39.892,0,0,0-11.38-6.128l-2.1-8.909a.753.753,0,0,0-.657-.576l-10.929-1.107a.752.752,0,0,0-.759.433l-3.84,8.307A39.885,39.885,0,0,0,430.486,89.4L422.7,84.58a.752.752,0,0,0-.872.057l-8.511,6.945a.752.752,0,0,0-.231.842l3.161,8.6a39.894,39.894,0,0,0-6.128,11.38l-8.909,2.1a.752.752,0,0,0-.576.657l-1.107,10.929a.752.752,0,0,0,.433.759l8.307,3.84a39.9,39.9,0,0,0,3.722,12.377l-4.82,7.787a.752.752,0,0,0,.057.872Z" transform="translate(-320.325 -61.683)" fill="#91b3fa"/>
        <path id="Path_1459" data-name="Path 1459" d="M599.735,288.191a11.047,11.047,0,1,1,1.617-.119,11.059,11.059,0,0,1-1.617.119m.025-19.51a8.6,8.6,0,0,0-1.252.092,8.44,8.44,0,1,0,1.252-.092" transform="translate(-472.002 -213.354)" fill="#bdd0fb"/>
        <path id="Path_1460" data-name="Path 1460" d="M535.489,238.335a27.668,27.668,0,0,1-2.786-.141q-.44-.045-.879-.1a27.339,27.339,0,0,1-4.25-.917l-.057-.017-.16-.05c-.1-.032-.208-.065-.311-.1a.644.644,0,1,1,.4-1.225,25.892,25.892,0,0,0,28.313-8.608,25.7,25.7,0,0,0,5.415-13.386,26.285,26.285,0,0,0,.135-2.658,25.864,25.864,0,1,0-49.288,11.027.644.644,0,0,1-1.166.547,27.068,27.068,0,0,1-2.562-11.5,27.154,27.154,0,0,1,29.887-27.031,27.157,27.157,0,0,1,24.417,26.958,27.738,27.738,0,0,1-.141,2.79,27.155,27.155,0,0,1-26.962,24.417" transform="translate(-407.53 -147.549)" fill="#bdd0fb"/>
        <g id="Group_943" data-name="Group 943" transform="translate(7.722 59.236)" opacity="0.3">
          <g id="Group_942" data-name="Group 942">
            <g id="Group_941" data-name="Group 941" clip-path="url(#clip-path-7)">
              <path id="Path_1461" data-name="Path 1461" d="M45.925,562.024a.994.994,0,0,1-.954-.715c-.237-.81-.454-1.638-.643-2.462a.994.994,0,1,1,1.938-.445c.18.785.387,1.574.613,2.347a1,1,0,0,1-.674,1.234,1.007,1.007,0,0,1-.281.04" transform="translate(-43.243 -506.326)" fill="#91b3fa"/>
              <path id="Path_1462" data-name="Path 1462" d="M40.166,347.012a.994.994,0,0,1-.988-.893,43.233,43.233,0,0,1-.222-4.369q0-.458.01-.92a1.03,1.03,0,0,1,1.015-.974,1,1,0,0,1,.974,1.015q-.01.441-.01.88a41.318,41.318,0,0,0,.212,4.167,1,1,0,0,1-.888,1.09c-.034,0-.068,0-.1,0m.219-10.322a1.017,1.017,0,0,1-.143-.01,1,1,0,0,1-.843-1.126,43.111,43.111,0,0,1,1.073-5.182.994.994,0,0,1,1.919.522,41.2,41.2,0,0,0-1.024,4.944.994.994,0,0,1-.983.853m2.715-9.961a.994.994,0,0,1-.919-1.373,42.852,42.852,0,0,1,2.316-4.763.994.994,0,0,1,1.731.979,40.822,40.822,0,0,0-2.208,4.541,1,1,0,0,1-.92.616m5.081-8.989a.994.994,0,0,1-.8-1.587,43.117,43.117,0,0,1,3.41-4.05.995.995,0,0,1,1.439,1.373,41.016,41.016,0,0,0-3.252,3.862.993.993,0,0,1-.8.4m7.122-7.475a.995.995,0,0,1-.631-1.763,43.54,43.54,0,0,1,4.289-3.1.994.994,0,1,1,1.064,1.68,41.458,41.458,0,0,0-4.092,2.957.992.992,0,0,1-.63.225m8.72-5.519a.994.994,0,0,1-.425-1.893,42.788,42.788,0,0,1,4.915-1.959.994.994,0,0,1,.62,1.89,40.793,40.793,0,0,0-4.685,1.867.986.986,0,0,1-.424.1m9.8-3.219a.994.994,0,0,1-.19-1.97,43.122,43.122,0,0,1,5.248-.693.995.995,0,0,1,.139,1.985,40.884,40.884,0,0,0-5,.66.993.993,0,0,1-.192.018m15.438-.126a.977.977,0,0,1-.175-.015,41.211,41.211,0,0,0-4.358-.534c-.222-.016-.44-.03-.657-.041a.994.994,0,0,1-.941-1.045.984.984,0,0,1,1.044-.942c.232.012.464.026.7.044a43.26,43.26,0,0,1,4.564.56.994.994,0,0,1-.173,1.973" transform="translate(-38.956 -298.82)" fill="#91b3fa"/>
            </g>
          </g>
        </g>
        <g id="Group_946" data-name="Group 946" transform="translate(24.18 119.951)" opacity="0.3">
          <g id="Group_945" data-name="Group 945">
            <g id="Group_944" data-name="Group 944" clip-path="url(#clip-path-8)">
              <path id="Path_1463" data-name="Path 1463" d="M175.088,630.223a.994.994,0,0,1-.013-1.989,41.1,41.1,0,0,0,4.951-.364.995.995,0,0,1,.266,1.971,43.264,43.264,0,0,1-5.191.382Zm-5.081-.24a.984.984,0,0,1-.108-.006,43.512,43.512,0,0,1-5.135-.865.995.995,0,0,1,.448-1.938,41.591,41.591,0,0,0,4.9.826.994.994,0,0,1-.1,1.983m15.143-1.12a.994.994,0,0,1-.253-1.956,41.271,41.271,0,0,0,4.718-1.552.995.995,0,0,1,.734,1.849,43.156,43.156,0,0,1-4.946,1.625.992.992,0,0,1-.253.033M160.11,627.69a1,1,0,0,1-.341-.06,42.622,42.622,0,0,1-4.776-2.081.994.994,0,1,1,.9-1.771,40.869,40.869,0,0,0,4.554,1.984.994.994,0,0,1-.341,1.928m34.473-2.577a.995.995,0,0,1-.478-1.867,40.9,40.9,0,0,0,4.205-2.639.995.995,0,0,1,1.158,1.618,43.24,43.24,0,0,1-4.41,2.767.99.99,0,0,1-.476.121m8.259-5.9a.994.994,0,0,1-.672-1.728,41.58,41.58,0,0,0,3.454-3.57.994.994,0,0,1,1.51,1.293,43.506,43.506,0,0,1-3.621,3.742.992.992,0,0,1-.671.261m6.607-7.714a.995.995,0,0,1-.827-1.546,40.715,40.715,0,0,0,2.5-4.294.994.994,0,0,1,1.777.893,42.993,42.993,0,0,1-2.618,4.5.994.994,0,0,1-.829.443" transform="translate(-148.015 -605.107)" fill="#91b3fa"/>
              <path id="Path_1464" data-name="Path 1464" d="M124.991,681.7a.989.989,0,0,1-.556-.171c-.7-.477-1.4-.977-2.063-1.486a.995.995,0,1,1,1.21-1.579c.633.485,1.3.962,1.968,1.418a.994.994,0,0,1-.558,1.818" transform="translate(-121.982 -663.76)" fill="#91b3fa"/>
            </g>
          </g>
        </g>
        <path id="Path_1465" data-name="Path 1465" d="M101.686,405.38a.5.5,0,0,0,.564.154L108,403.419a26.69,26.69,0,0,0,7.615,4.1l1.4,5.961a.5.5,0,0,0,.439.386l7.313.741a.5.5,0,0,0,.508-.29l2.57-5.559a26.688,26.688,0,0,0,8.282-2.49l5.211,3.225a.5.5,0,0,0,.583-.038l5.695-4.647a.5.5,0,0,0,.154-.564l-2.115-5.751a26.691,26.691,0,0,0,4.1-7.615l5.961-1.4a.5.5,0,0,0,.386-.439l.741-7.313a.5.5,0,0,0-.29-.508L151,378.646a26.693,26.693,0,0,0-2.49-8.282l3.225-5.211a.5.5,0,0,0-.038-.583l-4.647-5.695a.5.5,0,0,0-.564-.154l-5.752,2.115a26.688,26.688,0,0,0-7.615-4.1l-1.4-5.961a.5.5,0,0,0-.439-.386l-7.313-.741a.5.5,0,0,0-.508.29l-2.57,5.559a26.692,26.692,0,0,0-8.283,2.49l-5.21-3.225a.5.5,0,0,0-.583.038l-5.7,4.647a.5.5,0,0,0-.154.564l2.115,5.751a26.691,26.691,0,0,0-4.1,7.615l-5.962,1.4a.5.5,0,0,0-.385.439l-.741,7.313a.5.5,0,0,0,.29.508l5.559,2.57a26.694,26.694,0,0,0,2.49,8.282L97,399.1a.5.5,0,0,0,.038.583Z" transform="translate(-73.671 -280.334)" fill="#91b3fa"/>
        <path id="Path_1466" data-name="Path 1466" d="M225.311,490.614a7.537,7.537,0,1,1,1.112-.081,7.692,7.692,0,0,1-1.112.081m.019-13.056a5.533,5.533,0,0,0-5.477,6.34,5.533,5.533,0,1,0,5.477-6.34" transform="translate(-174.63 -381.298)" fill="#bdd0fb"/>
        <path id="Path_1467" data-name="Path 1467" d="M180.568,455.921q-.944,0-1.9-.1a18.84,18.84,0,0,1-3.739-.766l-.163-.052a.994.994,0,1,1,.613-1.891,16.8,16.8,0,0,0,3.489.731h0l.2.018a16.579,16.579,0,0,0,8.1-1.283,16.841,16.841,0,0,0,3.862-2.326l.029-.024.088-.072a16.634,16.634,0,0,0,6.072-11.284,16.908,16.908,0,0,0,.087-1.721,16.744,16.744,0,1,0-31.908,7.138.994.994,0,1,1-1.8.845,18.733,18.733,0,1,1,35.7-7.987,19.094,19.094,0,0,1-.1,1.924,18.758,18.758,0,0,1-18.621,16.845" transform="translate(-129.744 -335.504)" fill="#bdd0fb"/>
      </g>
    </g>
    <g id="Group_950" data-name="Group 950" transform="translate(222.594 17.492)">
      <g id="Group_949" data-name="Group 949" clip-path="url(#clip-path-9)">
        <path id="Path_1527" data-name="Path 1527" d="M0,0H422.388V422.388H0Z" transform="matrix(0.569, -0.822, 0.822, 0.569, -142.048, 205.306)" fill="#7d50c7"/>
      </g>
    </g>
    <g id="Group_952" data-name="Group 952" transform="translate(244.838 39.735)">
      <g id="Group_951" data-name="Group 951" clip-path="url(#clip-path-10)">
        <path id="Path_1526" data-name="Path 1526" d="M0,0H362.844V362.844H0Z" transform="matrix(0.602, -0.799, 0.799, 0.602, -124.515, 165.314)" fill="#7d50c7"/>
      </g>
    </g>
    <g id="Group_954" data-name="Group 954" transform="translate(241.249 36.147)">
      <g id="Group_953" data-name="Group 953" clip-path="url(#clip-path-11)">
        <rect id="Rectangle_534" data-name="Rectangle 534" width="266.276" height="266.276" transform="translate(0 0)" fill="url(#linear-gradient-2)"/>
      </g>
    </g>
    <g id="Group_956" data-name="Group 956" transform="translate(295.408 90.305)">
      <g id="Group_955" data-name="Group 955" clip-path="url(#clip-path-12)">
        <rect id="Rectangle_535" data-name="Rectangle 535" width="221.207" height="221.207" transform="translate(-75.91 100.783) rotate(-53.013)" fill="#7d50c7"/>
      </g>
    </g>
    <g id="Group_958" data-name="Group 958" transform="translate(291.819 86.717)">
      <g id="Group_957" data-name="Group 957" clip-path="url(#clip-path-13)">
        <rect id="Rectangle_536" data-name="Rectangle 536" width="165.137" height="165.137" transform="translate(0 0)" fill="url(#linear-gradient-3)"/>
      </g>
    </g>
    <g id="Group_960" data-name="Group 960" transform="translate(343.788 138.686)">
      <g id="Group_959" data-name="Group 959" clip-path="url(#clip-path-14)">
        <path id="Path_1528" data-name="Path 1528" d="M0,0H85.7V85.7H0Z" transform="matrix(0.602, -0.799, 0.799, 0.602, -29.41, 39.046)" fill="#7d50c7"/>
      </g>
    </g>
    <g id="Group_962" data-name="Group 962" transform="translate(340.199 135.098)">
      <g id="Group_961" data-name="Group 961" clip-path="url(#clip-path-15)">
        <rect id="Rectangle_538" data-name="Rectangle 538" width="68.375" height="68.375" fill="url(#linear-gradient-4)"/>
      </g>
    </g>
    <g id="Group_964" data-name="Group 964" transform="translate(390.983 19.347)">
      <g id="Group_963" data-name="Group 963" transform="translate(0 0)" clip-path="url(#clip-path-16)">
        <rect id="Rectangle_539" data-name="Rectangle 539" width="182.716" height="182.716" transform="translate(-58.928 35.649) rotate(-31.171)" fill="url(#linear-gradient-5)"/>
      </g>
    </g>
    <g id="Group_966" data-name="Group 966" transform="translate(366.101 140.45)">
      <g id="Group_965" data-name="Group 965" clip-path="url(#clip-path-17)">
        <rect id="Rectangle_541" data-name="Rectangle 541" width="40.754" height="39.321" transform="translate(-2.455 0.083) rotate(-2.698)" fill="url(#linear-gradient-6)"/>
      </g>
    </g>
    <g id="Group_968" data-name="Group 968" transform="translate(0 -0.001)">
      <g id="Group_967" data-name="Group 967" clip-path="url(#clip-path-3)">
        <path id="Path_1476" data-name="Path 1476" d="M2496.257,115.251l17.44,1.733-23.941,23.941a37.012,37.012,0,0,1-29.832,10.659Z" transform="translate(-1972.294 -92.404)" fill="#91b3fa"/>
        <path id="Path_1477" data-name="Path 1477" d="M2478.253,27.443,2476.52,10l-23.941,23.942a37.011,37.011,0,0,0-10.659,29.832Z" transform="translate(-1957.714 -8.019)" fill="#91b3fa"/>
      </g>
    </g>
    <g id="Group_970" data-name="Group 970" transform="translate(332.004 13.222)">
      <g id="Group_969" data-name="Group 969" clip-path="url(#clip-path-19)">
        <rect id="Rectangle_543" data-name="Rectangle 543" width="83.717" height="85.554" transform="translate(-18.61 62.396) rotate(-74.321)" fill="url(#linear-gradient-7)"/>
      </g>
    </g>
    <g id="Group_981" data-name="Group 981" transform="translate(0 -0.001)">
      <g id="Group_980" data-name="Group 980" clip-path="url(#clip-path-3)">
        <g id="Group_973" data-name="Group 973" transform="translate(339.268 20.648)" opacity="0.65">
          <g id="Group_972" data-name="Group 972">
            <g id="Group_971" data-name="Group 971" clip-path="url(#clip-path-21)">
              <path id="Path_1479" data-name="Path 1479" d="M1722.657,137.523a7.749,7.749,0,0,0-1.692-1.982l-8.4-7.022a3,3,0,0,1,1.268-5.23l10.682-2.4a7.791,7.791,0,0,0,5.524-4.7l4.083-10.158a3,3,0,0,1,5.366-.41l2.85,4.812-.732.434-2.851-4.812a2.149,2.149,0,0,0-3.844.293l-4.083,10.158a8.643,8.643,0,0,1-6.128,5.21l-10.682,2.4a2.148,2.148,0,0,0-.908,3.745l8.4,7.022a8.62,8.62,0,0,1,1.876,2.2Z" transform="translate(-1711.49 -104.16)" fill="#fff"/>
            </g>
          </g>
        </g>
        <g id="Group_976" data-name="Group 976" transform="translate(350.466 34.556)" opacity="0.65">
          <g id="Group_975" data-name="Group 975">
            <g id="Group_974" data-name="Group 974" clip-path="url(#clip-path-22)">
              <path id="Path_1480" data-name="Path 1480" d="M1770.985,212.684A3.007,3.007,0,0,1,1768,209.4l.782-8.338.848.08-.782,8.338a2.148,2.148,0,0,0,3.282,2.021l9.272-5.816a8.726,8.726,0,0,1,8.02-.613l10.049,4.341a2.15,2.15,0,0,0,2.937-2.5l-2.667-10.618a8.637,8.637,0,0,1,1.9-7.815l7.233-8.218a2.149,2.149,0,0,0-1.467-3.564l-10.923-.744a8.593,8.593,0,0,1-3.233-.871l.376-.763a7.749,7.749,0,0,0,2.915.785l10.922.744a3,3,0,0,1,2.048,4.975l-7.234,8.218a7.788,7.788,0,0,0-1.709,7.045l2.667,10.618a3,3,0,0,1-4.1,3.486l-10.049-4.341a7.86,7.86,0,0,0-7.23.553l-9.273,5.817a3,3,0,0,1-1.594.462" transform="translate(-1767.984 -174.322)" fill="#fff"/>
            </g>
          </g>
        </g>
        <g id="Group_979" data-name="Group 979" transform="translate(369.385 26.932)" opacity="0.65">
          <g id="Group_978" data-name="Group 978">
            <g id="Group_977" data-name="Group 977" clip-path="url(#clip-path-23)">
              <rect id="Rectangle_546" data-name="Rectangle 546" width="0.851" height="3.314" transform="matrix(0.86, -0.51, 0.51, 0.86, 0.001, 0.434)" fill="#fff"/>
            </g>
          </g>
        </g>
      </g>
    </g>
    <g id="Group_983" data-name="Group 983" transform="translate(281.581 58.648)">
      <g id="Group_982" data-name="Group 982" clip-path="url(#clip-path-24)">
        <rect id="Rectangle_549" data-name="Rectangle 549" width="52.804" height="54.596" transform="translate(-4.392 48.929) rotate(-85.802)" fill="url(#linear-gradient-8)"/>
      </g>
    </g>
    <g id="Group_994" data-name="Group 994" transform="translate(0 -0.001)">
      <g id="Group_993" data-name="Group 993" clip-path="url(#clip-path-3)">
        <g id="Group_986" data-name="Group 986" transform="translate(286.89 64.076)" opacity="0.65">
          <g id="Group_985" data-name="Group 985">
            <g id="Group_984" data-name="Group 984" clip-path="url(#clip-path-26)">
              <path id="Path_1482" data-name="Path 1482" d="M1455.419,347.619a5.663,5.663,0,0,0-1.236-1.448l-6.137-5.132a2.193,2.193,0,0,1,.927-3.822l7.806-1.751a5.694,5.694,0,0,0,4.037-3.432l2.984-7.423a2.193,2.193,0,0,1,3.921-.3l2.083,3.517-.535.317-2.083-3.517a1.571,1.571,0,0,0-2.809.214l-2.984,7.423a6.316,6.316,0,0,1-4.478,3.807l-7.806,1.751a1.57,1.57,0,0,0-.663,2.737l6.137,5.132a6.3,6.3,0,0,1,1.371,1.606Z" transform="translate(-1447.259 -323.237)" fill="#fff"/>
            </g>
          </g>
        </g>
        <g id="Group_989" data-name="Group 989" transform="translate(295.074 74.24)" opacity="0.65">
          <g id="Group_988" data-name="Group 988">
            <g id="Group_987" data-name="Group 987" clip-path="url(#clip-path-27)">
              <path id="Path_1483" data-name="Path 1483" d="M1490.739,402.548a2.2,2.2,0,0,1-2.183-2.4l.572-6.094.62.059-.572,6.094a1.57,1.57,0,0,0,2.4,1.477l6.776-4.251a6.378,6.378,0,0,1,5.861-.448l7.344,3.173a1.571,1.571,0,0,0,2.146-1.825l-1.949-7.76a6.314,6.314,0,0,1,1.385-5.711l5.286-6.006a1.57,1.57,0,0,0-1.072-2.6l-7.983-.544a6.276,6.276,0,0,1-2.362-.637l.275-.558a5.658,5.658,0,0,0,2.13.573l7.982.544a2.192,2.192,0,0,1,1.5,3.636l-5.286,6.006a5.691,5.691,0,0,0-1.249,5.149l1.949,7.76a2.193,2.193,0,0,1-3,2.547l-7.344-3.172a5.745,5.745,0,0,0-5.284.4l-6.777,4.251a2.192,2.192,0,0,1-1.165.338" transform="translate(-1488.547 -374.512)" fill="#fff"/>
            </g>
          </g>
        </g>
        <g id="Group_992" data-name="Group 992" transform="translate(308.899 68.667)" opacity="0.65">
          <g id="Group_991" data-name="Group 991">
            <g id="Group_990" data-name="Group 990" clip-path="url(#clip-path-28)">
              <rect id="Rectangle_552" data-name="Rectangle 552" width="0.622" height="2.422" transform="translate(0.001 0.318) rotate(-30.632)" fill="#fff"/>
            </g>
          </g>
        </g>
      </g>
    </g>
    <g id="Group_996" data-name="Group 996" transform="translate(340.641 168.042)">
      <g id="Group_995" data-name="Group 995" clip-path="url(#clip-path-29)">
        <rect id="Rectangle_555" data-name="Rectangle 555" width="423.401" height="349.036" transform="matrix(0.462, -0.887, 0.887, 0.462, -153.277, 293.989)" fill="url(#linear-gradient-9)"/>
      </g>
    </g>
    <g id="Group_998" data-name="Group 998" transform="translate(256.928 340.3)">
      <g id="Group_997" data-name="Group 997" clip-path="url(#clip-path-30)">
        <rect id="Rectangle_556" data-name="Rectangle 556" width="227.753" height="247.541" transform="translate(-88.383 52.308) rotate(-30.619)" fill="url(#linear-gradient-10)"/>
      </g>
    </g>
    <g id="Group_1000" data-name="Group 1000" transform="translate(114.818 321.855)">
      <g id="Group_999" data-name="Group 999" clip-path="url(#clip-path-31)">
        <rect id="Rectangle_557" data-name="Rectangle 557" width="290.788" height="285.636" transform="matrix(0.604, -0.797, 0.797, 0.604, -105.423, 139.211)" fill="url(#linear-gradient-11)"/>
      </g>
    </g>
    <g id="Group_1002" data-name="Group 1002" transform="translate(0.51 387.577)">
      <g id="Group_1001" data-name="Group 1001" clip-path="url(#clip-path-32)">
        <rect id="Rectangle_558" data-name="Rectangle 558" width="234.033" height="236.641" transform="matrix(0.651, -0.759, 0.759, 0.651, -76.526, 89.281)" fill="url(#linear-gradient-12)"/>
      </g>
    </g>
    <g id="Group_1016" data-name="Group 1016" transform="translate(0 -0.001)">
      <g id="Group_1015" data-name="Group 1015" clip-path="url(#clip-path-3)">
        <g id="Group_1005" data-name="Group 1005" transform="translate(525.883 208.528)" opacity="0.69">
          <g id="Group_1004" data-name="Group 1004">
            <g id="Group_1003" data-name="Group 1003" clip-path="url(#clip-path-34)">
              <path id="Path_1488" data-name="Path 1488" d="M2653.884,1060.184a1.011,1.011,0,0,1-.111-.006.978.978,0,0,1-.862-1.083l.711-6.28a.979.979,0,0,1,1.945.22l-.711,6.28a.978.978,0,0,1-.971.868" transform="translate(-2652.903 -1051.947)" fill="#fff"/>
            </g>
          </g>
        </g>
        <g id="Group_1008" data-name="Group 1008" transform="translate(435.802 177.214)" opacity="0.69">
          <g id="Group_1007" data-name="Group 1007">
            <g id="Group_1006" data-name="Group 1006" clip-path="url(#clip-path-35)">
              <path id="Path_1489" data-name="Path 1489" d="M2199.453,1012.807a.978.978,0,0,1-.775-1.576l89.109-115.785a3.713,3.713,0,0,1,6.632,2.682l-1.573,13.879a.979.979,0,0,1-1.945-.221l1.573-13.879a1.756,1.756,0,0,0-3.137-1.268l-89.11,115.785a.976.976,0,0,1-.776.382" transform="translate(-2198.474 -893.982)" fill="#fff"/>
            </g>
          </g>
        </g>
        <g id="Group_1011" data-name="Group 1011" transform="translate(233.647 344.014)" opacity="0.69">
          <g id="Group_1010" data-name="Group 1010">
            <g id="Group_1009" data-name="Group 1009" clip-path="url(#clip-path-36)">
              <path id="Path_1490" data-name="Path 1490" d="M1179.649,1808.835a.979.979,0,0,1-.811-1.526L1224.924,1739a8.1,8.1,0,0,1,14.034,1.065.978.978,0,0,1-1.769.837,6.143,6.143,0,0,0-10.643-.807l-46.086,68.311a.976.976,0,0,1-.812.431" transform="translate(-1178.671 -1735.428)" fill="#fff"/>
            </g>
          </g>
        </g>
        <g id="Group_1014" data-name="Group 1014" transform="translate(221.672 428.834)" opacity="0.69">
          <g id="Group_1013" data-name="Group 1013">
            <g id="Group_1012" data-name="Group 1012" clip-path="url(#clip-path-37)">
              <path id="Path_1491" data-name="Path 1491" d="M1119.236,2169.658a.979.979,0,0,1-.811-1.526l2.955-4.381a.979.979,0,0,1,1.622,1.095l-2.955,4.381a.977.977,0,0,1-.812.431" transform="translate(-1118.258 -2163.32)" fill="#fff"/>
            </g>
          </g>
        </g>
      </g>
    </g>
    <g id="Group_1018" data-name="Group 1018" transform="translate(179.765 208.816)">
      <g id="Group_1017" data-name="Group 1017" clip-path="url(#clip-path-38)">
        <path id="Path_1529" data-name="Path 1529" d="M0,0H49.349V52.415H0Z" transform="translate(-20.632 15.005) rotate(-36.027)" fill="#7d50c7"/>
      </g>
    </g>
    <g id="Group_1020" data-name="Group 1020" transform="translate(200.19 230.551)">
      <g id="Group_1019" data-name="Group 1019" clip-path="url(#clip-path-39)">
        <rect id="Rectangle_565" data-name="Rectangle 565" width="54.26" height="48.286" transform="translate(-12.533 6.071) rotate(-25.847)" fill="url(#linear-gradient-13)"/>
      </g>
    </g>
    <g id="Group_1022" data-name="Group 1022" transform="translate(239.697 219.804)">
      <g id="Group_1021" data-name="Group 1021" clip-path="url(#clip-path-40)">
        <rect id="Rectangle_566" data-name="Rectangle 566" width="28.813" height="27.745" transform="translate(-10.346 3.805) rotate(-25.847)" fill="url(#linear-gradient-14)"/>
      </g>
    </g>
    <g id="Group_1024" data-name="Group 1024" transform="translate(0 -0.001)">
      <g id="Group_1023" data-name="Group 1023" clip-path="url(#clip-path-3)">
        <path id="Path_1495" data-name="Path 1495" d="M1232.445,1136.365a3.238,3.238,0,0,1-1.665-.411,2.828,2.828,0,0,1-1.313-2.219.653.653,0,0,1,1.3-.164,1.58,1.58,0,0,0,.681,1.259,2.811,2.811,0,0,0,1.908.119l-1.33-4.217a.653.653,0,1,1,1.245-.392l1.529,4.849a.654.654,0,0,1-.384.8,5.843,5.843,0,0,1-1.966.373" transform="translate(-985.746 -905.907)" fill="#f79e6d"/>
      </g>
    </g>
    <g id="Group_1026" data-name="Group 1026" transform="translate(41.136 371.344)">
      <g id="Group_1025" data-name="Group 1025" clip-path="url(#clip-path-42)">
        <rect id="Rectangle_568" data-name="Rectangle 568" width="16.247" height="35.24" transform="translate(-0.219 0)" fill="url(#linear-gradient-15)"/>
      </g>
    </g>
    <g id="Group_1028" data-name="Group 1028" transform="translate(42.737 369.763)">
      <g id="Group_1027" data-name="Group 1027" clip-path="url(#clip-path-43)">
        <rect id="Rectangle_569" data-name="Rectangle 569" width="20.243" height="36.216" transform="translate(-0.129 0)" fill="url(#linear-gradient-16)"/>
      </g>
    </g>
    <g id="Group_1030" data-name="Group 1030" transform="translate(51.252 363.881)">
      <g id="Group_1029" data-name="Group 1029" clip-path="url(#clip-path-44)">
        <rect id="Rectangle_570" data-name="Rectangle 570" width="13.017" height="13.747" transform="translate(-0.204 0)" fill="url(#linear-gradient-17)"/>
      </g>
    </g>
    <g id="Group_1032" data-name="Group 1032" transform="translate(231.923 322.254)">
      <g id="Group_1031" data-name="Group 1031" clip-path="url(#clip-path-45)">
        <rect id="Rectangle_571" data-name="Rectangle 571" width="31.042" height="35.854" transform="matrix(0.256, -0.967, 0.967, 0.256, -5.928, 22.41)" fill="url(#linear-gradient-18)"/>
      </g>
    </g>
    <g id="Group_1034" data-name="Group 1034" transform="translate(228.46 322.045)">
      <g id="Group_1033" data-name="Group 1033" clip-path="url(#clip-path-46)">
        <rect id="Rectangle_572" data-name="Rectangle 572" width="31.076" height="39.325" transform="translate(-7.015 21.49) rotate(-75.184)" fill="url(#linear-gradient-19)"/>
      </g>
    </g>
    <g id="Group_1036" data-name="Group 1036" transform="translate(220.779 324.144)">
      <g id="Group_1035" data-name="Group 1035" clip-path="url(#clip-path-47)">
        <rect id="Rectangle_573" data-name="Rectangle 573" width="14.461" height="12.429" transform="translate(-0.392)" fill="url(#linear-gradient-20)"/>
      </g>
    </g>
    <g id="Group_1038" data-name="Group 1038" transform="translate(55.315 275.941)">
      <g id="Group_1037" data-name="Group 1037" clip-path="url(#clip-path-48)">
        <rect id="Rectangle_574" data-name="Rectangle 574" width="134.128" height="134.583" transform="translate(-48.356 42.221) rotate(-41.125)" fill="url(#linear-gradient-21)"/>
      </g>
    </g>
    <g id="Group_1040" data-name="Group 1040" transform="translate(114.298 272.934)">
      <g id="Group_1039" data-name="Group 1039" clip-path="url(#clip-path-49)">
        <rect id="Rectangle_575" data-name="Rectangle 575" width="127.619" height="114.047" transform="translate(-27.879 19.453) rotate(-34.906)" fill="url(#linear-gradient-22)"/>
      </g>
    </g>
    <g id="Group_1042" data-name="Group 1042" transform="translate(108.502 197.807)">
      <g id="Group_1041" data-name="Group 1041" clip-path="url(#clip-path-50)">
        <rect id="Rectangle_576" data-name="Rectangle 576" width="121.373" height="122.419" transform="matrix(0.809, -0.588, 0.588, 0.809, -42.636, 31.008)" fill="#7d50c7"/>
      </g>
    </g>
    <g id="Group_1044" data-name="Group 1044" transform="translate(98.894 212.13)">
      <g id="Group_1043" data-name="Group 1043" clip-path="url(#clip-path-51)">
        <rect id="Rectangle_577" data-name="Rectangle 577" width="62.07" height="73.007" transform="translate(-33.481 15.526) rotate(-29.501)" fill="url(#linear-gradient-23)"/>
      </g>
    </g>
    <g id="Group_1046" data-name="Group 1046" transform="translate(135.536 216.806)">
      <g id="Group_1045" data-name="Group 1045" clip-path="url(#clip-path-52)">
        <rect id="Rectangle_578" data-name="Rectangle 578" width="4.31" height="9.064" transform="translate(-0.512 1.768) rotate(-73.856)" fill="url(#linear-gradient-24)"/>
      </g>
    </g>
    <g id="Group_1048" data-name="Group 1048" transform="translate(156.453 185.727)">
      <g id="Group_1047" data-name="Group 1047" clip-path="url(#clip-path-53)">
        <rect id="Rectangle_579" data-name="Rectangle 579" width="30.428" height="27.124" transform="matrix(0.331, -0.944, 0.944, 0.331, -8.103, 22.507)" fill="url(#linear-gradient-25)"/>
      </g>
    </g>
    <g id="Group_1050" data-name="Group 1050" transform="translate(159.377 166.759)">
      <g id="Group_1049" data-name="Group 1049" clip-path="url(#clip-path-54)">
        <rect id="Rectangle_580" data-name="Rectangle 580" width="39.528" height="39.876" transform="matrix(0.794, -0.608, 0.608, 0.794, -15.052, 10.802)" fill="url(#linear-gradient-26)"/>
      </g>
    </g>
    <g id="Group_1052" data-name="Group 1052" transform="translate(150.595 154.486)">
      <g id="Group_1051" data-name="Group 1051" clip-path="url(#clip-path-55)">
        <rect id="Rectangle_581" data-name="Rectangle 581" width="50.704" height="50.22" transform="translate(-17.875 13.016) rotate(-37.837)" fill="url(#linear-gradient-27)"/>
      </g>
    </g>
    <g id="Group_1054" data-name="Group 1054" transform="translate(159.717 178.062)">
      <g id="Group_1053" data-name="Group 1053" clip-path="url(#clip-path-56)">
        <rect id="Rectangle_582" data-name="Rectangle 582" width="11.868" height="11.936" transform="matrix(0.794, -0.608, 0.608, 0.794, -6.344, 3.202)" fill="url(#linear-gradient-28)"/>
      </g>
    </g>
    <g id="Group_1056" data-name="Group 1056" transform="translate(232.092 196.928)">
      <g id="Group_1055" data-name="Group 1055" clip-path="url(#clip-path-57)">
        <rect id="Rectangle_583" data-name="Rectangle 583" width="49.921" height="49.054" transform="translate(-17.813 24.4) rotate(-53.869)" fill="url(#linear-gradient-29)"/>
      </g>
    </g>
    <g id="Group_1058" data-name="Group 1058" transform="translate(211.742 128.978)">
      <g id="Group_1057" data-name="Group 1057" clip-path="url(#clip-path-58)">
        <rect id="Rectangle_584" data-name="Rectangle 584" width="72.755" height="84.688" transform="translate(-0.035 0)" fill="url(#linear-gradient-30)"/>
      </g>
    </g>
    <g id="Group_1060" data-name="Group 1060" transform="translate(224.221 239.699)">
      <g id="Group_1059" data-name="Group 1059" clip-path="url(#clip-path-59)">
        <rect id="Rectangle_585" data-name="Rectangle 585" width="8.641" height="47.706" transform="matrix(0.061, -0.998, 0.998, 0.061, -0.35, 5.739)" fill="url(#linear-gradient-31)"/>
      </g>
    </g>
    <g id="Group_1062" data-name="Group 1062" transform="translate(224.221 233.257)">
      <g id="Group_1061" data-name="Group 1061" clip-path="url(#clip-path-60)">
        <rect id="Rectangle_587" data-name="Rectangle 587" width="36.79" height="39.341" transform="translate(-3.208 3.504) rotate(-47.522)" fill="url(#linear-gradient-32)"/>
      </g>
    </g>
    <g id="Group_1064" data-name="Group 1064" transform="translate(203.569 119.982)">
      <g id="Group_1063" data-name="Group 1063" clip-path="url(#clip-path-61)">
        <rect id="Rectangle_588" data-name="Rectangle 588" width="92.213" height="27.727" transform="translate(-1.97 0.223) rotate(-6.459)" fill="url(#linear-gradient-33)"/>
      </g>
    </g>
    <g id="Group_1066" data-name="Group 1066" transform="translate(258.621 170.417)">
      <g id="Group_1065" data-name="Group 1065" clip-path="url(#clip-path-62)">
        <rect id="Rectangle_589" data-name="Rectangle 589" width="57.474" height="57.277" transform="translate(-19.374 17.977) rotate(-43.172)" fill="url(#linear-gradient-34)"/>
      </g>
    </g>
    <g id="Group_1068" data-name="Group 1068" transform="translate(196.477 170.417)">
      <g id="Group_1067" data-name="Group 1067" clip-path="url(#clip-path-63)">
        <rect id="Rectangle_590" data-name="Rectangle 590" width="57.271" height="57.476" transform="matrix(0.683, -0.73, 0.73, 0.683, -20.339, 20.471)" fill="url(#linear-gradient-35)"/>
      </g>
    </g>
    <g id="Group_1082" data-name="Group 1082" transform="translate(0 -0.001)">
      <g id="Group_1081" data-name="Group 1081" clip-path="url(#clip-path-3)">
        <g id="Group_1071" data-name="Group 1071" transform="translate(266.648 126.982)" opacity="0.71">
          <g id="Group_1070" data-name="Group 1070">
            <g id="Group_1069" data-name="Group 1069" clip-path="url(#clip-path-65)">
              <path id="Path_1517" data-name="Path 1517" d="M1345.8,642.279a.653.653,0,0,1-.034-1.3l7.263-.391a.653.653,0,0,1,.07,1.3l-7.263.391h-.036" transform="translate(-1345.15 -640.582)" fill="#fff"/>
            </g>
          </g>
        </g>
        <g id="Group_1074" data-name="Group 1074" transform="translate(211.089 128.029)" opacity="0.71">
          <g id="Group_1073" data-name="Group 1073">
            <g id="Group_1072" data-name="Group 1072" clip-path="url(#clip-path-66)">
              <path id="Path_1518" data-name="Path 1518" d="M1065.522,649.5a.653.653,0,0,1-.034-1.3l43.392-2.335a.653.653,0,0,1,.07,1.3l-43.392,2.334h-.036" transform="translate(-1064.87 -645.859)" fill="#fff"/>
            </g>
          </g>
        </g>
        <g id="Group_1077" data-name="Group 1077" transform="translate(220.231 149.02)" opacity="0.71">
          <g id="Group_1076" data-name="Group 1076">
            <g id="Group_1075" data-name="Group 1075" clip-path="url(#clip-path-67)">
              <path id="Path_1519" data-name="Path 1519" d="M1136.1,800.31a.593.593,0,0,1-.075,0c-7.871-.905-14.162-7.311-18.7-19.039-3.743-9.678-5.509-21-6.331-28.8a.652.652,0,0,1,1.3-.136c1.411,13.37,6.561,44.685,23.88,46.677a.652.652,0,0,1-.074,1.3" transform="translate(-1110.993 -751.749)" fill="#fff"/>
            </g>
          </g>
        </g>
        <g id="Group_1080" data-name="Group 1080" transform="translate(219.559 140.076)" opacity="0.71">
          <g id="Group_1079" data-name="Group 1079">
            <g id="Group_1078" data-name="Group 1078" clip-path="url(#clip-path-68)">
              <path id="Path_1520" data-name="Path 1520" d="M1108.4,710.764a.653.653,0,0,1-.651-.61c-.115-1.784-.147-2.811-.148-2.853a.653.653,0,0,1,1.305-.039c0,.01.032,1.049.146,2.809a.653.653,0,0,1-.609.693h-.043" transform="translate(-1107.601 -706.628)" fill="#fff"/>
            </g>
          </g>
        </g>
      </g>
    </g>
    <g id="Group_1084" data-name="Group 1084" transform="translate(246.158 219.305)">
      <g id="Group_1083" data-name="Group 1083" clip-path="url(#clip-path-69)">
        <rect id="Rectangle_596" data-name="Rectangle 596" width="22.001" height="22.616" transform="translate(-9.133 3.3) rotate(-25.847)" fill="url(#linear-gradient-36)"/>
      </g>
    </g>
    <g id="Group_1086" data-name="Group 1086" transform="translate(0 -0.001)">
      <g id="Group_1085" data-name="Group 1085" clip-path="url(#clip-path-3)">
        <path id="Path_1522" data-name="Path 1522" d="M1951.548,2225.863c26.433,5.079,104.494,8.263,133.268-121.285a3.664,3.664,0,0,0-6.289-3.268c-11.839,13.09-32.9,35.343-50.791,42.191-55.435,21.216-75.5,55.345-82.125,71.331a8.074,8.074,0,0,0,5.936,11.031" transform="translate(-1559.436 -1683.789)" fill="#bdd0fb"/>
      </g>
    </g>
    <g id="Group_1088" data-name="Group 1088" transform="translate(388.193 453.788)">
      <g id="Group_1087" data-name="Group 1087" clip-path="url(#clip-path-71)">
        <rect id="Rectangle_598" data-name="Rectangle 598" width="115.586" height="84.868" transform="translate(-0.156 0)" fill="url(#linear-gradient-37)"/>
      </g>
    </g>
    <g id="Group_1090" data-name="Group 1090" transform="translate(0 -0.001)">
      <g id="Group_1089" data-name="Group 1089" clip-path="url(#clip-path-3)">
        <path id="Path_1524" data-name="Path 1524" d="M2009.605,1618.062c3.007,24.188,18.048,173.337-61.278,220.93a3.763,3.763,0,0,1-5.685-2.957c-1.287-17.777-2.091-74.269,30.536-140.941,23.541-48.1,32.169-69.79,34.889-77.208a.8.8,0,0,1,1.538.176" transform="translate(-1557.188 -1296.753)" fill="#91b3fa"/>
        <path id="Path_1525" data-name="Path 1525" d="M1938.97,2045.643a1.363,1.363,0,0,1-1.2-2.015c39.419-72.469,56.8-160.865,56.841-164.968a1.364,1.364,0,0,1,2.65-.611c.966,3.087-17.278,93.681-57.1,166.882a1.364,1.364,0,0,1-1.2.712m55.691-166.783v0" transform="translate(-1553.517 -1504.997)" fill="#bdd0fb"/>
      </g>
    </g>
  </g>
</svg>
