<svg xmlns="http://www.w3.org/2000/svg" xmlns:xlink="http://www.w3.org/1999/xlink" width="518.41" height="545.446" viewBox="0 0 518.41 545.446">
  <defs>
    <clipPath id="clip-path">
      <rect id="Rectangle_276" data-name="Rectangle 276" width="518.41" height="545.446" fill="none"/>
    </clipPath>
    <clipPath id="clip-path-5">
      <rect id="Rectangle_283" data-name="Rectangle 283" width="112.637" height="107.826" fill="none"/>
    </clipPath>
    <clipPath id="clip-path-6">
      <rect id="Rectangle_285" data-name="Rectangle 285" width="12.081" height="21.161" fill="none"/>
    </clipPath>
    <clipPath id="clip-path-7">
      <rect id="Rectangle_286" data-name="Rectangle 286" width="73.111" height="150.427" fill="none"/>
    </clipPath>
    <clipPath id="clip-path-8">
      <rect id="Rectangle_287" data-name="Rectangle 287" width="56.683" height="52.172" fill="none"/>
    </clipPath>
  </defs>
  <g id="Group_1271" data-name="Group 1271" transform="translate(-727.59 -176.554)">
    <path id="Path_889" data-name="Path 889" d="M3.234,216.171.71,217.551l2.525,1.379,1.38,2.525,1.379-2.525,2.525-1.379-2.525-1.38-1.379-2.525Z" transform="translate(729.748 201.098)" fill="#7d50c7"/>
    <g id="Group_301" data-name="Group 301" transform="translate(727.59 176.554)">
      <g id="Group_300" data-name="Group 300" clip-path="url(#clip-path)">
        <path id="Path_807" data-name="Path 807" d="M95.93,117.733h0A41.883,41.883,0,1,1,137.813,75.85,41.882,41.882,0,0,1,95.93,117.733" transform="translate(12.027 7.559)" fill="#ebebeb"/>
        <rect id="Rectangle_275" data-name="Rectangle 275" width="8.668" height="28.003" transform="translate(88.965 74.071)" fill="#fff"/>
        <path id="Path_808" data-name="Path 808" d="M77.216,59.47A5.168,5.168,0,1,0,72.09,54.3a5.148,5.148,0,0,0,5.126,5.169" transform="translate(16.043 10.934)" fill="#fff"/>
        <path id="Path_809" data-name="Path 809" d="M92.71,74.047c0-3.937,1.812-6.283,5.281-6.283,3.187,0,4.719,2.252,4.719,6.283v14.7h8.627V71.017c0-7.5-4.252-11.128-10.189-11.128a9.763,9.763,0,0,0-8.439,4.626V60.744H84.394v28H92.71Z" transform="translate(18.781 13.327)" fill="#fff"/>
        <path id="Path_810" data-name="Path 810" d="M137.173,0l5.735,10.487,10.487,5.735-10.487,5.735-5.735,10.487-5.735-10.487-10.487-5.735,10.487-5.735Z" transform="translate(26.916 0)" fill="#f5f5f5"/>
        <path id="Path_811" data-name="Path 811" d="M332.085,232.386l4.3,7.865,7.865,4.3-7.865,4.3-4.3,7.866-4.3-7.866-7.866-4.3,7.866-4.3Z" transform="translate(71.193 51.714)" fill="#ebebeb"/>
        <path id="Path_812" data-name="Path 812" d="M340.821,200.622l1.94,3.548,3.549,1.941-3.549,1.94-1.94,3.549-1.94-3.549-3.549-1.94,3.549-1.941Z" transform="translate(74.623 44.645)" fill="#e0e0e0"/>
        <path id="Path_813" data-name="Path 813" d="M101.712,3.226l1.941,3.549,3.548,1.94-3.548,1.94L101.712,14.2l-1.94-3.549-3.549-1.94,3.549-1.94Z" transform="translate(21.413 0.718)" fill="#e0e0e0"/>
        <path id="Path_814" data-name="Path 814" d="M25.836,277.314a12.677,12.677,0,0,0,7.4-11.827c-.062-7-5.435-12.637-12-12.582S9.4,258.682,9.456,265.685a12.662,12.662,0,0,0,7.73,11.741C-1.076,280.419.012,300.3.012,300.3l43.27-.361s.727-20.116-17.447-22.621" transform="translate(0 56.28)" fill="#e0e0e0"/>
        <path id="Path_815" data-name="Path 815" d="M365.493,381.041a6.735,6.735,0,0,0-13.283.4,6.735,6.735,0,0,0-13.286-.279,9.09,9.09,0,0,0,1.632,6.559,26.911,26.911,0,0,0,4.75,5.02c2.418,2.153,4.652,4.175,7.07,6.328,2.4-2.174,4.44-4.215,6.839-6.389a27.014,27.014,0,0,0,4.706-5.061,9.093,9.093,0,0,0,1.573-6.574" transform="translate(75.396 83.585)" fill="#ebebeb"/>
        <path id="Path_816" data-name="Path 816" d="M383.687,174.067l4.637-.919,7.322-16.108-1.835-9.256s7.078-1.862,8.64,10.425,1.859,9.02,1.859,9.02,15.229-2.96,16.756-1.888c1.11.778,4.523,15.811,6.308,23.978.9,4.111-.872,8.451-4.516,10.187a6.688,6.688,0,0,1-1.594.545c-3.795.753-23.8,1.513-23.8,1.513l-8.01,1.588Z" transform="translate(85.384 32.865)" fill="#e0e0e0"/>
        <path id="Path_817" data-name="Path 817" d="M372.418,169.612l9.141,31.148,7.942-1.576-6.164-31.074Z" transform="translate(82.876 37.41)" fill="#e0e0e0"/>
      </g>
    </g>
    <g id="Group_303" data-name="Group 303" transform="translate(727.59 176.554)">
      <g id="Group_302" data-name="Group 302" clip-path="url(#clip-path)">
        <path id="Path_818" data-name="Path 818" d="M358.43,176.438h0A49.672,49.672,0,1,1,314.979,87.1h0a49.672,49.672,0,0,1,43.45,89.338" transform="translate(63.872 18.267)" fill="#7d50c7"/>
        <path id="Path_819" data-name="Path 819" d="M320.132,139.214a1.167,1.167,0,0,0,1.156-1.5c-.122-.6-.444-2.115-.57-2.749-.166-.864-.377-1.093-1.264-1.483a9.784,9.784,0,0,1-4.917-5c-3.747-7.7-1.337-17.4,7.9-21.891,8.182-3.981,15.111-1.166,18.359,5.512,4.273,8.786,3.992,18.092-1.781,20.9a5.245,5.245,0,0,1-7.665-3.528c-.958-4.307-1.213-9.337-2.569-12.124-1.213-2.494-3.564-3.923-6.334-2.576-3.261,1.586-4.239,6.23-2.042,10.746a13.028,13.028,0,0,0,3.318,4.35s3.538,15.754,4.157,18.512c1.231,5.494,5.159,11.055,5.54,11.624a.451.451,0,0,0,.809-.176c.11-.54,1.66-7.22.65-12.65-.285-1.537-1.928-9.417-1.928-9.417,2.039,1.5,6,1.776,9.289.176,9.8-4.764,12.1-16.926,6.285-28.88-4.4-9.039-16.145-13.735-27.781-8.075-14.479,7.042-16.73,20.973-12.521,29.628,2.55,5.242,6.8,8.939,11.9,8.605" transform="translate(68.171 21.924)" fill="#fff"/>
        <path id="Path_820" data-name="Path 820" d="M390.025,285.932h0a34.259,34.259,0,1,1,44.23-19.774h0a34.258,34.258,0,0,1-44.23,19.773" transform="translate(81.89 48.882)" fill="#7d50c7"/>
        <path id="Path_821" data-name="Path 821" d="M418.316,256.906a18.454,18.454,0,0,0-34.325-13.476c-.1.247-.207.494-.3.743a18.182,18.182,0,0,0-.907,9.779l-6.613,7.987,10.7.614a18.474,18.474,0,0,0,31.283-5.208c.055-.146.111-.291.159-.439m-22.887,8.231a15.45,15.45,0,0,1-7.063-5.426l-6.245-.353,3.847-4.651a15.238,15.238,0,0,1,.463-9.486,14.288,14.288,0,0,1,.605-1.368,15.519,15.519,0,0,1,28.756,11.3c-.11.384-.235.76-.38,1.139a15.469,15.469,0,0,1-19.985,8.841" transform="translate(83.711 51.723)" fill="#fff" fill-rule="evenodd"/>
        <path id="Path_822" data-name="Path 822" d="M404.328,255.736c-.347-.373-2.033-2.182-2.368-2.467s-.589-.466-1.032-.154-1.619.944-1.966,1.126-.611.127-.96-.247a12.241,12.241,0,0,1-2.6-3.379,13.43,13.43,0,0,1-1.241-3.794c-.082-.512.223-.655.512-.785.268-.12.608-.331.918-.49.084-.051.158-.1.23-.143a4.967,4.967,0,0,0,.458-.4.809.809,0,0,0,.248-.746c-.024-.249-.083-2.639-.117-3.614s-.436-.962-.687-1.057-.509-.241-.791-.348a1.679,1.679,0,0,0-1.33.092,5.03,5.03,0,0,0-2.814,2.939,5.7,5.7,0,0,0-.329,1.511,10.175,10.175,0,0,0,.4,3.481c.105.355,1.144,5.764,4.792,9.091s3.875,2.756,4.677,2.979a4.512,4.512,0,0,0,3.61-.9,3.7,3.7,0,0,0,1.011-1.9c-.039-.209-.282-.422-.621-.792" transform="translate(86.885 53.217)" fill="#fff" fill-rule="evenodd"/>
        <path id="Path_823" data-name="Path 823" d="M26.386,153.864h0a26.124,26.124,0,1,1,26.123-26.123,26.123,26.123,0,0,1-26.123,26.123" transform="translate(0.059 22.613)" fill="#7d50c7"/>
        <path id="Path_824" data-name="Path 824" d="M10.246,133.79a16.242,16.242,0,0,0,24.987-14.423,11.557,11.557,0,0,0,2.85-2.956,11.4,11.4,0,0,1-3.28.9,5.721,5.721,0,0,0,2.511-3.159,11.473,11.473,0,0,1-3.626,1.386,5.715,5.715,0,0,0-9.733,5.209,16.211,16.211,0,0,1-11.771-5.967,5.718,5.718,0,0,0,1.767,7.625,5.679,5.679,0,0,1-2.587-.715,5.718,5.718,0,0,0,4.58,5.674,5.71,5.71,0,0,1-2.577.1,5.714,5.714,0,0,0,5.334,3.967,11.481,11.481,0,0,1-8.455,2.364" transform="translate(2.28 25.31)" fill="#fff"/>
        <path id="Path_825" data-name="Path 825" d="M70.122,399.886h0a44.993,44.993,0,1,1,33.342-54.2,44.995,44.995,0,0,1-33.342,54.2" transform="translate(3.269 69.234)" fill="#455a64"/>
        <path id="Path_826" data-name="Path 826" d="M51.662,333.1c6.409-1.527,7.174-1.683,9.731-2.17a13.645,13.645,0,0,1,4.653-.236,8.172,8.172,0,0,1,5.64,3.47,13.636,13.636,0,0,1,1.888,4.261c.719,2.5.924,3.256,2.451,9.664s1.682,7.173,2.17,9.73a13.667,13.667,0,0,1,.235,4.653,8.172,8.172,0,0,1-3.47,5.64A13.663,13.663,0,0,1,70.7,370c-2.5.716-3.256.922-9.664,2.449s-7.173,1.683-9.73,2.171a13.668,13.668,0,0,1-4.653.235,8.165,8.165,0,0,1-5.64-3.47,13.633,13.633,0,0,1-1.889-4.259c-.718-2.5-.923-3.256-2.45-9.664s-1.682-7.173-2.17-9.73a13.684,13.684,0,0,1-.236-4.654,8.169,8.169,0,0,1,3.471-5.638A13.6,13.6,0,0,1,42,335.548c2.5-.718,3.256-.924,9.663-2.45m-1.029-4.324c-6.517,1.553-7.328,1.775-9.861,2.5a18.128,18.128,0,0,0-5.559,2.5,12.6,12.6,0,0,0-5.346,8.691,18.082,18.082,0,0,0,.273,6.091c.493,2.588.659,3.411,2.212,9.929s1.775,7.328,2.5,9.86a18.081,18.081,0,0,0,2.5,5.56,12.621,12.621,0,0,0,8.691,5.346,18.08,18.08,0,0,0,6.091-.273c2.588-.493,3.412-.66,9.929-2.213s7.328-1.774,9.86-2.5a18.138,18.138,0,0,0,5.56-2.5,12.621,12.621,0,0,0,5.346-8.691,18.107,18.107,0,0,0-.271-6.091c-.494-2.588-.661-3.412-2.214-9.929s-1.775-7.328-2.5-9.861a18.131,18.131,0,0,0-2.5-5.559,12.61,12.61,0,0,0-8.691-5.346,18.117,18.117,0,0,0-6.092.271c-2.587.494-3.411.66-9.928,2.213" transform="translate(6.614 72.578)" fill="#fff"/>
        <path id="Path_827" data-name="Path 827" d="M50.874,337.908A12.669,12.669,0,1,0,66.133,347.3a12.669,12.669,0,0,0-15.258-9.388m4.841,20.323a8.224,8.224,0,1,1,6.093-9.9,8.223,8.223,0,0,1-6.093,9.9" transform="translate(9.155 75.119)" fill="#fff"/>
        <path id="Path_828" data-name="Path 828" d="M62.9,334.8a2.961,2.961,0,1,1-3.566-2.194A2.96,2.96,0,0,1,62.9,334.8" transform="translate(12.698 73.999)" fill="#fff"/>
        <path id="Path_829" data-name="Path 829" d="M342.626,358.974h0a20.982,20.982,0,1,1,20.982-20.982,20.982,20.982,0,0,1-20.982,20.982" transform="translate(71.577 70.546)" fill="#455a64"/>
        <path id="Path_830" data-name="Path 830" d="M336.675,349.163h5.108v-12.79h3.564l.38-4.283h-3.944v-2.44c0-1.009.2-1.408,1.18-1.408h2.764V323.8h-3.537c-3.8,0-5.515,1.675-5.515,4.879v3.415h-2.657v4.335h2.657Z" transform="translate(74.331 72.056)" fill="#fff"/>
      </g>
    </g>
    <g id="Group_305" data-name="Group 305" transform="translate(727.59 176.554)">
      <g id="Group_304" data-name="Group 304" clip-path="url(#clip-path)">
        <path id="Path_831" data-name="Path 831" d="M317.635,536.473l-168.572-.1a36.717,36.717,0,0,1-36.7-36.726l.082-422.612a36.723,36.723,0,0,1,36.742-36.714l168.572.1a36.721,36.721,0,0,1,36.7,36.727l-.083,422.613a36.719,36.719,0,0,1-36.741,36.713" transform="translate(25.005 8.973)" fill="#263238"/>
        <path id="Path_832" data-name="Path 832" d="M315.549,52.647l-32.683-.02a8.119,8.119,0,0,0-7.937,8.292l0,5.928a8.119,8.119,0,0,1-7.938,8.292L203.282,75.1a8.126,8.126,0,0,1-7.934-8.3V60.873a8.127,8.127,0,0,0-7.935-8.3l-11.494-.007-28.606-.017A25.717,25.717,0,0,0,121.583,78.26l-.081,412.5a25.715,25.715,0,0,0,25.7,25.722l168.234.1a25.717,25.717,0,0,0,25.732-25.711l.081-412.5a25.717,25.717,0,0,0-25.7-25.721" transform="translate(27.038 11.694)" fill="#fff"/>
        <path id="Path_833" data-name="Path 833" d="M285.7,80.065c0,.111-4.25.236-9.492.279s-9.5-.011-9.5-.122,4.248-.235,9.492-.279,9.494.012,9.5.122" transform="translate(59.352 17.787)" fill="#263238"/>
        <path id="Path_834" data-name="Path 834" d="M285.729,84.039c0,.11-4.25.236-9.492.279s-9.5-.011-9.5-.122,4.248-.235,9.492-.279,9.494.012,9.5.122" transform="translate(59.359 18.671)" fill="#263238"/>
        <path id="Path_835" data-name="Path 835" d="M285.762,88.013c0,.111-4.25.236-9.492.279s-9.5-.011-9.5-.122,4.248-.235,9.492-.279,9.494.012,9.5.122" transform="translate(59.367 19.556)" fill="#263238"/>
        <path id="Path_836" data-name="Path 836" d="M136.065,95.51a3.873,3.873,0,0,1,.5-.033l1.384-.046,5.109-.121-.142.143c-.018-1.132-.038-2.369-.06-3.7.007-.688-.059-1.337.009-2.133a1.965,1.965,0,0,1,1.714-1.575c.824-.016,1.549-.054,2.441-.012A1.984,1.984,0,0,1,148.694,90c.02,1.727.039,3.532.061,5.4l-.237-.234,6.445-.065-.246.249c-.022-2.6-.046-5.281-.071-8.031q-.009-1.031-.017-2.045a2.086,2.086,0,0,0-.906-1.523l-2.818-2.778L148.187,78.3,146.87,77c-.454-.436-.808-.888-1.334-1a1.729,1.729,0,0,0-1.478.282c-.391.33-.807.8-1.2,1.18L140.546,79.8c-1.455,1.511-2.971,2.891-4.072,4.2a4.579,4.579,0,0,0-.324,2.4q0,1.2,0,2.271-.013,2.089-.022,3.658c-.011.935-.02,1.708-.027,2.34a8.131,8.131,0,0,1-.031.844,5.846,5.846,0,0,1-.044-.775c-.018-.623-.039-1.383-.065-2.3q-.037-1.581-.083-3.688-.02-1.093-.043-2.315c-.006-.412-.013-.834-.02-1.267a2.668,2.668,0,0,1,.355-1.35c1.193-1.461,2.616-2.754,4.082-4.309l2.295-2.351c.413-.406.752-.809,1.243-1.232a2.193,2.193,0,0,1,1.869-.368,3.48,3.48,0,0,1,1.548,1.106q.653.642,1.323,1.3l2.726,2.674,2.824,2.771a5.3,5.3,0,0,1,.719.78,2.1,2.1,0,0,1,.339,1.087q.009,1.021.018,2.055c.021,2.751.042,5.435.061,8.031V95.6h-.247l-6.445.042h-.236v-.235c-.01-1.872-.02-3.676-.028-5.4a1.555,1.555,0,0,0-1.3-1.565c-.741-.039-1.615-.013-2.337-.007a1.581,1.581,0,0,0-1.389,1.253c-.062.648-.015,1.4-.028,2.06q0,2,0,3.706V95.6h-.142l-5.195-.035-1.353-.023a2.514,2.514,0,0,1-.445-.026" transform="translate(30.223 16.797)" fill="#263238"/>
        <path id="Path_837" data-name="Path 837" d="M235.161,355.578a9.427,9.427,0,0,1-1.767.124l-4.817.1c-4.067.057-9.685.093-15.891.093s-11.827-.035-15.894-.093l-4.817-.1a9.42,9.42,0,0,1-1.765-.124,9.43,9.43,0,0,1,1.765-.123l4.817-.1c4.067-.057,9.686-.093,15.894-.093s11.823.035,15.891.093l4.817.1a9.438,9.438,0,0,1,1.767.123" transform="translate(42.329 79.058)" fill="#455a64"/>
        <path id="Path_838" data-name="Path 838" d="M305.814,364.624c0,.176-25.881.318-57.8.318s-57.8-.142-57.8-.318,25.875-.318,57.8-.318,57.8.142,57.8.318" transform="translate(42.329 81.071)" fill="#455a64"/>
        <path id="Path_839" data-name="Path 839" d="M269.688,373.133c0,.176-17.793.318-39.736.318s-39.741-.142-39.741-.318,17.789-.318,39.741-.318,39.736.142,39.736.318" transform="translate(42.329 82.964)" fill="#455a64"/>
        <path id="Path_840" data-name="Path 840" d="M287.916,391.551l-3.591-3.6-3.421,3.41.016-10.311,7.011.011Zm-3.591-4.05.112.111,3.161,3.174.015-9.41-6.377-.01-.015,9.229Z" transform="translate(62.511 84.797)" fill="#263238"/>
        <path id="Path_841" data-name="Path 841" d="M209.584,389.837l-1.268-.565a3.472,3.472,0,1,1,1.851-3.05,3.506,3.506,0,0,1-.877,2.347Zm-2.963-6.866a3.28,3.28,0,1,0,.053,6.559,3.405,3.405,0,0,0,1.58-.5l.053-.031.934.418-.212-.919.043-.047a3.275,3.275,0,0,0-2.45-5.483" transform="translate(45.203 85.171)" fill="#263238"/>
        <path id="Path_842" data-name="Path 842" d="M215.833,389.205l-1.452-3.547-2.725-2.482,6.608-.054Zm-3.56-5.792,2.32,2.13,1.237,3.02,2.076-5.195Z" transform="translate(47.101 85.258)" fill="#263238"/>
        <path id="Path_843" data-name="Path 843" d="M214.138,385.669l-.132-.2,3.6-2.344.131.2Z" transform="translate(47.624 85.258)" fill="#263238"/>
        <path id="Path_844" data-name="Path 844" d="M201.377,384.072a2.044,2.044,0,0,0-4.031.134,2.043,2.043,0,0,0-4.031-.07,2.758,2.758,0,0,0,.5,1.989,8.215,8.215,0,0,0,1.447,1.517c.736.65,1.416,1.262,2.152,1.912.726-.661,1.344-1.284,2.069-1.946a8.121,8.121,0,0,0,1.422-1.54,2.754,2.754,0,0,0,.471-2" transform="translate(43.012 85.104)" fill="#e8505b"/>
        <path id="Path_845" data-name="Path 845" d="M328.309,409.08s-.015-.4-.021-1.15-.013-1.881-.023-3.345c-.011-2.95-.028-7.288-.051-12.908-.027-11.236-.066-27.583-.115-48.087l.21.209-195.5.109h-.012l.318-.318c0,22.759-.007,44.838-.011,65.49l-.307-.308,139.9.143,40.84.087,10.959.039,2.841.02c.641.006.977.02.977.02s-.311.013-.939.02l-2.8.02-10.894.039-40.769.087-140.11.143h-.309v-.308c0-20.652-.006-42.731-.01-65.49v-.319h.331l195.5.109h.21v.21c-.049,20.558-.088,36.947-.115,48.213-.023,5.6-.04,9.922-.051,12.86q-.015,2.171-.023,3.308c-.006.742-.021,1.109-.021,1.109" transform="translate(29.48 76.39)" fill="#263238"/>
        <rect id="Rectangle_278" data-name="Rectangle 278" width="43.298" height="54.158" transform="translate(170.158 474.22) rotate(-89.675)" fill="#ebebeb"/>
        <path id="Path_846" data-name="Path 846" d="M193.647,352.842a1.875,1.875,0,0,1-.271.015l-.768.012-2.956.017-11.1.012-39.059-.079.286-.282c-.064,12.89-.136,27.661-.213,43.292.066.077-.593-.6-.307-.315h.456l.468,0,.938,0,1.867.011,3.707.022,7.3.044,14.052.09,25.364.183-.267.264c.131-13,.24-23.787.315-31.359.051-3.767.09-6.731.119-8.791.018-1,.033-1.769.043-2.328.013-.531.034-.818.034-.818s.018.249.024.76c0,.548.01,1.306.017,2.279,0,2.047.011,4.992.02,8.733-.011,7.613-.026,18.455-.043,31.527v.264H193.4l-25.364-.1-14.051-.07-7.3-.039-3.707-.02-1.867-.011-.938,0-.468,0h-.456c.279.285-.4-.388-.326-.325.1-15.631.2-30.4.28-43.292v-.286l.285,0,39.242.366,11.04.138,2.9.051.736.02a1.158,1.158,0,0,1,.238.018" transform="translate(30.915 78.387)" fill="#263238"/>
        <rect id="Rectangle_279" data-name="Rectangle 279" width="37.847" height="50.353" transform="translate(172.041 471.504) rotate(-89.674)" fill="#e0e0e0"/>
        <path id="Path_847" data-name="Path 847" d="M140.725,389.942l17.721-23.425,10.81,14.78,7.434-7.827,14.388,16.757Z" transform="translate(31.316 81.563)" fill="#f5f5f5"/>
        <path id="Path_848" data-name="Path 848" d="M169.369,364.958a3.965,3.965,0,1,1-3.941-3.987,3.964,3.964,0,0,1,3.941,3.987" transform="translate(35.926 80.329)" fill="#f5f5f5"/>
        <path id="Path_849" data-name="Path 849" d="M224.448,123.044a2.035,2.035,0,0,1-.578.064l-1.658.06-6.1.1c-5.149.057-12.264.093-20.123.093s-14.976-.035-20.127-.093l-6.1-.1-1.658-.06a2.035,2.035,0,0,1-.578-.064,1.98,1.98,0,0,1,.578-.064l1.658-.06,6.1-.1c5.151-.057,12.266-.093,20.127-.093s14.974.035,20.123.093l6.1.1,1.658.06a1.98,1.98,0,0,1,.578.064" transform="translate(37.281 27.311)" fill="#263238"/>
        <path id="Path_850" data-name="Path 850" d="M281.429,321.607l-5.338-5.353-5.082,5.069L271.032,306l10.42.016Zm-5.336-6.02.167.166,4.7,4.715.022-13.985-9.477-.015-.021,13.716Z" transform="translate(60.309 68.095)" fill="#263238"/>
        <path id="Path_851" data-name="Path 851" d="M170.988,319.994l-2.5-1.113a6.834,6.834,0,1,1,3.643-6,6.906,6.906,0,0,1-1.725,4.621Zm-5.833-13.514a6.455,6.455,0,1,0,.1,12.909,6.665,6.665,0,0,0,3.108-.979l.1-.059,1.839.822-.417-1.808.084-.09a6.448,6.448,0,0,0-4.822-10.794" transform="translate(35.222 68.097)" fill="#263238"/>
        <path id="Path_852" data-name="Path 852" d="M183.291,318.751l-2.86-6.978-5.362-4.887,13.005-.105Zm-7.008-11.4,4.567,4.192,2.435,5.944,4.087-10.225Z" transform="translate(38.959 68.27)" fill="#263238"/>
        <rect id="Rectangle_280" data-name="Rectangle 280" width="8.46" height="0.475" transform="translate(219.681 379.663) rotate(-33.037)" fill="#263238"/>
        <path id="Path_853" data-name="Path 853" d="M154.834,308.647a4.023,4.023,0,0,0-7.933.265,4.022,4.022,0,0,0-7.935-.138,5.43,5.43,0,0,0,.988,3.915,16.111,16.111,0,0,0,2.849,2.988c1.449,1.28,2.787,2.483,4.236,3.764,1.428-1.3,2.643-2.527,4.071-3.831a16.132,16.132,0,0,0,2.8-3.033,5.432,5.432,0,0,0,.925-3.929" transform="translate(30.91 67.965)" fill="#e8505b"/>
        <path id="Path_854" data-name="Path 854" d="M161.391,124.592a8.822,8.822,0,1,1-8.822-8.822,8.821,8.821,0,0,1,8.822,8.822" transform="translate(31.989 25.763)" fill="#ebebeb"/>
        <path id="Path_855" data-name="Path 855" d="M306.886,277.426c0,.176-36.994.318-82.618.318-45.64,0-82.625-.142-82.625-.318s36.985-.318,82.625-.318c45.624,0,82.618.142,82.618.318" transform="translate(31.521 61.666)" fill="#455a64"/>
        <path id="Path_856" data-name="Path 856" d="M306.886,266.171c0,.176-36.994.318-82.618.318-45.64,0-82.625-.142-82.625-.318s36.985-.318,82.625-.318c45.624,0,82.618.142,82.618.318" transform="translate(31.521 59.162)" fill="#455a64"/>
        <path id="Path_857" data-name="Path 857" d="M231.586,288.832c0,.176-20.136.318-44.97.318s-44.973-.142-44.973-.318,20.131-.318,44.973-.318,44.97.142,44.97.318" transform="translate(31.521 64.204)" fill="#455a64"/>
        <path id="Path_858" data-name="Path 858" d="M207.413,412.055a3.511,3.511,0,1,1-3.5-3.578,3.535,3.535,0,0,1,3.5,3.578" transform="translate(44.594 90.9)" fill="#263238"/>
        <path id="Path_859" data-name="Path 859" d="M216.311,412.1a3.511,3.511,0,1,1-3.5-3.578,3.537,3.537,0,0,1,3.5,3.578" transform="translate(46.574 90.909)" fill="#263238"/>
        <path id="Path_860" data-name="Path 860" d="M225.209,412.136a3.511,3.511,0,1,1-3.5-3.578,3.534,3.534,0,0,1,3.5,3.578" transform="translate(48.554 90.918)" fill="#263238"/>
        <rect id="Rectangle_281" data-name="Rectangle 281" width="195.516" height="119.569" transform="translate(163.445 167.814)" fill="#e0e0e0"/>
        <path id="Path_861" data-name="Path 861" d="M148.457,248.739l56.026-74.988,34.732,46.9,23.541-25.082,46.17,53.128Z" transform="translate(33.037 38.666)" fill="#f5f5f5"/>
        <path id="Path_862" data-name="Path 862" d="M239.337,168.526A12.635,12.635,0,1,1,226.7,155.895a12.634,12.634,0,0,1,12.639,12.631" transform="translate(47.637 34.692)" fill="#f5f5f5"/>
        <path id="Path_863" data-name="Path 863" d="M328.837,375.258c0-2.558-.119-110.572-.288-270.474l.288.289-195.493.029h-.023l.319-.318c-.022,101.151-.043,194.763-.06,270.474l-.259-.259,195.516.259-195.516.259h-.258v-.259c-.017-75.71-.038-169.322-.06-270.474v-.318h.341l195.493.029h.289v.289c-.059,80.03-.108,147.677-.143,195.327-.033,23.791-.059,42.587-.077,55.446-.015,6.411-.027,11.339-.034,14.674-.009,1.654-.013,2.912-.017,3.764s-.017,1.263-.017,1.263" transform="translate(29.598 23.248)" fill="#263238"/>
      </g>
    </g>
    <g id="Group_322" data-name="Group 322" transform="translate(727.59 176.554)">
      <g id="Group_321" data-name="Group 321" clip-path="url(#clip-path)">
        <path id="Path_864" data-name="Path 864" d="M232.461,365.492l4.325-14.533c.754-3.15,1.757-6.868,3.105-11.11,1.213-3.813,4.322-7.819,7.159-10.7,4.415-4.49,6.515-4.521,9.482-6.9.27-.174.572-.422.828-.559a4.683,4.683,0,0,0,1.443-1.249c2.556-2.765.1-7.047-5.093-6.64-3.91.307-10.286,1.425-20.656,12.123-.128.161-.265.3-.392.465-5.442,7.074-10.552-13.12-11.475-20.636-.6-4.878-5.873-7.874-10.646-6.11l-25.259,11.815a11.785,11.785,0,0,0-7.374.249,7.508,7.508,0,0,0-4.812,8.91l10.245,40.9L153.252,461.62h64.853Z" transform="translate(34.104 66.565)" fill="#ffbe9d"/>
        <path id="Path_865" data-name="Path 865" d="M279.514,280.771l-20.047,39.284-10.024-2.785-50.388,40.987A10.207,10.207,0,0,1,184.878,357L165.694,334.7s38.682-16.663,45.837-30.457-1.113-16.922-1.113-16.922l18.206-20.688Z" transform="translate(36.873 59.336)" fill="#7d50c7"/>
        <path id="Path_866" data-name="Path 866" d="M279.923,237.79s-29.346-6.49-70.642-46.2-60.7-92.444-65.753-92.188-27.126-9.989-69.1,81.323S48.983,293.24,57.336,293.069s65.071-15.977,100.5-11.95S238.8,303.61,238.8,303.61Z" transform="translate(10.461 22.069)" fill="#7d50c7"/>
        <path id="Path_867" data-name="Path 867" d="M308.5,265.46l-10.011,19.035-4.485,8.527a24.842,24.842,0,0,1-32.383,11l-62.9-21.915,36.631-83.626L298.2,231.97A24.845,24.845,0,0,1,308.5,265.46" transform="translate(44.223 44.169)" fill="#5b30a2"/>
        <path id="Path_869" data-name="Path 869" d="M76.817,182c-22.341,49.465-31.64,93.543-20.771,98.452s37.789-31.213,60.129-80.676,31.639-93.542,20.772-98.451S99.158,132.538,76.817,182" transform="translate(11.461 22.45)" fill="#5b30a2"/>
        <path id="Path_871" data-name="Path 871" d="M296.039,280.392l-17.048-5.355,10.551-20.059,12.785,7.949Z" transform="translate(62.085 56.742)" fill="#7d50c7"/>
        <g id="Group_314" data-name="Group 314" transform="translate(341.075 311.72)" opacity="0.6">
          <g id="Group_313" data-name="Group 313">
            <g id="Group_312" data-name="Group 312" clip-path="url(#clip-path-6)">
              <path id="Path_872" data-name="Path 872" d="M289.54,254.978l-10.55,20.059,3.5,1.1,8.577-20.21Z" transform="translate(-278.99 -254.978)"/>
            </g>
          </g>
        </g>
        <path id="Path_873" data-name="Path 873" d="M284.767,261.826c-.251.551-8.758-2.756-19-7.387s-18.353-8.832-18.1-9.383,8.755,2.757,19,7.388,18.349,8.832,18.1,9.382" transform="translate(55.112 54.52)" fill="#7d50c7"/>
        <path id="Path_874" data-name="Path 874" d="M288.386,252c-.269.544-7.967-2.7-17.2-7.246s-16.5-8.673-16.23-9.215,7.964,2.7,17.2,7.25,16.5,8.67,16.23,9.212" transform="translate(56.736 52.402)" fill="#7d50c7"/>
        <path id="Path_875" data-name="Path 875" d="M278.76,271.761c-.09.291-2.115-.176-5.346-1.175-1.614-.5-3.526-1.13-5.642-1.862-2.1-.762-4.284-1.864-6.622-2.924-9.327-4.329-16.448-8.569-16.214-9.07.275-.594,7.888,2.793,17.128,7.081,2.318,1.049,4.468,2.207,6.5,3.053,2.034.823,3.86,1.591,5.384,2.267,3.049,1.355,4.906,2.342,4.818,2.631" transform="translate(54.505 57.116)" fill="#7d50c7"/>
        <path id="Path_876" data-name="Path 876" d="M117.379,158.9s-25.506-15.816-39.461,18.644S90.8,217.669,90.8,217.669c10.982-17.029,19.9-36.545,26.579-58.77" transform="translate(16.444 34.554)" fill="#7d50c7"/>
        <g id="Group_317" data-name="Group 317" transform="translate(87.872 152.385)" opacity="0.5">
          <g id="Group_316" data-name="Group 316">
            <g id="Group_315" data-name="Group 315" clip-path="url(#clip-path-7)">
              <path id="Path_877" data-name="Path 877" d="M144.955,124.647c.149.026-.214,2.366-1,6.583-.807,4.21-1.947,10.323-3.583,17.828-1.078,3.7-2.257,7.733-3.521,12.059q-.959,3.253-1.982,6.717-.513,1.733-1.042,3.511c-.38,1.177-.878,2.331-1.322,3.521-1.836,4.742-3.763,9.715-5.761,14.868q-.754,1.933-1.52,3.9c-.5,1.317-1.2,2.556-1.792,3.852q-1.87,3.855-3.791,7.817t-3.8,7.814c-.65,1.27-1.193,2.588-1.919,3.792s-1.424,2.414-2.127,3.606l-8.127,13.723c-.663,1.084-1.262,2.188-1.952,3.217q-1.075,1.518-2.121,3l-4.06,5.719L88.222,256.4c-4.878,5.909-8.967,10.57-11.777,13.806-2.828,3.221-4.445,4.957-4.561,4.861s1.28-2.015,3.9-5.4l11.236-14.246c2.157-3.161,4.512-6.614,7.038-10.313q1.9-2.776,3.934-5.73,1.016-1.473,2.06-2.992c.671-1.027,1.256-2.135,1.9-3.218,2.539-4.368,5.2-8.949,7.964-13.7q1.04-1.781,2.1-3.589c.716-1.2,1.251-2.509,1.894-3.774q1.858-3.829,3.764-7.763t3.775-7.757c.6-1.286,1.3-2.515,1.793-3.82l1.526-3.863c2.025-5.1,3.978-10.027,5.841-14.722.454-1.177.961-2.319,1.355-3.483q.546-1.76,1.079-3.474,1.067-3.422,2.073-6.642c1.348-4.276,2.605-8.267,3.758-11.92,1.773-7.352,3.216-13.337,4.245-17.6,1.04-4.154,1.687-6.443,1.835-6.417" transform="translate(-71.877 -124.647)"/>
            </g>
          </g>
        </g>
        <g id="Group_320" data-name="Group 320" transform="translate(208.678 356.365)" opacity="0.4">
          <g id="Group_319" data-name="Group 319">
            <g id="Group_318" data-name="Group 318" clip-path="url(#clip-path-8)">
              <path id="Path_878" data-name="Path 878" d="M170.693,326.434c2.326,4.224,4.7,8.513,8.145,11.888s8.171,5.768,12.969,5.284,9.344-4.468,9.4-9.29c2.3,1.731,5.833.795,7.74-1.364s2.527-5.157,2.756-8.028c3.127,1.845,7.477.38,9.564-2.589s2.216-6.975,1.205-10.462-3.031-6.58-5.021-9.615c2.407.193,4.959.362,7.113-.73s3.609-3.941,2.352-6a5.98,5.98,0,0,0-3.506-2.237c-3.774-1.182-6.422-2.128-10.35-1.67-.913.007,1.572,10.36-23.086,24.522-14.557,8.36-19.274,10.3-19.274,10.3" transform="translate(-170.693 -291.497)"/>
            </g>
          </g>
        </g>
        <path id="Path_879" data-name="Path 879" d="M220.673,332.416c-.016.114-1.658-.2-4.318-.13a24.412,24.412,0,0,0-18.123,8.689c-1.723,2.029-2.5,3.506-2.6,3.449a3.819,3.819,0,0,1,.483-1.071,19.829,19.829,0,0,1,1.773-2.663,23.107,23.107,0,0,1,18.466-8.854,19.65,19.65,0,0,1,3.186.286,3.792,3.792,0,0,1,1.137.293" transform="translate(43.533 73.844)" fill="#eb996e"/>
        <path id="Path_880" data-name="Path 880" d="M172.008,318.655c3.972,3.816,6.688,8.027,10.855,11.87,1.894,1.747,4.834,5.054,7.372,5.494s4.164.1,5.168-2.268c.813-1.922-.647-4.545-1.657-6.129-2.653-4.164-5.192-7.42-7.18-10.656-.93-1.516.275-1.83.714-1.127,1.912,1.982,4.764,3.7,6.476,5.856,2.346,2.955,2.771,6.868,8.906,5.63a5.491,5.491,0,0,0,2.278-.946c2.309-1.767,2.407-4.841,1.435-7.3a20.033,20.033,0,0,0-3.416-5.168c2.61,2.949,5.462,6.055,9.614,6.389a5.719,5.719,0,0,0,5.814-3.146c1.229-2.79-.533-5.487-2.3-7.668a79.949,79.949,0,0,0-10.427-10.653,7.944,7.944,0,0,0-5.067-1.879c-2.148-.013-4.836.39-6.164,2.258a8.338,8.338,0,0,0-1.668,6.39s-5.385-2.73-9.713.126a13.721,13.721,0,0,0-5.4,7.766Z" transform="translate(38.278 66.082)" fill="#ffbe9d"/>
        <path id="Path_881" data-name="Path 881" d="M195.732,298.1a6.448,6.448,0,0,1-.763-7.285c.917-1.8,2.072-3.54,3.243-3.935,5.125-1.729,27.511,2.144,27.307,7.113-.21,5.1-1.839,7.347-13.988,5.592-2.137-.308-5.49-.73-5.49-.73l-2.933,4.4Z" transform="translate(43.216 63.748)" fill="#ffbe9d"/>
        <path id="Path_882" data-name="Path 882" d="M200.978,315.038c-.177.109-1.881-3.367-5.36-6.483-3.441-3.158-7.067-4.514-6.977-4.7a7.168,7.168,0,0,1,2.37.835,21.26,21.26,0,0,1,8.9,8.071,7.187,7.187,0,0,1,1.062,2.278" transform="translate(41.979 67.616)" fill="#eb996e"/>
        <path id="Path_883" data-name="Path 883" d="M203.156,301.308c-.111.1-1.589-1.1-3.605-2.335a25.218,25.218,0,0,0-2.627-1.449c-.691-.325-1.15-.414-1.148-.51s.526-.147,1.3.088a12.034,12.034,0,0,1,2.807,1.329c2.067,1.263,3.419,2.742,3.27,2.877" transform="translate(43.567 66.08)" fill="#eb996e"/>
        <path id="Path_884" data-name="Path 884" d="M206.323,297.272a9.662,9.662,0,0,1-4.312-.487,7.883,7.883,0,0,1-2.759-1.445c-.614-.523-.87-.96-.809-1.012a18.014,18.014,0,0,0,3.757,1.85c2.22.644,4.157.883,4.124,1.094" transform="translate(44.158 65.497)" fill="#eb996e"/>
        <path id="Path_885" data-name="Path 885" d="M190.329,320.062a15.628,15.628,0,0,1-2.042-2.653,24.09,24.09,0,0,0-5.225-5.939,10.534,10.534,0,0,0-7.4-1.961,13.482,13.482,0,0,0-3.119.991c-.021-.028.214-.255.714-.565a6.979,6.979,0,0,1,2.331-.87,10.4,10.4,0,0,1,7.845,1.888,21.242,21.242,0,0,1,5.23,6.207,19.8,19.8,0,0,1,1.666,2.9" transform="translate(38.396 68.743)" fill="#eb996e"/>
        <path id="Path_886" data-name="Path 886" d="M204.443,358.541c.02.175-4.078.764-9.149,1.315s-9.2.857-9.219.682,4.077-.764,9.151-1.315,9.2-.857,9.218-.682" transform="translate(41.408 79.777)" fill="#eb996e"/>
      </g>
    </g>
    <path id="Path_887" data-name="Path 887" d="M359.342,25.957l1.38,2.523,2.523,1.38-2.523,1.38-1.38,2.523-1.38-2.523-2.523-1.38,2.523-1.38Z" transform="translate(806.688 182.33)" fill="#7d50c7"/>
    <path id="Path_888" data-name="Path 888" d="M382.947,77.127l1.38,2.523,2.523,1.38-2.523,1.38-1.38,2.523-1.38-2.523-2.523-1.38,2.523-1.38Z" transform="translate(811.94 193.717)" fill="#7d50c7"/>
    <path id="Path_890" data-name="Path 890" d="M329.3,38.675l3.187,5.827,5.827,3.187-5.827,3.187L329.3,56.7l-3.187-5.828-5.827-3.187,5.827-3.187Z" transform="translate(798.865 185.16)" fill="#7d50c7"/>
    <path id="Path_891" data-name="Path 891" d="M26.7,181.211l3.18,5.814,5.814,3.18-5.814,3.18L26.7,199.2l-3.18-5.814L17.7,190.2l5.814-3.18Z" transform="translate(731.529 216.879)" fill="#7d50c7"/>
    <path id="Path_892" data-name="Path 892" d="M390.295,294.679l3.18,5.814,5.814,3.18-5.814,3.18-3.18,5.814-3.18-5.814-5.814-3.18,5.814-3.18Z" transform="translate(812.442 242.13)" fill="#7d50c7"/>
    <rect id="Rectangle_289" data-name="Rectangle 289" width="518.41" height="545.446" transform="translate(727.59 176.554)" fill="none"/>
  </g>
</svg>
