<svg id="Group_219" data-name="Group 219" xmlns="http://www.w3.org/2000/svg" width="26.377" height="26.377" viewBox="0 0 26.377 26.377">
  <circle id="Ellipse_68" data-name="Ellipse 68" cx="13.188" cy="13.188" r="13.188" transform="translate(0 0)"/>
  <path id="Path_596" data-name="Path 596" d="M153.2,120.678a6.08,6.08,0,0,1-1.453.412c.23-.041.574-.459.709-.635a2.547,2.547,0,0,0,.486-.878V119.5a.074.074,0,0,0-.074,0,7.487,7.487,0,0,1-1.723.676.128.128,0,0,1-.122,0,.818.818,0,0,0-.149-.155,3.143,3.143,0,0,0-.838-.513,2.871,2.871,0,0,0-1.284-.2,3.094,3.094,0,0,0-1.216.338,3.3,3.3,0,0,0-.98.8,2.953,2.953,0,0,0-.581,1.176,3.176,3.176,0,0,0-.034,1.236c0,.068,0,.081-.061.068a9.189,9.189,0,0,1-5.925-3.013c-.068-.081-.108-.081-.162,0a2.993,2.993,0,0,0,.507,3.547c.122.115.236.223.365.324a3.067,3.067,0,0,1-1.142-.324c-.068-.041-.1,0-.108.061a1.438,1.438,0,0,0,0,.338,3.034,3.034,0,0,0,1.872,2.426,1.88,1.88,0,0,0,.378.115,3.223,3.223,0,0,1-1.122.034c-.081,0-.115,0-.081.108a3.162,3.162,0,0,0,2.358,1.973l.318.041h0a3.662,3.662,0,0,1-1.608.851,5.682,5.682,0,0,1-2.446.318h-.189c-.034,0,0,.054.034.088.169.108.338.2.513.3a7.9,7.9,0,0,0,1.628.676,8.709,8.709,0,0,0,8.452-1.973,8.883,8.883,0,0,0,2.338-6.473c0-.095.115-.142.176-.189a5.83,5.83,0,0,0,1.149-1.2.358.358,0,0,0,.081-.23h0C153.257,120.637,153.257,120.651,153.2,120.678Z" transform="translate(-132.718 -111.982)" fill="#fff"/>
</svg>
