<svg id="Layer_1" data-name="Layer 1" xmlns="http://www.w3.org/2000/svg" viewBox="0 0 337.5 315.58"><defs><style>.cls-1{fill:#6235ba;}</style></defs><title>icons</title><path class="cls-1" d="M25.78,239.15V71.28A32.55,32.55,0,0,1,30.61,61C36.5,53.36,44.5,50.6,53.84,50.62c27.23.05,54.46,0,81.69.07,2.76,0,4.41-.83,5.76-3.29,3.57-6.52,7.26-13,11.17-19.3a25.34,25.34,0,0,1,46.2,19.11c-.75,3.37-.74,3.42,2.75,3.42h37.36c16.73,0,33.46.15,50.18,0,15.85-.18,22.84,11.65,22.77,22.75-.37,53.53-.16,107.06-.18,160.59a25.13,25.13,0,0,1-20.54,25c-5.79,1.15-11.68.47-17.52.49q-31.37.12-62.73,0c-2.66,0-3.57.81-3.6,3.5a116.72,116.72,0,0,0,1.52,21.36c.45,2.6,1.6,3.32,4.07,3.29,9-.1,18-.07,27,0,4.07,0,6.77,2.37,6.89,5.78s-2.54,5.87-6.59,6.13c-.46,0-.93,0-1.39,0q-70.11,0-140.23,0a13.82,13.82,0,0,1-3.85-.47,5.56,5.56,0,0,1-4.16-5.34,5.92,5.92,0,0,1,4.08-5.73,11.45,11.45,0,0,1,3.86-.4c8.55,0,17.1-.12,25.64.06,2.8.06,3.75-1.07,4.11-3.59a115.26,115.26,0,0,0,1.21-20c-.13-4.54-.09-4.54-4.52-4.55q-36.93,0-73.88,0a25.16,25.16,0,0,1-18.42-7.92C29.09,248,27.28,243.68,25.78,239.15Zm96.36-74.44.12.62H235a31.37,31.37,0,0,1,3.63.08,5.88,5.88,0,0,1,5.26,5.59,5.8,5.8,0,0,1-4.93,5.86,38,38,0,0,1-5.55.32q-64.83,0-129.64,0c-1,0-2,0-3.07,0-5.69-.28-7.61-2.27-7.62-8,0-11.52,0-23,0-34.57a14.07,14.07,0,0,1,2-7.38q17.63-30.39,35.15-60.82c2.2-3.8,2.18-3.85-2.07-3.85h-75c-10.49,0-16,5.51-16,16q0,62.88,0,125.74c0,4,0,4.09,4,4.09H296c3.89,0,4-.08,4-3.84q0-65.67,0-131.32c0-7.39-3.32-10.66-10.78-10.66-30.95,0-61.9.06-92.84-.09-3.81,0-6,1.08-7.88,4.46-16.25,28.49-32.73,56.85-49.08,85.28a14.83,14.83,0,0,1-6,6C129.59,160.26,125.89,162.53,122.14,164.71Zm46.4,55.64H42.27c-.93,0-1.86,0-2.79,0-1.65,0-2.35.78-2.33,2.39,0,3.81-.16,7.63.09,11.43.41,6.38,4.23,11.2,9.85,12.83a25.23,25.23,0,0,0,7.2.55H282.86c1.39,0,2.79,0,4.18-.09a13.31,13.31,0,0,0,12.5-11.13c.75-3.88.34-7.78.41-11.67.07-4.31,0-4.32-4.3-4.32Zm6.87-154.56a2.07,2.07,0,0,0-1.36-1.85c-6.58-3.82-13.19-7.6-19.76-11.45-1.37-.81-2.14-.52-2.87.83-1.56,2.85-3.24,5.63-4.86,8.45q-18.87,32.69-37.8,65.34c-1.38,2.38-1,3.44,1.33,4.71,6.19,3.39,12.28,7,18.35,10.56,1.66,1,2.55.74,3.52-.94q21.24-36.94,42.56-73.85C174.89,67,175.17,66.28,175.41,65.79ZM168.55,287.5c8.45,0,16.91-.08,25.35.05,2.47,0,3.36-.58,2.9-3.14a96.78,96.78,0,0,1-1.49-22.73c.1-1.76-.59-2.27-2.24-2.26q-24.8,0-49.59,0c-1.75,0-2.52.49-2.34,2.44.69,7.44-.13,14.83-1.09,22.2-.4,3.13-.25,3.42,2.87,3.43Q155.73,287.52,168.55,287.5ZM187.38,41.7a13.43,13.43,0,0,0-24-8.57,73.93,73.93,0,0,0-3.92,6.4c-.73,1.21-.43,2.06.78,2.75Q170.11,48,180,53.69c1,.55,2,.89,2.67-.3C184.82,49.73,187.53,46.29,187.38,41.7Zm-81,101.61c-1.28,0-1.24.93-1.24,1.74,0,4.46,0,8.91,0,13.37,0,1.72.51,2.22,2.13,1.26,3.91-2.32,7.84-4.61,11.81-6.82,1.77-1,1.34-1.56-.1-2.37-3.8-2.14-7.56-4.35-11.34-6.53C107.18,143.73,106.76,143.53,106.35,143.31Z"/><path class="cls-1" d="M209.07,143.38H182.31a10.12,10.12,0,0,1-4.12-.53,5.52,5.52,0,0,1-3.68-5.66,5.35,5.35,0,0,1,3.88-5.22,11,11,0,0,1,3.56-.53q27.18-.06,54.36,0a13,13,0,0,1,2.49.21,6,6,0,0,1,5.12,6,6.07,6.07,0,0,1-5.58,5.64,23.58,23.58,0,0,1-2.79.08Z"/></svg>