<svg id="Group_220" data-name="Group 220" xmlns="http://www.w3.org/2000/svg" width="26.391" height="26.384" viewBox="0 0 26.391 26.384">
  <path id="Path_600" data-name="Path 600" d="M42.7,121.665A13.2,13.2,0,1,0,27.444,134.7v-9.222H24.066v-3.811h3.378V118.76c0-3.3,1.973-5.135,4.986-5.135a20.423,20.423,0,0,1,2.953.257v3.25H33.714a1.9,1.9,0,0,0-2.149,2.027v2.507h3.662l-.588,3.811H31.565V134.7A13.2,13.2,0,0,0,42.7,121.665Z" transform="translate(-16.309 -108.469)"/>
  <path id="Path_601" data-name="Path 601" d="M38.364,127.967l.588-3.811H35.29v-2.473a1.883,1.883,0,0,1,2.149-2.027h1.669v-3.25a20.423,20.423,0,0,0-2.953-.257c-3.013,0-4.986,1.831-4.986,5.135v2.871H27.79v3.811h3.378v9.222a13.744,13.744,0,0,0,4.121,0v-9.222Z" transform="translate(-20.033 -110.961)" fill="#fff"/>
</svg>
