<svg xmlns="http://www.w3.org/2000/svg" width="165.607" height="165.607" viewBox="0 0 165.607 165.607">
  <g id="undraw_teacher_re_sico" transform="translate(0)">
    <path id="Path_90" data-name="Path 90" d="M427.607,194.8a82.67,82.67,0,0,1-4.373,26.624q-.25.735-.512,1.465a82.9,82.9,0,0,1-13.173,23.53q-2.528,3.171-5.358,6.08t-5.941,5.544a82.374,82.374,0,0,1-40.613,18.57h0q-2.866.445-5.789.693-3.48.294-7.043.3a82.544,82.544,0,0,1-59.263-24.976q-.812-.83-1.6-1.685-1.962-2.128-3.775-4.388-1.018-1.271-1.987-2.582a82.491,82.491,0,0,1-9.858-17.389,81.385,81.385,0,0,1-2.866-8.045c-.059-.193-.115-.387-.172-.581q-.184-.625-.355-1.257a82.813,82.813,0,1,1,162.679-21.9Z" transform="translate(-262 -112)" fill="#f2f2f2"/>
    <path id="Path_91" data-name="Path 91" d="M405.127,299.922a5.4,5.4,0,0,0,5.4,6.272l13.218,38.46,8.434-5.8-16.281-38.52a5.425,5.425,0,0,0-10.767-.416Z" transform="translate(-370.009 -250.428)" fill="#a0616a"/>
    <path id="Path_92" data-name="Path 92" d="M497.853,344.62c-5.87,6.678-20.343,18.447-32.266,26.551-2.577,1.752-5.037,3.329-7.264,4.65-1.5.892-2.9,1.663-4.162,2.293a6.858,6.858,0,0,1-9.41-3.552l-8.256-19.973,2.856-1.894,7.043-4.672,1.6-1.058,6.6,15.73,6.965-5.59,4.324-3.471L485.6,337.815l1.7-.5,3.966,3.871,2.805,2.739,2.638.458C497.1,344.446,497.485,344.527,497.853,344.62Z" transform="translate(-393.747 -282.113)" fill="#0e2de2"/>
    <path id="Path_93" data-name="Path 93" d="M882.44,587.051c.409.519.833,1.036,1.257,1.556a82.088,82.088,0,0,1-4.914,8.7l-.4-.287a.516.516,0,0,1-.061-.039c-.5-.358-1.007-.71-1.509-1.068v0a17.149,17.149,0,0,1-.688-4.336,1.3,1.3,0,0,0,.3-2.416c-.066-.115-.113-.2-.179-.316,0-.029.007-.061.01-.091A3.48,3.48,0,0,1,882.44,587.051Z" transform="translate(-725.673 -469.666)" fill="#fff"/>
    <path id="Path_94" data-name="Path 94" d="M848.958,450.1q.441,1.213.8,2.452-.25.735-.512,1.465-.1-.386-.206-.772a39.656,39.656,0,0,0-1.433-4.214q-.683-1.694-1.514-3.317A41.734,41.734,0,0,0,833.368,430.9a11.11,11.11,0,0,1-5.74-3.376,8.538,8.538,0,0,1-1.365-2.024c.225-.032.451-.076.671-.122l.208-.047.027,0a1.284,1.284,0,0,0,.453-2.3c-.125-.091-.252-.179-.377-.267-.191-.14-.385-.272-.578-.409a.615.615,0,0,1-.059-.042c-.22-.157-.441-.309-.659-.468a3.722,3.722,0,0,1,.855-1.46,4.283,4.283,0,0,1,5.412-.23,6.708,6.708,0,0,1,2.506,5.132,14.879,14.879,0,0,1-.75,4.973c.12.088.245.171.365.262a41.978,41.978,0,0,1,6.09,5.515,17.488,17.488,0,0,1-1.176-8.1c.316-2.587,1.573-5.044,2.6-7.491a3.584,3.584,0,0,1,6.622-.02c.012.029.024.056.034.086q-.3.3-.573.617a1.758,1.758,0,0,0,1.541,2.891l.037,0a17.67,17.67,0,0,1,.26,2.643,18.008,18.008,0,0,1-5.605,13.278c-.118.11-.233.218-.353.323a42.937,42.937,0,0,1,5.142,9.846Z" transform="translate(-687.793 -343.204)" fill="#fff"/>
    <path id="Path_95" data-name="Path 95" d="M540.71,366.031l-.74,50.811L480.2,415.128l9.544-21.068c-.069-.676,4.189-5.421,4.165-6.124-.073-2.06,1.465-3.969,1.715-6.125.51-4.446-2.408-21.237-1.063-24.706a23.589,23.589,0,0,1,2.19-4.429,5.5,5.5,0,0,1,2.3-2.217l2.21-5.149,1.96-2.94,15.377-4.554,1.7-.5,3.966,3.871,2.8,2.739,2.638.458c.394.069.777.149,1.144.243a11.622,11.622,0,0,1,4.816,2.386C540.276,350.919,540.813,358.278,540.71,366.031Z" transform="translate(-426.749 -282.113)" fill="#0e2de2"/>
    <path id="Path_96" data-name="Path 96" d="M468.534,660.4q-2.528,3.171-5.358,6.08l-6.463.005-34.755.039-6.257.007-4.16,0-6.188,0-4.76,0-8.792.01-5.186.007-10.921.01-5.213.007-14.447.015-9.074.01-2.435,0q-.812-.83-1.6-1.685-1.962-2.128-3.775-4.388l5.042,0,3.435,0,7.952-.01,15.346-.015,5.186,0,2.1,0h.007l1.646,0,.737,0,1.889,0h.8l5.6,0,12.08-.015,5.316,0,5.091,0,4.772,0,6.847-.007,36.571-.037Z" transform="translate(-320.25 -526.054)" fill="#ccc"/>
    <path id="Path_9" data-name="Path 9" d="M516.181,227.533h-.013a2.676,2.676,0,0,1-2.913-2.417l-1.393-14.87a19.959,19.959,0,0,1,.841-7.9,20.281,20.281,0,0,1,9.61-11.659,19.971,19.971,0,0,1,7.656-2.341c10.98-1.046,14.992,1.241,21.775,17.987s1.4,14.893,1.4,14.893a2.68,2.68,0,0,1-.113,1.063,2.724,2.724,0,0,1-1.295,1.566,2.691,2.691,0,0,1-1.024.313c-12.981,3.3-26.079,6.773-34.529,3.367Z" transform="translate(-450.583 -169.48)" fill="#2f2e41"/>
    <path id="Ellipse_1" data-name="Ellipse 1" d="M545.613,226.737a14.722,14.722,0,0,1-14.971,22.7,14.551,14.551,0,0,1-9.368-6.165,14.722,14.722,0,0,1,14.96-22.7,14.551,14.551,0,0,1,9.38,6.159Z" transform="translate(-455.856 -193.782)" fill="#9e616a"/>
    <path id="Path_10" data-name="Path 10" d="M493.13,230.647a15.789,15.789,0,0,1,.665-6.25c.148-4.936,1.58-9.406,7.6-9.219a15.8,15.8,0,0,1,6.015-1.846l2.975-.294.1-.01a15.762,15.762,0,0,1,17.155,14.234l.028.3-6.294.615-2.709-5.8.134,6.05-3.251.319-1.366-2.925.067,3.05c-4.827,4.251-12.145,4.474-21.088,2.071Z" transform="translate(-436.455 -188.227)" fill="#2f2e41"/>
    <path id="Path_13" data-name="Path 13" d="M573.02,259.741a2.634,2.634,0,0,0,.245,1.429,2.691,2.691,0,0,0,.413.627,2.724,2.724,0,0,0,.479.427,2.672,2.672,0,0,0,1.787.466l.118-.014.117-.019q.059-.011.118-.024l.117-.03,2.2-.616,2.462-6.864.564,6.023,9.989-2.781-2.395-25.56-17.025,1.678.467.45a11.766,11.766,0,0,1,3.193,5.516,19.179,19.179,0,0,1,.486,6.507,34.579,34.579,0,0,1-1.219,6.514,50.951,50.951,0,0,1-1.924,5.545A2.693,2.693,0,0,0,573.02,259.741Z" transform="translate(-496.213 -203.211)" fill="#2f2e41"/>
    <path id="Path_97" data-name="Path 97" d="M433.339,634.86a1.974,1.974,0,0,1-.846-.191l-47.164,1.2a1.979,1.979,0,0,1,.282-3.686l30.856-9.2a1.98,1.98,0,0,1,.984-.038l47.728,5.817a1.979,1.979,0,0,1,.227,3.806l-31.421,2.179A1.981,1.981,0,0,1,433.339,634.86Z" transform="translate(-354.262 -497.742)" fill="#3f3d56"/>
    <path id="Path_98" data-name="Path 98" d="M469.992,645.8a1.245,1.245,0,0,1-.608-.158l-38.3,1.79a1.242,1.242,0,0,1,.314-2.289l13.867-3.366a1.245,1.245,0,0,1,.656.019l35.609-.043a1.242,1.242,0,0,1,.008,2.372l-11.172,1.619A1.237,1.237,0,0,1,469.992,645.8Z" transform="translate(-389.18 -511.964)" fill="#2f2e41"/>
    <path id="Path_99" data-name="Path 99" d="M567.662,619.14a5.4,5.4,0,0,0,7.9-2.453l40.543,3.185-1.96-10.044-41.817-.4a5.425,5.425,0,0,0-4.668,9.711Z" transform="translate(-490.882 -487.347)" fill="#a0616a"/>
    <path id="Path_100" data-name="Path 100" d="M666.246,378.777s6.125-4.9,13.474,3.92c4.956,5.948,14.517,41.9,15.31,56.8a6.855,6.855,0,0,1-7,7.217l-21.61-.376L664,432.755l17.061.2Z" transform="translate(-565.519 -312.397)" fill="#0e2de2"/>
    <path id="Path_101" data-name="Path 101" d="M417.392,522.137a5.571,5.571,0,0,1-2.158-.437l-43.715,1a5.555,5.555,0,0,1-3.344-6.022l-1.624-38.391a5.547,5.547,0,0,1,5.864-4.673L413,475.294a5.571,5.571,0,0,1,5.126,6.5l4.755,35.71A5.579,5.579,0,0,1,417.392,522.137Z" transform="translate(-340.938 -385.013)" fill="#3f3d56"/>
    <path id="Path_102" data-name="Path 102" d="M376.454,205.011l-18.244-.051a1.847,1.847,0,0,0-1.85,1.84l-.066,24.158a1.843,1.843,0,0,0,1.837,1.847l10.12.029,8.126.022a1.844,1.844,0,0,0,1.847-1.84l0-1.428.064-22.727a1.846,1.846,0,0,0-1.84-1.85Z" transform="translate(-333.195 -182.187)" fill="#e6e6e6"/>
    <path id="Path_103" data-name="Path 103" d="M379.54,210.924l-15.679-.044a1.73,1.73,0,0,0-1.732,1.722l-.044,15.532a7.7,7.7,0,0,0,7.673,7.714l2.979.007,6.735.02a1.728,1.728,0,0,0,1.732-1.722l0-1.563.054-19.934A1.728,1.728,0,0,0,379.54,210.924Z" transform="translate(-337.566 -186.656)" fill="#fff"/>
    <path id="Path_104" data-name="Path 104" d="M386.208,254.38H373.984a.734.734,0,1,0,0,1.467h12.224a.734.734,0,1,0,0-1.467Z" transform="translate(-345.996 -219.5)" fill="#6c63ff"/>
    <path id="Path_105" data-name="Path 105" d="M376.671,237.96h-2.687a.734.734,0,1,0,0,1.467h2.687a.734.734,0,1,0,0-1.467Z" transform="translate(-345.996 -207.102)" fill="#6c63ff"/>
    <path id="Path_106" data-name="Path 106" d="M386.208,280.71H373.984a.734.734,0,1,0,0,1.467h12.224a.734.734,0,1,0,0-1.467Z" transform="translate(-345.996 -239.379)" fill="#6c63ff"/>
    <path id="Path_107" data-name="Path 107" d="M386.212,267.55H373.987a.732.732,0,1,0,0,1.465h12.224a.732.732,0,1,0,0-1.465Z" transform="translate(-346 -229.443)" fill="#6c63ff"/>
    <path id="Path_108" data-name="Path 108" d="M403.073,221.8a4.34,4.34,0,1,1,4.34-4.34A4.34,4.34,0,0,1,403.073,221.8Zm0-8.379a4.039,4.039,0,1,0,4.038,4.039,4.039,4.039,0,0,0-4.038-4.039Z" transform="translate(-365.236 -188.345)" fill="#6c63ff"/>
    <path id="Path_109" data-name="Path 109" d="M412.452,224.1a11.157,11.157,0,0,0-1.832-4.3.229.229,0,0,0-.391,0,11.917,11.917,0,0,0-1.486,4.492c-.035.288.418.286.452,0a11.151,11.151,0,0,1,.3-1.519.26.26,0,0,0,.051-.015,3.3,3.3,0,0,1,1.948-.317h.017a10.845,10.845,0,0,1,.508,1.783C412.071,224.5,412.507,224.381,412.452,224.1Zm-2.8-1.885a11.451,11.451,0,0,1,.79-1.866,10.845,10.845,0,0,1,.874,1.62A3.816,3.816,0,0,0,409.655,222.211Z" transform="translate(-372.793 -193.303)" fill="#6c63ff"/>
  </g>
</svg>
