<svg xmlns="http://www.w3.org/2000/svg" width="133.429" height="115.785" viewBox="0 0 133.429 115.785">
  <g id="undraw_mobile_marketing_re_p77p" transform="translate(0 0)">
    <path id="Path_22" data-name="Path 22" d="M578.558,128.588h-.634V111.214a10.056,10.056,0,0,0-10.056-10.056h-36.81A10.056,10.056,0,0,0,521,111.214V206.53a10.056,10.056,0,0,0,10.056,10.056h36.81a10.056,10.056,0,0,0,10.056-10.056V140.955h.634Z" transform="translate(-467.398 -101.159)" fill="#e6e6e6"/>
    <path id="Path_23" data-name="Path 23" d="M582.219,116.917h-4.8a3.568,3.568,0,0,1-3.3,4.915H553.023a3.568,3.568,0,0,1-3.3-4.915h-4.488a7.51,7.51,0,0,0-7.51,7.51V219.6a7.51,7.51,0,0,0,7.51,7.51h36.987a7.51,7.51,0,0,0,7.51-7.51h0V124.427a7.51,7.51,0,0,0-7.509-7.51Z" transform="translate(-481.343 -114.302)" fill="#fff"/>
    <path id="Path_110" data-name="Path 110" d="M619.456,232.594a1.428,1.428,0,0,1-1.067-.464,1.779,1.779,0,0,1-.422-1.362,2.059,2.059,0,0,1,.552-1.242,1.658,1.658,0,0,1,1.2-.532,1.5,1.5,0,0,1,1.115.492,1.746,1.746,0,0,1,.43,1.335h0a1.983,1.983,0,0,1-.6,1.3A1.763,1.763,0,0,1,619.456,232.594Zm.264-3a1.264,1.264,0,0,0-1.155,1.227,1.181,1.181,0,0,0,.267.9.824.824,0,0,0,.624.27,1.227,1.227,0,0,0,1.212-1.227,1.146,1.146,0,0,0-.274-.877.9.9,0,0,0-.673-.3Zm1.246,1.2Z" transform="translate(-548.262 -207.779)" fill="#3f3d56"/>
    <path id="Path_111" data-name="Path 111" d="M610.388,225.347a3.274,3.274,0,0,1-3.309-3.627,3.977,3.977,0,0,1,3.89-3.574,3.368,3.368,0,0,1,2.57,1,3.18,3.18,0,0,1,.752,2.468,2.188,2.188,0,0,1-.783,1.635,1.315,1.315,0,0,1-1,.285,1.259,1.259,0,0,1-.954-1.513l.159-1.8a.3.3,0,0,1,.6.053l-.159,1.8c-.043.485.13.81.461.869a.724.724,0,0,0,.526-.171,1.613,1.613,0,0,0,.55-1.212,2.555,2.555,0,0,0-.6-2.01,2.788,2.788,0,0,0-2.128-.809,3.374,3.374,0,0,0-3.292,3.027,2.675,2.675,0,0,0,2.711,2.974,3.011,3.011,0,0,0,1.37-.248.3.3,0,1,1,.232.553A3.6,3.6,0,0,1,610.388,225.347Z" transform="translate(-539.174 -198.731)" fill="#3f3d56"/>
    <path id="Path_112" data-name="Path 112" d="M606.514,504.885a.3.3,0,0,1-.212-.512l1.95-1.95a.3.3,0,1,1,.424.424l-1.95,1.95A.3.3,0,0,1,606.514,504.885Zm4.951-.75a.3.3,0,0,1-.212-.512l1.65-1.65a.3.3,0,1,1,.424.424l-1.65,1.65A.3.3,0,0,1,611.465,504.135Zm-.9,0a.3.3,0,0,1-.212-.088l-1.2-1.2a.3.3,0,1,1,.424-.424l1.2,1.2a.3.3,0,0,1-.212.512Z" transform="translate(-538.468 -435.382)" fill="#3f3d56"/>
    <path id="Path_113" data-name="Path 113" d="M646.74,497.96a.75.75,0,1,1,.75-.75A.75.75,0,0,1,646.74,497.96Zm0-.9a.15.15,0,1,0,.15.15.15.15,0,0,0-.15-.15Z" transform="translate(-571.643 -430.858)" fill="#3f3d56"/>
    <path id="Path_114" data-name="Path 114" d="M631.372,513.328a.75.75,0,1,1,.75-.75.75.75,0,0,1-.75.75Zm0-.9a.15.15,0,1,0,.15.15A.15.15,0,0,0,631.372,512.428Z" transform="translate(-558.826 -443.675)" fill="#3f3d56"/>
    <path id="Path_115" data-name="Path 115" d="M618.716,500.672a.75.75,0,1,1,.75-.75A.75.75,0,0,1,618.716,500.672Zm0-.9a.15.15,0,1,0,.15.15.15.15,0,0,0-.15-.15Z" transform="translate(-548.27 -433.12)" fill="#3f3d56"/>
    <path id="Path_116" data-name="Path 116" d="M601.54,517.848a.75.75,0,1,1,.75-.75A.75.75,0,0,1,601.54,517.848Zm0-.9a.15.15,0,1,0,.15.15.15.15,0,0,0-.15-.15Z" transform="translate(-533.945 -447.445)" fill="#3f3d56"/>
    <path id="Path_117" data-name="Path 117" d="M739.949,631.637h-6.3a1.051,1.051,0,0,1-1.05-1.05v-4.5a1.051,1.051,0,0,1,1.05-1.05h6.3a1.051,1.051,0,0,1,1.05,1.05v4.5A1.051,1.051,0,0,1,739.949,631.637Zm-6.3-6a.451.451,0,0,0-.45.45v4.5a.451.451,0,0,0,.45.45h6.3a.451.451,0,0,0,.45-.45v-4.5a.451.451,0,0,0-.45-.45Z" transform="translate(-643.878 -538.096)" fill="#3f3d56"/>
    <path id="Path_118" data-name="Path 118" d="M742.831,634.969a.3.3,0,0,1-.184-.063l-2.7-2.1a.3.3,0,0,1,.368-.474l2.516,1.957,2.516-1.957a.3.3,0,1,1,.368.474l-2.7,2.1A.3.3,0,0,1,742.831,634.969Z" transform="translate(-649.91 -544.128)" fill="#3f3d56"/>
    <path id="Path_119" data-name="Path 119" d="M786.568,688.173l-34.708.014a.166.166,0,1,1,0-.332l34.708-.014a.166.166,0,1,1,0,.332Z" transform="translate(-659.805 -590.478)" fill="#ccc"/>
    <circle id="Ellipse_10" data-name="Ellipse 10" cx="2.323" cy="2.323" r="2.323" transform="translate(123.978 95.206)" fill="#7d50c7"/>
    <path id="Path_120" data-name="Path 120" d="M779.9,420.173l-35.04.014a.166.166,0,1,1,0-.332l35.04-.014a.166.166,0,1,1,0,.332Z" transform="translate(-653.967 -366.954)" fill="#ccc"/>
    <circle id="Ellipse_11" data-name="Ellipse 11" cx="2.323" cy="2.323" r="2.323" transform="translate(123.978 50.896)" fill="#7d50c7"/>
    <path id="Path_121" data-name="Path 121" d="M415.434,283.173l35.04.014a.166.166,0,0,0,0-.332l-35.04-.014a.166.166,0,0,0,0,.332Z" transform="translate(-379.211 -252.69)" fill="#ccc"/>
    <circle id="Ellipse_12" data-name="Ellipse 12" cx="2.323" cy="2.323" r="2.323" transform="translate(33.532 28.16)" fill="#7d50c7"/>
    <path id="Path_122" data-name="Path 122" d="M415.434,554.173l35.04.014a.166.166,0,0,0,0-.332l-35.04-.014a.166.166,0,1,0,0,.332Z" transform="translate(-379.211 -478.716)" fill="#ccc"/>
    <circle id="Ellipse_13" data-name="Ellipse 13" cx="2.323" cy="2.323" r="2.323" transform="translate(33.532 73.134)" fill="#7d50c7"/>
    <path id="Path_123" data-name="Path 123" d="M720.378,614.86a7.468,7.468,0,1,1,7.468-7.468A7.468,7.468,0,0,1,720.378,614.86Zm0-14.6a7.136,7.136,0,1,0,7.136,7.136,7.136,7.136,0,0,0-7.136-7.136Z" transform="translate(-627.457 -517.151)" fill="#ccc"/>
    <path id="Path_124" data-name="Path 124" d="M590.378,480.86a7.468,7.468,0,1,1,7.468-7.468A7.468,7.468,0,0,1,590.378,480.86Zm0-14.6a7.136,7.136,0,1,0,7.136,7.136A7.136,7.136,0,0,0,590.378,466.256Z" transform="translate(-519.032 -405.389)" fill="#ccc"/>
    <path id="Path_125" data-name="Path 125" d="M711.378,346.86a7.468,7.468,0,1,1,7.468-7.468A7.468,7.468,0,0,1,711.378,346.86Zm0-14.6a7.136,7.136,0,1,0,7.136,7.136A7.136,7.136,0,0,0,711.378,332.256Z" transform="translate(-619.951 -293.627)" fill="#ccc"/>
    <path id="Path_126" data-name="Path 126" d="M591.378,209.777a7.468,7.468,0,1,1,7.468-7.468A7.468,7.468,0,0,1,591.378,209.777Zm0-14.6a7.136,7.136,0,1,0,7.136,7.136A7.136,7.136,0,0,0,591.378,195.173Z" transform="translate(-519.866 -179.294)" fill="#ccc"/>
    <path id="Path_127" data-name="Path 127" d="M300.932,496.821a1.829,1.829,0,0,1-.714-1.308,1.705,1.705,0,0,1,0-.179l-7.728-5.2a1.419,1.419,0,0,1-.554-1.6l3.694-9.177a1.61,1.61,0,1,1,2.991,1.19l-2.982,7.583,6.018,5.466a1.739,1.739,0,0,1,.241-.037,1.826,1.826,0,0,1,.5,3.612,1.891,1.891,0,0,1-.356.034A1.8,1.8,0,0,1,300.932,496.821Z" transform="translate(-276.287 -415.739)" fill="#a0616a"/>
    <path id="Path_128" data-name="Path 128" d="M295.3,487.74a.8.8,0,0,1,.017-.665l1.763-3.6a2.22,2.22,0,1,1,4.235,1.332l-.644,3.973a.8.8,0,0,1-1.031.634l-3.848-1.223A.8.8,0,0,1,295.3,487.74Z" transform="translate(-279.1 -418.728)" fill="#7d50c7"/>
    <path id="Path_129" data-name="Path 129" d="M170.906,644.51h2.035l.968-7.848h-3Z" transform="translate(-142.543 -531.004)" fill="#a0616a"/>
    <path id="Path_130" data-name="Path 130" d="M365.781,781.105h4.007a2.553,2.553,0,0,1,2.553,2.554v.083h-6.56Z" transform="translate(-337.937 -668.264)" fill="#2f2e41"/>
    <path id="Path_131" data-name="Path 131" d="M51.025,637.065l1.971.506,2.891-7.36-2.908-.747Z" transform="translate(-42.557 -525.001)" fill="#a0616a"/>
    <path id="Path_132" data-name="Path 132" d="M243.694,771.767l3.881,1h0a2.553,2.553,0,0,1,1.837,3.109l-.021.08-6.354-1.633Z" transform="translate(-235.564 -660.476)" fill="#2f2e41"/>
    <circle id="Ellipse_14" data-name="Ellipse 14" cx="4.076" cy="4.076" r="4.076" transform="translate(18.662 51.516)" fill="#a0616a"/>
    <path id="Path_133" data-name="Path 133" d="M307.275,481.189a14.725,14.725,0,0,1-2.446-3.358,5.429,5.429,0,0,1-.256-4.394,5.55,5.55,0,0,1,3.152-3.21,5.457,5.457,0,0,1,6.906,2.563,9.961,9.961,0,0,1,1.188,5.8c-.443,3.542-.7,5.373-.77,5.442l-.023.023-7.582.337Z" transform="translate(-286.598 -408.643)" fill="#7d50c7"/>
    <path id="Path_134" data-name="Path 134" d="M258.971,549.992l6.785-.338a.664.664,0,0,1,.694.6l3.121,34.989a.664.664,0,0,1-.675.723l-2.651-.056a.664.664,0,0,1-.63-.5L260.552,565a.664.664,0,0,0-1.247-.118l-9.6,20.844a.664.664,0,0,1-.771.365l-2.668-.7a.663.663,0,0,1-.482-.779c.878-4.144,6.136-27.873,12.756-34.441A.654.654,0,0,1,258.971,549.992Z" transform="translate(-237.844 -475.224)" fill="#2f2e41"/>
    <path id="Path_135" data-name="Path 135" d="M345.889,494.274a1.829,1.829,0,0,1-1.121-.981,1.717,1.717,0,0,1-.066-.167l-9.05-2.218a1.419,1.419,0,0,1-1.074-1.315l.3-9.887a1.61,1.61,0,1,1,3.218.084l-.182,8.146,7.535,3.053a1.783,1.783,0,0,1,.213-.118h0a1.827,1.827,0,1,1,.227,3.4Z" transform="translate(-311.912 -415.576)" fill="#a0616a"/>
    <path id="Path_136" data-name="Path 136" d="M329.5,482.471a.8.8,0,0,1-.208-.632l.449-3.987a2.22,2.22,0,1,1,4.437-.17l.73,3.958a.8.8,0,0,1-.758.944l-4.035.142A.8.8,0,0,1,329.5,482.471Z" transform="translate(-307.496 -413.415)" fill="#7d50c7"/>
    <path id="Path_137" data-name="Path 137" d="M291.281,409.354l.426-1.376.291,1.545,2.392-.063-.011-1.523.909,1.5,2.168-.479a9.024,9.024,0,0,1-1.228-1.971,3.241,3.241,0,0,1-.127-2.316c.684-1.82,3.278-1.311,4.7-1.326a1.419,1.419,0,0,0,1.152-.373,1.457,1.457,0,0,0,.227-.956,4.734,4.734,0,0,0-2.568-4.08,3.98,3.98,0,0,0-2.308-.313,4.171,4.171,0,0,0-1.177.371c-.331.162-.68.547-1.036.537-.3-.009-.7-.321-1.023-.375a3.164,3.164,0,0,0-1.182.041,3.713,3.713,0,0,0-2,1.2,6.534,6.534,0,0,0-1.245,4.934,19.355,19.355,0,0,0,1.493,5.006" transform="translate(-274.383 -348.381)" fill="#2f2e41"/>
    <path id="Path_138" data-name="Path 138" d="M331.263,797.173h-133.1a.166.166,0,0,1,0-.332h133.1a.166.166,0,0,1,0,.332Z" transform="translate(-198 -681.388)" fill="#e6e6e6"/>
    <path id="Path_139" data-name="Path 139" d="M935.938,760.789A3.2,3.2,0,0,0,937,759.2a1.428,1.428,0,0,0-.738-1.623c-.678-.262-1.4.209-1.951.683a2.605,2.605,0,0,1-1.9.915,2.885,2.885,0,0,0,.885-2.7,1.1,1.1,0,0,0-.248-.551c-.375-.4-1.058-.229-1.51.088-1.433,1.008-1.832,2.954-1.838,4.706a8.68,8.68,0,0,1-.028-1.929,1.987,1.987,0,0,0-.727-1.714,2.2,2.2,0,0,0-1.1-.262,2.3,2.3,0,0,0-1.8.513,1.772,1.772,0,0,0,.072,2.2,7.205,7.205,0,0,0,1.863,1.493,4.112,4.112,0,0,1,1.334,1.27,1.211,1.211,0,0,1,.1.226h4.037a11.234,11.234,0,0,0,2.5-1.725Z" transform="translate(-804.92 -647.061)" fill="#f2f2f2"/>
    <path id="Path_140" data-name="Path 140" d="M728.4,360.228a.451.451,0,0,1-.41-.635l.519-1.159a3.885,3.885,0,1,1,1.469.818l-1.325.9A.45.45,0,0,1,728.4,360.228Zm2.68-8.01A3.327,3.327,0,0,0,729,358.148l.164.13-.559,1.247,1.282-.868.127.043a3.328,3.328,0,1,0,1.059-6.482Z" transform="translate(-639.376 -310.076)" fill="#3f3d56"/>
    <circle id="Ellipse_15" data-name="Ellipse 15" cx="0.54" cy="0.54" r="0.54" transform="translate(91.16 44.751)" fill="#3f3d56"/>
    <circle id="Ellipse_16" data-name="Ellipse 16" cx="0.54" cy="0.54" r="0.54" transform="translate(89.63 44.751)" fill="#3f3d56"/>
    <circle id="Ellipse_17" data-name="Ellipse 17" cx="0.54" cy="0.54" r="0.54" transform="translate(92.689 44.751)" fill="#3f3d56"/>
  </g>
</svg>
