<svg xmlns="http://www.w3.org/2000/svg" width="38" height="38" viewBox="0 0 38 38">
  <g id="Group_148" data-name="Group 148" transform="translate(-33.004 -1076.004)">
    <circle id="Ellipse_43" data-name="Ellipse 43" cx="19" cy="19" r="19" transform="translate(33.004 1076.004)" fill="#7d50c7"/>
    <path id="Icon_awesome-arrow-left" data-name="Icon awesome-arrow-left" d="M13.233,23.587l-1.141,1.141a1.228,1.228,0,0,1-1.742,0L.359,14.743A1.228,1.228,0,0,1,.359,13L10.35,3.01a1.228,1.228,0,0,1,1.742,0l1.141,1.141a1.235,1.235,0,0,1-.021,1.763l-6.193,5.9H21.79a1.23,1.23,0,0,1,1.233,1.233v1.645a1.23,1.23,0,0,1-1.233,1.233H7.019l6.193,5.9A1.226,1.226,0,0,1,13.233,23.587Z" transform="translate(40.313 1081.393)" fill="#fff"/>
  </g>
</svg>
