<svg xmlns="http://www.w3.org/2000/svg" xmlns:xlink="http://www.w3.org/1999/xlink" width="148.016" height="85.948" viewBox="0 0 148.016 85.948">
  <defs>
    <linearGradient id="linear-gradient" x1="0.5" y1="1" x2="0.5" y2="-0.001" gradientUnits="objectBoundingBox">
      <stop offset="0" stop-color="gray" stop-opacity="0.251"/>
      <stop offset="0.54" stop-color="gray" stop-opacity="0.122"/>
      <stop offset="1" stop-color="gray" stop-opacity="0.102"/>
    </linearGradient>
  </defs>
  <g id="undraw_discount_d-4-bd" transform="translate(0 -0.043)">
    <g id="Group_81" data-name="Group 81" transform="translate(95.059 0.043)" opacity="0.1">
      <ellipse id="Ellipse_18" data-name="Ellipse 18" cx="2.861" cy="3.744" rx="2.861" ry="3.744" transform="translate(10.906 77.19)" fill="#3f3d56"/>
      <path id="Path_141" data-name="Path 141" d="M851.946,578.942a4.51,4.51,0,0,0,.6-2.288c0-2.072-1.281-3.744-2.861-3.744s-2.859,1.676-2.859,3.744a4.512,4.512,0,0,0,.6,2.288,342997.817,342997.817,0,0,1,0,9.152,4.511,4.511,0,0,0-.6,2.288c0,2.072,1.281,3.744,2.859,3.744s2.861-1.676,2.861-3.744a4.511,4.511,0,0,0-.6-2.288,4.684,4.684,0,0,0,0-4.576,4.681,4.681,0,0,0,0-4.575Z" transform="translate(-835.915 -514.024)" fill="#3f3d56"/>
      <ellipse id="Ellipse_19" data-name="Ellipse 19" cx="2.861" cy="3.744" rx="2.861" ry="3.744" transform="translate(10.906 54.311)" fill="#3f3d56"/>
      <ellipse id="Ellipse_20" data-name="Ellipse 20" cx="2.861" cy="3.744" rx="2.861" ry="3.744" transform="translate(10.906 49.734)" fill="#3f3d56"/>
      <path id="Path_142" data-name="Path 142" d="M787.032,140.346a13.794,13.794,0,0,0,1.064-1.568l-7.511-1.234,8.129.061a13.726,13.726,0,0,0,.259-10.854L778.067,132.4l10.059-7.389a13.7,13.7,0,1,0-22.63,15.331,13.725,13.725,0,0,0-1.562,2.5l9.755,5.069-10.4-3.5a13.7,13.7,0,0,0,2.2,12.864,13.7,13.7,0,1,0,21.535,0,13.7,13.7,0,0,0,0-16.94Z" transform="translate(-762.558 -118.183)" fill="#6c63ff"/>
      <path id="Path_143" data-name="Path 143" d="M762.609,353.382a13.637,13.637,0,0,0,2.932,8.469,13.7,13.7,0,1,0,21.535,0C788.912,359.52,762.609,351.843,762.609,353.382Z" transform="translate(-762.602 -322.748)" opacity="0.1"/>
    </g>
    <g id="Group_82" data-name="Group 82" transform="translate(20.292 29.171)" opacity="0.1">
      <ellipse id="Ellipse_21" data-name="Ellipse 21" cx="1.74" cy="2.279" rx="1.74" ry="2.279" transform="translate(6.562 46.988)" fill="#3f3d56"/>
      <path id="Path_144" data-name="Path 144" d="M239.037,623.583a2.749,2.749,0,0,0,.364-1.393,1.8,1.8,0,1,0-3.482,0,2.749,2.749,0,0,0,.363,1.393,254242.992,254242.992,0,0,1,0,5.571,2.74,2.74,0,0,0-.363,1.392,1.8,1.8,0,1,0,3.482,0,2.74,2.74,0,0,0-.364-1.392,2.849,2.849,0,0,0,0-2.786A2.849,2.849,0,0,0,239.037,623.583Z" transform="translate(-229.351 -584.066)" fill="#3f3d56"/>
      <ellipse id="Ellipse_22" data-name="Ellipse 22" cx="1.74" cy="2.279" rx="1.74" ry="2.279" transform="translate(6.562 33.059)" fill="#3f3d56"/>
      <ellipse id="Ellipse_23" data-name="Ellipse 23" cx="1.74" cy="2.279" rx="1.74" ry="2.279" transform="translate(6.562 30.273)" fill="#3f3d56"/>
      <path id="Path_145" data-name="Path 145" d="M186.986,356.6a8.29,8.29,0,0,1-.647-.954l4.575-.751-4.948.038a8.362,8.362,0,0,1-.159-6.6l6.634,3.446-6.121-4.507a8.34,8.34,0,1,1,13.775,9.333,8.334,8.334,0,0,1,.951,1.519l-5.939,3.087,6.332-2.125a8.345,8.345,0,0,1-1.344,7.832,8.34,8.34,0,1,1-13.11,0,8.342,8.342,0,0,1,0-10.313Z" transform="translate(-185.199 -343.114)" fill="#6c63ff"/>
      <path id="Path_146" data-name="Path 146" d="M201.878,486.265a8.307,8.307,0,0,1-1.784,5.157,8.34,8.34,0,1,1-13.11,0C185.866,490.008,201.878,485.328,201.878,486.265Z" transform="translate(-185.199 -467.62)" opacity="0.1"/>
    </g>
    <g id="Group_83" data-name="Group 83" transform="translate(56.722 13.688)" opacity="0.1">
      <ellipse id="Ellipse_24" data-name="Ellipse 24" cx="2.33" cy="3.05" rx="2.33" ry="3.05" transform="translate(8.78 62.914)" fill="#3f3d56"/>
      <path id="Path_147" data-name="Path 147" d="M538.475,599.134a3.679,3.679,0,0,0,.486-1.865c0-1.683-1.036-3.05-2.331-3.05s-2.331,1.366-2.331,3.05a3.667,3.667,0,0,0,.487,1.865,3.812,3.812,0,0,0,0,3.728,3.81,3.81,0,0,0,0,3.727,3.667,3.667,0,0,0-.487,1.865c0,1.684,1.044,3.05,2.331,3.05s2.331-1.366,2.331-3.05a3.679,3.679,0,0,0-.486-1.865,3.818,3.818,0,0,0,0-3.727A3.82,3.82,0,0,0,538.475,599.134Z" transform="translate(-525.521 -546.219)" fill="#3f3d56"/>
      <ellipse id="Ellipse_25" data-name="Ellipse 25" cx="2.33" cy="3.05" rx="2.33" ry="3.05" transform="translate(8.78 44.274)" fill="#3f3d56"/>
      <ellipse id="Ellipse_26" data-name="Ellipse 26" cx="2.33" cy="3.05" rx="2.33" ry="3.05" transform="translate(8.78 40.546)" fill="#3f3d56"/>
      <path id="Path_148" data-name="Path 148" d="M468.912,241.632a11.122,11.122,0,0,1-.868-1.277l6.121-1-6.62.049a11.182,11.182,0,0,1-.214-8.843l8.884,4.608-8.193-6.022a11.161,11.161,0,1,1,18.429,12.49,11.177,11.177,0,0,1,1.272,2.036l-7.946,4.128,8.473-2.849a11.165,11.165,0,0,1-1.8,10.48,11.16,11.16,0,1,1-17.544,0,11.164,11.164,0,0,1,0-13.8Z" transform="translate(-466.519 -223.547)" fill="#6c63ff"/>
      <path id="Path_149" data-name="Path 149" d="M488.839,415.383a11.112,11.112,0,0,1-2.388,6.9,11.16,11.16,0,1,1-17.544,0C467.411,420.384,488.839,414.13,488.839,415.383Z" transform="translate(-466.519 -390.398)" opacity="0.1"/>
    </g>
    <path id="Path_150" data-name="Path 150" d="M215.906,730.447c0,.89-6.5,1.7-17.256,2.331-1.955.113-4.051.22-6.273.321q-2.88.129-6.037.245-3.059.109-6.352.2c-6.933.2-14.6.341-22.741.412q-2.964.027-6.007.041-3.17.014-6.413.013c-39.256,0-71.077-1.594-71.077-3.561s31.821-3.561,71.077-3.561c16.9,0,32.421.3,44.62.789l1.334.054h.008C206.155,728.384,215.906,729.365,215.906,730.447Z" transform="translate(-67.89 -648.021)" fill="#3f3d56"/>
    <path id="Path_151" data-name="Path 151" d="M215.906,730.447c0,.89-6.5,1.7-17.256,2.331-1.955.113-4.051.22-6.273.321q-2.88.129-6.037.245-3.059.109-6.352.2c-6.933.2-14.6.341-22.741.412q-2.964.027-6.007.041-3.17.014-6.413.013c-39.256,0-71.077-1.594-71.077-3.561s31.821-3.561,71.077-3.561c16.9,0,32.421.3,44.62.789l1.334.054h.008C206.155,728.384,215.906,729.365,215.906,730.447Z" transform="translate(-67.89 -648.021)" opacity="0.15"/>
    <path id="Path_152" data-name="Path 152" d="M170.656,729.472c0,.743-6.5,1.424-17.256,1.942-1.954.095-4.051.184-6.272.268q-2.881.109-6.037.2-3.059.091-6.352.17c-6.935.166-14.6.285-22.742.345q-2.962.022-6.007.034-3.17.012-6.411.012c-39.256,0-71.079-1.333-71.079-2.978s31.823-2.978,71.079-2.978c16.9,0,32.42.247,44.618.659l1.334.045h.009C160.911,727.747,170.656,728.562,170.656,729.472Z" transform="translate(-28.5 -647.673)" fill="#3f3d56"/>
    <path id="Path_153" data-name="Path 153" d="M158.264,500.721l-1.784-5.463,42.734-.468,1.751,5.409Z" transform="translate(-139.907 -445.977)" fill="#3f3d56"/>
    <path id="Path_154" data-name="Path 154" d="M158.264,500.721l-1.784-5.463,42.734-.468,1.751,5.409Z" transform="translate(-139.907 -445.977)" opacity="0.15"/>
    <path id="Path_155" data-name="Path 155" d="M136.264,500.721l-1.784-5.463,42.734-.468,1.751,5.409Z" transform="translate(-120.756 -445.977)" fill="#3f3d56"/>
    <path id="Path_156" data-name="Path 156" d="M615.715,234.361a12.218,12.218,0,0,1-10.447-5.261,21.116,21.116,0,0,1-3.819-12.748,21.362,21.362,0,0,1,3.693-12.722,12.034,12.034,0,0,1,10.419-5.18q7.133,0,10.748,5.463a22.394,22.394,0,0,1,3.617,12.647,21.164,21.164,0,0,1-3.742,12.468A12.054,12.054,0,0,1,615.715,234.361Zm.129-3.946a7.028,7.028,0,0,0,6.518-3.8,19.21,19.21,0,0,0,2.157-9.583,22.145,22.145,0,0,0-2.208-10.54,7.221,7.221,0,0,0-6.773-4.105q-8.676,0-8.676,13.784,0,14.246,8.979,14.245ZM617.3,268.2H610.91l41.838-69.048h6.27Zm37.013.708a12.132,12.132,0,0,1-10.489-5.309,23.562,23.562,0,0,1-.11-25.42A12.018,12.018,0,0,1,654.159,233q7.082,0,10.673,5.464a22.5,22.5,0,0,1,3.592,12.645,21.292,21.292,0,0,1-3.718,12.445,11.931,11.931,0,0,1-10.4,5.356Zm.075-4.047a7,7,0,0,0,6.483-3.736,19,19,0,0,0,2.143-9.544,22.6,22.6,0,0,0-2.169-10.426,7.151,7.151,0,0,0-6.758-4.216q-8.727,0-8.727,13.784,0,14.14,9.026,14.139Z" transform="translate(-527.254 -188.012)" fill="#3f3d56"/>
    <path id="Path_157" data-name="Path 157" d="M615.715,234.361a12.218,12.218,0,0,1-10.447-5.261,21.116,21.116,0,0,1-3.819-12.748,21.362,21.362,0,0,1,3.693-12.722,12.034,12.034,0,0,1,10.419-5.18q7.133,0,10.748,5.463a22.394,22.394,0,0,1,3.617,12.647,21.164,21.164,0,0,1-3.742,12.468A12.054,12.054,0,0,1,615.715,234.361Zm.129-3.946a7.028,7.028,0,0,0,6.518-3.8,19.21,19.21,0,0,0,2.157-9.583,22.145,22.145,0,0,0-2.208-10.54,7.221,7.221,0,0,0-6.773-4.105q-8.676,0-8.676,13.784,0,14.246,8.979,14.245ZM617.3,268.2H610.91l41.838-69.048h6.27Zm37.013.708a12.132,12.132,0,0,1-10.489-5.309,23.562,23.562,0,0,1-.11-25.42A12.018,12.018,0,0,1,654.159,233q7.082,0,10.673,5.464a22.5,22.5,0,0,1,3.592,12.645,21.292,21.292,0,0,1-3.718,12.445,11.931,11.931,0,0,1-10.4,5.356Zm.075-4.047a7,7,0,0,0,6.483-3.736,19,19,0,0,0,2.143-9.544,22.6,22.6,0,0,0-2.169-10.426,7.151,7.151,0,0,0-6.758-4.216q-8.727,0-8.727,13.784,0,14.14,9.026,14.139Z" transform="translate(-527.254 -188.012)" fill="#3f3d56"/>
    <path id="Path_158" data-name="Path 158" d="M615.715,234.361a12.218,12.218,0,0,1-10.447-5.261,21.116,21.116,0,0,1-3.819-12.748,21.362,21.362,0,0,1,3.693-12.722,12.034,12.034,0,0,1,10.419-5.18q7.133,0,10.748,5.463a22.394,22.394,0,0,1,3.617,12.647,21.164,21.164,0,0,1-3.742,12.468A12.054,12.054,0,0,1,615.715,234.361Zm.129-3.946a7.028,7.028,0,0,0,6.518-3.8,19.21,19.21,0,0,0,2.157-9.583,22.145,22.145,0,0,0-2.208-10.54,7.221,7.221,0,0,0-6.773-4.105q-8.676,0-8.676,13.784,0,14.246,8.979,14.245ZM617.3,268.2H610.91l41.838-69.048h6.27Zm37.013.708a12.132,12.132,0,0,1-10.489-5.309,23.562,23.562,0,0,1-.11-25.42A12.018,12.018,0,0,1,654.159,233q7.082,0,10.673,5.464a22.5,22.5,0,0,1,3.592,12.645,21.292,21.292,0,0,1-3.718,12.445,11.931,11.931,0,0,1-10.4,5.356Zm.075-4.047a7,7,0,0,0,6.483-3.736,19,19,0,0,0,2.143-9.544,22.6,22.6,0,0,0-2.169-10.426,7.151,7.151,0,0,0-6.758-4.216q-8.727,0-8.727,13.784,0,14.14,9.026,14.139Z" transform="translate(-527.254 -188.012)" opacity="0.15"/>
    <path id="Path_159" data-name="Path 159" d="M584.715,234.361a12.218,12.218,0,0,1-10.447-5.261,21.115,21.115,0,0,1-3.819-12.748,21.361,21.361,0,0,1,3.693-12.722,12.034,12.034,0,0,1,10.419-5.18q7.133,0,10.748,5.463a22.4,22.4,0,0,1,3.617,12.647,21.164,21.164,0,0,1-3.742,12.468A12.054,12.054,0,0,1,584.715,234.361Zm.129-3.946a7.028,7.028,0,0,0,6.518-3.8,19.21,19.21,0,0,0,2.157-9.583,22.145,22.145,0,0,0-2.208-10.54,7.221,7.221,0,0,0-6.773-4.105q-8.676,0-8.676,13.784,0,14.246,8.979,14.245ZM586.3,268.2H579.91l41.838-69.048h6.27Zm37.013.708a12.132,12.132,0,0,1-10.489-5.309,23.562,23.562,0,0,1-.11-25.42A12.018,12.018,0,0,1,623.159,233q7.082,0,10.673,5.464a22.5,22.5,0,0,1,3.592,12.645,21.293,21.293,0,0,1-3.718,12.445,11.931,11.931,0,0,1-10.4,5.356Zm.075-4.047a7,7,0,0,0,6.483-3.736,19,19,0,0,0,2.143-9.544,22.6,22.6,0,0,0-2.169-10.426,7.153,7.153,0,0,0-6.761-4.216q-8.727,0-8.727,13.784,0,14.14,9.029,14.139Z" transform="translate(-500.269 -188.012)" fill="#3f3d56"/>
    <path id="Path_160" data-name="Path 160" d="M773.125,604.024c.534-.989-.073-2.2-.769-3.085s-1.546-1.8-1.528-2.925c.026-1.615,1.74-2.569,3.108-3.427a15.162,15.162,0,0,0,2.795-2.246,4.1,4.1,0,0,0,.859-1.15,4.7,4.7,0,0,0,.259-2.042q-.089-3.46-.342-6.91" transform="translate(-674.698 -522.102)" fill="none" stroke="#3f3d56" stroke-miterlimit="10" stroke-width="4"/>
    <path id="Path_161" data-name="Path 161" d="M808.658,565.112a2.516,2.516,0,0,0-1.257-2.064l-.565,1.116.017-1.352a2.548,2.548,0,0,0-.83-.1,2.52,2.52,0,1,0,2.635,2.4Z" transform="translate(-703.245 -505.101)" fill="#0e2de2"/>
    <path id="Path_162" data-name="Path 162" d="M775.834,688.32a2.519,2.519,0,1,1,.122-2.029l-1.575,1.281,1.735-.4A2.513,2.513,0,0,1,775.834,688.32Z" transform="translate(-674.914 -611.249)" fill="#0e2de2"/>
    <path id="Path_163" data-name="Path 163" d="M780.475,641.3a2.52,2.52,0,0,1-2.635-2.4,2.491,2.491,0,0,1,.218-1.149,2.524,2.524,0,0,1,1.614-1.4l-.014,1.036.571-1.129h0a2.52,2.52,0,1,1,.236,5.035Z" transform="translate(-680.799 -569.126)" fill="#0e2de2"/>
    <path id="Path_164" data-name="Path 164" d="M827.709,609.883a2.521,2.521,0,1,1,1.114-4.716l-.445,1.22.917-.879a2.512,2.512,0,0,1,.817,1.739,2.461,2.461,0,0,1-.065.694A2.521,2.521,0,0,1,827.709,609.883Z" transform="translate(-721.916 -541.779)" fill="#0e2de2"/>
    <path id="Path_165" data-name="Path 165" d="M808.327,575.064c-.581.063-1.146.245-1.73.281a1.88,1.88,0,0,1-1.594-.558,7.721,7.721,0,0,1-.466-.82,1.787,1.787,0,0,0-.635-.6,2.52,2.52,0,1,0,4.711,1.672C808.518,575.047,808.423,575.053,808.327,575.064Z" transform="translate(-703.253 -514.381)" opacity="0.1"/>
    <path id="Path_166" data-name="Path 166" d="M827.721,619.595a2.523,2.523,0,0,1-2.4-3.595,1.888,1.888,0,0,1,.506.508,8.285,8.285,0,0,0,.5.833,2.054,2.054,0,0,0,1.671.585c.607-.027,1.2-.2,1.8-.259.084-.008.17-.013.259-.016a2.521,2.521,0,0,1-2.34,1.944Z" transform="translate(-721.928 -551.491)" opacity="0.1"/>
    <path id="Path_167" data-name="Path 167" d="M780.475,651.338a2.52,2.52,0,0,1-2.635-2.4,2.491,2.491,0,0,1,.218-1.149,2.028,2.028,0,0,1,.532.518,8.634,8.634,0,0,0,.548.849,2.331,2.331,0,0,0,1.783.624c.644-.015,1.225-.166,1.845-.214A2.521,2.521,0,0,1,780.475,651.338Z" transform="translate(-680.799 -579.164)" opacity="0.1"/>
    <path id="Path_168" data-name="Path 168" d="M775.779,699.176a7.155,7.155,0,1,0-4.042-1.563,9.874,9.874,0,0,0,.675.9,3.166,3.166,0,0,0,2.087.733,10.718,10.718,0,0,0,1.279-.066Z" transform="translate(-674.859 -622.106)" opacity="0.1"/>
    <path id="Path_169" data-name="Path 169" d="M1074.125,603.024c.534-.989-.073-2.2-.769-3.085s-1.546-1.8-1.528-2.925c.026-1.615,1.74-2.569,3.108-3.427a15.161,15.161,0,0,0,2.794-2.245,4.1,4.1,0,0,0,.859-1.15,4.7,4.7,0,0,0,.259-2.042q-.089-3.46-.342-6.91" transform="translate(-936.719 -521.232)" fill="none" stroke="#3f3d56" stroke-miterlimit="10" stroke-width="4"/>
    <path id="Path_170" data-name="Path 170" d="M1109.658,564.112a2.516,2.516,0,0,0-1.257-2.064l-.565,1.116.017-1.352a2.547,2.547,0,0,0-.83-.1,2.52,2.52,0,1,0,2.635,2.4Z" transform="translate(-965.266 -504.231)" fill="#0e2de2"/>
    <path id="Path_171" data-name="Path 171" d="M1076.834,687.32a2.519,2.519,0,1,1,.122-2.029l-1.575,1.281,1.735-.4A2.51,2.51,0,0,1,1076.834,687.32Z" transform="translate(-936.935 -610.378)" fill="#0e2de2"/>
    <path id="Path_172" data-name="Path 172" d="M1081.475,640.3a2.52,2.52,0,0,1-2.635-2.4,2.491,2.491,0,0,1,.218-1.149,2.524,2.524,0,0,1,1.614-1.4l-.014,1.036.571-1.129h.007a2.52,2.52,0,1,1,.236,5.035Z" transform="translate(-942.821 -568.255)" fill="#0e2de2"/>
    <path id="Path_173" data-name="Path 173" d="M1128.709,608.883a2.521,2.521,0,1,1,1.114-4.716l-.445,1.22.917-.879a2.513,2.513,0,0,1,.817,1.739,2.459,2.459,0,0,1-.065.694,2.521,2.521,0,0,1-2.337,1.942Z" transform="translate(-983.937 -540.909)" fill="#0e2de2"/>
    <path id="Path_174" data-name="Path 174" d="M1109.327,574.064c-.581.063-1.146.245-1.73.281a1.88,1.88,0,0,1-1.594-.558,7.71,7.71,0,0,1-.466-.82,1.785,1.785,0,0,0-.634-.6,2.52,2.52,0,1,0,4.711,1.672C1109.518,574.047,1109.423,574.053,1109.327,574.064Z" transform="translate(-965.274 -513.511)" opacity="0.1"/>
    <path id="Path_175" data-name="Path 175" d="M1128.721,618.595a2.522,2.522,0,0,1-2.4-3.595,1.887,1.887,0,0,1,.506.508,8.3,8.3,0,0,0,.5.833,2.054,2.054,0,0,0,1.671.585c.607-.027,1.2-.2,1.8-.259.084-.008.17-.013.259-.016A2.521,2.521,0,0,1,1128.721,618.595Z" transform="translate(-983.949 -550.62)" opacity="0.1"/>
    <path id="Path_176" data-name="Path 176" d="M1081.475,650.338a2.52,2.52,0,0,1-2.635-2.4,2.491,2.491,0,0,1,.218-1.149,2.027,2.027,0,0,1,.532.518,8.632,8.632,0,0,0,.548.85,2.331,2.331,0,0,0,1.783.624c.624-.013,1.225-.166,1.845-.214A2.521,2.521,0,0,1,1081.475,650.338Z" transform="translate(-942.821 -578.293)" opacity="0.1"/>
    <path id="Path_177" data-name="Path 177" d="M1076.778,698.176a7.154,7.154,0,1,0-4.042-1.563,9.858,9.858,0,0,0,.675.9,3.166,3.166,0,0,0,2.087.733A10.706,10.706,0,0,0,1076.778,698.176Z" transform="translate(-936.88 -621.235)" opacity="0.1"/>
    <path id="Path_178" data-name="Path 178" d="M106.641,590.024c-.534-.989.073-2.2.769-3.085s1.546-1.8,1.528-2.925c-.026-1.615-1.74-2.569-3.108-3.427a15.162,15.162,0,0,1-2.795-2.245,4.1,4.1,0,0,1-.859-1.15,4.7,4.7,0,0,1-.259-2.042q.089-3.46.342-6.91" transform="translate(-92.405 -509.915)" fill="none" stroke="#3f3d56" stroke-miterlimit="10" stroke-width="4"/>
    <path id="Path_179" data-name="Path 179" d="M84.461,551.112a2.516,2.516,0,0,1,1.257-2.064l.565,1.116-.017-1.352a2.547,2.547,0,0,1,.83-.1,2.52,2.52,0,1,1-2.635,2.4Z" transform="translate(-77.212 -492.914)" fill="#0e2de2"/>
    <path id="Path_180" data-name="Path 180" d="M117.282,674.32a2.519,2.519,0,1,0-.122-2.029l1.575,1.281-1.735-.4A2.512,2.512,0,0,0,117.282,674.32Z" transform="translate(-105.539 -599.062)" fill="#0e2de2"/>
    <path id="Path_181" data-name="Path 181" d="M112.719,627.3a2.52,2.52,0,0,0,2.635-2.4,2.491,2.491,0,0,0-.218-1.149,2.524,2.524,0,0,0-1.614-1.4l.014,1.036-.571-1.129h0a2.52,2.52,0,0,0-.236,5.035Z" transform="translate(-99.732 -556.939)" fill="#0e2de2"/>
    <path id="Path_182" data-name="Path 182" d="M65.382,595.885a2.521,2.521,0,1,0-1.107-4.716l.445,1.22-.923-.875a2.512,2.512,0,0,0-.817,1.735,2.46,2.46,0,0,0,.065.694A2.521,2.521,0,0,0,65.382,595.885Z" transform="translate(-58.512 -529.594)" fill="#0e2de2"/>
    <path id="Path_183" data-name="Path 183" d="M85.176,561.064c.581.063,1.146.245,1.73.281a1.88,1.88,0,0,0,1.594-.558,7.693,7.693,0,0,0,.466-.82,1.785,1.785,0,0,1,.635-.6,2.52,2.52,0,1,1-4.711,1.672C84.986,561.047,85.08,561.053,85.176,561.064Z" transform="translate(-77.588 -502.194)" opacity="0.1"/>
    <path id="Path_184" data-name="Path 184" d="M65.82,605.595a2.523,2.523,0,0,0,2.4-3.595,1.888,1.888,0,0,0-.506.508,8.293,8.293,0,0,1-.5.833,2.054,2.054,0,0,1-1.671.585c-.607-.027-1.2-.2-1.8-.259-.084-.008-.17-.013-.259-.015A2.521,2.521,0,0,0,65.82,605.595Z" transform="translate(-58.95 -539.304)" opacity="0.1"/>
    <path id="Path_185" data-name="Path 185" d="M113.391,637.338a2.52,2.52,0,0,0,2.635-2.4,2.491,2.491,0,0,0-.218-1.149,2.028,2.028,0,0,0-.532.518,8.618,8.618,0,0,1-.548.849,2.331,2.331,0,0,1-1.783.624c-.624-.013-1.225-.166-1.845-.214A2.521,2.521,0,0,0,113.391,637.338Z" transform="translate(-100.404 -566.977)" opacity="0.1"/>
    <path id="Path_186" data-name="Path 186" d="M119.18,685.176a2.52,2.52,0,0,0,4.595-2.057,2.539,2.539,0,0,0-.553.493,9.889,9.889,0,0,1-.675.9,3.166,3.166,0,0,1-2.088.733A10.756,10.756,0,0,1,119.18,685.176Z" transform="translate(-107.437 -609.919)" opacity="0.1"/>
    <path id="Path_187" data-name="Path 187" d="M517.424,604.065a2.011,2.011,0,0,0-.8-1.621,115.45,115.45,0,0,0-3.531-4.058h0a1.981,1.981,0,0,0-.291-.069h-.029l-.05-.007h-.267a2.3,2.3,0,0,0-2.226,1.97c-.719-.166-1.378.049-1.5.5a.615.615,0,0,0,.019.364,1.575,1.575,0,0,0,1.055.856l.07.021c.035.01.07.018.1.026h.023a1.813,1.813,0,0,0,.791,2.371.4.4,0,0,0-.047.03.647.647,0,0,0-.155.218,3.156,3.156,0,0,0-.3.724c-.052.216-.061.443-.13.657a5.873,5.873,0,0,0-.456,1.142c-.016.184.014.4-.117.526a.861.861,0,0,1-.1.076.8.8,0,0,0-.228.238.762.762,0,0,1-.151.21c-.118.089-.312.08-.37.218s.092.3.057.449c-.029.122-.162.177-.259.259a.919.919,0,0,0-.22.418,1.339,1.339,0,0,1-1.1-.281,2.072,2.072,0,0,1,.114.413,1.74,1.74,0,0,0-.6-.3,1.9,1.9,0,0,1-.635-.471l.339-.047-1.5-2.279-.443-.091.4.763a.238.238,0,0,0-.129.163.694.694,0,0,0-.016.259,4.8,4.8,0,0,0,.1.607l.115.536a1.39,1.39,0,0,0,.038.149,1.511,1.511,0,0,0-.445.051,3.913,3.913,0,0,0-.923-.219.471.471,0,0,0-.209.01.5.5,0,0,0-.194.158,6.217,6.217,0,0,0-.686.966,32.436,32.436,0,0,1-2.893,3.9c-.7.284-1.4.553-2.1.82l-1.511.576a2.27,2.27,0,0,1-.936.212c-.145-.009-.321-.031-.4.092a.776.776,0,0,0-.092.2c-.053,0-.106.013-.155.016h-.009a1.793,1.793,0,0,0-.363-.667.225.225,0,0,0-.171.129c-.036.067-.058.141-.1.2-.082.119-.223.177-.324.278s-.164.259-.273.357a1.085,1.085,0,0,1-.518.2,3.269,3.269,0,0,0-.8.306,1.374,1.374,0,0,1-.3.137,1.119,1.119,0,0,1-.348.012l-.8-.058a.622.622,0,0,0-.214.009.4.4,0,0,0-.259.411.638.638,0,0,0,.253.44,1.682,1.682,0,0,0,.456.237,13.228,13.228,0,0,0,2.143.628v.162a3.635,3.635,0,0,0,1.633.389.244.244,0,0,0,.122-.022.27.27,0,0,0,.1-.161,6.607,6.607,0,0,0,.32-1.568h0a.808.808,0,0,0,.289-.074c.276-.075.549.114.833.145a2.281,2.281,0,0,0,1-.291c.048-.018.1-.034.144-.049a1.609,1.609,0,0,1-.33.32c-.137.1-.291.171-.426.273a2.829,2.829,0,0,1-.359.278,2.16,2.16,0,0,1-.276.106,1.87,1.87,0,0,0-.388.2.809.809,0,0,0-.269.259.354.354,0,0,0,.241.552,1.112,1.112,0,0,0,.328.009c.433-.032.864-.073,1.295-.111a3.622,3.622,0,0,0,.543-.078c.095-.023.188-.054.282-.079a2.281,2.281,0,0,1,.493-.074.408.408,0,0,1,.144.014c.1.032.172.13.275.155a.424.424,0,0,0,.2-.027,4.488,4.488,0,0,1,.961-.1c.141-.008.307-.035.373-.166.08-.162-.054-.343-.108-.518a1.562,1.562,0,0,1-.044-.339,2.116,2.116,0,0,0-.238-.807,2.182,2.182,0,0,1-.177-.368,9.365,9.365,0,0,0,1.766-.9,3.2,3.2,0,0,1,1.007-.484,2.705,2.705,0,0,1,1.265.146,28.449,28.449,0,0,1,2.9,1.011,14.386,14.386,0,0,0,1.37.518,2.132,2.132,0,0,0,.486.474,2.243,2.243,0,0,0,1.055.287,13.86,13.86,0,0,0,1.484.056,2.507,2.507,0,0,0,1.106-.2,1.28,1.28,0,0,0,.232-.153.918.918,0,0,0,.728-.269,1.761,1.761,0,0,0,.557-.874c.119-.467.027-1.013.315-1.395.076-.1.176-.185.251-.289a.777.777,0,0,0,.13-.47l.013-.019a1.747,1.747,0,0,0,.13-.471,2.694,2.694,0,0,1,.129-.372,11.234,11.234,0,0,0,.381-1.1,6.061,6.061,0,0,0,.176-.758c.031-.2.049-.411.066-.616a3.715,3.715,0,0,1,.186-.947,7.734,7.734,0,0,0,.429-2.269v-.045a1.519,1.519,0,0,0,1.353-1.533,1.623,1.623,0,0,0-.14-.662A2.054,2.054,0,0,0,517.424,604.065Zm-7.323,8.9c.022.079.048.158.074.237-.119-.118-.237-.24-.357-.356.048.014.1.03.142.047a.859.859,0,0,1,.142.072Zm-.58-.388c-.707-.614-1.525-1.09-2.249-1.684.388.2.777.422,1.165.64q.679.388,1.373.743a1.116,1.116,0,0,1-.285.3Zm.3-1.546.034-.035v.242c-.063-.021-.129-.041-.19-.065a1.6,1.6,0,0,0,.158-.148Zm-6.225,1.663a5.867,5.867,0,0,0,.755-1.076,7.053,7.053,0,0,0,1.124,1.255c-.624-.088-1.25-.157-1.878-.184Z" transform="translate(-430.208 -536.091)" fill="url(#linear-gradient)"/>
    <path id="Path_188" data-name="Path 188" d="M574.53,545.12l.447.091,1.522,2.248-.672.091Z" transform="translate(-500.13 -474.491)" fill="#2f2e41"/>
    <path id="Path_189" data-name="Path 189" d="M519.48,733.5a8.852,8.852,0,0,0,.444,1.165,10.766,10.766,0,0,0,1.484-.423,4.03,4.03,0,0,0-.308-.418,1.451,1.451,0,0,0-.42-.322,1.141,1.141,0,0,0-.509-.008Q519.826,733.5,519.48,733.5Z" transform="translate(-455.899 -653.743)" fill="#fbbebe"/>
    <path id="Path_190" data-name="Path 190" d="M495,729.829a.932.932,0,0,1-.508-.578,1.876,1.876,0,0,0-.379-.692.227.227,0,0,0-.171.13c-.038.065-.06.139-.1.2-.08.117-.223.174-.325.273s-.166.251-.276.351a1.1,1.1,0,0,1-.518.2,3.283,3.283,0,0,0-.811.3,1.383,1.383,0,0,1-.3.13,1.139,1.139,0,0,1-.351.012l-.807-.058a.632.632,0,0,0-.215.01.389.389,0,0,0-.259.4.627.627,0,0,0,.259.434,1.717,1.717,0,0,0,.458.233,13.828,13.828,0,0,0,2.163.618v.159a3.743,3.743,0,0,0,1.646.388.259.259,0,0,0,.129-.022.269.269,0,0,0,.1-.158,6.368,6.368,0,0,0,.335-1.753,1.315,1.315,0,0,0-.034-.451c-.044-.145.106-.084-.034-.141" transform="translate(-430.216 -649.474)" fill="#2f2e41"/>
    <path id="Path_191" data-name="Path 191" d="M541.506,710.588c-2.392.145-4.754-.557-7.15-.632a3.574,3.574,0,0,0-.888.057,4.367,4.367,0,0,0-.881.342c-1.283.6-2.612,1.092-3.939,1.586l-1.523.567a2.371,2.371,0,0,1-.945.208c-.145-.009-.322-.031-.405.091a1.492,1.492,0,0,0,.034,1.318c.053.13.142.279.285.294a.841.841,0,0,0,.291-.074c.277-.074.554.113.839.142a2.339,2.339,0,0,0,1.014-.286,9.453,9.453,0,0,1,1.735-.294,7.755,7.755,0,0,0,2.719-1.129,3.192,3.192,0,0,1,1.015-.477,2.78,2.78,0,0,1,1.276.144,29.413,29.413,0,0,1,2.923,1,13.469,13.469,0,0,0,1.528.557,5.524,5.524,0,0,0,3.424-.2c.389-.151.8-.418.82-.831.013-.236-.17-.443-.291-.648-.079-.129-.157-.259-.242-.382C542.732,711.337,542.233,710.544,541.506,710.588Z" transform="translate(-461.255 -633.273)" fill="#2f2e41"/>
    <path id="Path_192" data-name="Path 192" d="M541.506,710.588c-2.392.145-4.754-.557-7.15-.632a3.574,3.574,0,0,0-.888.057,4.367,4.367,0,0,0-.881.342c-1.283.6-2.612,1.092-3.939,1.586l-1.523.567a2.371,2.371,0,0,1-.945.208c-.145-.009-.322-.031-.405.091a1.492,1.492,0,0,0,.034,1.318c.053.13.142.279.285.294a.841.841,0,0,0,.291-.074c.277-.074.554.113.839.142a2.339,2.339,0,0,0,1.014-.286,9.453,9.453,0,0,1,1.735-.294,7.755,7.755,0,0,0,2.719-1.129,3.192,3.192,0,0,1,1.015-.477,2.78,2.78,0,0,1,1.276.144,29.413,29.413,0,0,1,2.923,1,13.469,13.469,0,0,0,1.528.557,5.524,5.524,0,0,0,3.424-.2c.389-.151.8-.418.82-.831.013-.236-.17-.443-.291-.648-.079-.129-.157-.259-.242-.382C542.732,711.337,542.233,710.544,541.506,710.588Z" transform="translate(-461.255 -633.273)" opacity="0.1"/>
    <path id="Path_193" data-name="Path 193" d="M554.93,727.939q.562.19,1.132.352c.214-.351.613-.594.7-.995a.092.092,0,0,0,0-.053.1.1,0,0,0-.043-.039,2.118,2.118,0,0,0-.887-.259c-.246-.016-.357.241-.469.421C555.328,727.439,555.03,727.972,554.93,727.939Z" transform="translate(-486.759 -648.068)" fill="#fbbebe"/>
    <path id="Path_194" data-name="Path 194" d="M534.153,728.8a.815.815,0,0,1-.55-.361c-.053-.092-.109-.216-.215-.21s-.142.123-.164.22a6.284,6.284,0,0,1-.31,1.063,1.992,1.992,0,0,1-.662.869c-.139.1-.293.168-.429.269a2.841,2.841,0,0,1-.363.274,2.045,2.045,0,0,1-.278.1,1.909,1.909,0,0,0-.4.193.808.808,0,0,0-.271.259.348.348,0,0,0,.236.545,1.174,1.174,0,0,0,.33.008c.436-.032.872-.071,1.307-.11a3.714,3.714,0,0,0,.548-.075c.1-.023.189-.054.284-.079a2.4,2.4,0,0,1,.5-.073.424.424,0,0,1,.145.014c.1.032.172.13.276.153a.428.428,0,0,0,.2-.026,4.654,4.654,0,0,1,.969-.1c.142-.008.311-.035.375-.163.082-.159-.053-.338-.107-.509a1.6,1.6,0,0,1-.045-.334,2.035,2.035,0,0,0-.24-.794c-.111-.2-.259-.43-.185-.648a.567.567,0,0,0,.074-.221C535.156,728.717,534.349,728.846,534.153,728.8Z" transform="translate(-465.454 -649.185)" fill="#2f2e41"/>
    <path id="Path_195" data-name="Path 195" d="M606.929,671.122a1.875,1.875,0,0,1-.953-.947c-.039-.091-.073-.185-.11-.277a2.119,2.119,0,0,0-.57-.79.273.273,0,0,0-.211-.089.226.226,0,0,0-.155.166.681.681,0,0,0-.017.259,4.871,4.871,0,0,0,.1.6l.117.528a1.036,1.036,0,0,0,.073.236.82.82,0,0,0,.194.232c.106.1.214.193.322.285a1.144,1.144,0,0,0,.2.142,1.2,1.2,0,0,0,.364.106,3.138,3.138,0,0,1,1.358.518s0-.354-.009-.389a.518.518,0,0,0-.1-.284A1.712,1.712,0,0,0,606.929,671.122Z" transform="translate(-530.264 -597.644)" fill="#fbbebe"/>
    <path id="Path_196" data-name="Path 196" d="M606.929,671.122a1.875,1.875,0,0,1-.953-.947c-.039-.091-.073-.185-.11-.277a2.119,2.119,0,0,0-.57-.79.273.273,0,0,0-.211-.089.226.226,0,0,0-.155.166.681.681,0,0,0-.017.259,4.871,4.871,0,0,0,.1.6l.117.528a1.036,1.036,0,0,0,.073.236.82.82,0,0,0,.194.232c.106.1.214.193.322.285a1.144,1.144,0,0,0,.2.142,1.2,1.2,0,0,0,.364.106,3.138,3.138,0,0,1,1.358.518s0-.354-.009-.389a.518.518,0,0,0-.1-.284A1.712,1.712,0,0,0,606.929,671.122Z" transform="translate(-530.264 -597.644)" opacity="0.1"/>
    <ellipse id="Ellipse_27" data-name="Ellipse 27" cx="0.581" cy="0.585" rx="0.581" ry="0.585" transform="translate(80.953 68.267)" fill="#2f2e41"/>
    <path id="Path_197" data-name="Path 197" d="M628.241,646.7a.647.647,0,0,0-.46.066.619.619,0,0,0-.157.215,3.052,3.052,0,0,0-.3.712c-.052.214-.061.436-.129.647-.119.388-.425.719-.46,1.124-.016.181.014.395-.118.518a.763.763,0,0,1-.1.074.8.8,0,0,0-.229.236.747.747,0,0,1-.162.224c-.119.088-.315.079-.373.215s.092.294.057.442c-.029.12-.163.176-.259.259a.9.9,0,0,0-.221.413,1.371,1.371,0,0,1-1.112-.278,3.509,3.509,0,0,1,.172,1.273.526.526,0,0,1-.1.388,6.573,6.573,0,0,1,1.366.237.938.938,0,0,0,.6,0,.987.987,0,0,0,.273-.218,1.734,1.734,0,0,0,.563-.866,4.687,4.687,0,0,0,.01-.589,3.383,3.383,0,0,1,.149-.714,8.342,8.342,0,0,0,.259-1.47c.027-.307.291-.553.431-.828a4.088,4.088,0,0,0,.552-1.635C628.5,646.957,628.433,646.726,628.241,646.7Z" transform="translate(-547.067 -578.202)" fill="#2f2e41"/>
    <path id="Path_198" data-name="Path 198" d="M628.241,646.7a.647.647,0,0,0-.46.066.619.619,0,0,0-.157.215,3.052,3.052,0,0,0-.3.712c-.052.214-.061.436-.129.647-.119.388-.425.719-.46,1.124-.016.181.014.395-.118.518a.763.763,0,0,1-.1.074.8.8,0,0,0-.229.236.747.747,0,0,1-.162.224c-.119.088-.315.079-.373.215s.092.294.057.442c-.029.12-.163.176-.259.259a.9.9,0,0,0-.221.413,1.371,1.371,0,0,1-1.112-.278,3.509,3.509,0,0,1,.172,1.273.526.526,0,0,1-.1.388,6.573,6.573,0,0,1,1.366.237.938.938,0,0,0,.6,0,.987.987,0,0,0,.273-.218,1.734,1.734,0,0,0,.563-.866,4.687,4.687,0,0,0,.01-.589,3.383,3.383,0,0,1,.149-.714,8.342,8.342,0,0,0,.259-1.47c.027-.307.291-.553.431-.828a4.088,4.088,0,0,0,.552-1.635C628.5,646.957,628.433,646.726,628.241,646.7Z" transform="translate(-547.067 -578.202)" opacity="0.1"/>
    <path id="Path_199" data-name="Path 199" d="M570.812,685.687a5.369,5.369,0,0,1-1.265-1.057c-.769-.723-1.709-1.233-2.517-1.91a16.144,16.144,0,0,0-1.6-1.345,3.981,3.981,0,0,0-1.717-.6.476.476,0,0,0-.21.01.5.5,0,0,0-.2.155,6.1,6.1,0,0,0-.693.952,56.5,56.5,0,0,1-3.684,4.817.216.216,0,0,0-.014.293l.245.48c.137.268.357.581.648.528a.718.718,0,0,0,.343-.219l1.1-1.053,1.154-1.1a8.906,8.906,0,0,0,1.805-2.134,15.961,15.961,0,0,0,1.375,1.536c.159.207.289.436.431.656.229.354.488.685.747,1.015l1.325,1.69a2.564,2.564,0,0,0,.612.622,2.352,2.352,0,0,0,1.065.284,13.715,13.715,0,0,0,1.5.054,2.568,2.568,0,0,0,1.114-.2,1.026,1.026,0,0,0,.6-.9,1.333,1.333,0,0,0-.19-.561A4.419,4.419,0,0,0,570.812,685.687Z" transform="translate(-490.181 -607.869)" fill="#2f2e41"/>
    <ellipse id="Ellipse_28" data-name="Ellipse 28" cx="0.447" cy="0.449" rx="0.447" ry="0.449" transform="translate(81.445 68.809)" fill="#e8e8f0"/>
    <path id="Path_200" data-name="Path 200" d="M656,640.624a.855.855,0,0,1,.049.647,2.505,2.505,0,0,1-.287.6,2.971,2.971,0,0,1-.374.534,3.838,3.838,0,0,0,1.968-.566,2.825,2.825,0,0,0,1.242-1.083.575.575,0,0,1-.457-.084,1.711,1.711,0,0,1-.351-.326l-.346-.388a1.556,1.556,0,0,1-.214-.281.777.777,0,0,1-.092-.452,2.59,2.59,0,0,1-.458.381c-.247.162-.518.278-.768.438-.088.057-.284.149-.233.259S655.933,640.5,656,640.624Z" transform="translate(-574.209 -571.704)" fill="#fbbebe"/>
    <path id="Path_201" data-name="Path 201" d="M656,640.624a.855.855,0,0,1,.049.647,2.505,2.505,0,0,1-.287.6,2.971,2.971,0,0,1-.374.534,3.838,3.838,0,0,0,1.968-.566,2.825,2.825,0,0,0,1.242-1.083.575.575,0,0,1-.457-.084,1.711,1.711,0,0,1-.351-.326l-.346-.388a1.556,1.556,0,0,1-.214-.281.777.777,0,0,1-.092-.452,2.59,2.59,0,0,1-.458.381c-.247.162-.518.278-.768.438-.088.057-.284.149-.233.259S655.933,640.5,656,640.624Z" transform="translate(-574.209 -571.704)" opacity="0.1"/>
    <path id="Path_202" data-name="Path 202" d="M641.822,650.067a.584.584,0,0,0,0,.675c.019.025.093.179.13.18a.118.118,0,0,0,.079-.04,5.492,5.492,0,0,0,.438-.518.966.966,0,0,1,.557-.365,1.218,1.218,0,0,1,.768.238.735.735,0,0,1,.259.215.705.705,0,0,1,.087.293,13.693,13.693,0,0,1,.078,1.86,7.165,7.165,0,0,1-.088,1.338c-.044.228-.11.451-.141.681a4.585,4.585,0,0,0-.027.611v.855a2.166,2.166,0,0,0,.034.468,5.721,5.721,0,0,0,.188.543,3.577,3.577,0,0,1,.129.647l.117.884a1.08,1.08,0,0,1-.1.808c-.075.1-.176.183-.259.284-.291.37-.194.908-.324,1.368a1.731,1.731,0,0,1-.562.861.91.91,0,0,1-.74.259,1.014,1.014,0,0,1-.673-.8,3.085,3.085,0,0,0-.346-1.036,2.731,2.731,0,0,0-.684-.572,1.187,1.187,0,0,1-.534-.694c-.023-.129-.009-.259-.022-.388a.926.926,0,0,0-.572-.751c-.184-.071-.412-.1-.518-.259a1.247,1.247,0,0,0,.539-.724,3.718,3.718,0,0,0,.13-.906l.062-1.028a3.405,3.405,0,0,1,.242-1.329c.091-.184.2-.357.3-.54a5.987,5.987,0,0,0,.319-.792c.146-.421.294-.843.425-1.269a2.517,2.517,0,0,1,.233-.592C641.456,650.339,641.615,650.106,641.822,650.067Z" transform="translate(-560.02 -581.08)" fill="#e8e8f0"/>
    <path id="Path_203" data-name="Path 203" d="M642.366,655.564l.272.009.058-.411a.884.884,0,0,1,.057-.24,1.531,1.531,0,0,1,.157-.229,2.973,2.973,0,0,0,.315-1.34,6.663,6.663,0,0,1,.6-1.752l.528-1.177a1.7,1.7,0,0,0,.113-.3,1.656,1.656,0,0,0,.032-.348c0-.181.06-.843.063-1.026,0-.067-.148-.03-.179-.089-.066-.13-.157.223-.281.3a.689.689,0,0,0-.243.356c-.114.3-.184.609-.29.907a1.863,1.863,0,0,1-.493.8c-.108.1-.233.171-.335.272a1.836,1.836,0,0,0-.372,1.295C642.358,652.875,642.305,655.564,642.366,655.564Z" transform="translate(-562.847 -579.896)" fill="#2f2e41"/>
    <path id="Path_204" data-name="Path 204" d="M656.125,646.588a.942.942,0,0,0-.483.666,3.256,3.256,0,0,1-.247.816c-.332.578-1.177.746-1.411,1.37a2.507,2.507,0,0,0-.095.648c-.041.447-.189.879-.233,1.326a5.854,5.854,0,0,0,.025,1.042l.3,3.526a4.663,4.663,0,0,1-.089,1.554,1.493,1.493,0,0,0,.888-.146c.278-.13.532-.3.8-.448a8.117,8.117,0,0,0,1.369-.777.813.813,0,0,0,.185-.2,1.752,1.752,0,0,0,.129-.465,2.607,2.607,0,0,1,.13-.365,10.857,10.857,0,0,0,.388-1.088,5.878,5.878,0,0,0,.177-.747c.032-.2.049-.4.067-.606a3.569,3.569,0,0,1,.188-.932,7.475,7.475,0,0,0,.431-2.234,1.117,1.117,0,0,0-.022-.329,1.758,1.758,0,0,0-.179-.373c-.123-.232-.2-.487-.313-.721a3.51,3.51,0,0,0-1.209-1.272C656.667,646.664,656.394,646.486,656.125,646.588Z" transform="translate(-572.688 -578.091)" fill="#2f2e41"/>
    <path id="Path_205" data-name="Path 205" d="M603.445,683.266a2.122,2.122,0,0,1-.563-.427c-.074-.087-.129-.184-.21-.269a1.384,1.384,0,0,0-.708-.4,3.418,3.418,0,0,0-.821-.079,1.459,1.459,0,0,0-.545.066.551.551,0,0,0-.363.388.639.639,0,0,0,.276.574,1.334,1.334,0,0,0,.55.268,4.566,4.566,0,0,0,.5.058,7.228,7.228,0,0,1,2.71,1.12q1.13.638,2.305,1.2a4.624,4.624,0,0,0,.039-.707c0-.176-.013-.445-.18-.549a3.688,3.688,0,0,0-.733-.221,11.642,11.642,0,0,1-1.475-.6C603.954,683.553,603.695,683.414,603.445,683.266Z" transform="translate(-526.19 -609.016)" fill="#fbbebe"/>
    <ellipse id="Ellipse_29" data-name="Ellipse 29" cx="1.744" cy="1.755" rx="1.744" ry="1.755" transform="translate(79.79 65.21)" fill="#fbbebe"/>
    <path id="Path_206" data-name="Path 206" d="M647.785,660.651a2.836,2.836,0,0,0-.338.631,13.493,13.493,0,0,0-.723,1.295c-.179.488-.172,1.07-.518,1.454a.5.5,0,0,0-.152.22,1.091,1.091,0,0,1-.018.159c-.049.14-.278.146-.321.289-.012.041,0,.087-.021.129-.035.092-.155.1-.237.161-.17.115-.13.382-.259.548a.46.46,0,0,1-.435.153,1.615,1.615,0,0,1-.453-.17.407.407,0,0,0-.162-.051.331.331,0,0,0-.188.063,1.16,1.16,0,0,0-.471.995,3.238,3.238,0,0,0,.268,1.111.468.468,0,0,0,.089.166.389.389,0,0,0,.435.031,2.023,2.023,0,0,1,.423-.189c.269-.049.534.137.807.122a1.137,1.137,0,0,0,.545-.241,3.019,3.019,0,0,0,.736-.628c.119-.157.207-.335.312-.5a5.7,5.7,0,0,1,.44-.588l1.006-1.232a2.647,2.647,0,0,0,.271-.374,2.741,2.741,0,0,0,.211-.562,4.44,4.44,0,0,0,.209-1,4,4,0,0,0-.074-.84,2.923,2.923,0,0,0-.216-.8C648.728,660.547,648.2,660.172,647.785,660.651Z" transform="translate(-563.85 -590.165)" fill="#2f2e41"/>
    <path id="Path_207" data-name="Path 207" d="M644.68,606.269a1.964,1.964,0,0,0-.808-1.6,2.331,2.331,0,0,0-1.983-2.273,2.266,2.266,0,0,0-4.464.12c-.725-.163-1.388.049-1.509.5-.13.468.388,1.014,1.155,1.221a2.122,2.122,0,0,0,.739.074,2.273,2.273,0,0,0,1.562.971,2.322,2.322,0,0,0,1.7,1.757,1.942,1.942,0,0,0,.526.728c0,.054-.009.11-.009.167a1.478,1.478,0,1,0,2.953,0,1.555,1.555,0,0,0-.141-.648A1.985,1.985,0,0,0,644.68,606.269Z" transform="translate(-557.24 -538.069)" fill="#f86d70"/>
    <path id="Path_208" data-name="Path 208" d="M636.374,603.034c.12-.447.777-.659,1.509-.5a2.3,2.3,0,0,1,2.244-1.942h.15a2.2,2.2,0,0,0-.647-.1,2.3,2.3,0,0,0-2.244,1.942c-.725-.163-1.388.049-1.509.5-.129.467.388,1.014,1.155,1.221a2.214,2.214,0,0,0,.436.075C636.74,604.022,636.251,603.491,636.374,603.034Z" transform="translate(-557.206 -537.998)" opacity="0.1"/>
    <path id="Path_209" data-name="Path 209" d="M655.336,633.616a1.039,1.039,0,0,1,.009-.168,1.932,1.932,0,0,1-.526-.726,2.331,2.331,0,0,1-1.7-1.759,2.269,2.269,0,0,1-1.562-.971,2.058,2.058,0,0,1-.435-.012,2.265,2.265,0,0,0,1.5.894,2.322,2.322,0,0,0,1.7,1.757,1.942,1.942,0,0,0,.526.728c0,.054-.009.11-.009.167a1.5,1.5,0,0,0,1.469,1.528A1.525,1.525,0,0,1,655.336,633.616Z" transform="translate(-570.492 -563.66)" opacity="0.1"/>
    <ellipse id="Ellipse_30" data-name="Ellipse 30" cx="0.269" cy="0.359" rx="0.269" ry="0.359" transform="translate(81.684 67.199) rotate(-37.22)" fill="#fbbebe"/>
    <path id="Path_210" data-name="Path 210" d="M302,686.743l1.725-1.014a4.145,4.145,0,0,0-.882-1.055l-3.253,1.011,2.548-1.5A4.144,4.144,0,0,0,296,687.821c0,2.288,1.856,2.367,4.144,2.367s4.144-.079,4.144-2.367a4.112,4.112,0,0,0-.356-1.683Z" transform="translate(-261.359 -610.404)" fill="#0e2de2"/>
    <path id="Path_211" data-name="Path 211" d="M302.435,706.789a3.238,3.238,0,0,0-.611-.48,2.823,2.823,0,0,0-1.006-.491,7.6,7.6,0,0,0-.988-.028,2.309,2.309,0,0,1-1.514-.694,4.64,4.64,0,0,0-.7-.729,1.54,1.54,0,0,0-1.054-.193,2.575,2.575,0,0,0-.312.063,4.144,4.144,0,0,0-.245,1.406c0,2.288,1.856,2.367,4.144,2.367a8.7,8.7,0,0,0,2.863-.3l-.129-.232A3.223,3.223,0,0,0,302.435,706.789Z" transform="translate(-261.359 -628.226)" opacity="0.1"/>
  </g>
</svg>
