<svg xmlns="http://www.w3.org/2000/svg" width="597.368" height="473.699" viewBox="0 0 597.368 473.699">
  <g id="OBJECTS" transform="translate(-140.9 -365.9)">
    <g id="Group_147" data-name="Group 147" transform="translate(140.9 365.9)">
      <g id="Group_84" data-name="Group 84" transform="translate(0.506 42.603)" opacity="0.4">
        <path id="Path_212" data-name="Path 212" d="M732.053,709.96c8.866-58.165,16.028-121.371-20.408-172.235-10.917-15.263-24.963-30.56-42.381-37.931-21.9-9.248-45.2-11.612-68.8-11.334a398.819,398.819,0,0,0-128.777,22.946c-29.9,10.639-59.173,25-90.811,27.188-53.576,3.72-108.3-27.953-159.163-10.639-27.014,9.213-48.291,31.534-60.842,57.331-12.551,25.762-17.071,54.793-18.183,83.475-3.372,87.126,19.226,179.4,69.534,250.321h442.93c9.8-17.244,17.731-35.5,24.65-50.516C702.64,818.954,723.778,764.126,732.053,709.96Z" transform="translate(-142.357 -488.438)" fill="#e5e5ff"/>
      </g>
      <g id="Group_85" data-name="Group 85" transform="translate(255.954 316.344)">
        <path id="Path_213" data-name="Path 213" d="M915.413,1292.349H879.638a2.552,2.552,0,0,1-2.538-2.538v-11.473a2.552,2.552,0,0,1,2.538-2.538h35.775a2.552,2.552,0,0,1,2.538,2.538v11.473A2.53,2.53,0,0,1,915.413,1292.349Z" transform="translate(-877.1 -1275.8)" fill="#e0e0ff"/>
        <path id="Path_214" data-name="Path 214" d="M1051.013,1292.349h-35.775a2.552,2.552,0,0,1-2.538-2.538v-11.473a2.552,2.552,0,0,1,2.538-2.538h35.775a2.552,2.552,0,0,1,2.538,2.538v11.473A2.508,2.508,0,0,1,1051.013,1292.349Z" transform="translate(-965.556 -1275.8)" fill="#e0e0ff"/>
        <path id="Path_215" data-name="Path 215" d="M1112.513,1354.049h-35.775a2.552,2.552,0,0,1-2.538-2.538v-11.473a2.552,2.552,0,0,1,2.538-2.538h35.775a2.552,2.552,0,0,1,2.538,2.538v11.473A2.552,2.552,0,0,1,1112.513,1354.049Z" transform="translate(-1005.674 -1316.049)" fill="#e0e0ff"/>
        <path id="Path_216" data-name="Path 216" d="M976.713,1353.149H940.938a2.552,2.552,0,0,1-2.538-2.538v-11.473a2.552,2.552,0,0,1,2.538-2.538h35.775a2.552,2.552,0,0,1,2.538,2.538v11.473A2.53,2.53,0,0,1,976.713,1353.149Z" transform="translate(-917.088 -1315.462)" fill="#e0e0ff"/>
        <path id="Path_217" data-name="Path 217" d="M915.813,1414.049H880.038a2.552,2.552,0,0,1-2.538-2.538v-11.473a2.552,2.552,0,0,1,2.538-2.538h35.775a2.552,2.552,0,0,1,2.538,2.538v11.473A2.508,2.508,0,0,1,915.813,1414.049Z" transform="translate(-877.361 -1355.189)" fill="#e0e0ff"/>
      </g>
      <g id="Group_108" data-name="Group 108" transform="translate(107.221)">
        <g id="Group_88" data-name="Group 88">
          <g id="Group_86" data-name="Group 86" transform="translate(13.072 10.5)">
            <rect id="Rectangle_42" data-name="Rectangle 42" width="299.795" height="217.849" transform="translate(0.452 0.452)" fill="#fff"/>
            <path id="Path_218" data-name="Path 218" d="M787.564,614.818H486.9V396.1H787.564Zm-299.795-.869H786.695V396.969H487.769Z" transform="translate(-486.9 -396.1)" fill="#5254cf"/>
          </g>
          <rect id="Rectangle_43" data-name="Rectangle 43" width="298.995" height="9.769" transform="translate(13.907 10.952)" fill="#e0e0ff" opacity="0.6"/>
          <g id="Group_87" data-name="Group 87">
            <rect id="Rectangle_44" data-name="Rectangle 44" width="325.94" height="11.751" transform="translate(0.452 0.452)" fill="#fff"/>
            <path id="Path_219" data-name="Path 219" d="M776.109,378.52H449.3V365.9H776.109Zm-325.939-.869H775.24V366.769H450.169Z" transform="translate(-449.3 -365.9)" fill="#5254cf"/>
          </g>
        </g>
        <g id="Group_107" data-name="Group 107" transform="translate(34.245 35.393)">
          <g id="Group_90" data-name="Group 90" transform="translate(88.412 26.979)">
            <g id="Group_89" data-name="Group 89" transform="translate(16.201 10.639)">
              <path id="Path_220" data-name="Path 220" d="M891.046,631.875H857.218V620.3a25.415,25.415,0,1,1,33.793,0v11.577Zm-32.959-.869h32.09V619.915l.139-.139a24.546,24.546,0,1,0-32.4,0l.139.139v11.091Z" transform="translate(-848.7 -575.9)" fill="#5254cf"/>
              <path id="Path_221" data-name="Path 221" d="M907.028,756.428H873.2V750.9h33.828Zm-32.959-.869h32.09v-3.79h-32.09Z" transform="translate(-864.682 -690.058)" fill="#5254cf"/>
              <path id="Path_222" data-name="Path 222" d="M907.028,779.528H873.2V774h33.828Zm-32.959-.869h32.09v-3.79h-32.09Z" transform="translate(-864.682 -705.127)" fill="#5254cf"/>
              <path id="Path_223" data-name="Path 223" d="M916.253,670.558h-5.18L909.3,635.2h8.726Zm-4.346-.869h3.511l1.7-33.62H910.2Z" transform="translate(-888.231 -614.583)" fill="#5254cf"/>
            </g>
            <circle id="Ellipse_31" data-name="Ellipse 31" cx="1.738" cy="1.738" r="1.738" transform="translate(40.434)" fill="#cbcbff"/>
            <circle id="Ellipse_32" data-name="Ellipse 32" cx="1.738" cy="1.738" r="1.738" transform="translate(0 41.512)" fill="#cbcbff"/>
            <circle id="Ellipse_33" data-name="Ellipse 33" cx="1.738" cy="1.738" r="1.738" transform="translate(79.547 41.512)" fill="#cbcbff"/>
            <circle id="Ellipse_34" data-name="Ellipse 34" cx="1.738" cy="1.738" r="1.738" transform="translate(40.225 99.746)" fill="#cbcbff"/>
          </g>
          <g id="Group_93" data-name="Group 93" transform="translate(0 3.268)">
            <g id="Group_91" data-name="Group 91" transform="translate(55.697 21.103)">
              <circle id="Ellipse_35" data-name="Ellipse 35" cx="1.738" cy="1.738" r="1.738" transform="translate(38.591 14.985)" fill="#cbcbff"/>
              <path id="Path_224" data-name="Path 224" d="M747.947,554.731l-7.927-16.062H708V537.8h32.577l8.135,16.549Z" transform="translate(-708 -537.8)" fill="#cbcbff"/>
            </g>
            <g id="Group_92" data-name="Group 92">
              <rect id="Rectangle_45" data-name="Rectangle 45" width="6.64" height="13.038" transform="translate(0 21.764)" fill="#cbcbff"/>
              <rect id="Rectangle_46" data-name="Rectangle 46" width="6.64" height="19.4" transform="translate(10.882 15.402)" fill="#cbcbff"/>
              <rect id="Rectangle_47" data-name="Rectangle 47" width="6.64" height="15.576" transform="translate(21.764 19.226)" fill="#cbcbff"/>
              <rect id="Rectangle_48" data-name="Rectangle 48" width="6.64" height="23.92" transform="translate(32.646 10.882)" fill="#cbcbff"/>
              <rect id="Rectangle_49" data-name="Rectangle 49" width="6.64" height="34.802" transform="translate(43.528)" fill="#cbcbff"/>
            </g>
          </g>
          <g id="Group_97" data-name="Group 97" transform="translate(162.083)">
            <g id="Group_94" data-name="Group 94" transform="translate(0 19.574)">
              <circle id="Ellipse_36" data-name="Ellipse 36" cx="1.738" cy="1.738" r="1.738" transform="translate(0 17.835)" fill="#cbcbff"/>
              <path id="Path_225" data-name="Path 225" d="M1018.665,543.748l-.765-.382L1027.148,524h29.378v.869H1027.67Z" transform="translate(-1016.544 -524)" fill="#cbcbff"/>
            </g>
            <g id="Group_96" data-name="Group 96" transform="translate(43.841)">
              <path id="Path_226" data-name="Path 226" d="M1185.193,500.277H1144.62a4.533,4.533,0,0,1-4.52-4.52V472.22a4.511,4.511,0,0,1,4.52-4.52h40.573a4.533,4.533,0,0,1,4.52,4.52v23.537A4.489,4.489,0,0,1,1185.193,500.277Zm-40.538-31.742a3.65,3.65,0,0,0-3.651,3.651v23.537a3.65,3.65,0,0,0,3.651,3.651h40.573a3.65,3.65,0,0,0,3.65-3.651V472.185a3.65,3.65,0,0,0-3.65-3.651Z" transform="translate(-1140.1 -467.7)" fill="#cbcbff"/>
              <g id="Group_95" data-name="Group 95" transform="translate(7.44 6.919)">
                <rect id="Rectangle_50" data-name="Rectangle 50" width="34.767" height="0.869" fill="#cbcbff"/>
                <rect id="Rectangle_51" data-name="Rectangle 51" width="25.067" height="0.869" transform="translate(0 5.945)" fill="#cbcbff"/>
                <rect id="Rectangle_52" data-name="Rectangle 52" width="30.56" height="0.869" transform="translate(0 11.89)" fill="#cbcbff"/>
                <rect id="Rectangle_53" data-name="Rectangle 53" width="34.767" height="0.869" transform="translate(0 17.835)" fill="#cbcbff"/>
              </g>
            </g>
          </g>
          <g id="Group_100" data-name="Group 100" transform="translate(161.492 100.352)">
            <g id="Group_98" data-name="Group 98" transform="translate(0 12.953)">
              <circle id="Ellipse_37" data-name="Ellipse 37" cx="1.738" cy="1.738" r="1.738" fill="#cbcbff"/>
              <path id="Path_227" data-name="Path 227" d="M1054.826,817.848h-29.378l-9.248-19.365.8-.382,9,18.878h28.822Z" transform="translate(-1014.844 -796.535)" fill="#cbcbff"/>
            </g>
            <g id="Group_99" data-name="Group 99" transform="translate(49.767)">
              <path id="Path_228" data-name="Path 228" d="M1180.669,806.775a25.239,25.239,0,1,1,23.19-15.4,25.719,25.719,0,0,1-5.528,8.17A25.24,25.24,0,0,1,1180.669,806.775Zm.035-49.578a24.324,24.324,0,1,0,22.39,33.828h0a24.078,24.078,0,0,0,.7-17.14A24.326,24.326,0,0,0,1190.2,759.11,24.876,24.876,0,0,0,1180.7,757.2Z" transform="translate(-1155.444 -756.344)" fill="#cbcbff"/>
              <path id="Path_229" data-name="Path 229" d="M1251.1,824.018a25.077,25.077,0,0,1-5.458,8.031L1228.5,814.6l23.328-8A24.381,24.381,0,0,1,1251.1,824.018Z" transform="translate(-1203.101 -789.127)" fill="#cbcbff"/>
            </g>
          </g>
          <g id="Group_106" data-name="Group 106" transform="translate(4.415 86.57)">
            <g id="Group_101" data-name="Group 101" transform="translate(53.019 26.527)">
              <circle id="Ellipse_38" data-name="Ellipse 38" cx="1.738" cy="1.738" r="1.738" transform="translate(36.505)" fill="#cbcbff"/>
              <path id="Path_230" data-name="Path 230" d="M742.378,817.213H713v-.869h28.822l9-18.844.8.348Z" transform="translate(-713 -795.935)" fill="#cbcbff"/>
            </g>
            <g id="Group_103" data-name="Group 103">
              <path id="Path_231" data-name="Path 231" d="M604.515,743.644H560.5V716.7h44.05v26.944Zm-43.146-.869H603.68V717.569H561.369Z" transform="translate(-560.5 -716.7)" fill="#cbcbff"/>
              <g id="Group_102" data-name="Group 102" transform="translate(4.798 6.884)">
                <rect id="Rectangle_54" data-name="Rectangle 54" width="34.419" height="0.869" fill="#f5f5ff"/>
                <rect id="Rectangle_55" data-name="Rectangle 55" width="34.419" height="0.869" transform="translate(0 6.154)" fill="#f5f5ff"/>
                <rect id="Rectangle_56" data-name="Rectangle 56" width="34.419" height="0.869" transform="translate(0 12.307)" fill="#f5f5ff"/>
              </g>
              <path id="Path_232" data-name="Path 232" d="M574.5,748.131l-3.059-5.945-1.843,5.458-.8-.278L571.3,740l3.233,6.258,6.78-12.829,4.311,10.986,3.407-8.135,6.606,7.023,6.988-12.1.73.452-7.579,13.107-6.432-6.884-3.755,8.831-4.381-11.195Z" transform="translate(-565.914 -726.159)" fill="#cbcbff"/>
            </g>
            <g id="Group_105" data-name="Group 105" transform="translate(0 38.244)">
              <path id="Path_233" data-name="Path 233" d="M604.515,853.644H560.5V826.7h44.05v26.944Zm-43.146-.869H603.68V827.569H561.369Z" transform="translate(-560.5 -826.7)" fill="#cbcbff"/>
              <g id="Group_104" data-name="Group 104" transform="translate(4.798 6.884)">
                <rect id="Rectangle_57" data-name="Rectangle 57" width="34.419" height="0.869" fill="#f5f5ff"/>
                <rect id="Rectangle_58" data-name="Rectangle 58" width="34.419" height="0.869" transform="translate(0 6.154)" fill="#f5f5ff"/>
                <rect id="Rectangle_59" data-name="Rectangle 59" width="34.419" height="0.869" transform="translate(0 12.307)" fill="#f5f5ff"/>
              </g>
              <path id="Path_234" data-name="Path 234" d="M598.7,857.985l-5.841-4.833-5.7,4.763-3.511-6.745-3.164,6.571L572.9,844.634l.765-.417,6.745,11.647,3.164-6.64,3.859,7.336,5.424-4.555,5.424,4.485,4.1-12.69,4.45,13.42L606,857.5l-3.581-10.917Z" transform="translate(-568.589 -837.855)" fill="#cbcbff"/>
            </g>
          </g>
        </g>
      </g>
      <g id="Group_109" data-name="Group 109" transform="translate(29.286 222.094)">
        <path id="Path_235" data-name="Path 235" d="M225.435,1015.693s-7.405-13.594,51.246-10.534l32.611,105.622-55.21-.869Z" transform="translate(-225.134 -1004.71)" fill="#e0e0ff"/>
        <path id="Path_236" data-name="Path 236" d="M266.814,1457.626H258.4L278.391,1313.9h11.021Z" transform="translate(-246.835 -1206.404)" fill="#e0e0ff"/>
        <path id="Path_237" data-name="Path 237" d="M521.8,1457.626h8.414L510.221,1313.9H499.2Z" transform="translate(-403.916 -1206.404)" fill="#e0e0ff"/>
        <rect id="Rectangle_60" data-name="Rectangle 60" width="83.892" height="8.692" transform="translate(33.399 101.377)" fill="#cbcbff"/>
        <path id="Path_238" data-name="Path 238" d="M258.815,1116.829l-24.963-92.549a4.23,4.23,0,0,0-5.6-2.816h0a4.233,4.233,0,0,0-2.573,4.937l22.7,90.846a10.917,10.917,0,0,0,10.4,8.274h0v-8.692Z" transform="translate(-225.416 -1015.453)" fill="#cbcbff"/>
      </g>
      <g id="Group_111" data-name="Group 111" transform="translate(428.224 221.952)">
        <g id="Group_110" data-name="Group 110" transform="translate(4.798 107.604)">
          <path id="Path_239" data-name="Path 239" d="M1632.638,1457.526h7.857l-18.7-143.726H1611.5Z" transform="translate(-1533.24 -1313.8)" fill="#e0e0ff"/>
          <path id="Path_240" data-name="Path 240" d="M1394.258,1457.526H1386.4l18.67-143.726H1415.4Z" transform="translate(-1386.4 -1313.8)" fill="#e0e0ff"/>
        </g>
        <rect id="Rectangle_61" data-name="Rectangle 61" width="116.782" height="8.692" transform="translate(116.814 110.198) rotate(180)" fill="#cbcbff"/>
        <path id="Path_241" data-name="Path 241" d="M1489.417,1105.784H1372.6c11.995-22.772,17.9-53.437,20.651-87.613a15.11,15.11,0,0,1,15.054-13.872h45.405a15.1,15.1,0,0,1,15.054,13.942C1471.373,1053.46,1477.422,1084.02,1489.417,1105.784Z" transform="translate(-1372.6 -1004.3)" fill="#e0e0ff"/>
      </g>
      <g id="Group_123" data-name="Group 123" transform="translate(54.723 122.445)">
        <g id="Group_112" data-name="Group 112" transform="translate(28.294 27.994)">
          <path id="Path_242" data-name="Path 242" d="M407.722,798.639s-33.063,19.435-13.072,32.472l17.662,6.675,5.806-27.535C416.31,803.158,413.389,798.152,407.722,798.639Z" transform="translate(-385.256 -798.606)" fill="#1b1b43"/>
          <path id="Path_243" data-name="Path 243" d="M401.347,804.513a41.382,41.382,0,0,0-4.937,2.121,47.466,47.466,0,0,0-4.694,2.608,30.275,30.275,0,0,0-8.031,6.953,16.074,16.074,0,0,0-2.538,4.589,13.169,13.169,0,0,0-.7,5.18,15.614,15.614,0,0,0,1.182,5.145,21.862,21.862,0,0,0,1.113,2.434c.417.8.9,1.53,1.356,2.329l-.278.209c-2.086-2.92-3.859-6.328-4.1-10.048a14.055,14.055,0,0,1,.661-5.493,16.94,16.94,0,0,1,2.642-4.867,29.019,29.019,0,0,1,8.344-7.058,47.122,47.122,0,0,1,9.943-4.415Z" transform="translate(-379.681 -802.255)" fill="#1b1b43"/>
        </g>
        <g id="Group_117" data-name="Group 117" transform="translate(15.888 143.522)">
          <g id="Group_114" data-name="Group 114" transform="translate(34.941)">
            <g id="Group_113" data-name="Group 113" transform="translate(84.379 162.257)">
              <path id="Path_244" data-name="Path 244" d="M725.234,1642.481c-2.051-1.738-4.033-3.477-5.945-5.389-1.634-1.634-3.233-3.3-4.763-5.006-.487-.521-1.634-1.391-1.877-2.086l-18.148,6.084,6.328,27.674,3.477.035.313-12.968c5.563,2.747,11.369,5.285,17.523,6.432,3.79.7,8.692,1.008,12.307-.556C743.452,1652.842,727.668,1644.533,725.234,1642.481Z" transform="translate(-691.962 -1618.736)" fill="#1b1b43"/>
              <path id="Path_245" data-name="Path 245" d="M703.923,1597.6l-16.723,6.328,2.538,11.056,18.148-6.084Z" transform="translate(-687.2 -1597.6)" fill="#ffbc96"/>
            </g>
            <path id="Path_246" data-name="Path 246" d="M472.8,1135.246l41.825,13.837a29.113,29.113,0,0,1,16.271,13.455h0A28.572,28.572,0,0,1,534.338,1173l16.236,124.813-25.206,4.346-34.35-126.9L444.5,1153.95l8.275-23.051Z" transform="translate(-444.5 -1130.9)" fill="#7d50c7"/>
          </g>
          <g id="Group_116" data-name="Group 116" transform="translate(0.016 3.06)">
            <g id="Group_115" data-name="Group 115" transform="translate(11.457 161.666)">
              <path id="Path_247" data-name="Path 247" d="M417.33,1660.619c-6.362-2.573-11.23-19.609-11.23-19.609l-18.5-5.11L377,1661.871l2.851,2.016,7.718-10.43,18.809,14.185h14.88C421.224,1667.642,423.657,1663.192,417.33,1660.619Z" transform="translate(-377 -1625.053)" fill="#1b1b43"/>
              <path id="Path_248" data-name="Path 248" d="M429.229,1609.15l-17.314-4.45-4.415,10.847,18.5,5.111Z" transform="translate(-396.896 -1604.7)" fill="#ffbc96"/>
            </g>
            <path id="Path_249" data-name="Path 249" d="M432.3,1195.466,391.939,1309.78l-4.8-1.425-17.314-5.146-2.225-.661,21.729-107.464c-12.7,3.139-22.477,2.891-29.916.3a21.9,21.9,0,0,1-13.229-11.91,27.586,27.586,0,0,1-2.121-10.5c-.452-15.228,7.336-33.272,7.336-33.272l23.329,1.738,42.9,19.469a28.143,28.143,0,0,1,10.6,8.448,27.739,27.739,0,0,1,5.354,12.481A28.844,28.844,0,0,1,432.3,1195.466Z" transform="translate(-344.046 -1139.7)" fill="#7d50c7"/>
          </g>
          <path id="Path_250" data-name="Path 250" d="M389.266,1257.312c-24.615,6.084-38.244-.556-43.146-11.612A27.585,27.585,0,0,1,344,1235.2C356.794,1257.764,389.266,1257.312,389.266,1257.312Z" transform="translate(-344 -1198.938)" fill="#5828a7" opacity="0.6"/>
        </g>
        <g id="Group_120" data-name="Group 120" transform="translate(0 53.51)">
          <path id="Path_251" data-name="Path 251" d="M371.886,872l-26.249,60.668,6.953,11.091s-7.058,15.993-11.091,27.153c0,0,46.414,13.107,86.4,3.129l-6.675-34.176L418.4,887.506l-16.653-15.089Z" transform="translate(-326.481 -872)" fill="#ffb147"/>
          <path id="Path_252" data-name="Path 252" d="M522.543,1038.943l-3.824.487L511,1009.669l3.025-.869Z" transform="translate(-437.051 -961.239)" fill="#1b1b43"/>
          <g id="Group_118" data-name="Group 118" transform="translate(75.305 0.382)">
            <path id="Path_253" data-name="Path 253" d="M567.155,936.376a76.285,76.285,0,0,1-12.794-3.2L544.348,893.4a22.653,22.653,0,0,0-14.915-15.993L516.673,873.8a9.9,9.9,0,0,1-1.773-.7l11.786,79.3s20.165,2.017,34.663,2.4C560.966,947.884,563.574,939.922,567.155,936.376Z" transform="translate(-514.9 -873.1)" fill="#ffb147"/>
            <path id="Path_254" data-name="Path 254" d="M673.293,1050.952a24.434,24.434,0,0,0-12.307,1.6,33.018,33.018,0,0,1-9.387-.278c-2.677,3.964-7.579,12.029-7.232,18.948,3.025.07,10.813-.209,12.725-.313,10.986-.765,21.069-12.064,21.069-12.064s8.031,7.927,8.692,4.242S680.351,1051.821,673.293,1050.952Z" transform="translate(-599.344 -988.998)" fill="#ffbc96"/>
          </g>
          <rect id="Rectangle_62" data-name="Rectangle 62" width="47.457" height="3.998" transform="translate(66.37 77.356)" fill="#fff"/>
          <path id="Path_255" data-name="Path 255" d="M439.251,1069.878s20.3,2.816,24.441-.974c0,0,4.9.1,6.084-2.712a7.627,7.627,0,0,0,2.712-3.581s1.738-2.816,1.182-4.659l-6.849-3.477s-.035-.243-.1-.591a3.271,3.271,0,0,0-3.164-2.712L451.732,1051a8.922,8.922,0,0,0-3.164.556l-12.168,4.52Z" transform="translate(-388.387 -988.767)" fill="#ffbc96"/>
          <path id="Path_256" data-name="Path 256" d="M333.971,904.051,321.8,931.2l38.244,3.06c-11.3,5.424-10.882,18.913-10.882,18.913l-34.7.9A15.78,15.78,0,0,1,298.3,938.331a15.951,15.951,0,0,1,.8-4.937l14.22-42.972A21.505,21.505,0,0,1,328.3,876.377l13.907-3.581c.521-.209,1.008-.452,1.495-.7Z" transform="translate(-298.3 -872.065)" fill="#ffb147"/>
          <g id="Group_119" data-name="Group 119" transform="translate(70.89 68.456)">
            <path id="Path_257" data-name="Path 257" d="M522.387,1074.428c-1.669-.7-3.268-1.53-4.833-2.364a41.476,41.476,0,0,1-4.555-2.851l.174-.313a51.585,51.585,0,0,1,9.387,5.215Z" transform="translate(-509.245 -1068.9)" fill="#d28572"/>
            <path id="Path_258" data-name="Path 258" d="M515.6,1087.729a41.4,41.4,0,0,1-4.554-1.564,33.059,33.059,0,0,1-4.346-2.052l.139-.313a30.611,30.611,0,0,1,4.554,1.564,38.213,38.213,0,0,1,4.346,2.051Z" transform="translate(-505.135 -1078.62)" fill="#d28572"/>
            <path id="Path_259" data-name="Path 259" d="M506.546,1098.334a10.668,10.668,0,0,1-2.295-.834,8.468,8.468,0,0,1-2.051-1.286l.139-.313a8.619,8.619,0,0,1,2.295.834,11.321,11.321,0,0,1,2.051,1.286Z" transform="translate(-502.2 -1086.513)" fill="#d28572"/>
          </g>
          <path id="Path_260" data-name="Path 260" d="M360.852,1004.7a.454.454,0,0,1-.452-.417.431.431,0,0,1,.417-.452l28.4-.487a20.67,20.67,0,0,1,9.735-18.114l.035-.521-.035.417-33.585-3.372,8.518-31.777a.43.43,0,0,1,.834.209l-8.275,30.8,32.577,3.268a.888.888,0,0,1,.8.7.863.863,0,0,1-.417.973,19.791,19.791,0,0,0-9.317,17.8v.452l-29.239.521Z" transform="translate(-338.81 -922.653)" fill="#1b1b43"/>
          <path id="Path_261" data-name="Path 261" d="M568.791,997.169a.417.417,0,0,1-.417-.382l-4.381-51.107a.438.438,0,0,1,.869-.1l4.346,51.073a.459.459,0,0,1-.383.487Z" transform="translate(-471.617 -919.743)" fill="#1b1b43"/>
          <path id="Path_262" data-name="Path 262" d="M647.134,1074.417a.413.413,0,0,1-.417-.348c-1.7-9.248,5.6-19.5,5.91-19.921a.424.424,0,1,1,.7.487c-.07.1-7.371,10.4-5.771,19.261a.461.461,0,0,1-.348.521Z" transform="translate(-525.416 -990.698)" fill="#1b1b43"/>
          <circle id="Ellipse_39" data-name="Ellipse 39" cx="2.399" cy="2.399" r="2.399" transform="translate(65.223 20.026)" fill="#1b1b43"/>
        </g>
        <g id="Group_122" data-name="Group 122" transform="translate(42.668)">
          <path id="Path_263" data-name="Path 263" d="M458.765,823.523c-1.043,6.328-5.319,14.672-11.96,11.4-4.867-2.4-12.968-8.692-17.9-11.786,13.49-7.058,6.849-25.484,6.64-26.04l16.48,6.084v.278a80.754,80.754,0,0,0,1.182,11.682c.139.626.243,1.217.382,1.808A10.156,10.156,0,0,0,458.765,823.523Z" transform="translate(-426.163 -769.63)" fill="#ffbc96"/>
          <path id="Path_264" data-name="Path 264" d="M476.329,825.616c-9.665-2.225-12.029-12.238-12.029-12.516l10.847.834A81.627,81.627,0,0,0,476.329,825.616Z" transform="translate(-449.256 -780.067)" fill="#d28572"/>
          <path id="Path_265" data-name="Path 265" d="M470.375,741.511s1.738,19.678-7.266,21.312c-8.866,1.6-18.809-10.534-18.809-10.534l1.53-18.148,10.117-6.641C463.109,730.386,467.768,734.453,470.375,741.511Z" transform="translate(-436.209 -724.228)" fill="#ffbc96"/>
          <path id="Path_266" data-name="Path 266" d="M433.8,742.221c4.8-1.634,6.536-5.771,7.718-11.4,1.843-8.692,14.359-1.738,17.94,4.554,0,0,1.947-17.592-16.1-17.279,0,0-20.964.765-14.672,22.911Z" transform="translate(-425.257 -718.088)" fill="#1b1b43"/>
          <ellipse id="Ellipse_40" data-name="Ellipse 40" cx="4.728" cy="6.189" rx="4.728" ry="6.189" transform="matrix(0.828, -0.561, 0.561, 0.828, 0, 22.947)" fill="#ffbc96"/>
          <g id="Group_121" data-name="Group 121" transform="translate(16.54 17.344)">
            <path id="Path_267" data-name="Path 267" d="M509.4,777.744a1.147,1.147,0,1,0,1.147-1.147A1.114,1.114,0,0,0,509.4,777.744Z" transform="translate(-495.215 -773.599)" fill="#1b1b43"/>
            <path id="Path_268" data-name="Path 268" d="M483.2,778.444a1.147,1.147,0,1,0,1.147-1.147A1.114,1.114,0,0,0,483.2,778.444Z" transform="translate(-478.124 -774.055)" fill="#1b1b43"/>
            <path id="Path_269" data-name="Path 269" d="M500.41,791.063a.423.423,0,0,1-.417-.417.4.4,0,0,1,.382-.452,4.394,4.394,0,0,0,1.912-.591.577.577,0,0,0,.278-.521c0-.73-.9-1.843-2.086-2.642a.424.424,0,1,1,.487-.7c1.217.8,2.434,2.156,2.468,3.338a1.487,1.487,0,0,1-.626,1.252,6.356,6.356,0,0,1-2.4.73Z" transform="translate(-489.076 -779.512)" fill="#d28572"/>
            <path id="Path_270" data-name="Path 270" d="M510.254,769.583c-.382-.1-.73-.174-1.078-.243a4.9,4.9,0,0,0-1.008-.035,5.783,5.783,0,0,0-1.008.209c-.348.1-.7.209-1.113.313h-.035a.271.271,0,0,1-.313-.209.441.441,0,0,1,.035-.209,2.9,2.9,0,0,1,.973-.973,3.476,3.476,0,0,1,1.356-.452,2.817,2.817,0,0,1,1.425.243,2.3,2.3,0,0,1,1.078.9.261.261,0,0,1-.07.348.44.44,0,0,1-.209.035Z" transform="translate(-492.802 -767.975)" fill="#1b1b43"/>
            <path id="Path_271" data-name="Path 271" d="M477.925,769.956a3.033,3.033,0,0,1,1.217-.974,3.466,3.466,0,0,1,1.565-.382,2.856,2.856,0,0,1,1.6.452,2.723,2.723,0,0,1,1.078,1.182.27.27,0,0,1-.1.348.222.222,0,0,1-.209,0h-.035c-.452-.174-.8-.382-1.182-.487a4.122,4.122,0,0,0-1.113-.174,8.267,8.267,0,0,0-2.468.452h-.035a.249.249,0,0,1-.313-.174A.2.2,0,0,1,477.925,769.956Z" transform="translate(-474.657 -768.383)" fill="#1b1b43"/>
            <circle id="Ellipse_41" data-name="Ellipse 41" cx="2.781" cy="2.781" r="2.781" transform="translate(0 6.51)" fill="#fe5b52" opacity="0.4"/>
            <path id="Path_272" data-name="Path 272" d="M491.758,807.876a4.178,4.178,0,0,1-2.712-.9.443.443,0,1,1,.591-.661,3.746,3.746,0,0,0,3.616.452.44.44,0,0,1,.278.834A5.985,5.985,0,0,1,491.758,807.876Z" transform="translate(-481.85 -792.918)" fill="#1b1b43"/>
          </g>
          <path id="Path_273" data-name="Path 273" d="M439.657,787.982a.427.427,0,0,1-.382-.243c-.07-.174-1.808-4.068-4.694-2.886a.429.429,0,1,1-.313-.8c2.92-1.217,5.076,1.669,5.806,3.338a.408.408,0,0,1-.209.556A.611.611,0,0,1,439.657,787.982Z" transform="translate(-429.479 -760.93)" fill="#1b1b43"/>
          <path id="Path_274" data-name="Path 274" d="M448.937,884.18a6.886,6.886,0,0,1-3.094-.765,104.235,104.235,0,0,1-11.473-7.405c-2.4-1.669-4.659-3.268-6.467-4.415a.429.429,0,0,1,.452-.73c1.843,1.147,4.1,2.747,6.5,4.416a103.687,103.687,0,0,0,11.369,7.336,5.469,5.469,0,0,0,5.076.1c3.338-1.7,5.528-6.849,6.258-11.195a.388.388,0,0,1,.487-.348.426.426,0,0,1,.348.487c-.765,4.554-3.129,9.943-6.71,11.821A5.962,5.962,0,0,1,448.937,884.18Z" transform="translate(-425.375 -817.702)" fill="#1b1b43"/>
        </g>
      </g>
      <g id="Group_139" data-name="Group 139" transform="translate(354.414 63.868)">
        <g id="Group_125" data-name="Group 125" transform="translate(10.599 220.351)">
          <g id="Group_124" data-name="Group 124">
            <path id="Path_275" data-name="Path 275" d="M1312.411,1183.4c-.487,5.146-1.078,10.4-1.738,15.715-5.285,44.084-14.88,93.766-26.075,145.5-16.306,7.3-25,4.137-25,4.137,11.751-58.686,16.514-161.249,16.514-161.249Z" transform="translate(-1235.675 -1183.4)" fill="#ffbc96"/>
            <path id="Path_276" data-name="Path 276" d="M1214.71,1651.3s-24.337,14.115-23.92,23.468h32.368l7.162-5.424,1.738,5.667h9.561s2.19-8.692-1.947-27.813C1223.4,1654.5,1214.71,1651.3,1214.71,1651.3Z" transform="translate(-1190.785 -1485.951)" fill="#1b1b43"/>
            <path id="Path_277" data-name="Path 277" d="M1343.4,1183.4c-.487,5.146-1.078,10.4-1.738,15.715-18.809-1.286-34.558-11.612-34.558-11.612Z" transform="translate(-1266.661 -1183.4)" fill="#d28572"/>
          </g>
          <path id="Path_278" data-name="Path 278" d="M1486.238,1347.128l-13.768,10.43-9.491-6.293s-14.219-116.33-24.615-156.173c-.834-3.129-1.6-5.806-2.364-7.892l33.48,5.215c.834,3.755,1.634,7.544,2.364,11.334C1481.2,1251.171,1484.639,1299.08,1486.238,1347.128Z" transform="translate(-1350.746 -1185.879)" fill="#ffbc96"/>
          <path id="Path_279" data-name="Path 279" d="M1471.74,1651.3s-22.668,14.115-22.251,23.468h30.143l6.675-5.424,1.634,5.667h8.9s2.016-8.692-1.808-27.813C1479.841,1654.5,1471.74,1651.3,1471.74,1651.3Z" transform="translate(-1359.542 -1485.951)" fill="#1b1b43"/>
          <path id="Path_280" data-name="Path 280" d="M1471.71,1203.714c-16.514-.209-33.2-8.483-33.2-8.483l-.243-.139c-.834-3.129-1.6-5.806-2.364-7.892l33.481,5.215C1470.18,1196.17,1470.98,1199.96,1471.71,1203.714Z" transform="translate(-1350.681 -1185.879)" fill="#d28572"/>
          <path id="Path_281" data-name="Path 281" d="M1293.709,1388.718c3.685.591,7.371,1.147,11.091,1.738.556.069.8-.765.243-.834-3.685-.591-7.37-1.147-11.091-1.738-.556-.1-.8.73-.243.834Z" transform="translate(-1257.72 -1316.785)" fill="#d28572"/>
          <path id="Path_282" data-name="Path 282" d="M1481.317,1405.667l10.221.209a.435.435,0,0,0,0-.869l-10.221-.208c-.556-.035-.556.834,0,.869Z" transform="translate(-1380.036 -1327.825)" fill="#d28572"/>
        </g>
        <g id="Group_135" data-name="Group 135" transform="translate(0 17.73)">
          <path id="Path_283" data-name="Path 283" d="M1160.3,693.513s2.747-13.7,23.989-18.913l-10.5,19.331Z" transform="translate(-1160.3 -648.873)" fill="#1b1b43"/>
          <g id="Group_127" data-name="Group 127" transform="translate(0.07)">
            <path id="Path_284" data-name="Path 284" d="M1196.006,626.693c-.313,2.608-1.217,5.424-2.677,5.424s-1.912-2.329-1.773-5.528c.209-5.285,1.043-6.189,2.5-6.189C1195.484,620.4,1196.666,621.547,1196.006,626.693Z" transform="translate(-1180.743 -613.516)" fill="#ffbc96"/>
            <path id="Path_285" data-name="Path 285" d="M1160.5,601.052l2.92,3.372,29.934,12.064a2.059,2.059,0,1,0,1.53-3.824L1164.95,600.6Z" transform="translate(-1160.5 -600.6)" fill="#1b1b43"/>
            <path id="Path_286" data-name="Path 286" d="M1189.66,631.414l-4.346,10.013-12.308,6.884a62.476,62.476,0,0,1-2.816-9.352,63.281,63.281,0,0,1-1.6-14.046l12.238-4.937.278-6.362c.661-8.8,4.207-5.25,5.111.973C1187.887,626.164,1189.66,631.414,1189.66,631.414Z" transform="translate(-1165.775 -605.652)" fill="#ffbc96"/>
            <path id="Path_287" data-name="Path 287" d="M1192.669,674.7l-4.346,10.013-12.307,6.884a62.492,62.492,0,0,1-2.816-9.352Z" transform="translate(-1168.785 -648.938)" fill="#d28572"/>
            <path id="Path_288" data-name="Path 288" d="M1183.836,629.993c-.383,2.608-1.391,5.424-3.06,5.424-1.634,0-2.155-2.329-2.016-5.528.208-5.284,1.182-6.188,2.851-6.188C1183.245,623.7,1184.566,624.847,1183.836,629.993Z" transform="translate(-1172.398 -615.669)" fill="#ffbc96"/>
            <path id="Path_289" data-name="Path 289" d="M1171.624,637.193c-.417,2.607-1.53,5.424-3.338,5.424s-2.364-2.329-2.225-5.528c.243-5.285,1.321-6.188,3.129-6.188S1172.424,632.047,1171.624,637.193Z" transform="translate(-1164.115 -620.366)" fill="#ffbc96"/>
            <g id="Group_126" data-name="Group 126" transform="translate(1.227 10.495)">
              <path id="Path_290" data-name="Path 290" d="M1190.455,640.318c-.591-.07-1.252-.765-1.565-3.3a.486.486,0,0,1,.278-.522c.208-.035.348.1.382.348.209,1.7.591,2.677,1.078,2.573,1.078-.243,2.747-4.624,2.434-8.135a.41.41,0,0,1,.313-.487c.208-.035.348.139.382.348.313,3.651-1.356,8.761-3.025,9.109A.289.289,0,0,1,1190.455,640.318Z" transform="translate(-1180.244 -630.787)" fill="#d28572"/>
              <path id="Path_291" data-name="Path 291" d="M1178.366,646.079a1.743,1.743,0,0,1-1.112-.661c-.765-.973-.869-2.816-.313-5.458a.425.425,0,0,1,.487-.348.448.448,0,0,1,.313.522c-.626,3.059-.174,4.276.139,4.693a.806.806,0,0,0,.591.383,1.668,1.668,0,0,0,1.286-.591c1.53-1.738,1.321-6.432,1.321-6.467a.427.427,0,0,1,.382-.452.423.423,0,0,1,.417.417c0,.209.243,5.111-1.53,7.127a2.4,2.4,0,0,1-1.877.869A.128.128,0,0,0,1178.366,646.079Z" transform="translate(-1172.223 -635.297)" fill="#d28572"/>
              <path id="Path_292" data-name="Path 292" d="M1165.654,651.874a.26.26,0,0,1-.174-.035,1.432,1.432,0,0,1-.939-.626c-.9-1.391-.348-4.728-.278-5.076a.425.425,0,0,1,.487-.348.448.448,0,0,1,.313.521c-.174.9-.487,3.511.139,4.415a.582.582,0,0,0,.383.278c1.251.209,2.121-.626,2.851-2.642a.387.387,0,0,1,.521-.243.454.454,0,0,1,.243.556C1168.887,649.545,1167.948,652.118,1165.654,651.874Z" transform="translate(-1164.03 -640.571)" fill="#d28572"/>
            </g>
          </g>
          <g id="Group_128" data-name="Group 128" transform="translate(50.599 35.323)">
            <path id="Path_293" data-name="Path 293" d="M1411.175,731.752,1381.832,702.2l-21.521.452L1337.4,784.98l74.679,3.651C1413.018,767.284,1412.948,748.058,1411.175,731.752Z" transform="translate(-1326.427 -702.2)" fill="#fff"/>
            <path id="Path_294" data-name="Path 294" d="M1317.569,940.2l-5.771,20.652c0,26.075-4.8,67.8-4.8,67.8,30,10.882,78.226,2.608,78.226,2.608,3.129-31.464,5.841-61.051,6.988-87.4Z" transform="translate(-1306.596 -857.455)" fill="#ffb147"/>
            <path id="Path_295" data-name="Path 295" d="M1414.49,741.01a20.982,20.982,0,0,1-10.917-3.233c-.243-.139-.521-.313-.591-.348a.375.375,0,0,1-.383-.417.463.463,0,0,1,.487-.417c.209,0,.382.1.939.452,7.058,4.276,14.394,4.137,21.868-.382a.429.429,0,0,1,.452.73A22.9,22.9,0,0,1,1414.49,741.01Z" transform="translate(-1368.959 -724.635)" fill="#1b1b43"/>
            <path id="Path_296" data-name="Path 296" d="M1349.91,1199.723c-27.014,0-43.528-5.424-43.772-5.528a.44.44,0,0,1,.278-.834c.313.1,31.325,10.291,78.017,2.608a.423.423,0,1,1,.139.834A208.99,208.99,0,0,1,1349.91,1199.723Z" transform="translate(-1305.839 -1022.585)" fill="#1b1b43"/>
          </g>
          <path id="Path_297" data-name="Path 297" d="M1244.818,684.678l-11.855.1a21.761,21.761,0,0,0-9.352,2.225l-30.039,14.915-9.283-27.223L1160.3,693.613l14.394,29.83a15.3,15.3,0,0,0,12.725,8.587h0a15.307,15.307,0,0,0,7.927-1.634l22.772-11.577s1.53,50.2-9.561,79.547c0,0,23.05,6.953,39.113-.209C1247.635,798.122,1258.516,715.551,1244.818,684.678Z" transform="translate(-1160.3 -648.938)" fill="#7d50c7"/>
          <path id="Path_298" data-name="Path 298" d="M1524.1,796.875c-3.059-29.552-12.933-59.278-17.7-72.28a26.353,26.353,0,0,0-7.962-11.265h0a26.56,26.56,0,0,0-10.847-5.389L1462.7,702.1c-3.407,34.141.556,73.984,5.424,114.522,0,0,37.374-1.738,49.334-9.144Z" transform="translate(-1356.735 -666.812)" fill="#7d50c7"/>
          <path id="Path_299" data-name="Path 299" d="M1555.633,808.813a.415.415,0,0,1-.417-.382l-4.624-29.552a.423.423,0,1,1,.834-.139l4.624,29.552a.433.433,0,0,1-.348.487A.108.108,0,0,1,1555.633,808.813Z" transform="translate(-1414.897 -716.576)" fill="#1b1b43"/>
          <g id="Group_129" data-name="Group 129" transform="translate(119.911 83.44)">
            <path id="Path_300" data-name="Path 300" d="M1541.845,898.14,1506.8,886.18l15.263-43.98,35.045,11.96Z" transform="translate(-1506.244 -841.644)" fill="#fff"/>
            <path id="Path_301" data-name="Path 301" d="M1541.08,897.652l-35.88-12.238.139-.417,15.4-44.4,35.879,12.238-.139.417Zm-34.767-12.794,34.245,11.682,14.984-43.18L1521.3,841.678Z" transform="translate(-1505.2 -840.6)" fill="#1b1b43"/>
          </g>
          <g id="Group_132" data-name="Group 132" transform="translate(141.306 98.578)">
            <g id="Group_130" data-name="Group 130">
              <line id="Line_1" data-name="Line 1" x2="18.114" y2="5.945" transform="translate(0.438 0.473)" fill="#fff"/>
              <path id="Path_302" data-name="Path 302" d="M1585.291,890.975a.209.209,0,0,1-.139-.035l-18.114-5.945a.44.44,0,1,1,.278-.834l18.114,5.945a.428.428,0,0,1,.278.556A.437.437,0,0,1,1585.291,890.975Z" transform="translate(-1566.739 -884.139)" fill="#1b1b43"/>
            </g>
            <g id="Group_131" data-name="Group 131" transform="translate(0.765 6.397)">
              <line id="Line_2" data-name="Line 2" x2="11.856" y2="3.79" transform="translate(0.473 0.438)" fill="#fff"/>
              <path id="Path_303" data-name="Path 303" d="M1581.268,907.184a.208.208,0,0,1-.139-.035l-11.89-3.755a.44.44,0,0,1,.278-.834l11.89,3.755a.428.428,0,0,1,.278.556A.385.385,0,0,1,1581.268,907.184Z" transform="translate(-1568.939 -902.539)" fill="#1b1b43"/>
            </g>
          </g>
          <rect id="Rectangle_63" data-name="Rectangle 63" width="11.16" height="6.154" transform="translate(150.496 85.56) rotate(18.911)" fill="#1b1b43"/>
          <path id="Path_304" data-name="Path 304" d="M1296.292,794.8a.437.437,0,0,1-.382-.209.446.446,0,0,1,.174-.591l19.991-11.091a.436.436,0,1,1,.417.765L1296.5,794.766C1296.466,794.766,1296.362,794.8,1296.292,794.8Z" transform="translate(-1248.731 -719.495)" fill="#1b1b43"/>
          <g id="Group_134" data-name="Group 134" transform="translate(142.806 115.958)">
            <path id="Path_305" data-name="Path 305" d="M1596.937,957.934s5.215-13.49-13.316-23.607c0,0-4.485-1.738-1.147,5.076,0,0-7.092-8.1-5.354,1.321,0,0-5.667-5.667-2.747,5.076,0,0-5.667-3.06-2.19,9.7C1575.625,968.225,1589.531,973.267,1596.937,957.934Z" transform="translate(-1571.054 -934.129)" fill="#ffbc96"/>
            <g id="Group_133" data-name="Group 133" transform="translate(2.864 4.778)">
              <path id="Path_306" data-name="Path 306" d="M1609.6,956.747a.382.382,0,0,1-.348-.209,82.834,82.834,0,0,0-6.467-7.927.443.443,0,1,1,.66-.591,81.084,81.084,0,0,1,6.571,8.031.428.428,0,0,1-.1.591A1.025,1.025,0,0,1,1609.6,956.747Z" transform="translate(-1594.543 -947.871)" fill="#d28572"/>
              <path id="Path_307" data-name="Path 307" d="M1593.148,961.225a.452.452,0,0,1-.417-.278,31.145,31.145,0,0,0-5.146-8.135.443.443,0,1,1,.661-.591,30.749,30.749,0,0,1,5.284,8.379.423.423,0,0,1-.243.556C1593.253,961.225,1593.218,961.225,1593.148,961.225Z" transform="translate(-1584.628 -950.611)" fill="#d28572"/>
              <path id="Path_308" data-name="Path 308" d="M1582.32,973.248a.4.4,0,0,1-.417-.417c-.139-2.19-2.5-5.841-2.538-5.876a.407.407,0,0,1,.139-.591.413.413,0,0,1,.591.139c.1.174,2.538,3.894,2.677,6.293a.46.46,0,0,1-.452.452Z" transform="translate(-1579.292 -959.888)" fill="#d28572"/>
            </g>
          </g>
          <path id="Path_309" data-name="Path 309" d="M1479.031,765.808a.417.417,0,0,1-.417-.383c-.278-2.468-.591-5.111-.939-7.823-1.147-9.318-2.329-18.948-1.982-26.006l.035-.1,3.546-10.813-6.71-11.125a.429.429,0,0,1,.73-.452l6.919,11.473-3.65,11.16c-.348,6.988.834,16.549,1.982,25.8.348,2.712.661,5.354.939,7.823a.433.433,0,0,1-.383.487A.108.108,0,0,0,1479.031,765.808Z" transform="translate(-1363.953 -671.242)" fill="#1b1b43"/>
          <path id="Path_310" data-name="Path 310" d="M1384.754,766.415h-.1a.442.442,0,0,1-.348-.521c2.434-11.091,2.851-22.355,1.182-31.777L1378.6,723.13l6.78-13.7a.443.443,0,0,1,.8.383l-6.571,13.246,6.745,10.812c1.7,9.526,1.286,20.964-1.147,32.194A.48.48,0,0,1,1384.754,766.415Z" transform="translate(-1302.704 -671.432)" fill="#1b1b43"/>
        </g>
        <g id="Group_138" data-name="Group 138" transform="translate(82.137)">
          <path id="Path_311" data-name="Path 311" d="M1424.921,661.3c-3.929,7.823-13.907,11.3-21.521.452.556-2.121,1.217-4.276,1.843-6.5a50.943,50.943,0,0,0,2.4-13.316c.035-.8,0-1.634-.035-2.434l16.236,1.53Z" transform="translate(-1401.018 -608.246)" fill="#ffbc96"/>
          <path id="Path_312" data-name="Path 312" d="M1423.584,648.173s-3.755,8.379-14.984,11.543A50.94,50.94,0,0,0,1411,646.4Z" transform="translate(-1404.411 -612.747)" fill="#d28572"/>
          <path id="Path_313" data-name="Path 313" d="M1424.138,574.038l-5.493,18.253s-9.283,8.587-18.392,4.207c-2.469-1.182-3.442-4.728-3.651-8.866a30.248,30.248,0,0,1,0-3.546,89.008,89.008,0,0,1,2.052-14.672l13.628-6.814Z" transform="translate(-1396.55 -558.082)" fill="#ffbc96"/>
          <path id="Path_314" data-name="Path 314" d="M1425.85,576.408s-13.768-8.24-15.054-16.375a96.688,96.688,0,0,0-9.6,3.164s.973-12.1,14.359-13.49c12.447-1.252,27.431,8.8,30.734,35.74L1423.1,597.824l-1.147-20.269Z" transform="translate(-1399.583 -549.604)" fill="#1b1b43"/>
          <g id="Group_136" data-name="Group 136" transform="translate(15.229 19.012)">
            <ellipse id="Ellipse_42" data-name="Ellipse 42" cx="6.501" cy="4.867" rx="6.501" ry="4.867" transform="matrix(0.396, -0.918, 0.918, 0.396, 0, 11.938)" fill="#ffbc96"/>
            <path id="Path_315" data-name="Path 315" d="M1454.112,623.394a.493.493,0,0,1-.209-.07.413.413,0,0,1-.139-.591c.035-.035,2.155-3.477,5.528-2.538a.456.456,0,0,1,.313.522.426.426,0,0,1-.522.313c-2.746-.765-4.554,2.121-4.554,2.156A.544.544,0,0,1,1454.112,623.394Z" transform="translate(-1449.054 -614.559)" fill="#1b1b43"/>
          </g>
          <g id="Group_137" data-name="Group 137" transform="translate(0 18.243)">
            <path id="Path_316" data-name="Path 316" d="M1402.595,612.447a1.147,1.147,0,1,1-1.147-1.147A1.135,1.135,0,0,1,1402.595,612.447Z" transform="translate(-1398.996 -608.093)" fill="#1b1b43"/>
            <path id="Path_317" data-name="Path 317" d="M1426.595,612.944a1.147,1.147,0,1,1-1.147-1.147A1.114,1.114,0,0,1,1426.595,612.944Z" transform="translate(-1414.652 -608.416)" fill="#1b1b43"/>
            <path id="Path_318" data-name="Path 318" d="M1408.825,624.849h-.035a5,5,0,0,1-2.364-.834,1.682,1.682,0,0,1-.626-1.356c.035-1.286,1.286-2.851,2.469-3.72a.445.445,0,0,1,.556.7,5.127,5.127,0,0,0-2.121,3.025.848.848,0,0,0,.278.7,4.467,4.467,0,0,0,1.877.661.433.433,0,0,1,.382.487A.391.391,0,0,1,1408.825,624.849Z" transform="translate(-1402.584 -613.02)" fill="#d28572"/>
            <path id="Path_319" data-name="Path 319" d="M1412.809,640.433a.418.418,0,0,1-.417-.382.433.433,0,0,1,.382-.487,6.771,6.771,0,0,0,4-2.156.445.445,0,1,1,.7.556,7.339,7.339,0,0,1-4.554,2.468Z" transform="translate(-1406.881 -625.023)" fill="#1b1b43"/>
            <path id="Path_320" data-name="Path 320" d="M1397.7,603.231a2.443,2.443,0,0,1,1.078-.9,2.883,2.883,0,0,1,1.425-.243,3.053,3.053,0,0,1,2.329,1.425.288.288,0,0,1-.1.382.441.441,0,0,1-.208.035h-.035c-.417-.1-.765-.243-1.113-.313-.348-.1-.66-.139-1.008-.209a3.305,3.305,0,0,0-1.008.035,6.755,6.755,0,0,0-1.078.243h-.07a.249.249,0,0,1-.313-.174A.549.549,0,0,1,1397.7,603.231Z" transform="translate(-1397.235 -602.076)" fill="#1b1b43"/>
            <path id="Path_321" data-name="Path 321" d="M1426.388,604.17a8.811,8.811,0,0,0-2.433-.661,4.253,4.253,0,0,0-1.147.07c-.382.07-.765.243-1.251.382h-.035a.3.3,0,0,1-.348-.174.214.214,0,0,1,.035-.209,2.74,2.74,0,0,1,1.182-1.078,3.276,3.276,0,0,1,1.634-.313,3.81,3.81,0,0,1,1.53.521,3.3,3.3,0,0,1,1.112,1.078.261.261,0,0,1-.069.348c0,.069-.1.069-.209.035Z" transform="translate(-1412.603 -602.145)" fill="#1b1b43"/>
            <path id="Path_322" data-name="Path 322" d="M1435.816,624.071a1.788,1.788,0,0,1-1.808,1.773,1.811,1.811,0,0,1-1.808-1.773,1.788,1.788,0,0,1,1.808-1.773A1.746,1.746,0,0,1,1435.816,624.071Z" transform="translate(-1419.806 -615.266)" fill="#fe5b52" opacity="0.4"/>
            <path id="Path_323" data-name="Path 323" d="M1398.375,626.073a1.781,1.781,0,0,1-1.773,1.773,30.249,30.249,0,0,1,0-3.546A1.8,1.8,0,0,1,1398.375,626.073Z" transform="translate(-1396.55 -616.573)" fill="#fe5b52" opacity="0.4"/>
          </g>
          <path id="Path_324" data-name="Path 324" d="M1427.729,571.722a37.3,37.3,0,0,0,.417,4.8,20.735,20.735,0,0,0,1.182,4.589,7.944,7.944,0,0,0,2.642,3.685,6.394,6.394,0,0,0,4.381,1.078h0a.164.164,0,0,1,.174.174c0,.07-.07.174-.139.174a7.5,7.5,0,0,1-2.5.1,6.711,6.711,0,0,1-2.4-.9,8.391,8.391,0,0,1-3.025-4,19.592,19.592,0,0,1-1.112-4.8,25.673,25.673,0,0,1-.035-4.9c0-.1.1-.174.174-.139.174,0,.243.07.243.139Z" transform="translate(-1416.552 -563.936)" fill="#1b1b43"/>
          <path id="Path_325" data-name="Path 325" d="M1459.674,551.083a30,30,0,0,1,10.673,4.694,42.441,42.441,0,0,1,8.657,7.892l1.808,2.329c.591.765,1.078,1.634,1.634,2.434a52,52,0,0,1,2.92,5.076,25.8,25.8,0,0,1,1.217,2.642l1.147,2.677c.661,1.843,1.251,3.685,1.843,5.528a.169.169,0,0,1-.1.209.155.155,0,0,1-.208-.1h0c-.7-1.808-1.391-3.616-2.086-5.389l-1.217-2.608a25.913,25.913,0,0,0-1.286-2.607c-.973-1.669-1.808-3.407-2.92-4.972-.556-.8-1.043-1.634-1.634-2.364l-1.773-2.26a44.675,44.675,0,0,0-8.379-7.823,25.737,25.737,0,0,0-2.4-1.564l-1.252-.73-1.286-.661a24.519,24.519,0,0,0-5.389-2.016h0a.191.191,0,0,1-.139-.209C1459.5,551.118,1459.6,551.049,1459.674,551.083Z" transform="translate(-1437.614 -550.563)" fill="#1b1b43"/>
        </g>
      </g>
      <g id="Group_140" data-name="Group 140" transform="translate(184.356 207.384)">
        <rect id="Rectangle_64" data-name="Rectangle 64" width="33.029" height="7.405" transform="translate(33.029 49.879) rotate(180)" fill="#1b1b43"/>
        <path id="Path_326" data-name="Path 326" d="M782.418,968.832l-5.006,12.342L765.8,1009.718a4.039,4.039,0,0,1-3.616,2.642H715.7l17.279-42.589c1.843-4.485,5.806-7.371,10.187-7.371H778.8C781.722,962.4,783.634,965.807,782.418,968.832Z" transform="translate(-700.217 -962.4)" fill="#cbcbff"/>
        <path id="Path_327" data-name="Path 327" d="M807.614,1016.3,796,1044.844a4.039,4.039,0,0,1-3.616,2.642H762C784.877,1039.907,799.061,1027.321,807.614,1016.3Z" transform="translate(-730.419 -997.561)" fill="#1b1b43" opacity="0.1"/>
      </g>
      <g id="Group_141" data-name="Group 141" transform="translate(307.77 207.384)">
        <rect id="Rectangle_65" data-name="Rectangle 65" width="33.029" height="7.405" transform="translate(49.564 42.52)" fill="#1b1b43"/>
        <path id="Path_328" data-name="Path 328" d="M1093.226,1012.36h-46.483a3.967,3.967,0,0,1-3.616-2.642l-10.6-26.11-6.015-14.776c-1.217-3.025.73-6.432,3.651-6.432H1065.8a11.2,11.2,0,0,1,10.152,7.371Z" transform="translate(-1026.14 -962.4)" fill="#cbcbff"/>
        <path id="Path_329" data-name="Path 329" d="M1082.465,1052.152H1058.72a3.966,3.966,0,0,1-3.616-2.642l-10.6-26.11C1052.67,1033.03,1066.194,1046.207,1082.465,1052.152Z" transform="translate(-1038.117 -1002.192)" fill="#1b1b43" opacity="0.1"/>
      </g>
      <g id="Group_146" data-name="Group 146" transform="translate(92.549 256.753)">
        <g id="Group_144" data-name="Group 144" transform="translate(59.73 6.049)">
          <g id="Group_142" data-name="Group 142">
            <rect id="Rectangle_66" data-name="Rectangle 66" width="9.943" height="210.027" transform="translate(0.417 0.417)" fill="#fff"/>
            <path id="Path_330" data-name="Path 330" d="M589.713,1332.7H578.9V1121.8h10.813Zm-9.943-.869h9.074V1122.669h-9.074Z" transform="translate(-578.9 -1121.8)" fill="#1b1b43"/>
          </g>
          <g id="Group_143" data-name="Group 143" transform="translate(226.576)">
            <rect id="Rectangle_67" data-name="Rectangle 67" width="9.943" height="210.027" transform="translate(0.417 0.417)" fill="#fff"/>
            <path id="Path_331" data-name="Path 331" d="M1241.412,1332.7H1230.6V1121.8h10.813Zm-9.978-.869h9.074V1122.669h-9.074Z" transform="translate(-1230.6 -1121.8)" fill="#1b1b43"/>
          </g>
        </g>
        <g id="Group_145" data-name="Group 145" transform="translate(0 0)">
          <rect id="Rectangle_68" data-name="Rectangle 68" width="355.943" height="8.275" transform="translate(0.452 0.452)" fill="#fff"/>
          <path id="Path_332" data-name="Path 332" d="M763.912,1113.544H407.1V1104.4H763.912Zm-355.943-.869H763.009v-7.405H407.969Z" transform="translate(-407.1 -1104.4)" fill="#1b1b43"/>
        </g>
      </g>
      <rect id="Rectangle_69" data-name="Rectangle 69" width="578.869" height="0.869" transform="translate(0 472.83)" fill="#1b1b43"/>
    </g>
  </g>
</svg>
