<?xml version="1.0" encoding="utf-8"?>
<!-- Generator: Adobe Illustrator 24.0.1, SVG Export Plug-In . SVG Version: 6.00 Build 0)  -->
<svg version="1.1" id="Layer_1" xmlns="http://www.w3.org/2000/svg" xmlns:xlink="http://www.w3.org/1999/xlink" x="0px" y="0px"
	 viewBox="0 0 210.4 94.2" style="enable-background:new 0 0 210.4 94.2;" xml:space="preserve">
<style type="text/css">
	.st0{fill:#ED2024;}
	.st1{stroke:#ED2024;stroke-width:4;stroke-linecap:round;stroke-linejoin:round;stroke-miterlimit:10;}
	.st2{fill:#774A9D;}
	.st3{stroke:#ED2024;stroke-linecap:round;stroke-linejoin:round;stroke-miterlimit:10;}
	.st4{fill:none;stroke:#231F20;stroke-miterlimit:10;}
	.st5{fill:none;}
	.st6{fill:#231F20;stroke:#231F20;stroke-miterlimit:10;}
	.st7{fill:#231F20;}
	.st8{fill:#0E2DE2;}
	.st9{fill:none;stroke:#0E2DE2;stroke-miterlimit:10;}
	.st10{fill:#04048C;}
	.st11{fill:#02088F;}
	.st12{fill:#00078E;}
	.st13{fill:none;stroke:#000000;stroke-width:0.5;stroke-miterlimit:10;}
	.st14{fill:#0E2DE2;stroke:#0E2DE2;stroke-miterlimit:10;}
	.st15{fill:#FFFFFF;}
	.st16{font-family:'Merriweather-Bold';}
	.st17{font-size:25.0085px;}
	.st18{font-family:'Merriweather-Regular';}
</style>
<g>
	<g>
		<path class="st15" d="M21.2,16.9v46.3c0,0,18.9,2.9,26.6,14c0,0-18.3-11.8-31.3-8.6v-47L21.2,16.9z"/>
		<path class="st15" d="M12.1,25.9v47c0,0,21.5-2.1,36,9.4c0,0-24.4-7.5-41.2-5.3V31L12.1,25.9z"/>
		<path class="st15" d="M73.8,16.4l0,47.1c0,0-18,2.6-25.3,13.7c0,0,17.4-11.5,29.8-8.3V21L73.8,16.4z"/>
		<path class="st15" d="M82.6,25.5v47.4c0,0-20.6-2.1-34.5,9.4c0,0,23.3-7.5,39.4-5.3V30.4L82.6,25.5z"/>
		<polyline class="st15" points="21.2,16.9 48.6,39.4 73.8,16.4 73.8,23.6 48.6,45.8 21.2,22.6 		"/>
		<path class="st15" d="M33.5,41.5c0,0,7.2,2.1,9.6,12.6l5.1,21.6c0,0,3.7-27.4,11.2-30.3c0,0-7.1,0.2-11.2,9
			C48.1,54.4,42.7,41.8,33.5,41.5z"/>
		<g>
			<g>
				<path class="st15" d="M37.1,16.6c0.1-0.3,0.4-0.4,0.6-0.5c3.2-1.6,6.4-3.2,9.5-4.7c0.6-0.3,1.2-0.3,1.9,0
					c3.2,1.6,6.4,3.2,9.6,4.8c0.3,0.1,0.5,0.3,0.6,0.6c0,0.3-0.2,0.5-0.5,0.7c-3.2,1.9-6.4,3.9-9.6,5.8c-0.7,0.4-1.4,0.4-2,0
					c-3.2-1.9-6.4-3.9-9.6-5.9c-0.2-0.1-0.4-0.3-0.5-0.5C37.1,16.8,37.1,16.7,37.1,16.6z"/>
				<path class="st15" d="M56.6,22.7c0,0.6,0,1.2,0,1.9c0,0.7-0.3,1.3-0.8,1.9c-0.7,0.7-1.5,1.2-2.4,1.6c-2.1,0.9-4.3,1.2-6.6,1
					c-1.6-0.1-3.1-0.5-4.5-1.3c-0.8-0.4-1.6-0.9-2.1-1.7c-0.3-0.4-0.5-0.9-0.5-1.4c0-1.2,0-2.5,0-3.7c0-0.1,0-0.2,0-0.3
					c0.1-0.3,0.2-0.4,0.5-0.2c0.1,0,0.2,0.1,0.2,0.1c2,1.2,4.1,2.5,6.1,3.7c1.1,0.7,2.2,0.7,3.2,0c2.1-1.3,4.2-2.6,6.3-3.9
					c0.1,0,0.1-0.1,0.2-0.1c0.2-0.1,0.3,0,0.3,0.2c0,0.1,0,0.2,0,0.3C56.6,21.4,56.6,22,56.6,22.7z"/>
				<path class="st15" d="M58.5,22.8c0,1,0,2.1,0,3.1c0,0.2,0.1,0.3,0.2,0.4c0.4,0.3,0.5,0.7,0.4,1.2c-0.1,0.5-0.4,0.8-0.9,0.9
					c-0.5,0.1-1-0.2-1.2-0.7c-0.2-0.5-0.1-1,0.3-1.3c0.2-0.2,0.3-0.3,0.3-0.6c0-1.9,0-3.7,0-5.6c0-0.3,0.1-0.6,0.4-0.7
					c0.1,0,0.1-0.1,0.2-0.1c0.3-0.1,0.3-0.1,0.3,0.2C58.5,20.7,58.5,21.7,58.5,22.8z"/>
			</g>
		</g>
	</g>
	<g>
		<text transform="matrix(1 0 0 1 106.7204 48.9808)"><tspan x="0" y="0" class="st15 st16 st17">ILM </tspan><tspan x="0" y="30" class="st15 st18 st17">EXPERT</tspan></text>
	</g>
	<g>
		<g>
			<g>
				<path class="st15" d="M144.2,22.8V20c0-0.9-0.3-1.7-0.9-2.2c-0.5-0.4-1.2-0.6-2.1-0.6c-1,0-1.8,0.3-2.4,0.9
					c-0.7,0.7-1.1,1.6-1.1,2.8c0,1.1,0.3,1.9,0.8,2.5h-0.6c-0.1,0-0.2,0-0.3,0c-0.3,0-0.5,0.2-0.7,0.4c-0.2,0.2-0.3,0.4-0.4,0.7h4.1
					c0.7,0,1.2,0,1.6-0.1c0.4-0.1,0.7-0.2,1-0.4c0.2,0.2,0.4,0.4,0.6,0.5c0.1,0,0.1-0.2,0.2-0.2l0.1-1.3L144.2,22.8
					C144.2,22.9,144.2,22.8,144.2,22.8z M142.8,23c-0.4,0.3-0.9,0.4-1.5,0.4c-0.7,0-1.3-0.2-1.7-0.7c-0.4-0.5-0.6-1.1-0.6-1.9
					c0-0.8,0.2-1.4,0.6-1.8c0.4-0.5,0.9-0.7,1.6-0.7c0.6,0,1,0.2,1.3,0.5c0.3,0.3,0.4,0.7,0.4,1.2V23z"/>
			</g>
		</g>
		<g>
			<g>
				<path class="st15" d="M157.9,22.8v1.1l-0.8,1h-9.3l-0.3-0.4c-0.3,0.2-0.7,0.4-1.1,0.4h-2.7c-0.3,0-0.5-0.2-0.5-0.5v-1.6h0.1
					l2.6-0.1v-9.9h2.3v10h2.6c-0.3-0.6-0.5-1.3-0.5-2.2c0-1.3,0.4-2.3,1.3-3.1c1.1-1,2.8-1.2,4.7-0.7l0.4,0.1v2l-0.6-0.2
					c-1.5-0.4-2.3-0.3-2.9,0.3c-0.3,0.4-0.5,0.9-0.5,1.5c0,0.5,0.1,1,0.5,1.4c0.4,0.4,0.7,0.6,1.2,0.6H157.9z"/>
			</g>
		</g>
	</g>
	<g>
		<rect x="100.1" y="22.9" class="st15" width="2" height="56.1"/>
	</g>
	<g>
		<rect x="100.1" y="22.9" class="st15" width="38.9" height="2.1"/>
	</g>
</g>
</svg>
