<svg xmlns="http://www.w3.org/2000/svg" width="76.932" height="76.932" viewBox="0 0 76.932 76.932">
  <path id="check_circle_FILL0_wght400_GRAD0_opsz48" d="M36.792,59.968l19.84-19.84,7.374-7.374-4.424-4.327L36.792,51.217l-11.54-11.54L20.925,44Zm5.674,20.964A37.219,37.219,0,0,1,27.56,77.9,38.755,38.755,0,0,1,7.029,57.372,37.219,37.219,0,0,1,4,42.466a37.456,37.456,0,0,1,3.029-15A38.442,38.442,0,0,1,15.3,15.251,39.431,39.431,0,0,1,27.56,7.029,37.219,37.219,0,0,1,42.466,4a37.456,37.456,0,0,1,15,3.029A38.406,38.406,0,0,1,77.9,27.464a37.456,37.456,0,0,1,3.029,15A37.219,37.219,0,0,1,77.9,57.372a39.431,39.431,0,0,1-8.222,12.261A38.442,38.442,0,0,1,57.468,77.9,37.456,37.456,0,0,1,42.466,80.932Zm0-5.77a31.462,31.462,0,0,0,23.176-9.568,31.589,31.589,0,0,0,9.52-23.128,31.543,31.543,0,0,0-9.52-23.176A31.543,31.543,0,0,0,42.466,9.77a31.589,31.589,0,0,0-23.128,9.52A31.462,31.462,0,0,0,9.77,42.466a31.509,31.509,0,0,0,9.568,23.128A31.509,31.509,0,0,0,42.466,75.162ZM42.466,42.466Z" transform="translate(-4 -4)" fill="#009b42"/>
</svg>
