<svg id="Layer_1" data-name="Layer 1" xmlns="http://www.w3.org/2000/svg" viewBox="0 0 210.35 94.24"><defs><style>.cls-1,.cls-2,.cls-4{fill:#0e2de2;}.cls-2{font-size:25.01px;font-family:Merriweather-Bold, Merriweather;font-weight:700;}.cls-3{font-family:Merriweather-Regular, Merriweather;font-weight:400;}.cls-4{stroke:#0e2de2;stroke-miterlimit:10;}</style></defs><title>Logo Ilm Expert</title><path class="cls-1" d="M21.2,16.92V63.24s18.94,2.88,26.55,14c0,0-18.28-11.84-31.25-8.64v-47Z"/><path class="cls-1" d="M12.13,25.88v47s21.48-2.13,36,9.39c0,0-24.38-7.47-41.16-5.33V31Z"/><path class="cls-1" d="M73.85,16.42l0,47.12s-18,2.58-25.31,13.66c0,0,17.39-11.53,29.81-8.33V21Z"/><path class="cls-1" d="M82.64,25.48V72.83S62.08,70.7,48.15,82.22c0,0,23.35-7.47,39.42-5.33V30.38Z"/><polyline class="cls-1" points="21.18 16.93 48.57 39.37 73.84 16.42 73.84 23.59 48.57 45.77 21.2 22.62"/><path class="cls-1" d="M33.51,41.48s7.22,2.13,9.56,12.64l5.08,21.56s3.67-27.41,11.23-30.34c0,0-7.09.24-11.23,9C48.15,54.36,42.73,41.81,33.51,41.48Z"/><path class="cls-1" d="M37.06,16.56a1.31,1.31,0,0,1,.62-.54c3.18-1.57,6.37-3.16,9.54-4.75a2,2,0,0,1,1.87,0l9.6,4.77c.27.14.54.29.56.63s-.24.5-.49.65l-9.59,5.85a1.81,1.81,0,0,1-2,0l-9.6-5.85a1.38,1.38,0,0,1-.49-.47Z"/><path class="cls-1" d="M56.61,22.68c0,.62,0,1.24,0,1.86a2.56,2.56,0,0,1-.76,1.86A7,7,0,0,1,53.42,28a13.71,13.71,0,0,1-6.64,1,12.39,12.39,0,0,1-4.5-1.25,5.77,5.77,0,0,1-2.11-1.69,2.39,2.39,0,0,1-.47-1.42V21a1.34,1.34,0,0,1,0-.35.31.31,0,0,1,.48-.24,2.53,2.53,0,0,1,.23.12l6.11,3.73a2.88,2.88,0,0,0,3.22,0l6.34-3.87.16-.1c.16-.06.28,0,.32.16a1.37,1.37,0,0,1,0,.29Z"/><path class="cls-1" d="M58.48,22.82c0,1,0,2.08,0,3.12a.46.46,0,0,0,.22.43,1.14,1.14,0,0,1-.51,2A1.13,1.13,0,0,1,57,27.75a1.1,1.1,0,0,1,.31-1.33.57.57,0,0,0,.26-.56c0-1.87,0-3.74,0-5.61a.7.7,0,0,1,.41-.73l.22-.13c.27-.15.33-.12.33.19Z"/><text class="cls-2" transform="translate(106.72 48.98)">ILM <tspan class="cls-3"><tspan x="0" y="30.01">EXPERT</tspan></tspan></text><path class="cls-4" d="M144.15,22.81V20a2.64,2.64,0,0,0-.92-2.17,3.16,3.16,0,0,0-2-.63,3.56,3.56,0,0,0-2.44.88,3.82,3.82,0,0,0-1.1,2.81,3.44,3.44,0,0,0,.84,2.49h-.64l-.26,0a1.3,1.3,0,0,0-.69.37,1.39,1.39,0,0,0-.41.71h4.12a7.58,7.58,0,0,0,1.57-.12,3.23,3.23,0,0,0,1-.42,1.26,1.26,0,0,0,.62.45c.08,0,.07-.21.16-.19l.09-1.32h.14A.22.22,0,0,1,144.15,22.81Zm-1.33.23a2.86,2.86,0,0,1-1.54.37,2.22,2.22,0,0,1-1.72-.67,2.76,2.76,0,0,1-.6-1.9,2.68,2.68,0,0,1,.61-1.83,2,2,0,0,1,1.58-.7,1.63,1.63,0,0,1,1.29.52,1.85,1.85,0,0,1,.38,1.18Z"/><path class="cls-1" d="M157.9,22.78V23.9l-.8,1h-9.31l-.33-.35a1.83,1.83,0,0,1-1.1.35H143.7a.53.53,0,0,1-.53-.53V22.78h.14l2.65-.06V12.81h2.31v10h2.56a4.42,4.42,0,0,1-.51-2.16,3.92,3.92,0,0,1,1.31-3.1,4.89,4.89,0,0,1,4.66-.65l.36.11v2l-.62-.15c-1.5-.37-2.35-.27-2.89.32a2.37,2.37,0,0,0-.51,1.52,2.2,2.2,0,0,0,.48,1.44,1.46,1.46,0,0,0,1.17.63Z"/><rect class="cls-1" x="100.12" y="22.91" width="1.98" height="56.1"/><rect class="cls-1" x="100.12" y="22.91" width="38.93" height="2.08"/></svg>