<svg id="Group_1295" data-name="Group 1295" xmlns="http://www.w3.org/2000/svg" width="26.377" height="26.377" viewBox="0 0 26.377 26.377">
  <circle id="Ellipse_69" data-name="Ellipse 69" cx="13.188" cy="13.188" r="13.188" transform="translate(0 0)" fill="#fff"/>
  <g id="Group_215" data-name="Group 215" transform="translate(6.914 6.914)">
    <path id="Path_602" data-name="Path 602" d="M199.743,122.994H202.3V131.2h-2.554Zm1.277-4.054a1.48,1.48,0,1,1-1.48,1.48,1.48,1.48,0,0,1,1.48-1.48" transform="translate(-199.54 -118.94)" fill="#6111de"/>
    <path id="Path_603" data-name="Path 603" d="M206,121.969h2.446v1.122h0a2.7,2.7,0,0,1,2.419-1.351c2.581,0,3.061,1.7,3.061,3.905v4.5h-2.52v-3.986c0-.953,0-2.176-1.351-2.176s-1.534,1.034-1.534,2.108v4.054H206Z" transform="translate(-201.635 -117.881)" fill="#6111de"/>
  </g>
</svg>
