<svg id="Group_1293" data-name="Group 1293" xmlns="http://www.w3.org/2000/svg" width="26.377" height="26.377" viewBox="0 0 26.377 26.377">
  <circle id="Ellipse_67" data-name="Ellipse 67" cx="13.188" cy="13.188" r="13.188" transform="translate(0 0)" fill="#fff"/>
  <g id="Group_217" data-name="Group 217" transform="translate(5.473 5.46)">
    <path id="Path_597" data-name="Path 597" d="M98.185,120.64a.905.905,0,1,0,.667.258.912.912,0,0,0-.667-.258Z" transform="translate(-86.375 -117.876)" fill="#6111de"/>
    <path id="Path_598" data-name="Path 598" d="M90.817,122.36a3.811,3.811,0,1,0,3.8,3.811A3.811,3.811,0,0,0,90.817,122.36Zm0,6.25a2.439,2.439,0,1,1,2.439-2.439A2.439,2.439,0,0,1,90.817,128.61Z" transform="translate(-83.034 -118.435)" fill="#6111de"/>
    <path id="Path_599" data-name="Path 599" d="M91.933,132.022H85.772a4.648,4.648,0,0,1-4.642-4.648V121.2a4.648,4.648,0,0,1,4.642-4.648h6.175A4.655,4.655,0,0,1,96.6,121.2v6.175a4.655,4.655,0,0,1-4.662,4.648Zm-6.162-14.013a3.2,3.2,0,0,0-3.189,3.189v6.175a3.2,3.2,0,0,0,3.189,3.189h6.175a3.189,3.189,0,0,0,3.189-3.189V121.2a3.189,3.189,0,0,0-3.189-3.189Z" transform="translate(-81.13 -116.55)" fill="#6111de"/>
  </g>
</svg>
