<svg xmlns="http://www.w3.org/2000/svg" width="609.346" height="572.361" viewBox="0 0 609.346 572.361">
  <g id="_2763613" data-name="2763613" transform="translate(-143.529 -139.369)">
    <g id="OBJECTS" transform="translate(143.529 139.369)">
      <g id="Group_253" data-name="Group 253">
        <path id="Path_678" data-name="Path 678" d="M202.362,0C314.124,0,404.724,90.6,404.724,202.362s-90.6,202.362-202.362,202.362S0,314.124,0,202.362,90.6,0,202.362,0Z" transform="translate(36.985 286.18) rotate(-45)" fill="#dec9fd"/>
        <g id="Group_245" data-name="Group 245" transform="translate(214.493 343.123)">
          <path id="Path_614" data-name="Path 614" d="M244.311,456.387s-1.093-92.585,61.437-148.127c28.361-25.188,93.935,7.288,31.019,50.033C310.764,375.978,271.128,391.691,244.311,456.387Z" transform="translate(-242.763 -299.432)" fill="#6111de"/>
          <path id="Path_615" data-name="Path 615" d="M328.974,311.75s-90.141,59.294-85.189,164.612" transform="translate(-243.588 -285.345)" fill="none" stroke="#6111de" stroke-miterlimit="10" stroke-width="1.366"/>
        </g>
        <ellipse id="Ellipse_71" data-name="Ellipse 71" cx="69.926" cy="9.754" rx="69.926" ry="9.754" transform="translate(249.717 522.479)" opacity="0.1"/>
        <g id="Group_246" data-name="Group 246" transform="translate(0 342.174)">
          <path id="Path_616" data-name="Path 616" d="M338.733,453.677s-3.194-101.545-131.578-151.729c-44.245-17.3-108.748,45.789-17.064,71.727C227.97,384.394,281.283,387.4,338.733,453.677Z" transform="translate(-143.529 -298.99)" fill="#6111de"/>
          <path id="Path_617" data-name="Path 617" d="M164.04,314.23s130.549,34.813,166.306,161.954" transform="translate(-120.072 -281.56)" fill="none" stroke="#6111de" stroke-miterlimit="10" stroke-width="1.711"/>
        </g>
        <g id="Group_247" data-name="Group 247" transform="translate(83.029 279.834)">
          <path id="Path_618" data-name="Path 618" d="M202.108,275.485C210.426,281.037,213,291.82,213,291.82s-10.933,1.779-19.272-3.773c-8.317-5.552-13.2-12.883-10.89-16.335C185.152,268.24,193.769,269.933,202.108,275.485Z" transform="translate(-182.262 -269.909)" fill="#6111de"/>
          <path id="Path_619" data-name="Path 619" d="M208.44,284.718c7.01,2.83,10.568,10.418,10.568,10.418s-7.824,3-14.834.171-11.747-7.5-10.568-10.418C194.785,281.953,201.43,281.889,208.44,284.718Z" transform="translate(-169.494 -255.347)" fill="#6111de"/>
          <path id="Path_620" data-name="Path 620" d="M210.643,285.134c2.894,6.988-.021,14.834-.021,14.834s-7.631-3.473-10.525-10.461-2.894-13.634.021-14.834C203.012,273.451,207.728,278.146,210.643,285.134Z" transform="translate(-164.344 -264.681)" fill="#6111de"/>
          <path id="Path_621" data-name="Path 621" d="M215.384,291.417c8.9,2.058,14.534,10.461,14.534,10.461s-8.768,5.038-17.664,2.958c-8.9-2.058-15.392-6.753-14.534-10.461C198.578,290.688,206.488,289.359,215.384,291.417Z" transform="translate(-164.669 -246.418)" fill="#6111de"/>
          <path id="Path_622" data-name="Path 622" d="M221.034,294.078c2.551,8.768-1.994,17.792-1.994,17.792s-8.682-5.188-11.233-13.934c-2.551-8.768-1.672-16.721,1.994-17.792C213.446,279.072,218.483,285.331,221.034,294.078Z" transform="translate(-154.713 -258.34)" fill="#6111de"/>
          <path id="Path_623" data-name="Path 623" d="M218.676,299.48c9.132-.021,16.549,6.838,16.549,6.838s-7.374,6.9-16.506,6.945c-9.132.021-16.549-3.023-16.549-6.838C202.149,302.61,209.544,299.5,218.676,299.48Z" transform="translate(-159.494 -236.089)" fill="#6111de"/>
          <path id="Path_624" data-name="Path 624" d="M224.309,308.951c9.732-.45,17.964,6.517,17.964,6.517s-7.546,7.717-17.278,8.167-17.771-2.465-17.964-6.517C206.86,313.067,214.577,309.4,224.309,308.951Z" transform="translate(-153.937 -225.281)" fill="#6111de"/>
          <path id="Path_625" data-name="Path 625" d="M228.6,318.527c9.625-1.436,18.543,4.673,18.543,4.673s-6.731,8.446-16.356,9.882-17.942-.643-18.543-4.652C211.618,324.4,218.949,319.963,228.6,318.527Z" transform="translate(-148.019 -214.556)" fill="#6111de"/>
          <path id="Path_626" data-name="Path 626" d="M234.7,329.194c9.732.172,17.514,7.653,17.514,7.653s-8.017,7.224-17.771,7.053c-9.732-.172-17.578-3.58-17.514-7.653C217.016,332.195,224.969,329.022,234.7,329.194Z" transform="translate(-142.613 -202.114)" fill="#6111de"/>
          <path id="Path_627" data-name="Path 627" d="M218.171,300.756c-3.6,8.382-.193,17.9-.193,17.9s9.239-4.094,12.841-12.476,3.687-16.4.193-17.9S221.773,292.353,218.171,300.756Z" transform="translate(-143.083 -249.177)" fill="#6111de"/>
          <path id="Path_628" data-name="Path 628" d="M227.356,309.2c-5.509,8.039-3.923,18.693-3.923,18.693s10.525-2.358,16.035-10.375c5.509-8.039,7.267-16.4,3.923-18.693S232.865,301.16,227.356,309.2Z" transform="translate(-135.418 -237.511)" fill="#6111de"/>
          <path id="Path_629" data-name="Path 629" d="M233.794,317.458c-6.3,7.438-5.809,18.2-5.809,18.2s10.718-1.265,17.021-8.7,8.9-15.584,5.809-18.2S240.1,310.02,233.794,317.458Z" transform="translate(-129.98 -226.414)" fill="#6111de"/>
          <path id="Path_630" data-name="Path 630" d="M236.124,330.411c-4.995,8.36-2.744,18.907-2.744,18.907s10.354-3,15.349-11.383c4.995-8.36,6.217-16.828,2.744-18.907S241.119,322.05,236.124,330.411Z" transform="translate(-124.378 -214.264)" fill="#6111de"/>
          <path id="Path_631" data-name="Path 631" d="M239.915,341.045c9.5,2.165,15.563,11.083,15.563,11.083s-9.325,5.4-18.843,3.237c-9.5-2.165-16.463-7.138-15.563-11.083S230.418,338.88,239.915,341.045Z" transform="translate(-137.966 -189.699)" fill="#6111de"/>
          <path id="Path_632" data-name="Path 632" d="M243.361,342.153c-6.624,7.16-6.581,17.942-6.581,17.942s10.761-.815,17.364-7.953c6.624-7.16,9.561-15.177,6.581-17.943S249.964,334.993,243.361,342.153Z" transform="translate(-119.911 -197.453)" fill="#6111de"/>
          <path id="Path_633" data-name="Path 633" d="M242.957,353.77c9.282,2.958,14.555,12.369,14.555,12.369s-9.754,4.587-19.036,1.629-15.8-8.51-14.555-12.369C225.143,351.54,233.675,350.812,242.957,353.77Z" transform="translate(-134.791 -176.078)" fill="#6111de"/>
          <path id="Path_634" data-name="Path 634" d="M247.282,354.647c-7.2,6.56-8.082,17.321-8.082,17.321s10.783.107,17.985-6.452,10.826-14.32,8.082-17.321S254.463,348.066,247.282,354.647Z" transform="translate(-117.144 -181.736)" fill="#6111de"/>
          <path id="Path_635" data-name="Path 635" d="M191.94,277.22s47.8,25.9,79.7,98.223,25.81,140.71,25.81,140.71" transform="translate(-171.193 -261.547)" fill="none" stroke="#6111de" stroke-miterlimit="10" stroke-width="1.283"/>
        </g>
        <g id="Group_248" data-name="Group 248" transform="translate(424.072 374.831)">
          <path id="Path_636" data-name="Path 636" d="M393.893,316.917c-6.2,3.151-8.853,10.354-8.853,10.354s7.4,2.122,13.591-1.008c6.2-3.151,10.161-7.781,8.853-10.354C406.177,313.315,400.089,313.765,393.893,316.917Z" transform="translate(-291.394 -314.224)" fill="#a87aef"/>
          <path id="Path_637" data-name="Path 637" d="M386.466,322.783c-5.059,1.372-8.146,6.3-8.146,6.3s5.145,2.7,10.2,1.329,8.7-4.2,8.146-6.3C396.091,322.012,391.525,321.411,386.466,322.783Z" transform="translate(-299.079 -305.278)" fill="#a87aef"/>
          <path id="Path_638" data-name="Path 638" d="M380.941,322.746c-2.572,4.566-1.222,10.225-1.222,10.225s5.531-1.758,8.125-6.345c2.572-4.566,3.13-9.153,1.222-10.225S383.513,318.18,380.941,322.746Z" transform="translate(-297.884 -311.993)" fill="#a87aef"/>
          <path id="Path_639" data-name="Path 639" d="M383.538,327.046c-6.3.686-10.868,6-10.868,6s5.616,4.18,11.919,3.494,11.168-3.387,10.868-6C395.179,327.925,389.841,326.36,383.538,327.046Z" transform="translate(-305.541 -299.744)" fill="#a87aef"/>
          <path id="Path_640" data-name="Path 640" d="M373.682,328.11c-2.487,5.831-.086,12.433-.086,12.433s6.409-2.851,8.9-8.682,2.529-11.383.086-12.433C380.134,318.4,376.168,322.279,373.682,328.11Z" transform="translate(-305.674 -308.461)" fill="#a87aef"/>
          <path id="Path_641" data-name="Path 641" d="M380.692,332.6c-6.281-.772-11.962,3.344-11.962,3.344s4.5,5.359,10.8,6.152c6.281.772,11.64-.729,11.962-3.344C391.817,336.117,386.973,333.373,380.692,332.6Z" transform="translate(-310.047 -293.316)" fill="#a87aef"/>
          <path id="Path_642" data-name="Path 642" d="M376.815,338.742c-6.667-1.115-12.9,3.023-12.9,3.023s4.566,5.938,11.233,7.053,12.455-.236,12.9-3.023C388.519,343.008,383.482,339.835,376.815,338.742Z" transform="translate(-315.559 -286.402)" fill="#a87aef"/>
          <path id="Path_643" data-name="Path 643" d="M372.9,345.041c-6.517-1.779-13.162,1.693-13.162,1.693s3.944,6.367,10.461,8.146,12.412,1.029,13.141-1.694C384.092,350.464,379.419,346.82,372.9,345.041Z" transform="translate(-320.328 -279.56)" fill="#a87aef"/>
          <path id="Path_644" data-name="Path 644" d="M368.051,351.788c-6.731-.686-12.691,3.816-12.691,3.816s4.93,5.638,11.662,6.324,12.412-1.029,12.69-3.816C379.991,355.3,374.782,352.474,368.051,351.788Z" transform="translate(-325.338 -271.344)" fill="#a87aef"/>
          <path id="Path_645" data-name="Path 645" d="M375.09,333.332c1.779,6.067-1.351,12.348-1.351,12.348s-6.024-3.58-7.824-9.646c-1.779-6.067-1.179-11.6,1.351-12.348S373.311,327.244,375.09,333.332Z" transform="translate(-314.435 -303.5)" fill="#a87aef"/>
          <path id="Path_646" data-name="Path 646" d="M369.748,338.605c3.13,5.981,1.158,13.2,1.158,13.2s-7.053-2.487-10.2-8.467c-3.13-5.981-3.666-11.9-1.158-13.205S366.619,332.624,369.748,338.605Z" transform="translate(-322.362 -296.319)" fill="#a87aef"/>
          <path id="Path_647" data-name="Path 647" d="M365.418,343.872c3.73,5.638,2.508,13.012,2.508,13.012s-7.267-1.758-11-7.4-4.845-11.469-2.508-13.012C356.758,334.912,361.689,338.234,365.418,343.872Z" transform="translate(-327.808 -289.217)" fill="#a87aef"/>
          <path id="Path_648" data-name="Path 648" d="M361.517,352.442c2.744,6.174.322,13.248.322,13.248s-6.881-2.937-9.647-9.111c-2.744-6.174-2.894-12.112-.322-13.248S358.751,346.268,361.517,352.442Z" transform="translate(-331.43 -281.152)" fill="#a87aef"/>
          <path id="Path_649" data-name="Path 649" d="M363.39,359.256c-6.731.707-11.64,6.367-11.64,6.367s5.981,4.5,12.712,3.794,11.94-3.558,11.64-6.367S370.121,358.548,363.39,359.256Z" transform="translate(-329.466 -262.906)" fill="#a87aef"/>
          <path id="Path_650" data-name="Path 650" d="M357.162,360.126c3.966,5.466,3.044,12.9,3.044,12.9s-7.353-1.436-11.319-6.924c-3.966-5.466-5.338-11.254-3.044-12.9C348.137,351.573,353.2,354.66,357.162,360.126Z" transform="translate(-337.493 -270.143)" fill="#a87aef"/>
          <path id="Path_651" data-name="Path 651" d="M360.071,367.675c-6.645,1.286-11.061,7.331-11.061,7.331s6.345,3.966,12.991,2.68,11.576-4.566,11.061-7.331C372.526,367.59,366.717,366.389,360.071,367.675Z" transform="translate(-332.6 -253.684)" fill="#a87aef"/>
          <path id="Path_652" data-name="Path 652" d="M354.1,368.484c4.416,5.123,4.137,12.6,4.137,12.6s-7.439-.815-11.854-5.938-6.281-10.761-4.137-12.6C344.367,360.724,349.683,363.382,354.1,368.484Z" transform="translate(-341.355 -259.616)" fill="#a87aef"/>
          <path id="Path_653" data-name="Path 653" d="M437.781,318.69s-35.07,13.891-63,61.094S345.41,474.6,345.41,474.6" transform="translate(-336.717 -309.116)" fill="none" stroke="#a87aef" stroke-miterlimit="10" stroke-width="0.89"/>
        </g>
        <g id="Group_249" data-name="Group 249" transform="translate(409.512 279.927)">
          <path id="Path_654" data-name="Path 654" d="M346.283,492.31s-35.928-110.249,18.028-200.025c24.481-40.708,114.986-26.41,55.778,48.211C395.63,371.343,354.15,404.956,346.283,492.31Z" transform="translate(-334.563 -269.952)" fill="#6111de"/>
          <path id="Path_655" data-name="Path 655" d="M392.52,286.26s-85.554,104.568-40.237,228.622" transform="translate(-329.438 -251.301)" fill="none" stroke="#6111de" stroke-miterlimit="10" stroke-width="1.711"/>
        </g>
        <g id="Group_250" data-name="Group 250" transform="translate(432.229 446.507)">
          <path id="Path_656" data-name="Path 656" d="M348.49,422.774s16.613-53.27,62.788-73.442c20.944-9.153,52.477,21.672,8.446,34.449C401.546,389.076,375.908,390.7,348.49,422.774Z" transform="translate(-341.352 -347.66)" fill="#6111de"/>
          <path id="Path_657" data-name="Path 657" d="M424.647,355.08s-62.7,17.192-79.487,78.48" transform="translate(-345.16 -339.174)" fill="none" stroke="#6111de" stroke-miterlimit="10" stroke-width="0.823"/>
        </g>
        <g id="Group_252" data-name="Group 252" transform="translate(167.162 70.936)">
          <path id="Path_658" data-name="Path 658" d="M330.458,217.842l-.236-12.69a7.41,7.41,0,0,0-2.465-5.338c-2.465-2.208-5.509-6.152-4.8-7.074,1.308-1.715,5.616,4.545,7.353,3.258.514-.386-2.444-17.471-.686-17.364,1.372.086,1.908,9.711,2.508,9.646s.45-15.927,1.715-15.82c1.222.129,1.651,14.555,2.487,14.041,1.222-.772-.043-12.69,1.994-13.269,1.351-.386,1.158,15.177,1.908,15.434.943.343,1.351-10.054,2.529-9.647,1.629.579-.815,18.264-.815,18.264l-3.087,22.466Z" transform="translate(-105.607 -172.46)" fill="#ffb49b"/>
          <path id="Path_659" data-name="Path 659" d="M260.042,236.4l-8.553-9.389a7.485,7.485,0,0,1-1.886-5.574c.257-3.3-.236-8.253-1.393-8.446-2.122-.343-.965,7.16-3.087,7.417-.643.086-10.247-14.363-11.447-13.076-.943,1.008,5.295,8.36,4.8,8.725s-11.276-11.254-12.112-10.311c-.793.922,8.81,11.7,7.846,11.9-1.415.279-8.7-9.239-10.568-8.253-1.243.665,9.6,11.812,9.218,12.519-.45.9-7.91-6.367-8.467-5.273-.793,1.522,13.162,12.691,13.162,12.691l17.685,14.191Z" transform="translate(-219.182 -134.45)" fill="#ffb49b"/>
          <g id="Group_251" data-name="Group 251" transform="translate(0 39.046)">
            <path id="Path_660" data-name="Path 660" d="M348.611,220.933a38.116,38.116,0,0,0-37.021-29.175,35.768,35.768,0,0,0-4.566.279,82.744,82.744,0,0,1-21.222.193c-3.108-.429-6.6-.879-10.182-1.351-17.085-2.229-30.8,14.127-25.4,30.5.064.193.129.407.193.6a89.187,89.187,0,0,1,4.609,27.675c0,.793.043,1.586.107,2.379a38.345,38.345,0,0,0,33.013,34.92,39.219,39.219,0,0,0,6.688.3,69.357,69.357,0,0,1,29.818,4.866c4.052,1.693,8.232,2.958,11.576,2.958a38.1,38.1,0,0,0,12.39-74.149Z" transform="translate(-190.041 -190.674)" fill="#41378c"/>
            <path id="Path_661" data-name="Path 661" d="M378.84,215.616s-5.917,59.015-14.941,76.207c-7.117,13.591-42.852,43.9-42.852,43.9a12.151,12.151,0,0,1-17.964-.643h0a12.16,12.16,0,0,1-1.2-14s32.562-35.135,37.407-49.969c4.587-14.062-.729-59.165-.729-59.165A20.31,20.31,0,0,1,363.3,191.864h0A20.338,20.338,0,0,1,378.84,215.616Z" transform="translate(-131.501 -189.88)" fill="#fff"/>
            <path id="Path_662" data-name="Path 662" d="M323,357.412c-6.645-2.208-7.889,2.444-10.118,10.718s-2.637,14.513-.493,15.091c1.994.536,4.823-2.379,9.582-9.5C327.677,365.194,327.313,358.87,323,357.412Z" transform="translate(-119.181 -0.608)" fill="#41378c"/>
            <path id="Path_663" data-name="Path 663" d="M323.252,353.25l-6.452,8.939c-2.058,2.808-1.972,4.823-.707,6.088h0a3.394,3.394,0,0,0,4.673.086l10.7-8.961Z" transform="translate(-114.37 -4.742)" fill="#ffb49b"/>
            <path id="Path_664" data-name="Path 664" d="M319.656,281.993c-32.455,12.776-23.473,56.743-8.189,65.811,22.723,13.484,68.083,7.824,68.1,11.34.15,14.813-39.4,76.979-39.4,76.979a1.651,1.651,0,0,0,.171,1.844,31.737,31.737,0,0,0,8,6.988,1.376,1.376,0,0,0,1.586-.343c22.166-20.644,67.14-71.6,72.435-93.571C431.213,314.384,325.723,279.592,319.656,281.993Z" transform="translate(-134.419 -86.371)" fill="#7d50c7"/>
            <path id="Path_665" data-name="Path 665" d="M247.857,348.409c-2.851-6.388-7.117-4.18-14.727-.236-7.61,3.923-12.5,7.846-11.49,9.818.943,1.822,5.016,1.951,13.484.664C245.285,357.112,249.7,352.567,247.857,348.409Z" transform="translate(-221.509 -14.885)" fill="#41378c"/>
            <path id="Path_666" data-name="Path 666" d="M246.759,345.4,235.8,346.665c-3.451.364-4.909,1.8-4.973,3.58h0a3.411,3.411,0,0,0,3.087,3.516l13.848,1.865Z" transform="translate(-210.85 -13.72)" fill="#ffb49b"/>
            <path id="Path_667" data-name="Path 667" d="M392.13,286.188c-6.645-6.86-38.179-1.415-38.179-1.415-32.648,12.24-31.019,40.708-27.4,58.115,5.381,25.874-2.894,47.482-5.466,49.883-10.826,10.1-83.389,22.852-83.389,22.852a1.618,1.618,0,0,0-1.243,1.372,32.017,32.017,0,0,0,.236,10.611,1.361,1.361,0,0,0,1.329.922c30.183,2.444,90.956,7.739,110.313-3.88C392.666,398,417.383,312.255,392.13,286.188Z" transform="translate(-204.793 -85.401)" fill="#7d50c7"/>
            <path id="Path_668" data-name="Path 668" d="M338.8,347.485a26,26,0,0,0,21.651-18.243c4.437-14.748,10.5-38.8,7.739-52.563-2.572-12.862-12.519-36.7-37.471-36.7-16.635,0-50.2,4.93-48.018,30.461,1.372,15.906,4.094,45.853,16.592,65.9a18.866,18.866,0,0,0,10.118,7.974C315.953,346.435,326.907,348.985,338.8,347.485Z" transform="translate(-151.638 -134.285)" fill="#fff"/>
            <path id="Path_669" data-name="Path 669" d="M308.335,266.454h0a8.719,8.719,0,0,1-8.725-8.725V228.94h17.449v28.789A8.719,8.719,0,0,1,308.335,266.454Z" transform="translate(-132.187 -146.912)" fill="#ffa587"/>
            <path id="Path_670" data-name="Path 670" d="M315.323,251.353h0a11.374,11.374,0,0,0,1.736-.15V228.93H299.61v3.258C299.61,240.87,306.641,251.353,315.323,251.353Z" transform="translate(-132.187 -146.923)" fill="#f5876e"/>
            <path id="Path_671" data-name="Path 671" d="M323.929,256.962h0c-7.138,2.722-20-2.229-22.744-9.368,0,0-5.959-10.8-5.638-14.727,1.479-18.157,18.779-14.641,25.1-11.812,3.6,1.608,5.359,12.862,6.367,16.656C328.988,245.086,327.037,255.783,323.929,256.962Z" transform="translate(-136.849 -158.556)" fill="#ffb49b"/>
            <path id="Path_672" data-name="Path 672" d="M294.7,234.313a6.147,6.147,0,0,0,7.91,3.6L298.2,226.36A6.135,6.135,0,0,0,294.7,234.313Z" transform="translate(-138.276 -149.862)" fill="#ffa587"/>
            <path id="Path_673" data-name="Path 673" d="M319.32,219.83l-21.78,8.339,1.822,4.78A4.527,4.527,0,0,0,297,238.716a4.616,4.616,0,0,0,.965,1.522,6.65,6.65,0,0,0,1.2-1.372,6.207,6.207,0,0,1,2.937-2.294,11.912,11.912,0,0,0,6-5.145,13.166,13.166,0,0,1,8.532-6.367,14.457,14.457,0,0,0,2.272-.665,15.811,15.811,0,0,0,1.822-.857Z" transform="translate(-135.519 -157.33)" fill="#ffa587"/>
            <path id="Path_674" data-name="Path 674" d="M313.984,206.917a17.024,17.024,0,0,0-9.582,10.2,21.7,21.7,0,0,1-9.325,10.976c-.043.021-.107.064-.15.086a13.825,13.825,0,0,0-6.088,14.02,15.2,15.2,0,0,0,.536,2.058,15.119,15.119,0,0,1,.879,6.817,6.754,6.754,0,0,0,.386,3.237,7.427,7.427,0,0,0,9.711,3.966,7.967,7.967,0,0,0,3.816-3.044,6.92,6.92,0,0,1,3.366-2.615,13.609,13.609,0,0,0,6.838-5.852A15.066,15.066,0,0,1,324.1,239.5a16.309,16.309,0,0,0,2.594-.772,17.116,17.116,0,0,0,9.689-22.573C332.892,207.775,322.345,203.423,313.984,206.917Z" transform="translate(-144.761 -173.486)" fill="#41378c"/>
            <path id="Path_675" data-name="Path 675" d="M238.658,246.628s38.865,36.1,56.486,43.624c12.733,5.445,62.231,10.675,62.231,10.675a11.4,11.4,0,0,0,13.912-8.961h0a10.62,10.62,0,0,0-5.381-11.361s-43.945-7.1-56.121-14.084c-12.326-7.074-40.944-41.673-40.944-41.673-11.1-10.675-19.807-12.069-28.639-3.837h0C232.763,227.893,229.762,241.1,238.658,246.628Z" transform="translate(-208.151 -162.049)" fill="#fff"/>
          </g>
        </g>
      </g>
    </g>
  </g>
</svg>
