<svg xmlns="http://www.w3.org/2000/svg" xmlns:xlink="http://www.w3.org/1999/xlink" width="42.691" height="42.691" viewBox="0 0 42.691 42.691">
  <defs>
    <linearGradient id="linear-gradient" x1="0.854" y1="0.146" x2="0.147" y2="0.854" gradientUnits="objectBoundingBox">
      <stop offset="0" stop-color="#0cf"/>
      <stop offset="1" stop-color="#0080ff"/>
    </linearGradient>
  </defs>
  <g id="Group_216" data-name="Group 216" transform="translate(-264.062 -5697.309)">
    <circle id="Ellipse_68" data-name="Ellipse 68" cx="21.346" cy="21.346" r="21.346" transform="translate(264.062 5697.309)" fill="url(#linear-gradient)"/>
    <path id="Path_596" data-name="Path 596" d="M162.052,121.531a9.839,9.839,0,0,1-2.351.667c.372-.066.929-.744,1.148-1.028a4.123,4.123,0,0,0,.787-1.422v-.12a.12.12,0,0,0-.12,0,12.118,12.118,0,0,1-2.788,1.094.208.208,0,0,1-.2,0,1.326,1.326,0,0,0-.241-.252,5.087,5.087,0,0,0-1.356-.831,4.647,4.647,0,0,0-2.078-.328,5.008,5.008,0,0,0-1.968.547,5.346,5.346,0,0,0-1.586,1.3,4.779,4.779,0,0,0-.94,1.9,5.14,5.14,0,0,0-.055,2c0,.109,0,.131-.1.109a14.872,14.872,0,0,1-9.59-4.877c-.109-.131-.175-.131-.262,0a4.844,4.844,0,0,0,.82,5.741c.2.186.383.361.59.525a4.964,4.964,0,0,1-1.848-.525c-.109-.066-.164,0-.175.1a2.331,2.331,0,0,0,0,.547,4.91,4.91,0,0,0,3.029,3.926,3.04,3.04,0,0,0,.612.186,5.216,5.216,0,0,1-1.815.055c-.131,0-.186,0-.131.175a5.118,5.118,0,0,0,3.816,3.193l.514.066h0a5.927,5.927,0,0,1-2.6,1.378,9.2,9.2,0,0,1-3.959.514H138.9c-.055,0,0,.087.055.142.273.175.547.328.831.481a12.785,12.785,0,0,0,2.635,1.094A14.1,14.1,0,0,0,156.1,134.7c2.8-2.788,3.784-6.627,3.784-10.476,0-.153.186-.23.284-.306a9.437,9.437,0,0,0,1.859-1.936.58.58,0,0,0,.131-.372h0C162.15,121.465,162.15,121.487,162.052,121.531Z" transform="translate(135.155 5589.84)" fill="#fff"/>
  </g>
</svg>
