<svg xmlns="http://www.w3.org/2000/svg" width="38" height="38" viewBox="0 0 38 38">
  <g id="Group_149" data-name="Group 149" transform="translate(70.635 1113.635) rotate(180)">
    <circle id="Ellipse_43" data-name="Ellipse 43" cx="19" cy="19" r="19" transform="translate(32.635 1075.635)" fill="#0e2de2"/>
    <path id="Icon_awesome-arrow-left" data-name="Icon awesome-arrow-left" d="M12.976,23.181,11.857,24.3a1.2,1.2,0,0,1-1.708,0l-9.8-9.792a1.2,1.2,0,0,1,0-1.708l9.8-9.8a1.2,1.2,0,0,1,1.708,0l1.119,1.119a1.211,1.211,0,0,1-.02,1.729L6.883,11.635H21.367a1.207,1.207,0,0,1,1.21,1.21v1.613a1.207,1.207,0,0,1-1.21,1.21H6.883l6.073,5.786A1.2,1.2,0,0,1,12.976,23.181Z" transform="translate(40.171 1081.237)" fill="#fff"/>
  </g>
</svg>
