<svg id="Layer_1" data-name="Layer 1" xmlns="http://www.w3.org/2000/svg" viewBox="0 0 256 137.69"><defs><style>.cls-1{fill:#fff;}</style></defs><title>hunt4 tech- finalized</title><path class="cls-1" d="M43.38,119.12H36.79V107.64H27v11.48H20.4V91.63H27v10.92h9.76V91.63h6.59Z"/><path class="cls-1" d="M69.14,91.63v18a10.3,10.3,0,0,1-1.31,5.29,8.4,8.4,0,0,1-3.73,3.41,13.22,13.22,0,0,1-5.76,1.17,11.44,11.44,0,0,1-7.92-2.6,9.33,9.33,0,0,1-2.94-7.14V91.63h6.66v18.26q.12,4.52,4.2,4.51a4,4,0,0,0,3.11-1.13,5.25,5.25,0,0,0,1.06-3.68v-18Z"/><path class="cls-1" d="M96.23,119.12H89.64L79.9,102v17.1H73.27V91.63H79.9l9.73,17.11V91.63h6.6Z"/><path class="cls-1" d="M121.46,96.75h-8.25v22.37h-6.63V96.75h-8.1V91.63h23Z"/><path class="cls-1" d="M140.67,108.38h2.79v4.91h-2.79v5.83H134.3v-5.83H123.67l-.38-3.89,11-17.71v-.06h6.37Zm-11.31,0h4.94V99.92l-.39.64Z"/><path class="cls-1" d="M168.24,96.75H160v22.37h-6.62V96.75h-8.1V91.63h23Z"/><path class="cls-1" d="M188.08,107.45H177.66V114H190v5.09H171V91.63h19v5.12H177.66v5.8h10.42Z"/><path class="cls-1" d="M214.91,109.81a10,10,0,0,1-1.54,5.08,9.36,9.36,0,0,1-4,3.4,13.43,13.43,0,0,1-5.84,1.21A10.78,10.78,0,0,1,195,116q-3.1-3.52-3.11-10v-1.36a16.61,16.61,0,0,1,1.4-7.07,10.67,10.67,0,0,1,4-4.68,11.27,11.27,0,0,1,6.12-1.66,11.85,11.85,0,0,1,8.05,2.64,10.38,10.38,0,0,1,3.45,7.26h-6.61a4.93,4.93,0,0,0-1.26-3.61,5.22,5.22,0,0,0-3.63-1.09,3.93,3.93,0,0,0-3.62,1.85q-1.15,1.84-1.21,5.91v1.94c0,2.94.37,5,1.1,6.29a4.05,4.05,0,0,0,3.81,1.89,5.06,5.06,0,0,0,3.49-1.08,4.53,4.53,0,0,0,1.28-3.42Z"/><path class="cls-1" d="M241,119.12h-6.59V107.64h-9.76v11.48h-6.63V91.63h6.63v10.92h9.76V91.63H241Z"/><polygon class="cls-1" points="129.28 43.21 129.28 77.12 114.32 77.12 114.32 69.56 90.08 69.56 90.08 22.74 105.05 22.74 105.05 54.58 114.32 54.58 114.32 43.21 129.28 43.21"/><polygon class="cls-1" points="171.35 12 171.35 26.97 153.53 26.97 153.53 77.12 138.57 77.12 138.57 26.97 129.28 26.97 129.28 33.97 114.32 33.97 114.32 12 171.35 12"/></svg>