<svg xmlns="http://www.w3.org/2000/svg" xmlns:xlink="http://www.w3.org/1999/xlink" width="42.691" height="42.691" viewBox="0 0 42.691 42.691">
  <defs>
    <linearGradient id="linear-gradient" x1="0.853" y1="0.146" x2="0.146" y2="0.854" gradientUnits="objectBoundingBox">
      <stop offset="0" stop-color="#007bb8"/>
      <stop offset="1" stop-color="#0044e9"/>
    </linearGradient>
  </defs>
  <g id="Group_217" data-name="Group 217" transform="translate(-328.306 -5697.309)">
    <circle id="Ellipse_69" data-name="Ellipse 69" cx="21.346" cy="21.346" r="21.346" transform="translate(328.306 5697.309)" fill="url(#linear-gradient)"/>
    <path id="Path_602" data-name="Path 602" d="M199.868,125.5H204v13.286h-4.134Zm2.067-6.561a2.395,2.395,0,1,1-2.395,2.395,2.395,2.395,0,0,1,2.395-2.395" transform="translate(140.828 5589.807)" fill="#fff"/>
    <path id="Path_603" data-name="Path 603" d="M206,122.112h3.959v1.815h0a4.374,4.374,0,0,1,3.915-2.187c4.177,0,4.954,2.745,4.954,6.321v7.283h-4.079v-6.452c0-1.542,0-3.521-2.187-3.521s-2.482,1.673-2.482,3.412v6.561H206Z" transform="translate(141.432 5593.251)" fill="#fff"/>
  </g>
</svg>
