<?xml version="1.0" encoding="utf-8"?>
<!-- Generator: Adobe Illustrator 24.0.1, SVG Export Plug-In . SVG Version: 6.00 Build 0)  -->
<svg version="1.1" id="Layer_1" xmlns="http://www.w3.org/2000/svg" xmlns:xlink="http://www.w3.org/1999/xlink" x="0px" y="0px"
	 viewBox="0 0 259.7 46.1" style="enable-background:new 0 0 259.7 46.1;" xml:space="preserve">
<style type="text/css">
	.st0{fill:#FFFFFF;}
	.st1{fill:#582D84;}
	.st2{fill:#800080;}
	.st3{fill:url(#SVGID_1_);}
	.st4{fill:url(#SVGID_2_);}
</style>
<g>
	<g>
		<path class="st1" d="M86.4,37.4h-5.7v-12h-8.4v12h-5.7V8.7h5.7v11.4h8.4V8.7h5.7V37.4z"/>
		<path class="st1" d="M108.7,8.7v18.8c0,2.1-0.4,4-1.1,5.5c-0.8,1.6-1.8,2.7-3.2,3.6c-1.4,0.8-3.1,1.2-5,1.2
			c-2.9,0-5.2-0.9-6.8-2.7c-1.7-1.8-2.5-4.3-2.5-7.4V8.7h5.8v19.1c0.1,3.1,1.3,4.7,3.6,4.7c1.2,0,2.1-0.4,2.7-1.2
			c0.6-0.8,0.9-2.1,0.9-3.8V8.7H108.7z"/>
		<path class="st1" d="M132.2,37.4h-5.7L118,19.6v17.9h-5.7V8.7h5.7l8.4,17.9V8.7h5.7V37.4z"/>
		<path class="st1" d="M154,14.1h-7.1v23.4h-5.7V14.1h-7V8.7H154V14.1z"/>
		<path class="st2" d="M170.6,26.2h2.4v5.1h-2.4v6.1h-5.5v-6.1h-9.2l-0.3-4.1l9.5-18.5V8.7h5.5V26.2z M160.8,26.2h4.3v-8.8l-0.3,0.7
			L160.8,26.2z"/>
		<path class="st1" d="M194.5,14.1h-7.1v23.4h-5.7V14.1h-7V8.7h19.9V14.1z"/>
		<path class="st1" d="M211.6,25.2h-9v6.9h10.7v5.3h-16.4V8.7h16.4v5.3h-10.7v6h9V25.2z"/>
		<path class="st1" d="M234.9,27.7c-0.1,2-0.5,3.8-1.3,5.3c-0.8,1.5-2,2.7-3.4,3.6s-3.2,1.3-5.1,1.3c-3.1,0-5.6-1.2-7.4-3.7
			c-1.8-2.5-2.7-5.9-2.7-10.4v-1.4c0-2.8,0.4-5.3,1.2-7.4c0.8-2.1,2-3.7,3.5-4.9s3.3-1.7,5.3-1.7c2.9,0,5.2,0.9,7,2.7
			c1.8,1.8,2.8,4.4,3,7.6h-5.7c0-1.7-0.4-3-1.1-3.8c-0.7-0.8-1.7-1.1-3.1-1.1c-1.4,0-2.5,0.6-3.1,1.9c-0.7,1.3-1,3.3-1,6.2v2
			c0,3.1,0.3,5.2,1,6.6c0.6,1.3,1.7,2,3.3,2c1.3,0,2.3-0.4,3-1.1c0.7-0.7,1.1-1.9,1.1-3.6H234.9z"/>
		<path class="st1" d="M257.5,37.4h-5.7v-12h-8.4v12h-5.7V8.7h5.7v11.4h8.4V8.7h5.7V37.4z"/>
	</g>
	<g>
		<linearGradient id="SVGID_1_" gradientUnits="userSpaceOnUse" x1="7.2468" y1="26.5297" x2="32.4211" y2="26.5297">
			<stop  offset="0" style="stop-color:#800080"/>
			<stop  offset="1" style="stop-color:#582D84"/>
		</linearGradient>
		<polygon class="st3" points="32.4,22.2 32.4,44 22.8,44 22.8,39.1 7.2,39.1 7.2,9.1 16.9,9.1 16.9,29.5 22.8,29.5 22.8,22.2 		"/>
		<linearGradient id="SVGID_2_" gradientUnits="userSpaceOnUse" x1="22.8103" y1="23.0809" x2="59.4322" y2="23.0809">
			<stop  offset="0" style="stop-color:#800080"/>
			<stop  offset="1" style="stop-color:#582D84"/>
		</linearGradient>
		<polygon class="st4" points="59.4,2.2 59.4,11.8 48,11.8 48,44 38.4,44 38.4,11.8 32.4,11.8 32.4,16.3 22.8,16.3 22.8,2.2 		"/>
	</g>
</g>
</svg>
