<svg id="Layer_1" data-name="Layer 1" xmlns="http://www.w3.org/2000/svg" viewBox="0 0 506 506"><defs><style>.cls-1{fill:#a0616a;}.cls-2{fill:#2f2e41;}.cls-3{fill:#f2f2f2;}.cls-4{fill:purple;}.cls-5{fill:#3f3d56;}</style></defs><title>IT SERVICES-06</title><polygon class="cls-1" points="177.64 470.94 185.41 473.26 198.03 444.4 186.56 440.98 177.64 470.94"/><path class="cls-2" d="M187.28,469h0l-8.45-2h0l-2-.46-6.73,17.2-.36.92,5.52,1.65.45-.89,2.08-4,.79,4.89.17,1.06,14.63,4.36a3.3,3.3,0,0,0,2.52-.24,3.41,3.41,0,0,0,1.74-2.07c1.47-2.7-8.83-12.56-9.89-14.67l1.57-5.26L187.3,469Z"/><path class="cls-2" d="M227.4,376.68l-.91,2.34-2.63,6.77L195.63,457.9,175.79,453c3.74-27.24,6.37-44.12,15.8-58.62a72.56,72.56,0,0,1,9.58-11.68s-15.07-.05-32.76-.41c-1.55,0-3.13-.06-4.72-.11-14.65-.34-30.31-.9-40.37-1.84a17,17,0,0,1-13.11-7.6c-7.93-11.71-4.15-33.08.75-37.15l33.12-13.18,13.35,24,1.4,2.51,49.75,3.48A17.33,17.33,0,0,1,224,364.93l3.39,11.75Z"/><path class="cls-3" d="M95.39,23.27,93,420.8l340.85-59.1V23.27Zm56.14,336.81H97V305.56h54.52Zm0-56.14H97V249.43h54.52Zm0-56.13H97V193.29h54.52Zm0-56.14H97V137.16h54.52Zm0-56.13H97V81h54.52Zm0-56.14H97a54.5,54.5,0,0,1,54.51-54.51h0Zm56.13,280.68H153.15V305.56h54.51Zm0-56.14H153.15V249.43h54.51Zm0-56.13H153.15V193.29h54.51Zm0-56.14H153.15V137.16h54.51Zm0-56.13H153.15A54.52,54.52,0,0,1,207.65,81h0v54.54Zm0-56.14H153.15V24.89h54.51ZM263.8,360.08H209.28V305.56H263.8Zm0-56.14H209.28V249.43H263.8Zm0-56.13H209.28V193.29H263.8Zm0-56.14H209.28V137.16H263.8Zm0-56.13H209.28V81H263.8Zm0-56.14H209.28V24.89H263.8Zm56.14,280.68H265.42V305.56h54.52Zm0-56.14H265.42V249.43h54.52Zm0-56.13H265.42V193.29h54.52Zm0-56.14H265.42V137.16h54.52Zm0-56.13H265.42V81h54.52Zm0-56.14H265.42V24.89h54.52Zm56.13,280.68h0a54.52,54.52,0,0,1-54.52-54.52h54.52Zm0-56.14H321.55V249.43h54.52Zm0-56.13H321.55V193.29h54.52Zm0-56.14H321.55V137.16h54.52Zm0-56.13H321.55V81h54.52Zm0-56.14H321.55V24.89h54.52Zm1.62,280.68h0V305.56h54.52A54.52,54.52,0,0,1,377.69,360.08Zm54.52-56.14H377.69V249.43h54.52Zm0-56.13H377.69V193.29h54.52Zm0-56.14H377.69V137.16h54.52Zm0-56.13H377.69A54.52,54.52,0,0,1,432.19,81h0Zm0-56.14H377.69V24.89h54.52Z"/><path class="cls-1" d="M189.64,193.91,183,212.43l-11.11-2.32,7.73-19.34a7.2,7.2,0,0,1-.38-1.9,6.59,6.59,0,1,1,10.42,5Z"/><path class="cls-4" d="M190.74,198.93l-15.06,40.52-2.18,5.84a11.89,11.89,0,0,1-12.95,7.59l-35-5.47-2.59-16,37.74,3.32,6.3-16.59,8.37-22,1.91.35,10.7,1.93,2.73.49Z"/><polygon class="cls-1" points="125.27 468.83 131.78 473.66 153.48 450.83 143.87 443.71 125.27 468.83"/><path class="cls-2" d="M133.51,475.85l3.27-4.42L135,470.27l-7.27-4.75L126,464.43,113.85,478.3l-.66.75,4.63,3.42.73-.68,3.32-3.08-.91,4.87-.21,1.06L133,493.72a3.44,3.44,0,0,0,4.79-.72c2.31-2-4-14.81-4.3-17.15Z"/><path class="cls-5" d="M265.42,305A111.73,111.73,0,1,1,377.15,193.27v0A111.86,111.86,0,0,1,265.42,305Zm0-221.84c-60.72,0-81,47-81,107.68s20.24,112.54,81,112.54a110.11,110.11,0,0,0,0-220.22Z"/><path class="cls-4" d="M318.35,188.78l-49.51-49.52a6.06,6.06,0,0,0-.47-.54,5.37,5.37,0,0,0-7.52,0,6.06,6.06,0,0,0-.47.54l-49.51,49.52a5.26,5.26,0,0,0,7.44,7.44l41-41v87.09a5.26,5.26,0,0,0,10.52,0V155.18l41,41a5.26,5.26,0,0,0,7.44-7.44Z"/><polygon class="cls-1" points="136.69 300.16 144.67 326.19 108.35 330.12 121.3 296.93 136.69 300.16"/><path class="cls-2" d="M204.7,400.56l-1.65,1.89-4.77,5.47-51.07,58.22-17-11.33c12.78-24.36,21-39.33,34.79-49.76a71.68,71.68,0,0,1,13-7.73s-14.15-5.16-30.67-11.52l-4.41-1.71c-13.65-5.3-28.19-11.16-37.33-15.45A17,17,0,0,1,95.82,357c-3.47-13.7,7.35-32.52,13.34-34.68l35.62-1.13,4.4,27.13.46,2.83s13.05,6.31,26.75,12.62l6.16,2.8c3.24,1.46,6.4,2.87,9.33,4.14l.2.09a21.86,21.86,0,0,1,13.17,21.49l-.55,8.25Z"/><path class="cls-4" d="M145.58,280c-.87,6.19-1.07,12,0,15.29.29.86,4.61,7.19,4.86,8.09,2.23,8.09-7.29,9.72-7.29,9.72l-36.51,12.12a2.26,2.26,0,0,1-2.52-3.5,26.57,26.57,0,0,0,5.53-17.12c-.3-11.71-5.49-30.33-8.35-39.8a16.8,16.8,0,0,1,.8-11.8l4.08-8.94,5.93-13L114,221.6l17,.81,2.1,7.7,15.82,24.15a8.25,8.25,0,0,1,1.24,3.2,8.34,8.34,0,0,1-.36,4.26A100.61,100.61,0,0,0,145.58,280Z"/><path class="cls-1" d="M244.76,250.25l-19.38,3.47-3.52-10.79,20.61-3a6.86,6.86,0,0,1,1.47-1.27,6.58,6.58,0,1,1,.82,11.54Z"/><path class="cls-4" d="M115,250.11l2.45,2.64a34.58,34.58,0,0,0,22.85,10.92L172.86,266l60.52-11.38-3.69-14.46L172.48,250l-57.5.14Z"/><path class="cls-2" d="M73.26,208.51c-.17,7.55,2.65,14.85,6.7,21.27a40.47,40.47,0,0,1,5.62-10.41A32.48,32.48,0,0,0,89,239.89a2.92,2.92,0,0,0,.37.24c3.3,2,7.49,2.79,11.06,1.35-7.38-7.95-8.32-21.13-2.13-30.06,1.75-2.53,4-4.77,5.1-7.65,1.72-4.6.07-9.66-1-14.46-1-4.46-1.14-9.77,1.85-13a3.14,3.14,0,0,0-2.88-1.32c-1.85.26-3.19,1.86-4.05,3.51S96,182,94.77,183.37c-2.21,2.67-6,3.3-9.14,4.71C78,191.5,73.45,200.11,73.26,208.51Z"/><path class="cls-2" d="M137.86,204.2c-.44-1.54,2.59,7.84,1.13,8-6.64.77-15.76,4.73-20.39,6.58l-.62-.07c-.5-.06-1-.14-1.46-.23-10.77-2-14.92-18.59-14.92-18.74,0-.74,1.79-21.18,4.6-21.48a20.83,20.83,0,0,1,2.23-.12h7a32.33,32.33,0,0,1,4.38-.64h0c14-1.07,25.13,7.5,24.1,17.92h0c-.3.45-.56.87-.79,1.27a11.37,11.37,0,0,0-.58,1.09c-1.29,2.66,2,6-.18,6.64-2.9.83,7.64,28.16-3.85,28.16,5.59,1.59.6-24.2-.61-28.43Z"/><circle class="cls-1" cx="125.32" cy="203.7" r="16.53"/><path class="cls-2" d="M143.9,196.33l-.82.41-.87.41c-5.53,2.51-10,2.79-12.77-.82a15.1,15.1,0,0,0-1.25-5.5,8.86,8.86,0,0,1-1.46,5.5h-5.51c-5.67,3.76-8.58,4.16-4.64,16.51,1.09,3.44,5.46,23.47,3.74,26.44-.5-.05-5.78-22-6.25-22.08-10.78-2-17.62-19.79-16.75-20.79a18.53,18.53,0,0,1,1.92-8.24,18.86,18.86,0,0,1,7.2-7.82,32.53,32.53,0,0,1,5.74-2.16h.14c.61-.16,1.23-.32,1.85-.44a33.79,33.79,0,0,1,3.87-.59h.27a3,3,0,0,1,1.48.4h0a2.91,2.91,0,0,1,1.42,2.48H128a16.42,16.42,0,0,1,15.84,15.45v.86Z"/><path class="cls-2" d="M118.65,180.16a10.89,10.89,0,1,1-10.89-10.89h0A10.9,10.9,0,0,1,118.65,180.16Z"/></svg>