<svg id="Layer_1" data-name="Layer 1" xmlns="http://www.w3.org/2000/svg" viewBox="0 0 506 506"><defs><style>.cls-1{fill:#f2f2f2;}.cls-2{fill:#cacaca;}.cls-3{fill:#fff;}.cls-4{fill:#a0616a;}.cls-5{fill:#2f2e41;}.cls-6{fill:#3f3d56;}.cls-7{fill:purple;}</style></defs><title>IT SERVICES-04</title><circle class="cls-1" cx="279.82" cy="202.78" r="164.25"/><path class="cls-2" d="M387.16,112H86.28a1.17,1.17,0,0,1,0-2.33H387.16a1.17,1.17,0,0,1,0,2.33Z"/><path class="cls-3" d="M201.44,151.35h83.18a11.31,11.31,0,0,1,11.31,11.31h0A11.31,11.31,0,0,1,284.62,174H201.44a11.31,11.31,0,0,1-11.31-11.31h0A11.31,11.31,0,0,1,201.44,151.35Z"/><path class="cls-3" d="M147.71,196.6H338.35a11.31,11.31,0,0,1,11.31,11.31h0a11.31,11.31,0,0,1-11.3,11.32H147.71a11.31,11.31,0,0,1-11.31-11.31h0A11.31,11.31,0,0,1,147.71,196.6Z"/><path class="cls-3" d="M147.71,241.85H338.35a11.31,11.31,0,0,1,11.31,11.31h0a11.31,11.31,0,0,1-11.31,11.31H147.71a11.31,11.31,0,0,1-11.31-11.31h0A11.31,11.31,0,0,1,147.71,241.85Z"/><path class="cls-1" d="M124.09,463.87h-.45A52.09,52.09,0,0,1,86,441.44a50.51,50.51,0,0,1-5.7-11.32l-.14-.38h.41c4.81-.39,9.76-1.21,12-1.6l-14.17-4.8-.09-.42a9.88,9.88,0,0,1,4.16-10.26,10.05,10.05,0,0,1,11.25-.19c1.54,1,3.16,2,4.72,2.91,5.36,3.24,10.91,6.6,15.06,11.19a31.45,31.45,0,0,1,7.52,26Z"/><polygon class="cls-4" points="175.6 456.82 182.58 456.82 185.91 429.88 175.6 429.88 175.6 456.82"/><path class="cls-5" d="M175.35,464.11h21.48v-.27a8.36,8.36,0,0,0-8.36-8.36h0l-3.92-3-7.32,3h-1.88Z"/><polygon class="cls-4" points="119.63 437.48 125.21 441.67 144.04 422.11 135.79 415.93 119.63 437.48"/><path class="cls-5" d="M115.06,443.16l17.18,12.89.16-.22a8.36,8.36,0,0,0-1.67-11.7h0l-1.35-4.74-7.65-2-1.5-1.13Z"/><path class="cls-5" d="M142.84,330.4s.39,10.51.87,19c.08,1.38-3.16,2.89-3.07,4.39.05,1,.66,2,.72,3s-.78,2.07-.72,3.21,1,2.38,1.07,3.52c.63,12.22,2.88,26.86.62,31-1.11,2-15.31,30-15.31,30s7.91,11.87,10.17,7.91c3-5.22,26-29.67,26-34.34s5.32-39.61,5.32-39.61L172.23,379l1.7,4.1-.54,2.41,1.1,3.24.06,3.21,1.07,6s-3.22,46.48-1.4,47.78,10.63,3.63,11.67,1.3,7.76-48.51,7.76-48.51,1.09-21.16,2.26-40.83c.07-1.15.88-2.52.94-3.65.07-1.3-.44-3-.37-4.27.07-1.45.72-2.47.78-3.86.48-10.75-2.22-23.83-3.08-25.12-2.59-3.89-4.92-7-4.92-7s-34.95-11.48-44.26.2Z"/><path class="cls-6" d="M177.69,222.25l-13.85-2.77-6.46,8.77h0c-12.07,11.86-12.25,22.33-10.09,39.1V290.9l-1.56,15.79s-5.52,11.54.17,14.22,43.07,2.46,46.63,1.39.48-2.39-.46-7.39c-1.76-9.39-.58-4.86-.46-7.85,1.74-42.88-2.31-60.48-2.72-65.11l-7-12.78-4.16-6.92Z"/><path class="cls-4" d="M250.7,256.82a5.6,5.6,0,0,1-7.57,2.34h0a4.92,4.92,0,0,1-.83-.54l-29.91,19,.08-10.34,29.06-16.87a5.63,5.63,0,0,1,9.17,6.41Z"/><path class="cls-6" d="M166.75,234.22l-3.4-.36a9,9,0,0,0-8.14,3.55,8.67,8.67,0,0,0-1.53,3.23h0a9,9,0,0,0,3.4,9.36l11.76,8.68c8.25,11.15,23.77,18.55,42,24.56l28.28-17.56-10-12.12L209.69,264l-28.84-22.33h0l-11-7.07Z"/><circle class="cls-4" cx="173.01" cy="199.29" r="16.15"/><path class="cls-5" d="M173.38,215.45H173a3.25,3.25,0,0,1-.18.43Z"/><path class="cls-5" d="M177.82,199.74a2.47,2.47,0,0,0,.11.47A2.47,2.47,0,0,0,177.82,199.74Z"/><path class="cls-5" d="M189.37,183.83c-.66,2.06-1.26-.55-3.45-.08-2.63.56-5.69.37-7.84-1.24a12.16,12.16,0,0,0-11.14-1.7c-3.69,1.3-9.86,2.22-10.82,6a10.69,10.69,0,0,1-1.28,3.84,13.82,13.82,0,0,1-2.76,2.24c-3.15,2.48-.74,9.53.75,13.25s4.92,6.44,8.68,7.83A30.67,30.67,0,0,0,173,215.46a8.73,8.73,0,0,0-.17-5.6,35.69,35.69,0,0,1-1.75-5.9c-.25-2.05.3-4.36,2-5.51a3.21,3.21,0,0,1,4.74,1.29c-.35-2.12,1.8-4.17,4-4.53,2.38-.39,4.75.47,7.13.9s1.52-9.56.41-12.28Z"/><circle class="cls-7" cx="246.77" cy="223.29" r="33.06"/><path class="cls-3" d="M255.45,209.51l-8.68,8.69-8.69-8.69A3.6,3.6,0,0,0,233,214.6l8.69,8.69L233,232a3.6,3.6,0,0,0,5.09,5.09l8.69-8.68,8.68,8.68a3.6,3.6,0,0,0,5.09-5.09l-8.68-8.68,8.68-8.69a3.6,3.6,0,0,0-5.09-5.09Z"/><path class="cls-4" d="M233.74,195.5a5.6,5.6,0,0,1-3.55,7.08h0a6.9,6.9,0,0,1-1,.23l-7,34.73-7.41-7.22,8-32.64a5.63,5.63,0,0,1,11-2.18Z"/><path class="cls-6" d="M159.32,240.43l-2.62,2.21a9,9,0,0,0-3.07,8.33,8.71,8.71,0,0,0,1.27,3.34h0a9,9,0,0,0,9.11,4l14.4-2.49c13.77,1.77,29.85-4.3,46.79-13.27L232.1,210l-15.67-1.17L210.5,230l-36.07,5.36h0l-12.71,3Z"/><path class="cls-2" d="M241.32,464.67l-175.73.19a.76.76,0,0,1-.76-.76h0a.77.77,0,0,1,.76-.77l175.73-.19a.76.76,0,0,1,.77.75v0A.79.79,0,0,1,241.32,464.67Z"/><ellipse class="cls-6" cx="101.54" cy="91.59" rx="5.47" ry="5.59"/><ellipse class="cls-6" cx="120.43" cy="91.59" rx="5.47" ry="5.59"/><ellipse class="cls-6" cx="139.32" cy="91.59" rx="5.47" ry="5.59"/><path class="cls-6" d="M160.86,96a.66.66,0,0,1-.46-.19L156.71,92a.67.67,0,0,1,0-.91l3.69-3.77a.65.65,0,1,1,.93.91l-3.25,3.31,3.25,3.32a.66.66,0,0,1,0,.92A.69.69,0,0,1,160.86,96Z"/><path class="cls-6" d="M167.06,96a.64.64,0,0,1-.66-.62.66.66,0,0,1,.2-.48l3.25-3.32-3.25-3.31a.65.65,0,0,1,.93-.91l3.69,3.77a.67.67,0,0,1,0,.91l-3.69,3.77A.68.68,0,0,1,167.06,96Z"/><path class="cls-6" d="M360.09,86.65h-6.86a1.42,1.42,0,0,0-1.41,1.42v6.87a1.41,1.41,0,0,0,1.41,1.41h6.86a1.43,1.43,0,0,0,1.43-1.41h0V88.07A1.43,1.43,0,0,0,360.09,86.65Z"/><path class="cls-6" d="M343.28,86.65h-6.86A1.43,1.43,0,0,0,335,88.07h0v6.87a1.41,1.41,0,0,0,1.41,1.41h6.86a1.42,1.42,0,0,0,1.42-1.41V88.07A1.43,1.43,0,0,0,343.28,86.65Z"/><path class="cls-6" d="M375.94,87h-6.86a1.43,1.43,0,0,0-1.42,1.42h0v6.87a1.41,1.41,0,0,0,1.41,1.41h6.87a1.42,1.42,0,0,0,1.42-1.41v-6.9A1.43,1.43,0,0,0,375.94,87Z"/><path class="cls-6" d="M272.53,89.59H217.68a1.73,1.73,0,0,0,0,3.45h54.85a1.73,1.73,0,0,0,0-3.45Z"/></svg>