<svg id="Layer_1" data-name="Layer 1" xmlns="http://www.w3.org/2000/svg" viewBox="0 0 506 506"><defs><style>.cls-1{fill:#3f3d56;}.cls-2{fill:#e6e6e6;}.cls-3{fill:#4338ca;}.cls-4{fill:#fff;}.cls-5{fill:purple;}</style></defs><title>IT SERVICES-01</title><path class="cls-1" d="M478.83,204.48a.75.75,0,0,1-.46-.15L255.31,49a4,4,0,0,0-4.62,0L29.24,204.33a.8.8,0,0,1-.92-1.32L249.77,47.68a5.67,5.67,0,0,1,6.47,0L479.29,203a.81.81,0,0,1,.19,1.13.8.8,0,0,1-.65.34Z"/><polygon class="cls-2" points="41.9 209.98 253.22 53.37 466.15 221.13 264.11 340.9 154.42 315.9 41.9 209.98"/><path class="cls-3" d="M163.68,414.88H59.28a4.88,4.88,0,0,1,0-9.76h104.4a4.88,4.88,0,1,1,0,9.76Z"/><path class="cls-3" d="M96.74,393.91H59.28a4.88,4.88,0,1,1,0-9.76H96.74a4.88,4.88,0,0,1,0,9.76Z"/><path class="cls-4" d="M256.19,297.22a6.1,6.1,0,0,1-2.31-.46L123.55,242.69V73.41a5.65,5.65,0,0,1,5.65-5.64h250a5.65,5.65,0,0,1,5.65,5.64V242.8l-.24.11-126,53.83A6.29,6.29,0,0,1,256.19,297.22Z"/><path class="cls-1" d="M256.19,297.62a6.49,6.49,0,0,1-2.46-.48L123.15,243V73.41a6.06,6.06,0,0,1,6-6h250a6.06,6.06,0,0,1,6,6V243.07l-126.53,54A6.57,6.57,0,0,1,256.19,297.62ZM124.76,241.88l129.58,53.77a4.93,4.93,0,0,0,3.77,0L383.66,242V73.41A4.43,4.43,0,0,0,379.22,69h-250a4.43,4.43,0,0,0-4.44,4.42h0Z"/><path class="cls-5" d="M477.22,202.86h-.16L384.47,242.4,257.78,296.49a4,4,0,0,1-3.13,0L124,242.29,29.09,202.93l-.15-.07h-.16a5.66,5.66,0,0,0-5.65,5.65V453.7a5.65,5.65,0,0,0,5.65,5.64H477.22a5.65,5.65,0,0,0,5.65-5.64V208.51A5.66,5.66,0,0,0,477.22,202.86Zm4,250.84a4,4,0,0,1-4,4H28.78a4,4,0,0,1-4-4V208.51a4,4,0,0,1,3.88-4L124,244l130,54a5.76,5.76,0,0,0,4.39,0l126.05-53.83,92.91-39.67a4,4,0,0,1,3.87,4Z"/><path class="cls-5" d="M481.25,208.51V453.7a4,4,0,0,1-4,4H28.78a4,4,0,0,1-4-4V208.51a4,4,0,0,1,3.88-4L124,244l130,54a5.76,5.76,0,0,0,4.39,0l126.05-53.83,92.91-39.67A4,4,0,0,1,481.25,208.51Z"/><path class="cls-5" d="M254.89,249.22a22.14,22.14,0,0,1-13.34-4.44l-.24-.18-50.26-38.47a22.33,22.33,0,0,1,27.16-35.45l32.55,25L327.69,95.32A22.31,22.31,0,0,1,359,91.17h0l-.47.65.49-.64a22.36,22.36,0,0,1,4.13,31.31l-90.48,118A22.35,22.35,0,0,1,254.89,249.22Z"/></svg>