<svg id="Layer_1" data-name="Layer 1" xmlns="http://www.w3.org/2000/svg" viewBox="0 0 506 506"><defs><style>.cls-1{fill:#f2f2f2;}.cls-2{fill:#3f3d56;}.cls-3{fill:#ffb8b8;}.cls-4{fill:#ccc;}.cls-5{fill:#fff;}.cls-6{fill:#2f2e41;}.cls-7{fill:#4338ca;}.cls-8{fill:purple;}</style></defs><title>IT SERVICES-03</title><path class="cls-1" d="M472.31,197.59H217.21a13.55,13.55,0,0,0-13.55,13.54v41.34A13.54,13.54,0,0,0,217.21,266h255.1a13.55,13.55,0,0,0,13.54-13.54V211.13A13.55,13.55,0,0,0,472.31,197.59Z"/><path class="cls-2" d="M122.21,433.55H20.72a.82.82,0,0,1-.72-.91.81.81,0,0,1,.72-.72H122.21a.82.82,0,0,1,.72.91A.81.81,0,0,1,122.21,433.55Z"/><path class="cls-3" d="M107.31,179.33a7.6,7.6,0,0,0-2.38,10.48v0a7.71,7.71,0,0,0,.81,1.07l-7.38,15.75,8.48,6.82L117,191.08a7.66,7.66,0,0,0-9.65-11.75Z"/><path class="cls-4" d="M64.91,185.72h0a10.62,10.62,0,0,1,14.28,3.2l15.09,22.61L99.52,200a3.25,3.25,0,0,1,3.93-1.75l7.91,2.47a3.24,3.24,0,0,1,2.13,4.05v.09l-5.42,16a13.81,13.81,0,0,1-17.51,8.65h0a13.6,13.6,0,0,1-3.39-1.69h0a14,14,0,0,1-2.26-1.95L62.63,202.06a10.61,10.61,0,0,1,.49-15h0A11.14,11.14,0,0,1,64.91,185.72Z"/><path class="cls-2" d="M113.75,162.37a1.53,1.53,0,0,1,1.49,1.56l-.13,5.25h.26l-.09,3.57H115l-.47,18.8a2.64,2.64,0,0,1-2.37,2.57l-12,1.26a2,2,0,0,1-2.18-1.8,2,2,0,0,1,0-.35l1.81-26.77a2.48,2.48,0,0,1,2.1-2.28l11.53-1.79h0A1.08,1.08,0,0,1,113.75,162.37Z"/><path class="cls-5" d="M104.5,165.15l6.07-.94a.52.52,0,0,0,.42-.44h0a.56.56,0,0,1,.48-.5l1.27-.2a1.21,1.21,0,0,1,1.38,1,.74.74,0,0,1,0,.21l-.65,27.25a1.38,1.38,0,0,1-1.26,1.34l-11.94,1.06a1.06,1.06,0,0,1-1.15-1v-.2l1.62-26.52a1.7,1.7,0,0,1,1.44-1.59l1.35-.21A.85.85,0,0,0,104.5,165.15Z"/><polygon class="cls-3" points="76.36 423.69 85.64 423.69 90.05 387.89 76.35 387.89 76.36 423.69"/><path class="cls-6" d="M103.54,432.31H74.37V421h17.9a11.28,11.28,0,0,1,11.27,11.27Z"/><polygon class="cls-3" points="47.83 423.69 57.11 423.69 61.52 387.89 47.83 387.89 47.83 423.69"/><path class="cls-6" d="M75,432.31H45.84V421h17.9A11.28,11.28,0,0,1,75,432.28Z"/><circle class="cls-3" cx="75.01" cy="153.61" r="19.94"/><path class="cls-6" d="M85.28,207a30.72,30.72,0,0,0-14.85-25.34c-5.15-3-10.79-4.22-15.27.26a31,31,0,0,0-6.37,9.55A41,41,0,0,0,48,221.88l10.67,29.5,24.72,2.68A3.27,3.27,0,0,0,87,251.19h0a3.84,3.84,0,0,0,0-.48Z"/><path class="cls-6" d="M60.28,247.75s-18.46,6.89-13.64,36.08C51,310,47.53,397,46.78,414.53a3.25,3.25,0,0,0,3,3.37l10.77.9a3.26,3.26,0,0,0,3.5-2.89l5.57-51.13a.81.81,0,1,1,1.62,0L75.36,414a3.25,3.25,0,0,0,3.34,3l9.06-.28a3.25,3.25,0,0,0,3.14-3.35h0L85.57,251.16Z"/><path class="cls-6" d="M79,152.3a14.45,14.45,0,1,0-6.33-21.69c-3.38-6.07-12.21-7.62-18.28-4.23S45,136.87,44.64,143.81s1.71,13.78,4.29,20.23c4.16,10.45,17.56,16.07,27.93,11.72A19.2,19.2,0,0,1,79,152.3Z"/><path id="b77c6965-cdfc-4713-bd9a-03fafd9c7c98-76" class="cls-7" d="M105.89,181.75a.79.79,0,0,1-.49-.17h0l-1.86-1.42a.84.84,0,0,1-.15-1.16.83.83,0,0,1,1.16-.15l1.2.92,2.84-3.7a.8.8,0,0,1,1.13-.16h0a.8.8,0,0,1,.16,1.13v0l-3.33,4.36a.84.84,0,0,1-.66.32Z"/><path class="cls-2" d="M472.55,99.78H217.45a13.58,13.58,0,0,0-13.55,13.54v41.34a13.57,13.57,0,0,0,13.55,13.55h255.1a13.57,13.57,0,0,0,13.54-13.55V113.32A13.56,13.56,0,0,0,472.55,99.78Zm12.11,54.88a12.12,12.12,0,0,1-12.11,12.12H217.45a12.14,12.14,0,0,1-12.12-12.12V113.32a12.14,12.14,0,0,1,12.12-12.12h255.1a12.12,12.12,0,0,1,12.11,12.12Z"/><path class="cls-8" d="M269.36,157.56A23.57,23.57,0,1,1,292.93,134h0A23.59,23.59,0,0,1,269.36,157.56Z"/><path class="cls-4" d="M437.74,153.24H315.22a5.71,5.71,0,0,1,0-11.41H437.74a5.71,5.71,0,0,1,0,11.41Z"/><path class="cls-4" d="M355.77,129H315.22a5.7,5.7,0,0,1,0-11.4h40.55a5.7,5.7,0,1,1,0,11.4Z"/><path id="b837c4e1-e336-4370-ba9c-f06fbd333d33-77" class="cls-5" d="M268.16,142.28a2.65,2.65,0,0,1-1.63-.53h0l-6.11-4.67a2.72,2.72,0,0,1,3.29-4.32h0l4,3,9.35-12.2a2.71,2.71,0,0,1,3.8-.51h0l-.05.08.06-.08a2.73,2.73,0,0,1,.5,3.81l-11,14.34a2.74,2.74,0,0,1-2.16,1.06Z"/><path class="cls-5" d="M362.94,211H107.84A13.55,13.55,0,0,0,94.3,224.56V265.9a13.55,13.55,0,0,0,13.54,13.54h255.1a13.56,13.56,0,0,0,13.54-13.54V224.56A13.57,13.57,0,0,0,362.94,211Z"/><path class="cls-2" d="M362.94,211H107.84A13.55,13.55,0,0,0,94.3,224.56V265.9a13.55,13.55,0,0,0,13.54,13.54h255.1a13.56,13.56,0,0,0,13.54-13.54V224.56A13.57,13.57,0,0,0,362.94,211Zm12.12,54.89A12.12,12.12,0,0,1,362.94,278H107.84a12.11,12.11,0,0,1-12.12-12.1V224.56a12.14,12.14,0,0,1,12.12-12.12h255.1a12.14,12.14,0,0,1,12.12,12.12Z"/><path class="cls-8" d="M159.75,268.8a23.58,23.58,0,1,1,23.57-23.59v0h0A23.61,23.61,0,0,1,159.75,268.8Z"/><path class="cls-4" d="M328.13,264.47H205.61a5.7,5.7,0,1,1,0-11.4H328.13a5.7,5.7,0,1,1,0,11.4Z"/><path class="cls-4" d="M246.16,240.24H205.61a5.71,5.71,0,0,1,0-11.41h40.55a5.71,5.71,0,0,1,0,11.41Z"/><path id="ae103e1a-a1d0-4366-bdbf-adaac5567630-78" class="cls-5" d="M158.55,253.52a2.72,2.72,0,0,1-1.62-.54h0l-6.11-4.68a2.71,2.71,0,0,1,3.3-4.31h0l4,3,9.35-12.2a2.69,2.69,0,0,1,3.78-.51h0v.08l.06-.08a2.72,2.72,0,0,1,.5,3.8l-11,14.35a2.7,2.7,0,0,1-2.16,1Z"/><path class="cls-3" d="M99.57,220.34a7.62,7.62,0,0,0-10,4h0a7.07,7.07,0,0,0-.41,1.28L72,228.6l-.76,10.86L95.43,235a7.66,7.66,0,0,0,4.14-14.63Z"/><path class="cls-4" d="M70.11,189.18h0a10.6,10.6,0,0,1,5.52,13.55L65.69,228l12.48-2.3a3.27,3.27,0,0,1,3.69,2.3l2.48,7.91A3.24,3.24,0,0,1,82.23,240h-.08l-16.22,4.69a13.82,13.82,0,0,1-17.11-9.45h0a13.6,13.6,0,0,1-.54-3.75h0a13.76,13.76,0,0,1,.3-3l6.82-31.84A10.59,10.59,0,0,1,68,188.48h0A10.45,10.45,0,0,1,70.11,189.18Z"/></svg>