<svg id="Layer_1" data-name="Layer 1" xmlns="http://www.w3.org/2000/svg" viewBox="0 0 506 506"><defs><style>.cls-1{fill:#f2f2f2;}.cls-2{fill:#fff;}.cls-3{fill:#ccc;}.cls-4{fill:#2f2e41;}.cls-5{fill:#e6e6e6;}.cls-6{fill:#3f3d56;}.cls-7{fill:purple;}.cls-8{fill:#ff6584;}</style></defs><title>IT SERVICES-02</title><path class="cls-1" d="M139,120.42c-8.24-24.64-33.69-38.33-50.43-32.73S59.76,119.54,68,144.17c7.63,22.81,30.74,36,46.64,33.62a1.85,1.85,0,0,0-.22.65l-.49,4.06a1.83,1.83,0,0,0,1.6,2,1.86,1.86,0,0,0,.84-.1l8.19-2.94a1.82,1.82,0,0,0,1.1-2.33h0a1.85,1.85,0,0,0-.46-.71l-3-2.82a2.8,2.8,0,0,0-.35-.25C136.09,167.74,146.67,143.27,139,120.42Z"/><path class="cls-2" d="M109.19,102.29a30.06,30.06,0,0,1,13.6,39.09c-.71,1.62,1.89,2.46,2.6.86A32.88,32.88,0,0,0,110.71,100C109.16,99.19,107.63,101.47,109.19,102.29Z"/><path class="cls-1" d="M472.68,84.51C464.44,59.87,439,46.18,422.25,51.78s-28.83,31.85-20.59,56.49c7.63,22.8,30.74,36,46.64,33.61a1.85,1.85,0,0,0-.22.65l-.48,4.06a1.81,1.81,0,0,0,1.59,2,1.86,1.86,0,0,0,.84-.1l8.19-2.93a1.83,1.83,0,0,0,1.1-2.34,1.65,1.65,0,0,0-.46-.7l-2.95-2.83a2.8,2.8,0,0,0-.35-.25C469.75,131.83,480.33,107.36,472.68,84.51Z"/><circle class="cls-3" cx="237.59" cy="161.43" r="1.96"/><circle class="cls-3" cx="233.4" cy="238.28" r="3.88"/><circle class="cls-3" cx="168.47" cy="224.98" r="2.24"/><circle class="cls-3" cx="202.52" cy="188.1" r="2.43"/><circle class="cls-3" cx="321.95" cy="330.66" r="1.96"/><circle class="cls-3" cx="257.65" cy="288.38" r="3.88"/><circle class="cls-3" cx="301.82" cy="238.96" r="2.24"/><circle class="cls-3" cx="316.56" cy="286.94" r="2.43"/><ellipse class="cls-4" cx="436.95" cy="402" rx="5.06" ry="16.11" transform="translate(-156.15 374.29) rotate(-39.94)"/><circle class="cls-4" cx="402.68" cy="396.43" r="32.22"/><rect class="cls-4" x="406.53" y="421.71" width="9.79" height="17.54"/><rect class="cls-4" x="386.95" y="421.71" width="9.79" height="17.54"/><ellipse class="cls-4" cx="408.16" cy="439.45" rx="8.16" ry="3.06"/><ellipse class="cls-4" cx="388.58" cy="439.05" rx="8.16" ry="3.06"/><path class="cls-5" d="M392.56,355.93c2.88-11.59,15.58-18.41,28.36-15.23s20.83,15.14,17.95,26.73-12.42,11.62-25.21,8.44S389.68,367.51,392.56,355.93Z"/><ellipse class="cls-4" cx="366.37" cy="381.43" rx="5.06" ry="16.11" transform="translate(-135.25 549.05) rotate(-64.63)"/><circle class="cls-2" cx="397.86" cy="389.63" r="10.74"/><circle class="cls-6" cx="393.44" cy="385.78" r="3.58"/><path class="cls-2" d="M404.6,412a7.16,7.16,0,1,1-14.09,2.56h0c-.7-3.89,2.31-5.27,6.2-6S403.89,408.12,404.6,412Z"/><ellipse class="cls-4" cx="133.06" cy="372.11" rx="16.11" ry="5.06" transform="translate(-262.03 363.54) rotate(-69.08)"/><circle class="cls-4" cx="103.28" cy="396.43" r="32.22"/><rect class="cls-4" x="88.6" y="421.71" width="9.79" height="17.54"/><rect class="cls-4" x="108.18" y="421.71" width="9.79" height="17.54"/><ellipse class="cls-4" cx="96.76" cy="439.45" rx="8.16" ry="3.06"/><ellipse class="cls-4" cx="116.33" cy="439.05" rx="8.16" ry="3.06"/><circle class="cls-2" cx="104.1" cy="388.27" r="11.01"/><circle class="cls-6" cx="104.1" cy="388.27" r="3.67"/><path class="cls-5" d="M72,366.46c-2.6-11.65,5.71-23.42,18.57-26.29s25.4,4.24,28,15.9S112.68,372,99.82,374.89,74.63,378.12,72,366.46Z"/><ellipse class="cls-4" cx="67" cy="381.45" rx="5.06" ry="16.11" transform="translate(-306.37 278.55) rotate(-64.63)"/><path class="cls-2" d="M87.46,408.05c0,3.15,8.12,9.38,17.13,9.38s17.45-8.88,17.45-12-8.45.61-17.45.61S87.46,404.9,87.46,408.05Z"/><circle class="cls-4" cx="257.18" cy="365.75" r="32.22"/><rect class="cls-4" x="242.5" y="391.04" width="9.79" height="17.54"/><rect class="cls-4" x="262.08" y="391.04" width="9.79" height="17.54"/><ellipse class="cls-4" cx="250.66" cy="408.78" rx="8.16" ry="3.06"/><ellipse class="cls-4" cx="270.23" cy="408.37" rx="8.16" ry="3.06"/><path class="cls-7" d="M225.93,335.79c-2.6-11.65,5.71-23.42,18.57-26.29s25.4,4.24,28,15.89-5.92,15.95-18.78,18.82S228.53,347.44,225.93,335.79Z"/><ellipse class="cls-4" cx="287.93" cy="347.73" rx="17.87" ry="5.61" transform="translate(-161.57 305.6) rotate(-45.02)"/><ellipse class="cls-4" cx="218.58" cy="349.93" rx="5.61" ry="17.87" transform="translate(-183.39 256.91) rotate(-44.98)"/><path class="cls-8" d="M453.06,161.27c-1.07-33-23.69-59.11-50.54-58.24-59.74,1.77-61.19,111.32-3.52,119.19l-1.22,9.7,17.81-.57-1.84-9.61C437,216.61,454,191.22,453.06,161.27Z"/><path class="cls-2" d="M372.82,179.59l-6.73.21a109.56,109.56,0,0,1-1.24-38.13l6.73-.22A84.45,84.45,0,0,0,372.82,179.59Z"/><rect class="cls-6" x="396.33" y="221.94" width="20.2" height="4.49" transform="translate(-7.03 13.24) rotate(-1.85)"/><polygon class="cls-6" points="357.83 393.38 355.8 392.42 405.78 222.92 407.81 223.87 357.83 393.38"/><path class="cls-7" d="M494.43,189.21c12.21-30.72,1.87-63.66-23.09-73.58-55.48-22.22-100.54,77.64-50.8,107.88l-5,8.41,16.57,6.58,2.14-9.54C457.57,233.51,483.37,217.06,494.43,189.21Z"/><path class="cls-2" d="M413.54,174l-6.25-2.49A109.1,109.1,0,0,1,421.38,136l6.25,2.48A84.44,84.44,0,0,0,413.54,174Z"/><rect class="cls-6" x="424.33" y="218.15" width="4.49" height="20.2" transform="translate(56.94 540.4) rotate(-68.33)"/><polygon class="cls-6" points="357.43 388.91 355.48 387.8 425.27 228.55 427.22 229.66 357.43 388.91"/><path class="cls-7" d="M115.13,163.4c-13.21-30.3-43.87-46.16-68.49-35.4C-8.22,151.7,30.93,254,87.43,240l2.45,9.47,16.34-7.12L101,234.12C120.61,220.78,127.1,190.88,115.13,163.4Z"/><path class="cls-2" d="M47.34,210.09l-6.18,2.69a110,110,0,0,1-15.24-35l6.17-2.69A84.35,84.35,0,0,0,47.34,210.09Z"/><rect class="cls-6" x="84.96" y="236.83" width="20.2" height="4.49" transform="translate(-87.6 57.89) rotate(-23.55)"/><path class="cls-6" d="M146.26,393.81h0a1.13,1.13,0,0,1-1.36-.82L96.12,238.42l2.18-.54,48.78,154.57A1.13,1.13,0,0,1,146.26,393.81Z"/><path class="cls-3" d="M159.3,442.68H41.85a.75.75,0,0,1,0-1.5H159.3a.75.75,0,0,1,0,1.5Z"/><path class="cls-3" d="M457.8,442.68H340.35a.75.75,0,0,1,0-1.5H457.8a.75.75,0,0,1,0,1.5Z"/><path class="cls-3" d="M317.9,412H200.45a.75.75,0,0,1,0-1.5H317.9a.75.75,0,0,1,0,1.5Z"/><circle class="cls-2" cx="255.83" cy="361.19" r="11.01"/><circle class="cls-6" cx="255.83" cy="361.19" r="3.67"/><path class="cls-2" d="M264.57,381.55a7.16,7.16,0,1,1-14.09,2.57h0c-.71-3.9,2.3-5.27,6.19-6S263.87,377.66,264.57,381.55Z"/></svg>