<svg id="Layer_1" data-name="Layer 1" xmlns="http://www.w3.org/2000/svg" viewBox="0 0 876.27 661.47"><defs><style>.cls-1{fill:#2f2e41;}.cls-2{fill:#ffb8b8;}.cls-3{fill:#f2f2f2;}.cls-4{fill:#fff;}.cls-5{fill:purple;}.cls-6{fill:#aaa9aa;}.cls-7{opacity:0.1;isolation:isolate;}.cls-8{fill:#3f3d56;}.cls-9{fill:#ff6584;}.cls-10{fill:#ccc;}.cls-11{fill:#a0616a;}</style></defs><title>aboutteam</title><path class="cls-1" d="M505,32.19c7.52,16-8.41,20.53-26.66,29.1s-31.89,17.95-39.41,2S425.29,15.5,451.1,3.37C477.8-9.18,497.45,16.2,505,32.19Z"/><circle class="cls-2" cx="467.75" cy="39.09" r="24.56"/><path class="cls-1" d="M589.43,148c-.85-1.11-1.7-2.2-2.56-3.26-1.11-1.38-2.23-2.71-3.35-4-12.73-14.69-26.27-23.94-41.18-24.93h0l-.22,0-29.71,29-10.1,9.84.22.54L508,168.7h95.49A239.24,239.24,0,0,0,589.43,148Z"/><path class="cls-1" d="M441,49h0l8.79-4.13-1.22-12.69,5.87,10.5,4.21-2L458,33.29l3.43,6.12,31.23-14.67h0A26,26,0,0,0,458,12.26l-4.53,2.13A26,26,0,0,0,441,49Z"/><path class="cls-3" d="M644.53,494.8H131.69a16.52,16.52,0,0,1-16.5-16.5V170.15a12.09,12.09,0,0,1,12.09-12.09H648.73a12.32,12.32,0,0,1,12.3,12.3V478.3A16.52,16.52,0,0,1,644.53,494.8Z"/><path class="cls-4" d="M147.69,478.3H628.53a16,16,0,0,0,16-16V200.75a16,16,0,0,0-16-16H147.69a16,16,0,0,0-16,16V462.3A16,16,0,0,0,147.69,478.3Z"/><path class="cls-5" d="M660.8,169.2H115v-8.4a16.57,16.57,0,0,1,16.56-16.55H644.24A16.58,16.58,0,0,1,660.8,160.8Z"/><circle class="cls-4" cx="145.05" cy="156.75" r="4.28"/><circle class="cls-4" cx="161.31" cy="156.75" r="4.28"/><circle class="cls-4" cx="177.57" cy="156.75" r="4.28"/><path class="cls-6" d="M403.11,421.58h-43a9.52,9.52,0,0,1-9.5-9.5v-43a9.52,9.52,0,0,1,9.5-9.5h43a9.52,9.52,0,0,1,9.5,9.5v43A9.52,9.52,0,0,1,403.11,421.58Zm-43-60a7.5,7.5,0,0,0-7.5,7.5v43a7.51,7.51,0,0,0,7.5,7.5h43a7.51,7.51,0,0,0,7.5-7.5v-43a7.5,7.5,0,0,0-7.5-7.5Z"/><path class="cls-6" d="M394.61,409.58h-26a3,3,0,0,1-3-3v-32a3,3,0,0,1,3-3h18.84a3,3,0,0,1,1.88.66l7.16,5.75a3,3,0,0,1,1.12,2.34v26.25A3,3,0,0,1,394.61,409.58Zm-26-36a1,1,0,0,0-1,1v32a1,1,0,0,0,1,1h26a1,1,0,0,0,1-1V380.33a1,1,0,0,0-.37-.78l-7.16-5.75a1,1,0,0,0-.63-.22Z"/><path class="cls-6" d="M389.61,385.58h-16a1,1,0,0,1,0-2h16a1,1,0,0,1,0,2Z"/><path class="cls-6" d="M389.61,391.58h-16a1,1,0,0,1,0-2h16a1,1,0,0,1,0,2Z"/><path class="cls-6" d="M389.61,397.58h-16a1,1,0,0,1,0-2h16a1,1,0,0,1,0,2Z"/><path class="cls-6" d="M505.11,421.58h-43a9.52,9.52,0,0,1-9.5-9.5v-43a9.52,9.52,0,0,1,9.5-9.5h43a9.52,9.52,0,0,1,9.5,9.5v43A9.52,9.52,0,0,1,505.11,421.58Zm-43-60a7.5,7.5,0,0,0-7.5,7.5v43a7.51,7.51,0,0,0,7.5,7.5h43a7.51,7.51,0,0,0,7.5-7.5v-43a7.5,7.5,0,0,0-7.5-7.5Z"/><path class="cls-6" d="M497.61,401.58h-28a3,3,0,0,1-3-3v-16a3,3,0,0,1,3-3h28a3,3,0,0,1,3,3v16A3,3,0,0,1,497.61,401.58Zm-28-20a1,1,0,0,0-1,1v16a1,1,0,0,0,1,1h28a1,1,0,0,0,1-1v-16a1,1,0,0,0-1-1Z"/><path class="cls-6" d="M483.61,393.22a3,3,0,0,1-1.59-.46l-14.94-9.33a1,1,0,0,1,1.06-1.7l14.94,9.34a1,1,0,0,0,1.06,0l14.94-9.34a1,1,0,1,1,1.06,1.7l-14.94,9.33A3,3,0,0,1,483.61,393.22Z"/><path class="cls-6" d="M301.11,421.58h-43a9.52,9.52,0,0,1-9.5-9.5v-43a9.52,9.52,0,0,1,9.5-9.5h43a9.52,9.52,0,0,1,9.5,9.5v43A9.52,9.52,0,0,1,301.11,421.58Zm-43-60a7.5,7.5,0,0,0-7.5,7.5v43a7.51,7.51,0,0,0,7.5,7.5h43a7.51,7.51,0,0,0,7.5-7.5v-43a7.5,7.5,0,0,0-7.5-7.5Z"/><path class="cls-6" d="M293.61,401.58h-28a3,3,0,0,1-3-3v-16a3,3,0,0,1,3-3h28a3,3,0,0,1,3,3v16A3,3,0,0,1,293.61,401.58Zm-28-20a1,1,0,0,0-1,1v16a1,1,0,0,0,1,1h28a1,1,0,0,0,1-1v-16a1,1,0,0,0-1-1Z"/><path class="cls-6" d="M289.17,401.58H269.05a2,2,0,0,1-2-2,2,2,0,0,1,.27-1l6.06-10.5a2,2,0,0,1,3.46,0l3.92,6.78,2.27-3.93a2,2,0,0,1,2.73-.73,2.13,2.13,0,0,1,.73.73l4.41,7.65a2,2,0,0,1-.73,2.73,2,2,0,0,1-1,.27Zm0-2h0l-4.41-7.65-3.14,5.43a1,1,0,0,1-.86.5h0a1,1,0,0,1-.87-.5l-4.78-8.28-6.06,10.5Z"/><circle class="cls-6" cx="290.61" cy="385.58" r="2"/><polygon class="cls-2" points="768.83 648.15 756.57 648.15 750.73 600.86 768.83 600.86 768.83 648.15"/><path class="cls-1" d="M772,660H732.42v-.5a15.38,15.38,0,0,1,15.39-15.38H772Z"/><polygon class="cls-2" points="818.83 648.15 806.57 648.15 800.73 600.86 818.83 600.86 818.83 648.15"/><path class="cls-1" d="M822,660H782.42v-.5a15.38,15.38,0,0,1,15.39-15.38H822Z"/><path class="cls-1" d="M815.15,627.65,803.8,624.2a4.5,4.5,0,0,1-3.17-3.84L790,520a.47.47,0,0,0-.47-.45.49.49,0,0,0-.52.41l-17.73,97.2a4.5,4.5,0,0,1-5.23,3.62l-.1,0-14.51-3a4.51,4.51,0,0,1-3.58-4.71l10.78-159.32,73.14-7.89L821,623.62a4.48,4.48,0,0,1-5.8,4Z"/><circle class="cls-2" cx="815.08" cy="290.49" r="24.56"/><path class="cls-5" d="M758.57,454.72l15.86-99.85a37.85,37.85,0,0,1,43.32-31.45,37.25,37.25,0,0,1,4.68,1.05h0A37.74,37.74,0,0,1,849,367.73L832.44,456.9Z"/><path class="cls-2" d="M821.86,472.59a10.06,10.06,0,0,0,2.85-13.94,9.13,9.13,0,0,0-1.1-1.38L840,425.51l-18.46,2L808.8,457.33a10.11,10.11,0,0,0,13.06,15.26Z"/><path class="cls-5" d="M825.37,451.67a4.43,4.43,0,0,1-2.42-1.16l-6.28-5.79a4.52,4.52,0,0,1-1.09-5.06L828.12,410l-1.78-58.72a14.5,14.5,0,1,1,28.73,3.88v0l3,36.92a46.36,46.36,0,0,1-8.94,31.39l-19.55,26.44a4.54,4.54,0,0,1-3.2,1.8A5.27,5.27,0,0,1,825.37,451.67Z"/><path class="cls-2" d="M673.64,277.11a10.05,10.05,0,0,0,11.72,8.05,10.32,10.32,0,0,0,1.71-.47l22.84,27.48,5.39-17.78L692.78,271a10.11,10.11,0,0,0-19.14,6.09Z"/><path class="cls-5" d="M691.54,288.5a4.5,4.5,0,0,1,2-1.79l7.79-3.52a4.52,4.52,0,0,1,5.08,1l22.47,23.13,54.77,21.26a14.5,14.5,0,1,1-14.78,24.94l0,0-35.17-11.59a46.37,46.37,0,0,1-25.43-20.47L691.52,293.1a4.49,4.49,0,0,1-.41-3.65A4.27,4.27,0,0,1,691.54,288.5Z"/><polygon class="cls-7" points="835 375.65 834 407.65 815.58 439.66 830.96 403.99 835 375.65"/><path class="cls-1" d="M812.27,295.1a6.41,6.41,0,0,1-7-4.7,9.78,9.78,0,0,0-7-7.27c-4.51-1-10,1.09-13.32-2.33A6.62,6.62,0,0,1,783.4,275c.6-3.32,3-5.82,5.56-7.83a34.15,34.15,0,0,1,18.87-7.05,68.59,68.59,0,0,1,10.62.53,47.24,47.24,0,0,1,10.86,2,25.57,25.57,0,0,1,16,18.68,29.49,29.49,0,0,1-6.06,24.13,31.66,31.66,0,0,1-12.16,9.26,4.73,4.73,0,0,1-3.6.18c-3-1.18-2.48-4.84-1.13-7.28,1.45-2.62,3.67-5.15,2.51-8.33a6.33,6.33,0,0,0-3.13-3.37c-2.94-1.5-6.23-1.14-9.39-.78Z"/><path class="cls-4" d="M665.43,309h-304a16.52,16.52,0,0,1-16.5-16.5v-65a16.52,16.52,0,0,1,16.5-16.5h304a16.52,16.52,0,0,1,16.5,16.5v65A16.52,16.52,0,0,1,665.43,309Z"/><path class="cls-8" d="M665.43,309.47h-304a17,17,0,0,1-17-17v-65a17,17,0,0,1,17-17h304a17,17,0,0,1,17,17v65A17,17,0,0,1,665.43,309.47Zm-304-97a15,15,0,0,0-15,15v65a15,15,0,0,0,15,15h304a15,15,0,0,0,15-15v-65a15,15,0,0,0-15-15Z"/><path class="cls-3" d="M628.43,293h-230a16.52,16.52,0,0,1-16.5-16.5v-34a16.52,16.52,0,0,1,16.5-16.5h230a16.52,16.52,0,0,1,16.5,16.5v34A16.52,16.52,0,0,1,628.43,293Z"/><circle class="cls-9" cx="447.93" cy="254.91" r="19.73"/><path class="cls-8" d="M614.14,291l-27.85-23.36-27.37-23a4,4,0,0,0-5.16,0l-27.28,23.06-6.66,5.63-10.05-8.43-30.54-25.61a4,4,0,0,0-5.15,0l-30.44,25.73L412.72,291.2a1,1,0,0,0-.12,1.41,1,1,0,0,0,.77.36l63.39-.12,20.06,0-.19.16,59.8-.11,57.07-.11a1,1,0,0,0,1-1A1,1,0,0,0,614.14,291Z"/><path class="cls-10" d="M875.27,661.47h-192a1,1,0,0,1,0-2h192a1,1,0,0,1,0,2Z"/><path class="cls-2" d="M604.06,131.91a11.28,11.28,0,0,0-7.25-5.1,11.77,11.77,0,0,0-1.66-.21L519,58.48a9,9,0,0,0-5.63-2.69,7.74,7.74,0,0,0-1.27,0,9.05,9.05,0,0,0-6,15.48l29.17,25.43,47.9,41.75a11.41,11.41,0,0,0,.35,2.33,11.25,11.25,0,0,0,9.67,8.37,11.08,11.08,0,0,0,6-1,11.5,11.5,0,0,0,3.88-3c.11-.13.21-.25.31-.39a11.31,11.31,0,0,0,.63-12.84Z"/><path class="cls-2" d="M473.74,197.56,473,168.7l-.6-23.95L472,128l-.81-32.67a9,9,0,0,0-15.71-5.25,6.89,6.89,0,0,0-.75,1,8.87,8.87,0,0,0-1.56,6L455,144.75l.89,23.95L457,199.25a11.52,11.52,0,0,0-.89,1.41,11.31,11.31,0,0,0,13.61,16,11.9,11.9,0,0,0,1.24-.5,11.32,11.32,0,0,0,2.78-18.57Z"/><path class="cls-10" d="M542.34,115.81l-7.07-19.15-11.44-31a16.05,16.05,0,0,0-10-9.68l-.55-.17a16,16,0,0,0-13.24,1.82L461.56,82.05a16.09,16.09,0,0,0-5.27,21.75A274.31,274.31,0,0,0,472,128c4.49,6.11,12.85,6.76,14.3,16.76h28.41l28.76-25.82Z"/><circle class="cls-11" cx="101.16" cy="326.68" r="23.17"/><path class="cls-11" d="M158.05,310.73c.23.18.45.38.67.58a10.38,10.38,0,0,1,.43,14.67,9.26,9.26,0,0,1-.85.81,8.39,8.39,0,0,1-.82.62l1.57,52.94a8.07,8.07,0,0,1-5.54,7.87l-.1,0-43,4.58a8.9,8.9,0,0,1-1.88-17.7l.16,0,30.65-2.69,5.3-45.86a8.33,8.33,0,0,1-1-1,10.38,10.38,0,0,1,14.38-14.83Z"/><polygon class="cls-11" points="139.33 649.17 150.9 649.17 156.4 604.56 139.33 604.56 139.33 649.17"/><path class="cls-1" d="M136.38,645.4h22.78a14.51,14.51,0,0,1,14.51,14.51h0v.47H136.38Z"/><polygon class="cls-11" points="24.37 633.18 34.3 639.1 61.86 603.58 47.19 594.85 24.37 633.18"/><path class="cls-1" d="M23.76,628.43l19.57,11.65h0a14.52,14.52,0,0,1,5,19.9h0l-.24.41-32-19.08Z"/><path class="cls-1" d="M153.62,633.42h-13a4.25,4.25,0,0,1-4.22-3.8L123.39,506.88a1.41,1.41,0,0,0-1.55-1.25,1.39,1.39,0,0,0-1.14.82L97.14,558.61l-41.7,68a4.28,4.28,0,0,1-5.33,1.67L33.45,621a4.25,4.25,0,0,1-2.18-5.6,4.16,4.16,0,0,1,.24-.47l38.34-64.19,11.76-54.08c-3.7-23.46,12.15-58.33,12.31-58.68l.08-.17,43.67-17.07.22.27c17.22,56.51,27.71,117.33,20,208.57A4.29,4.29,0,0,1,153.62,633.42Z"/><path class="cls-8" d="M92.24,443.47l-.2-.42c-.1-.21-9.81-20.69-17.29-42.58A32.25,32.25,0,0,1,77,374.6a32.62,32.62,0,0,1,20.81-16h0a32.68,32.68,0,0,1,37.93,19.57c5.93,14.84,4,30.69,2.26,43.15l0,.25-.23.11Z"/><path class="cls-1" d="M129.26,313.59H92.47v-16c8.07-3.2,16-5.93,20.75,0a16,16,0,0,1,16,16Z"/><path class="cls-1" d="M90.43,294.72c-22,0-28.15,27.58-28.15,43.13,0,8.67,3.92,11.78,10.08,12.83l2.18-11.61,5.1,12.11c1.73,0,3.55,0,5.44-.06l1.73-3.56,3.85,3.49c15.44,0,27.92,2.28,27.92-13.2S113.18,294.72,90.43,294.72Z"/><path class="cls-10" d="M193,661.47H1a1,1,0,0,1,0-2H193a1,1,0,0,1,0,2Z"/><path class="cls-4" d="M196.61,332.47h-43a9.51,9.51,0,0,1-9.5-9.5V280a9.52,9.52,0,0,1,9.5-9.5h43a9.52,9.52,0,0,1,9.5,9.5v43A9.51,9.51,0,0,1,196.61,332.47Z"/><path class="cls-8" d="M196.61,332.47h-43a9.51,9.51,0,0,1-9.5-9.5V280a9.52,9.52,0,0,1,9.5-9.5h43a9.52,9.52,0,0,1,9.5,9.5v43A9.51,9.51,0,0,1,196.61,332.47Zm-43-60a7.51,7.51,0,0,0-7.5,7.5v43a7.5,7.5,0,0,0,7.5,7.5h43a7.5,7.5,0,0,0,7.5-7.5V280a7.51,7.51,0,0,0-7.5-7.5Z"/><path class="cls-5" d="M189.11,315h-28a3,3,0,0,1-3-3V291a3,3,0,0,1,3-3H169a3,3,0,0,1,2.56,1.43l2.2,3.57h15.36a3,3,0,0,1,3,3v16A3,3,0,0,1,189.11,315Z"/><path class="cls-11" d="M188.2,325.58c.14.26.27.52.39.79a10.39,10.39,0,0,1-5.29,13.7c-.36.15-.73.29-1.11.41s-.65.18-1,.25l-19.1,49.41a8.07,8.07,0,0,1-8.17,5.09h-.09l-41.4-12.47a8.9,8.9,0,0,1,5.13-17l.16.05,29.29,9.4L169.7,335a9.61,9.61,0,0,1-.51-1.29,10.38,10.38,0,0,1,19-8.09Z"/></svg>