<svg id="Layer_1" data-name="Layer 1" xmlns="http://www.w3.org/2000/svg" viewBox="0 0 337.5 315.58"><defs><style>.cls-1{fill:#1999ce;}</style></defs><title>icons</title><path class="cls-1" d="M317.55,48.83v67.93c-3.72,12.81-10.76,18.1-24.09,18.11-8.42,0-16.83.06-25.25,0a9.25,9.25,0,0,0-6.11,2.06q-16.16,12.56-32.43,25c-4.14,3.16-7.52,3.52-10.92,1.27-3.24-2.14-4.25-5.44-3.09-10.3s2.36-10,3.69-14.92c.59-2.22-.08-3-2.31-3q-11,.07-22.06,0a3.48,3.48,0,0,0-3.59,2.28c-4.64,10-11.72,17.9-20.3,24.62-2.6,2-3.68,8.49-1.93,11.32a3.33,3.33,0,0,0,2,1.65c7.48,1.81,14.61,5.15,22.51,5.14,8.51,0,17-.07,25.54,0,6.81.09,12.5,4.9,13.1,11.25.22,2.43,1.34,3.47,3.26,4.53,15.16,8.35,23.27,21,23.45,38.54.18,17.7.29,35.4.79,53.09.27,9.54-3.51,16-12.47,19.31H32.45c-8.84-3.24-12.74-9.48-12.49-19,.5-18.47.53-37,.81-55.42a39.57,39.57,0,0,1,1.34-9.74c3.1-11.45,10.17-19.8,20.21-25.82,1.33-.8,2.55-1.48,2.72-3.4.79-8.83,5.8-13.38,14.63-13.41q13.93,0,27.86,0a17.79,17.79,0,0,0,4.87-.57q7-2,14-3.85c2.26-.59,4.62-1.37,4.65-4,0-3.18,1.56-6.74-2-9.34A67,67,0,0,1,96,149.42c-6.5-8.3-11.41-17.28-11.48-28.19,0-2-1.14-2.66-2.81-3-5.36-1.17-8.29-4.71-9.32-9.91-.93-4.64-1.66-9.32-2.53-14a13.35,13.35,0,0,1,2.62-10.94,9,9,0,0,0,1.85-5.89c-.05-10.93,0-21.86,0-32.79C74.18,21.07,93.14,8.4,110.2,9c20.29.66,40.62.1,60.94.18,13.75,0,23.81,6.46,30.31,18.41,1.25,2.29,2.53,3.15,5.12,3.14,29-.09,58.05-.06,87.07-.06C307,30.63,314.05,36,317.55,48.83ZM138.7,189.43q-39.33,0-78.66,0c-4.65,0-5.7,1.12-5.47,5.7.25,4.83.52,9.66.86,14.48q1.35,19.23,2.77,38.46c.7,9.54,1.34,19.09,2.16,28.62.46,5.29,1.33,5.92,6.78,5.92H211.4c4,0,5.32-1,5.63-4.95,1.18-14.84,2.25-29.68,3.33-44.53.94-12.82,1.82-25.64,2.77-38.46a5,5,0,0,0-1.16-4c-1.36-1.49-3.18-1.2-4.9-1.21Q177.89,189.41,138.7,189.43Zm41-118.09c0-4.74,0-9.48,0-14.22,0-6.79-3.1-9.83-10-9.86-2.23,0-4.46.13-6.67,0a15.44,15.44,0,0,0-11,3.48c-7.07,5.39-16.53,5.79-23.55.56a19.69,19.69,0,0,0-14-4c-1.63.13-3.28,0-4.93,0-6.49.05-9.55,3.11-9.57,9.64q0,14.5,0,29c0,3.15-.95,5.82-4,7-1.9.75-2.36,1.94-2.34,3.78.06,7.45,0,14.9,0,22.35A30.92,30.92,0,0,0,97,133.64c7.62,14.65,19.42,24.58,34.79,30.34a20.65,20.65,0,0,0,12.55.91c15.06-3.88,26.3-13.09,35.1-25.54a32.82,32.82,0,0,0,6.37-16.9c.61-8.89.14-17.79.27-26.68a2.51,2.51,0,0,0-1.9-2.58c-3.25-1.22-4.48-3.71-4.45-7C179.77,81.21,179.74,76.27,179.73,71.34Zm45.68,81.13c1.65-.09,2.33-1,3.14-1.63,9.68-7.41,19.39-14.76,29-22.31a14,14,0,0,1,9.54-3.29c9.67.19,19.34.1,29,0,7.21,0,12-4.81,12-12q.08-30.62,0-61.22c0-7-4.6-11.79-11.57-11.81-29.4-.1-58.8,0-88.2-.09-2.35,0-3.24.84-3.22,3.25.09,11.6.07,23.21,0,34.82a6.57,6.57,0,0,0,1.6,4.48,13.56,13.56,0,0,1,3.11,11.36c-.82,4.76-1.56,9.54-2.51,14.27-1,5.19-4,8.83-9.36,9.84-3.27.61-2.76,2.93-2.7,5.1.06,2.37,1.9,2,3.4,2,8.23,0,16.45,0,24.67,0,6.69,0,8.27,2,6.66,8.63C228.52,140,227,146.1,225.41,152.47ZM139.94,18.28c-10.07,0-20.13-.07-30.19,0-15.54.14-26,10.72-26,26.24q0,15.38,0,30.77a16.17,16.17,0,0,0,.06,2.31c.18,1.27,3.73,3.31,5.41,3,1.94-.33,1.16-2,1.17-3.06.08-7.06-.06-14.13.08-21.19C90.68,45.22,98,38,109.19,37.71c3.19-.07,6.38,0,9.57,0a20.76,20.76,0,0,1,12.93,4.39c5.79,4.47,10.6,4.43,16.35-.06a19.5,19.5,0,0,1,11.5-4.27c4-.16,7.94-.19,11.89,0,8.54.4,15.1,5.56,17.07,13.26a29,29,0,0,1,.74,7.2c0,6.58,0,13.16,0,19.74,0,1-.47,2.3,1,2.66,2.4.59,5.66-2,5.66-4.53q0-16.26,0-32.51a27.14,27.14,0,0,0-1-6.88c-3-11.19-12.52-18.28-24.87-18.4C160.06,18.2,150,18.28,139.94,18.28ZM250.21,262.34c-.88-11.93-.45-21.72-.88-31.47-.48-11-6.08-19.12-15.1-25.09-1.63-1.08-2.4-.83-2.53,1.24-.29,4.53-.72,9-1,13.58q-1.11,14.9-2.17,29.79-1.11,15.33-2.24,30.65a2,2,0,0,0,1.46,2.18c5.43,2.17,8.28,6.12,8.2,12.06,0,1,.16,1.89,1.31,2.31,6.74,2.48,13-1.84,13-9C250.2,279.13,250.21,269.65,250.21,262.34ZM30.33,259.57c-.75,9.57-.5,19.15-1.07,28.73-.36,6.05,2.77,9.25,8.79,9.39,1.06,0,2.13,0,3.19,0,1.81.09,2.66-.59,2.58-2.54-.23-4.91,2-8.57,6.15-11,1-.6,1.74-1.23,1.43-2.5a43,43,0,0,1-.7-7.5l-3.36-46.86c-.44-6.17-.8-12.34-1.32-18.51-.24-2.73-.83-3-2.93-1.34-7.52,5.78-12.31,13.25-12.68,22.83C30,240,30.33,249.8,30.33,259.57Zm109.59,32.5H59.51c-1.26,0-2.52,0-3.77.13a2.54,2.54,0,0,0-2.58,2.31,2.69,2.69,0,0,0,2.26,2.94,9.7,9.7,0,0,0,2.59.24q81.72,0,163.43,0a11.85,11.85,0,0,0,3.14-.39,2.43,2.43,0,0,0,1.92-2.59,2.49,2.49,0,0,0-2.4-2.47,36.44,36.44,0,0,0-3.77-.15Zm-.06-112.2c6.48,0,13,0,19.44,0,1.82,0,3-.14,1.55-2.32a9.45,9.45,0,0,1-1.59-4.62c-.19-2.89-1.43-2.9-3.76-1.86-6.53,2.9-13.31,4.63-20.56,3.34a42.06,42.06,0,0,1-11.31-3.55c-2.2-1.09-3-.39-3.19,1.77a13.16,13.16,0,0,1-1.33,4.42c-1.33,2.78-1.32,2.79,1.9,2.8Zm55.39-81.08c0,2.51,0,5,0,7.53,0,.89-.35,2.21,1,2.3,1.15.07,1.54-1.11,1.75-2,.54-2.45,1-4.91,1.39-7.38s1.29-5.07,1.13-7.7c-.1-1.67-.7-3-2.76-3s-2.61,1.22-2.57,3C195.3,94,195.26,96.38,195.25,98.79Zm-110.82.28h-.25c0-2.51,0-5,0-7.52,0-1.56-.35-2.94-2.31-3s-2.8,1.32-2.71,3a95.18,95.18,0,0,0,2.68,15.62c.16.76.67,1.57,1.55,1.49,1.2-.12,1-1.22,1-2C84.45,104.08,84.43,101.58,84.43,99.07Z"/><path class="cls-1" d="M156.41,239.25a16.66,16.66,0,0,1-16.66,16.89,17,17,0,0,1-16.65-16.77,16.6,16.6,0,0,1,16.66-16.57A16.31,16.31,0,0,1,156.41,239.25Zm-16.53,7.36a7.39,7.39,0,0,0,7.27-7.2,7.59,7.59,0,0,0-7.22-7.32,7.51,7.51,0,0,0-7.38,7.42A7.29,7.29,0,0,0,139.88,246.61Z"/><path class="cls-1" d="M244.44,103.07c-2.39-.08-3.76-1.76-3.27-3.75a12.15,12.15,0,0,1,1-2.4q8.49-17.48,17-34.94c.17-.35.35-.7.53-1,1-1.85,2.31-2.94,4.44-1.87s2.29,2.71,1.35,4.65q-2.91,6-5.83,12-6,12.25-12,24.49C246.93,101.75,246.13,103.17,244.44,103.07Z"/><path class="cls-1" d="M231.42,97.81a11,11,0,0,1-1.71-.79c-4-2.56-8-5.09-11.91-7.76-3.34-2.28-3.39-5.14-.08-7.4,4-2.74,8.09-5.29,12.13-7.94,2.16-1.41,3.91-.77,5.22,1.17s.83,3.84-1.19,5.2c-1,.64-1.94,1.26-2.92,1.89-5.23,3.33-5.22,3.32-.13,6.62a43.91,43.91,0,0,1,3.82,2.64,3,3,0,0,1,.79,3.92A4,4,0,0,1,231.42,97.81Z"/><path class="cls-1" d="M291.6,85.43a4,4,0,0,1-2,3.62q-6.15,4.07-12.36,8A3.47,3.47,0,0,1,272,96c-1.35-2-.86-3.84,1.22-5.18,1.86-1.2,3.67-2.49,5.58-3.62s2.11-2,.08-3.25-3.89-2.5-5.82-3.78-2.39-3-1.13-5,3-2.72,5.17-1.32q6.21,4,12.38,8A4.14,4.14,0,0,1,291.6,85.43Z"/></svg>