<?xml version="1.0" encoding="utf-8"?>
<!-- Generator: Adobe Illustrator 24.0.1, SVG Export Plug-In . SVG Version: 6.00 Build 0)  -->
<svg version="1.1" id="Layer_1" xmlns="http://www.w3.org/2000/svg" xmlns:xlink="http://www.w3.org/1999/xlink" x="0px" y="0px"
	 viewBox="0 0 256 49" style="enable-background:new 0 0 256 49;" xml:space="preserve">
<style type="text/css">
	.st0{fill:#582D84;}
	.st1{fill:#800080;}
	.st2{fill:url(#SVGID_1_);}
	.st3{fill:url(#SVGID_2_);}
</style>
<g>
	<path class="st0" d="M83.4,39.1h-5.6V28.5h-8.3v10.6h-5.6V13.6h5.6v10.1h8.3V13.6h5.6V39.1z"/>
	<path class="st0" d="M105.3,13.6v16.7c0,1.9-0.4,3.5-1.1,4.9c-0.7,1.4-1.8,2.4-3.2,3.2c-1.4,0.7-3,1.1-4.9,1.1
		c-2.8,0-5.1-0.8-6.7-2.4c-1.6-1.6-2.5-3.8-2.5-6.6V13.6h5.7v16.9c0.1,2.8,1.3,4.2,3.6,4.2c1.2,0,2-0.4,2.6-1.1
		c0.6-0.7,0.9-1.8,0.9-3.4V13.6H105.3z"/>
	<path class="st0" d="M128.4,39.1h-5.6l-8.3-15.9v15.9h-5.6V13.6h5.6l8.3,15.9V13.6h5.6V39.1z"/>
	<path class="st0" d="M149.8,18.4h-7v20.7h-5.6V18.4h-6.9v-4.7h19.5V18.4z"/>
	<path class="st1" d="M166.1,29.2h2.4v4.6h-2.4v5.4h-5.4v-5.4h-9l-0.3-3.6l9.4-16.4v-0.1h5.4V29.2z M156.5,29.2h4.2v-7.8l-0.3,0.6
		L156.5,29.2z"/>
	<path class="st0" d="M189.6,18.4h-7v20.7h-5.6V18.4H170v-4.7h19.5V18.4z"/>
	<path class="st0" d="M206.4,28.3h-8.9v6.1H208v4.7h-16.1V13.6h16.1v4.7h-10.5v5.4h8.9V28.3z"/>
	<path class="st0" d="M229.2,30.5c-0.1,1.8-0.5,3.3-1.3,4.7c-0.8,1.4-1.9,2.4-3.4,3.2s-3.1,1.1-5,1.1c-3.1,0-5.5-1.1-7.3-3.3
		c-1.8-2.2-2.6-5.3-2.6-9.2v-1.3c0-2.5,0.4-4.7,1.2-6.6c0.8-1.9,1.9-3.3,3.4-4.3s3.2-1.5,5.2-1.5c2.8,0,5.1,0.8,6.8,2.4
		c1.7,1.6,2.7,3.9,2.9,6.7h-5.6c0-1.6-0.4-2.7-1.1-3.3c-0.7-0.7-1.7-1-3.1-1c-1.4,0-2.4,0.6-3.1,1.7c-0.7,1.1-1,3-1,5.5v1.8
		c0,2.7,0.3,4.7,0.9,5.8c0.6,1.2,1.7,1.8,3.2,1.8c1.3,0,2.3-0.3,3-1c0.7-0.7,1-1.7,1.1-3.2H229.2z"/>
	<path class="st0" d="M251.4,39.1h-5.6V28.5h-8.3v10.6h-5.6V13.6h5.6v10.1h8.3V13.6h5.6V39.1z"/>
</g>
<g>
	<linearGradient id="SVGID_1_" gradientUnits="userSpaceOnUse" x1="5.3073" y1="27.9488" x2="30.4817" y2="27.9488">
		<stop  offset="0" style="stop-color:#800080"/>
		<stop  offset="1" style="stop-color:#582D84"/>
	</linearGradient>
	<polygon class="st2" points="30.5,23.6 30.5,45.4 20.9,45.4 20.9,40.6 5.3,40.6 5.3,10.5 14.9,10.5 14.9,30.9 20.9,30.9 20.9,23.6 
			"/>
	<linearGradient id="SVGID_2_" gradientUnits="userSpaceOnUse" x1="20.8709" y1="24.5" x2="57.4928" y2="24.5">
		<stop  offset="0" style="stop-color:#800080"/>
		<stop  offset="1" style="stop-color:#582D84"/>
	</linearGradient>
	<polygon class="st3" points="57.5,3.6 57.5,13.2 46.1,13.2 46.1,45.4 36.4,45.4 36.4,13.2 30.5,13.2 30.5,17.7 20.9,17.7 20.9,3.6 
			"/>
</g>
</svg>
