<svg id="Layer_1" data-name="Layer 1" xmlns="http://www.w3.org/2000/svg" xmlns:xlink="http://www.w3.org/1999/xlink" viewBox="0 0 256 49"><defs><style>.cls-1{font-size:34.17px;fill:#582d84;font-family:Roboto-Black, Roboto;font-weight:800;}.cls-2{letter-spacing:-0.01em;}.cls-3{fill:#af14c6;}.cls-4{letter-spacing:0em;}.cls-5{fill:url(#linear-gradient);}.cls-6{fill:url(#linear-gradient-2);}</style><linearGradient id="linear-gradient" x1="9" y1="24.32" x2="30.58" y2="24.32" gradientUnits="userSpaceOnUse"><stop offset="0" stop-color="#582d84"/><stop offset="1" stop-color="#af14c6"/></linearGradient><linearGradient id="linear-gradient-2" x1="22.34" y1="21.36" x2="53.73" y2="21.36" gradientUnits="userSpaceOnUse"><stop offset="0" stop-color="#af14c6"/><stop offset="1" stop-color="#582d84"/></linearGradient></defs><title>hunt4 tech</title><text class="cls-1" transform="translate(57.06 39.28)">HU<tspan class="cls-2" x="46.72" y="0">N</tspan><tspan x="70.23" y="0">T</tspan><tspan class="cls-3" x="91.77" y="0">4</tspan><tspan class="cls-4" x="111.56" y="0">TECH</tspan></text><polygon class="cls-5" points="30.58 20.62 30.58 39.28 22.34 39.28 22.34 35.12 9 35.12 9 9.36 17.24 9.36 17.24 26.88 22.34 26.88 22.34 20.62 30.58 20.62"/><polygon class="cls-6" points="53.73 3.44 53.73 11.68 43.93 11.68 43.93 39.28 35.69 39.28 35.69 11.68 30.58 11.68 30.58 15.54 22.34 15.54 22.34 3.44 53.73 3.44"/></svg>