<?xml version="1.0" encoding="utf-8"?>
<!-- Generator: Adobe Illustrator 24.0.1, SVG Export Plug-In . SVG Version: 6.00 Build 0)  -->
<svg version="1.1" id="Layer_1" xmlns="http://www.w3.org/2000/svg" xmlns:xlink="http://www.w3.org/1999/xlink" x="0px" y="0px"
	 viewBox="0 0 256 49" style="enable-background:new 0 0 256 49;" xml:space="preserve">
<style type="text/css">
	.st0{fill:#1999CE;}
</style>
<g>
	<g>
		<polygon class="st0" points="61.9,28.5 57.9,30.3 56.8,28.2 61,26.3 		"/>
		
			<rect x="20.1" y="13.6" transform="matrix(0.9992 -3.898237e-02 3.898237e-02 0.9992 -0.5388 1.044)" class="st0" width="12.9" height="1.5"/>
		<path class="st0" d="M35.2,43.9c0.3,0,0.6-0.1,0.9-0.3c0.8-0.9,1.7-1.8,2.1-2.8c0,0,0-0.1,0-0.1c0,0,0,0,0,0
			c0.2-0.6,0.3-1.2,0.1-1.7c-0.4-0.9-1.5-1.4-2.5-1.6c-0.2,0-0.4,0-0.5,0.1c-0.1,0-0.1,0.1-0.1,0.1c-0.3,0.3-1.5,1.9-1.7,2.2
			c-0.7,0.8-1.2,1.5-0.7,2.6C33.2,43.2,34.4,44,35.2,43.9"/>
		<path class="st0" d="M58.7,32.9c-0.4,0.9-0.9,1.5-1.7,1.9c-0.6,0.3-1.2,0.4-2,0.4c-0.1,0-0.3,0-0.4,0c-0.1,0.7-0.2,1.4-0.7,2.1
			c-0.3,0.5-0.8,0.8-1.4,1.1c-0.5,0.2-1.2,0.3-1.9,0.3c0,0,0,0.1,0,0.1c-0.1,0.6-0.4,1.4-1,2.1c-0.7,0.8-1.7,1.3-2.8,1.2
			c-0.2,0-0.4,0-0.6-0.1l-1.4-0.5c0,0,0,0,0,0c-1.8-0.9-3.9-2.1-5.4-2.9c-0.3-0.2-0.4-0.6-0.3-0.9c0.1-0.2,0.4-0.3,0.6-0.3
			c0.1,0,0.2,0,0.3,0.1c1.6,0.9,4.1,2.2,6,3.2h0c0,0,0.1,0,0.1,0c0.2,0,0.5,0.1,0.7,0.1c1.7,0.1,2.2-1.3,2.5-2.3c0,0,0,0,0,0
			c-0.3-0.2-0.6-0.4-1-0.6c-2.1-1.4-4.8-4.1-6.3-4.9c-0.3-0.2-0.5-0.6-0.3-0.9c0.1-0.2,0.4-0.4,0.6-0.4c0.1,0,0.2,0,0.3,0.1
			c1.5,0.9,4.3,3.6,6.4,5c0.3,0.2,0.6,0.4,1,0.6c0,0,0,0,0,0c0.2,0,0.4,0,0.6,0.1c2.3,0.1,2.6-1.3,2.6-2.7c0,0,0,0,0,0
			c-2.8-1.7-6-5.2-7.8-6.4c-0.3-0.2-0.4-0.6-0.2-0.9c0.1-0.2,0.4-0.4,0.6-0.4c0.1,0,0.2,0,0.4,0.1c2,1.4,5.7,5.1,8.3,6.8
			c0,0,0,0,0,0c0.2,0,0.3,0,0.5,0c0.9,0,1.9-0.2,2.4-1.5c0.2-0.5-0.5-2-1.1-2.8c0.4-0.2,0.6-0.7,1-0.9c0.2,0.2,0.5,0.7,0.6,0.9
			c0.2,0.4,0.8,1.6,0.9,1.9C58.9,32,58.8,32.5,58.7,32.9"/>
		<path class="st0" d="M33.8,37.8c0.7-0.8,1.5-1.6,1.9-2.6c0.3-1.5-0.2-2.1-0.5-2.5C34.8,32.2,34.4,32,34,32c-1,0-2.2,1.5-2.8,2.3
			c-0.1,0.2-0.2,0.3-0.3,0.4l-1.4,1.7c-0.3,0.4-0.6,0.9-1.1,1.5c-0.3,0.4-0.5,1.2-0.3,1.7c0.2,0.5,1.2,1.2,1.7,1.3
			c0.6,0.2,1.3,0.1,2.6-1.7C32.9,38.7,33.4,38.3,33.8,37.8"/>
		<path class="st0" d="M23.9,37c-1.1-1.4-0.4-2.5,0.5-3.4c1.2-1.4,1.1-1.6,2.5-2.6c1.1-0.1,1.9,0.3,2.4,1.1c0.5,0.7,0.6,1.6,0.4,2.3
			c-0.1,0.1-0.2,0.2-0.3,0.3c-0.7,0.9-0.3,0.4-1,1.1c-0.7,0.8-1.1,1-2,1.6C26.4,37.4,24.9,38.4,23.9,37"/>
		<path class="st0" d="M56.4,29.8l0.9-0.7c0.1,0.1-0.3,0.1-0.1,0c1.8-1.2,3.7-2.1,4.1-2.5l-0.2-0.7l-2.5-11.7
			c-5.2,1-6.5-0.1-9.6-1.5c-3.2-1.5-5.2-1.5-9.7-1.2c-0.6,0-1.1,0.1-1.5,0.1c-0.5,0-1,0.1-1.4,0.1c-0.7,0.1-1.3,0.2-1.8,0.4
			c0,0,0,0,0,0c-0.4,0.1-0.8,0.2-0.9,0.3c0,0-1.6,1.4-2.1,2.4c-0.6,1-1.9,1.7-0.7,2.7c1.2,1,1.6,1.4,3.8-0.1
			c0.7-0.5,0.8-0.6,1.2-0.8c0.8-0.6,2.5-0.4,2.9-0.3C38.5,16.1,47.1,18.7,56.4,29.8"/>
		<path class="st0" d="M0.6,30.3l9.3,1c1,0.2,2-0.4,2.3-1.4l4.2-17.8c0.3-1.1-0.5-2.2-1.6-2.3L0.9,4.4L0.6,30.3z"/>
		<path class="st0" d="M17.3,13.1l2.5,0.6l-3.7,16l-2.5-0.6L17.3,13.1z M16.4,11.7L12.1,30l4.8,1.1l4.3-18.4L16.4,11.7z"/>
		<path class="st0" d="M77.8,30l-9.3,1c-1,0.2-2-0.4-2.3-1.4L62,11.8c-0.3-1.1,0.5-2.2,1.6-2.3l13.9-5.4L77.8,30z"/>
		<path class="st0" d="M64.8,28.9l-2.5,0.6l-3.7-16l2.5-0.6L64.8,28.9z M57.1,12.5l4.3,18.4l4.8-1.1L62,11.4L57.1,12.5z"/>
		<path class="st0" d="M20.8,29L20.8,29c-0.3,0.2-0.5,0.5-0.5,0.5c-0.1,0.1-0.2,0.3-0.3,0.4l0,0l0,0c-0.1,0.2-0.3,0.3-0.4,0.5
			c-0.3,0.6-0.5,1-0.2,1.8c0.3,0.8,0.5,1.3,1.3,1.7c0.5,0.2,1.1,0.5,1.6,0.4c0.6-0.1,1.1-0.8,1.4-1.3c0.1-0.2,0.2-0.3,0.3-0.4l0,0v0
			C24.4,29.1,20.8,29,20.8,29"/>
		<path class="st0" d="M44.9,41.5C44.9,41.5,44.9,41.5,44.9,41.5C44.9,41.5,44.8,41.5,44.9,41.5c-0.1,0.1-0.1,0.1-0.1,0.1
			c-0.5,0.4-3.2,3.7-6.3,1.5L17.4,29l-0.3,1l20.6,14c0,0,0.2,0.1,0.5,0.3c1.1,0.7,4.3,1.1,7.3-1.6c0.2-0.2,0.4-0.3,0.6-0.4l0.3-0.2
			L44.9,41.5z"/>
	</g>
	<g>
		<path d="M110.1,36.3h-1c-0.2-0.7-0.5-1.2-1-1.6c-0.5-0.4-1.2-0.6-1.9-0.6c-1.1,0-2,0.4-2.6,1.3c-0.5,0.8-0.8,1.8-0.8,3.1
			c0,1.4,0.4,2.5,1.1,3.3c0.6,0.7,1.4,1,2.4,1c0.9,0,1.7-0.3,2.2-0.9c0.5-0.5,0.8-1.2,0.9-2.1h1c-0.1,0.9-0.4,1.5-0.8,2.1
			c-0.8,1.1-1.9,1.7-3.4,1.7c-1.4,0-2.6-0.5-3.4-1.6c-0.7-0.9-1-2.1-1-3.6c0-1.7,0.5-3,1.4-4c0.8-0.8,1.8-1.2,3.1-1.2
			c1.1,0,2,0.3,2.7,0.9C109.5,34.7,110,35.4,110.1,36.3z"/>
		<path d="M118.3,33.3c1.5,0,2.6,0.5,3.5,1.6c0.7,0.9,1.1,2.1,1.1,3.6c0,1.7-0.5,3-1.4,3.9c-0.8,0.8-1.9,1.2-3.2,1.2
			c-1.5,0-2.6-0.5-3.5-1.6c-0.7-0.9-1.1-2.1-1.1-3.6c0-1.7,0.5-3,1.4-3.9C115.9,33.7,117,33.3,118.3,33.3z M118.3,34.1
			c-1.1,0-2,0.4-2.7,1.3c-0.6,0.8-0.9,1.8-0.9,3.1c0,1.4,0.4,2.5,1.1,3.3c0.6,0.7,1.5,1,2.5,1c1.2,0,2.1-0.4,2.7-1.3
			c0.6-0.8,0.9-1.8,0.9-3c0-1.3-0.3-2.3-0.9-3.1C120.3,34.5,119.4,34.1,118.3,34.1z"/>
		<path d="M134.5,43.4h-1l-5.8-8.7c0,0.6,0.1,2,0.1,4v4.7h-0.9v-9.9h1l5.8,8.7c0-1.1-0.1-2.4-0.1-4.1v-4.6h0.9V43.4z"/>
		<path d="M146.6,43.4h-1l-5.8-8.7c0,0.6,0.1,2,0.1,4v4.7H139v-9.9h1l5.8,8.7c0-1.1-0.1-2.4-0.1-4.1v-4.6h0.9V43.4z"/>
		<path d="M157.7,33.5v0.8h-5.6v3.6h5.2v0.8h-5.2v3.9h5.8v0.8h-6.8v-9.9H157.7z"/>
		<path d="M169.8,36.3h-1c-0.2-0.7-0.5-1.2-1-1.6c-0.5-0.4-1.2-0.6-1.9-0.6c-1.1,0-2,0.4-2.6,1.3c-0.5,0.8-0.8,1.8-0.8,3.1
			c0,1.4,0.4,2.5,1.1,3.3c0.6,0.7,1.4,1,2.4,1c0.9,0,1.7-0.3,2.2-0.9c0.5-0.5,0.8-1.2,0.9-2.1h1c-0.1,0.9-0.4,1.5-0.8,2.1
			c-0.8,1.1-1.9,1.7-3.4,1.7c-1.4,0-2.6-0.5-3.4-1.6c-0.7-0.9-1-2.1-1-3.6c0-1.7,0.5-3,1.4-4c0.8-0.8,1.8-1.2,3.1-1.2
			c1.1,0,2,0.3,2.7,0.9C169.2,34.7,169.6,35.4,169.8,36.3z"/>
		<path d="M176.8,34.3v9.1h-1v-9.1h-3.2v-0.8h7.3v0.8H176.8z"/>
		<path d="M194.6,33.5v0.8h-5.6v3.6h5.2v0.8h-5.2v3.9h5.8v0.8h-6.8v-9.9H194.6z"/>
		<path d="M204.2,40.3h-4.4l-1.2,3.1h-1l3.8-9.9h1l3.9,9.9h-1L204.2,40.3z M203.8,39.5l-1.9-5l-1.8,5H203.8z"/>
		<path d="M216.4,36.2h-1c0-0.6-0.2-1.1-0.5-1.4c-0.5-0.5-1.1-0.7-2-0.7c-0.8,0-1.4,0.2-1.8,0.6c-0.4,0.3-0.6,0.8-0.6,1.3
			c0,0.8,0.5,1.4,1.6,1.6L214,38c0.9,0.2,1.6,0.5,2,0.9c0.5,0.5,0.7,1,0.7,1.8c0,1-0.4,1.7-1.1,2.3c-0.6,0.5-1.5,0.7-2.5,0.7
			c-1.4,0-2.4-0.4-3.1-1.3c-0.4-0.5-0.6-1.3-0.7-2.2h1c0,1.8,1,2.7,2.8,2.7c0.8,0,1.5-0.2,2-0.6c0.4-0.4,0.6-0.8,0.6-1.4
			c0-0.5-0.2-0.9-0.5-1.2c-0.3-0.3-0.8-0.5-1.6-0.7l-1.8-0.4c-1.6-0.3-2.3-1.2-2.3-2.5c0-0.9,0.4-1.6,1.1-2.1
			c0.6-0.4,1.4-0.7,2.4-0.7c1.3,0,2.3,0.4,2.9,1.2C216.2,34.9,216.4,35.5,216.4,36.2z"/>
		<path d="M221.6,33.5v9.9h-1v-9.9H221.6z"/>
		<path d="M227,33.5v9.1h4.8v0.8h-5.8v-9.9H227z"/>
		<path d="M238.9,39.1v4.4h-0.9v-4.4l-3.8-5.6h1.2l3.1,4.7l3.1-4.7h1.1L238.9,39.1z"/>
	</g>
	<g>
		<path class="st0" d="M101.8,16.1h-8.5v9.7H89v-21c0-0.2,0.1-0.3,0.3-0.3H93c0.2,0,0.3,0.1,0.3,0.3v7.7h8.4V4.7
			c0-0.2,0.1-0.3,0.3-0.3h3.8c0.2,0,0.3,0.1,0.3,0.3v21h-4.4V16.1z"/>
		<path class="st0" d="M125.4,4.4h2.4v14.1c0,2.3-0.7,4.1-2.1,5.4c-1.6,1.5-3.7,2.2-6.4,2.2c-2.7,0-4.8-0.7-6.4-2.2
			c-1.4-1.3-2.1-3-2.1-5.4V4.4h2.8c0.9,0,1.6,0.7,1.6,1.6v12.6c0,2.5,1.4,3.8,4.1,3.8c2.7,0,4.1-1.3,4.1-3.8V6.5
			C123.4,5.3,124.3,4.4,125.4,4.4"/>
		<path class="st0" d="M145.4,25.8L136.8,11v14.8h-4.4V4.4h4.5l8.5,14.5V6.4c0-1.1,0.9-2,2-2h2.4v21.3H145.4z"/>
		<path class="st0" d="M163.6,8.1v17.7h-4.4V8.1h-6.5V4.4h17.1v1.8c0,1-0.8,1.9-1.9,1.9H163.6z"/>
		<polygon class="st0" points="177.2,9.2 177.2,25.8 172.8,25.8 172.8,4.4 179.3,4.4 183.2,17.8 187,4.4 193.6,4.4 193.6,25.8 
			189.2,25.8 189.2,9.2 185.4,22.1 181,22.1 		"/>
		<path class="st0" d="M202.6,16.6v5.5h11.6v1.5c0,1.2-0.9,2.1-2.1,2.1h-12c-1,0-1.8-0.8-1.8-1.8V4.4h15.4v3.7h-11v4.8h10.2v3.7
			H202.6z"/>
		<path class="st0" d="M231,25.8L222.4,11v14.8H218V4.4h4.5l8.5,14.5V6.8c0-1.3,1-2.3,2.3-2.3h2v21.3H231z"/>
		<path class="st0" d="M249.2,8.1v17.7h-4.4V8.1h-6.5V4.4h17.1v2.1c0,0.9-0.7,1.6-1.6,1.6H249.2z"/>
	</g>
</g>
</svg>
