<svg id="Layer_1" data-name="Layer 1" xmlns="http://www.w3.org/2000/svg" viewBox="0 0 337.5 315.58"><defs><style>.cls-1{fill:#3e8d22;}</style></defs><title>icons</title><path class="cls-1" d="M310,275.42c-2.51,6.54-6,12.39-11.6,16.8a33.55,33.55,0,0,1-45.65-3.9q-33.08-36.09-66.26-72c-1.71-1.87-2.79-2.64-4.91-.33-2.74,3-6.11,2.93-8.54.53s-2.26-5.6.29-8.64,2.56-3.06-.2-6c-4.15-4.42-4.15-4.42-8.48-.09-8.65,8.65-17.27,17.32-26,25.91a4.39,4.39,0,0,0-1.33,4.62,55.49,55.49,0,0,1-41.16,65.58A54.47,54.47,0,0,1,66.82,297c-5.95-1.83-7.12-6.64-2.7-11.08,6.49-6.51,13-13,19.59-19.42a8.13,8.13,0,0,0,2.37-5.56c.59-5.48-.81-9.9-5.43-13.13a5.71,5.71,0,0,1-1.37-1.36c-3.4-4.85-8-6.45-13.83-5.66a6.79,6.79,0,0,0-4.34,1.91c-6.5,6.63-13.06,13.2-19.62,19.78-5.08,5.09-9.61,3.92-11.73-3-7.63-24.89,4.43-53,27.68-64.79,11.92-6,24.31-8,37.4-5a4.34,4.34,0,0,0,4.45-1.33q18.17-18.3,36.47-36.47c1.43-1.42,1.5-2.34,0-3.8Q103.68,116,71.67,83.81A4.77,4.77,0,0,0,68,82.32c-3.21.05-6.43,0-9.65,0A8,8,0,0,1,50.92,78c-7-11.86-14.18-23.65-21.25-35.48-3.16-5.28-3-6.82,1.36-11,5.28-5.11,10.06-10.73,15.83-15.33h4.41c.46.3.91.62,1.38.91,12,7.19,23.91,14.46,36,21.5,3.75,2.19,5.78,4.85,5.33,9.31-.25,2.55.07,5.15-.08,7.72a5.7,5.7,0,0,0,2,4.83c2.23,2,4.31,4.27,6.45,6.42q28.45,28.5,56.9,57c1.19,1.19,2,2.49,3.95.56q18.51-18.74,37.23-37.27a3.25,3.25,0,0,0,1-3.45,50.7,50.7,0,0,1-.85-20c2.55-16.89,11.17-29.89,25.34-39.27,6.77-4.48,14.41-6.78,22.31-8.29h14.34c3,.7,6.11,1.26,9.1,2.13,6.16,1.8,7.34,6.58,2.84,11.19-5.33,5.45-10.39,11.22-16.13,16.2-4.57,4-5.75,8.52-5.2,14.12a6.23,6.23,0,0,0,1.73,4.16c2.47,2.46,5,4.91,7.2,7.59,1.95,2.35,4.26,2.82,7.19,3,4.65.35,7.89-1.21,11-4.62,5.7-6.23,11.8-12.1,17.82-18,3.89-3.82,8.58-2.63,10.33,2.52.6,1.73,1.05,3.51,1.57,5.27V83.43c-.28.77-.61,1.54-.82,2.33-7.37,27.72-35.5,46.18-64.9,39.92a5.06,5.06,0,0,0-5.17,1.54c-8.91,9-17.93,18-26.88,26.95-3.73,3.75-3.81,2.78.13,6.54,3.64,3.47,3.67,3.44,7.67.5a9.16,9.16,0,0,1,.92-.61,5.79,5.79,0,0,1,7.09,1,5.6,5.6,0,0,1,.6,7.09,9,9,0,0,1-1.76,2.11c-1.52,1.26-1.38,2.15.11,3.45,4,3.43,7.75,7.05,11.61,10.59,18.77,17.2,37.49,34.45,56.35,51.56,6.4,5.8,12.36,11.82,15,20.31ZM259.92,28.29a17.87,17.87,0,0,0-7.55-.53c-14.25,1-25.36,7.58-33.27,19.36-7.5,11.17-9.2,23.43-5.64,36.37.92,3.34.91,6.15-1.78,8.83Q157.8,146.08,104,200c-2.25,2.25-4.72,3-7.76,2a41.1,41.1,0,0,0-10-1.94,44,44,0,0,0-43.83,27.23,40.09,40.09,0,0,0-2.94,20.35c1.1-1,1.83-1.7,2.52-2.39,4.35-4.36,8.74-8.69,13-13.11a9.48,9.48,0,0,1,7.12-3.06c4.13,0,8.27,0,12.41,0a8.31,8.31,0,0,1,6.22,2.45c4.83,4.92,9.72,9.77,14.62,14.63a7.79,7.79,0,0,1,2.36,6c-.06,4.32-.07,8.64,0,13A8.64,8.64,0,0,1,95,271.71q-6.6,6.48-13.1,13c-.68.69-1.64,1.2-1.87,2.62a35.23,35.23,0,0,0,13.32-.84A43.69,43.69,0,0,0,125.25,232c-1.15-4.14-.36-7.06,2.7-10.1q52.86-52.63,105.49-105.5c3.18-3.19,6.18-4,10.56-2.81a43.67,43.67,0,0,0,53.33-28.77,39,39,0,0,0,1.85-16.78,5.57,5.57,0,0,0-2.56,2c-4.36,4.35-8.74,8.68-13,13.1a9.54,9.54,0,0,1-7.12,3.06c-4.14,0-8.27,0-12.41,0a8.23,8.23,0,0,1-6.21-2.46c-4.58-4.78-9.22-9.5-13.85-14.23a8.75,8.75,0,0,1-2.59-6.73c.11-3.76.18-7.54,0-11.3a10.52,10.52,0,0,1,3.63-8.8C249.92,38.1,254.66,33.37,259.92,28.29Zm39.47,236.33c-.1-6.24-3.7-11.81-9-16.67q-35.85-32.7-71.51-65.58c-1.59-1.47-2.4-1.21-3.75.17-6.24,6.37-12.58,12.64-18.88,18.94-4,4-3.95,4,0,8.22q18.71,20.25,37.34,40.56c9.41,10.2,18.74,20.48,28.26,30.57A21.77,21.77,0,0,0,286.14,286C294.13,282.71,299.43,274.62,299.39,264.62ZM152.92,134.15c-.73-.77-1.39-1.51-2.1-2.21q-30.24-30.39-60.48-60.79c-9.14-9.21-8.18-6.05-8.22-19.56a10.09,10.09,0,0,1,0-1.1,3.26,3.26,0,0,0-1.92-3.32Q65.86,38.65,51.61,30c-1.43-.87-2.28-.56-3.3.53a79.39,79.39,0,0,1-5.66,5.65C41,37.61,41,38.85,42.13,40.65q8.34,13.64,16.44,27.42c1,1.78,2.23,2.71,4.38,2.55s4.61.11,6.89-.07c3.5-.29,6.09,1,8.54,3.51q30.89,31.11,61.94,62.06c1.79,1.79,3.31,5,5.61,4.86s3.69-3.27,5.6-5a5.68,5.68,0,0,0,.76-.79A12,12,0,0,0,152.92,134.15Zm31.58,62.11A17.81,17.81,0,0,0,186,195.1c6.89-6.87,13.76-13.77,20.66-20.63,1.15-1.13,1.34-2.07,0-3.2-1.46-1.25-2.9-2.54-4.24-3.93s-2.29-1.16-3.59.17c-5.32,5.46-10.75,10.81-16.14,16.2-5.77,5.77-5.77,5.77.15,11.46a8,8,0,0,0,.81.73A3.87,3.87,0,0,0,184.5,196.26Z"/><path class="cls-1" d="M135.13,197.88c-4.65.07-7.48-4.37-5.42-8.28a13.21,13.21,0,0,1,2.39-3q33-33.07,66.07-66.1c1.64-1.64,3.3-3.21,5.88-3.12a5.6,5.6,0,0,1,4.9,8.27,13,13,0,0,1-2.19,2.82q-33.31,33.36-66.66,66.68C138.65,196.6,137.12,197.93,135.13,197.88Z"/><path class="cls-1" d="M225.22,107.36a5.68,5.68,0,1,1-5.79-5.71A5.77,5.77,0,0,1,225.22,107.36Z"/><path class="cls-1" d="M124.81,207.89a5.81,5.81,0,0,1-5.81,5.72,5.77,5.77,0,1,1,5.81-5.72Z"/><path class="cls-1" d="M218.23,213.29c.1-3.27,1.17-5,3.24-6a5.49,5.49,0,0,1,6.4,1c2.65,2.41,5.2,4.92,7.74,7.45Q256,236,276.37,256.37a19.06,19.06,0,0,1,1.49,1.62c2.18,2.74,2.11,6-.15,8.21s-5.24,2.15-8,0a17.35,17.35,0,0,1-1.42-1.3l-47-46.89C219.71,216.42,218.16,214.82,218.23,213.29Z"/></svg>