<svg id="Layer_1" data-name="Layer 1" xmlns="http://www.w3.org/2000/svg" viewBox="0 0 337.5 315.58"><defs><style>.cls-1{fill:#e20741;}</style></defs><title>icons</title><path class="cls-1" d="M21.73,244.44V52.2c3.73-18.36,18.12-27.46,31-28.57,5.35-.46,7.57,1.25,7.59,6.57,0,12,0,23.9,0,35.85,0,4.35,0,4.36,4.25,4.36q62.67,0,125.33.06a8.48,8.48,0,0,0,6.55-2.73c16.77-16.89,33.66-33.67,50.43-50.56,3.2-3.22,6.66-5.69,11.25-6.3h1.15c4.58.61,8.13,3,11.25,6.3,3.27,3.48,6.77,6.75,10.11,10.17,6.66,6.82,6.63,14.39-.11,21.21-6.32,6.39-12.71,12.71-19,19.1-.68.69-1.77,1.18-1.75,2.43a6.18,6.18,0,0,0,3.14.31c8.32,0,16.64,0,25,0,6.41,0,7.76,1.36,7.76,7.72q0,39.87,0,79.76c0,1.1-.29,2.27.31,3.36,1.12-.1,1.57-1,2.22-1.68,3.21-3.15,6.35-6.36,9.58-9.49,1.46-1.41,3.2-2.09,5.24-1.15a4.6,4.6,0,0,1,2.76,4.62c0,1.05,0,2.1,0,3.15V295.29c0,8.72-.69,9.4-9.46,9.4H169.17c-1,0-2.11,0-3.16,0-2.47-.12-4.86-.49-5.86-3.22s.54-4.35,2.23-6c6.57-6.55,13.14-13.09,19.65-19.7.87-.88,2.75-1.6,2.14-3-.47-1.06-2.28-.44-3.48-.44q-63.69-.06-127.39,0A29.83,29.83,0,0,1,38,268C29,262.67,23.82,254.6,21.73,244.44ZM183.16,80.32c-.86-.71-1.86-.42-2.77-.42H64.48c-4.1,0-4.13,0-4.13,4.21q0,37.73,0,75.45a17.86,17.86,0,0,1-.34,4.27,4.14,4.14,0,0,1-4.35,3.43,4.25,4.25,0,0,1-4.37-3.41,17.71,17.71,0,0,1-.39-5.13V38.79c0-1,0-2.11,0-3.16,0-1.51-.67-2.06-2.18-1.68a20.66,20.66,0,0,0-6.26,2.76c-8.6,5.59-11.86,13.85-11.86,23.75q0,57.39,0,114.77,0,19.22,0,38.44c0,.92-.48,2.24.4,2.68,1.1.54,1.78-.81,2.52-1.44A33.36,33.36,0,0,1,46.59,208c4.29-1.15,4.29-1.14,4.3-5.49q0-9.62,0-19.22a23.65,23.65,0,0,1,.14-3.15c.41-2.81,2.27-4.63,4.61-4.64a4.68,4.68,0,0,1,4.62,4.9q.16,15.35,0,30.69c0,3-1.92,4.55-5,4.86a45.73,45.73,0,0,0-4.82.64c-14.5,3-23.14,18.26-18,31.6,3.56,9.21,12.32,14.94,23.37,14.95q68.13.08,136.28.05a5.57,5.57,0,0,0,4.31-1.79c4.56-4.64,9.18-9.21,13.79-13.8a24,24,0,0,1,1.86-1.78c2.26-1.86,4.66-1.85,6.45,0s1.8,4.25,0,6.49a27.46,27.46,0,0,1-2.17,2.28q-19,19-37.93,37.95c-.71.72-1.7,1.25-1.9,2.43,1,.69,2.06.36,3.06.36q61.4,0,122.8,0c.57,0,1.15,0,1.72,0,1.82.1,2.6-.75,2.59-2.57,0-4.88,0-9.76,0-14.63,0-1.82-.81-2.59-2.6-2.61a24.57,24.57,0,0,1-6-.36,4.33,4.33,0,0,1-3.62-4.53c0-2.4,1.5-3.87,3.83-4.37a13.53,13.53,0,0,1,2.85-.17c5.93,0,5.55.4,5.53-5.66,0-7.46.64-6.57-6.3-6.62-.38,0-.77,0-1.14,0-2.88-.32-4.7-2-4.81-4.44s1.56-4.34,4.42-4.76a25.42,25.42,0,0,1,4.86-.19c2.26.1,3.1-.91,3-3.09s-.09-4.21,0-6.31-.68-3-2.83-2.92c-1.43.08-2.87,0-4.3,0-3.19-.12-5.17-1.91-5.13-4.59s1.92-4.31,5-4.44c1.52-.07,3.06-.08,4.59,0,2,.07,2.76-.84,2.69-2.77a55.13,55.13,0,0,1,0-6c.19-2.57-.77-3.74-3.43-3.56a16.49,16.49,0,0,1-5.14-.32,4.53,4.53,0,0,1,.37-8.94,19.41,19.41,0,0,1,4.57-.11c2.77.27,3.69-.82,3.65-3.6-.13-10,0-20.08-.07-30.12,0-.8.36-1.73-.47-2.42a7.55,7.55,0,0,0-2.6,2.22l-70.2,70.18a17.42,17.42,0,0,1-3,2.62,4.18,4.18,0,0,1-5.52-.59,4.29,4.29,0,0,1-.54-5.77,20.34,20.34,0,0,1,2.68-3q28.4-28.41,56.82-56.79a6.89,6.89,0,0,0,2.39-5.23q-.09-42.6-.05-85.21c0-3.46-.22-3.65-3.84-3.66-9.75,0-19.51.08-29.26,0a8.32,8.32,0,0,0-6.55,2.72Q204.81,124.43,163,166.2a18,18,0,0,1-7.18,4.49c-6.76,2.27-13.46,4.72-20.18,7.09l.08.46h79.37a26.26,26.26,0,0,1,3.44.08c2.5.31,4.07,1.76,4.17,4.31a4.14,4.14,0,0,1-3.81,4.59,37.63,37.63,0,0,1-5.72.34q-54.79,0-109.6,0a39,39,0,0,1-4.58-.2c-3.12-.37-4.72-2.08-4.62-4.76s1.9-4.27,5-4.34c3.35-.08,6.71-.18,10,0,2.54.15,3.74-.84,4.56-3.22,4.07-11.84,8.33-23.62,12.46-35.44a12.92,12.92,0,0,1,3.12-5.06c5.85-5.78,11.64-11.62,17.47-17.42a11.62,11.62,0,0,1,2.19-1.84A4.26,4.26,0,0,1,155,116a4.18,4.18,0,0,1,.47,5.53,16.66,16.66,0,0,1-2.23,2.6c-4.25,4.28-8.46,8.59-12.81,12.76-1.73,1.66-2,2.81-.11,4.63,5,4.82,10,9.77,14.81,14.8,1.73,1.8,2.84,1.83,4.64,0Q201.84,114.1,244.11,72c1.74-1.74,1.56-2.82-.08-4.41-4.81-4.66-9.49-9.44-14.23-14.17-2.91-2.91-2.92-2.91-5.78-.06l-53.76,53.76a31.58,31.58,0,0,1-3,2.71,4.27,4.27,0,0,1-6-.22c-1.81-1.62-1.92-4-.31-6.2a23.21,23.21,0,0,1,2.32-2.54c6-6,12-12,18-18.07C182.05,82.06,183.07,81.53,183.16,80.32Zm75.25-59.93a7.62,7.62,0,0,0-1.89.8,64.77,64.77,0,0,0-7.79,7.57c-1.1,1.17-.18,2.1.65,2.94,5.26,5.27,10.54,10.51,15.78,15.81,1.15,1.16,2.06,1.44,3.31.09,1.87-2,3.93-3.9,5.82-5.92,2.63-2.79,2.67-4.72,0-7.43-3.92-4-7.95-8-11.93-12A5.93,5.93,0,0,0,258.41,20.39ZM241,37.17a2.45,2.45,0,0,0-1.7,1c-1.17,1.13-2.23,2.38-3.48,3.41-1.92,1.57-2,2.84-.08,4.61,4,3.73,7.74,7.67,11.6,11.53,5.71,5.71,5.68,5.68,11.28-.18,1.15-1.21,1.39-2,.1-3.3-5.39-5.29-10.7-10.67-16.05-16A2.73,2.73,0,0,0,241,37.17Zm-111.18,121c-.25,2.19,6.62,9,8.57,8.72a2.71,2.71,0,0,0,.55-.12l8.08-2.84c1.11-.4,1.7-.9.6-2q-6.48-6.45-12.93-12.91c-.67-.67-1.31-.87-1.71.21C131.84,152.24,130.78,155.3,129.78,158.13Z"/><path class="cls-1" d="M256.34,273.92c-7.37,0-14.73,0-22.09,0-2.36,0-4.42-.44-5.47-2.82s.06-4.24,1.72-5.89q22.73-22.73,45.43-45.46c1.71-1.7,3.61-2.63,5.93-1.66s2.87,2.9,2.87,5.17c0,14.92,0,29.84,0,44.76,0,4.22-1.74,5.86-6,5.88C271.26,273.94,263.8,273.92,256.34,273.92Zm19-39.25-.77-.32Q260.27,248.6,246,262.86c-.33.32-.79.69-.55,1.19s1,.51,1.53.51c8.5,0,17,0,25.49,0,2.35,0,2.83-1.34,2.82-3.34,0-6.68,0-13.36,0-20Z"/></svg>