<svg id="Layer_1" data-name="Layer 1" xmlns="http://www.w3.org/2000/svg" viewBox="0 0 816 548.79"><defs><style>.cls-1{fill:#2f2e41;}.cls-2{fill:#ffb8b8;}.cls-3{fill:#3f3d56;}.cls-4{fill:purple;}.cls-5{fill:#fff;}.cls-6{fill:#f2f2f2;}.cls-7{fill:#a0616a;}.cls-8{fill:#cacaca;}</style></defs><title>pricing</title><path class="cls-1" d="M654.83,71.61l2.62-21a28.33,28.33,0,0,1,56.24,7v0l-2.61,21a3.82,3.82,0,0,1-4.25,3.3l-48.68-6.07A3.81,3.81,0,0,1,654.83,71.61Z"/><circle class="cls-2" cx="678.15" cy="57.1" r="20.78"/><path class="cls-1" d="M650.59,51.48A22.43,22.43,0,0,1,675.6,32l4.2.52a22.44,22.44,0,0,1,19.47,25l0,.42-8.87-1.11-2-8.84-1.66,8.39-4.59-.57-1-4.47-.84,4.24L650.53,51.9Z"/><path class="cls-2" d="M576.54,131.21a9.57,9.57,0,0,0,12.87,4.18,10.11,10.11,0,0,0,1.43-.9l18.87,11.06,9.51-9.83-26.86-15.24a9.62,9.62,0,0,0-15.82,10.73Z"/><path class="cls-3" d="M638.38,151.07c-13.92,0-38.41-6.23-39.76-6.58l-.43-.11L602,124.86l37.41,7.39,20.33-28.62,23.33-2.37-.65.86c-.31.4-30.38,40-35.06,46.63C646.21,150.43,642.84,151.07,638.38,151.07Z"/><path class="cls-3" d="M642.11,224.32l-.55-.27c-.12-.05-11.95-5.81-18.07-17s22.44-58.59,24.43-61.88l0-15,10.27-27.72L671.31,95,660.07,121.2Z"/><polygon class="cls-2" points="629 386.14 616.49 386.13 610.53 337.88 629 337.88 629 386.14"/><path class="cls-1" d="M632.19,398.26H591.85v-.51a15.7,15.7,0,0,1,15.7-15.7h24.64Z"/><polygon class="cls-2" points="763.39 375.17 751.5 379.07 730.82 335.06 748.37 329.31 763.39 375.17"/><path class="cls-1" d="M770.2,385.7l-38.34,12.56-.16-.48a15.71,15.71,0,0,1,10-19.81h0l23.41-7.67Z"/><path class="cls-1" d="M739.17,367.28,703.5,307.73l-30.11-63.61-27.1,56.19L635.53,373.1l-37.75.52.15-.59L655.7,143.5l45.24,6.76-2.06,29.86,1.23,1.75c10.22,14.52,20.78,29.53,14.72,45.71l17.18,51,38,85Z"/><path class="cls-4" d="M657.76,193.25c-6.55,0-14-7.49-10.15-20.27l-.25-.18,9.32-41.18c-8.14-11.63,2.59-21.23,3.59-22.08l5.12-9.22L688,86l11.42,94.94-.17.17C691,189,663.26,193.25,657.76,193.25Z"/><path class="cls-3" d="M704,214.67a10.87,10.87,0,0,1-2.67-.28c-.88-.22-2.3-1.34-4.5-8.49-8.73-28.45-19.05-114-11.55-122.4l.17-.19,12.3,2c1-.75,6.39-4.5,11.34-3.85a7.51,7.51,0,0,1,5.14,3l.09.11,3.92,55.76L732.62,206l-.35.16C731.44,206.58,713.51,214.67,704,214.67Z"/><path class="cls-2" d="M695.74,192.88A9.58,9.58,0,0,0,705,183a9.42,9.42,0,0,0-.21-1.67l18-12.41-4.87-12.78L692.74,174a9.62,9.62,0,0,0,3,18.87Z"/><path class="cls-3" d="M716.85,178.85l-16-11.76,22.55-30.75L706.05,105.8l7.75-22.14.5,1c.23.44,23.34,44.47,27.37,51.52,4.2,7.34-23.36,41-24.54,42.37Z"/><path class="cls-5" d="M559.34,244.42l-294.77,10a27.52,27.52,0,0,1-28.41-26.55L231.3,84.64a27.52,27.52,0,0,1,26.55-28.41l294.77-10A27.52,27.52,0,0,1,581,72.78L585.89,216A27.53,27.53,0,0,1,559.34,244.42Z"/><path class="cls-6" d="M585.89,216l0,.76a26.25,26.25,0,0,1-25.36,27.12l-296.24,10a26.25,26.25,0,0,1-27.13-25.34l0-.76Z"/><path class="cls-4" d="M294.88,100.82c-21.23,6-41-9.8-44.88-25l1.48-.32C269.39,70.93,290,83.15,294.88,100.82Z"/><path class="cls-3" d="M504.77,203.21c-4.78.16-8.63-1.13-11.45-3.85-6.36-6.13-6.39-18.36-6.41-28.2,0-2.86,0-5.56-.18-7.81v0a16.78,16.78,0,0,1,16.11-17.25l39.65-1.34c4.78-.16,8.62,1.13,11.44,3.84,6.36,6.12,6.39,18.36,6.42,28.19,0,2.86,0,5.57.18,7.83a16.79,16.79,0,0,1-16.12,17.29Zm-16.38-40c.17,2.31.18,5,.18,7.92,0,9.52.05,21.36,5.91,27,2.51,2.43,5.86,3.53,10.23,3.38l39.64-1.34a15.1,15.1,0,0,0,14.51-15.53c-.16-2.29-.17-5-.18-7.92,0-9.51-.06-21.36-5.91-27-2.51-2.42-5.85-3.53-10.22-3.38l-39.65,1.35A15.1,15.1,0,0,0,488.39,163.24Z"/><path class="cls-3" d="M286.17,102.65a37.16,37.16,0,0,1-19.82-5.08c-8.79-5.06-15.58-13.41-17.72-21.78l-.22-.84,2.31-.5c18.18-4.66,39.34,7.66,44.4,25.87l.22.8-.8.22A34.37,34.37,0,0,1,286.17,102.65Zm-35.7-26.44c2.26,7.67,8.59,15.24,16.71,19.91A34.74,34.74,0,0,0,293.27,100C288.05,83,268.2,71.67,251.12,76.07Z"/><path class="cls-3" d="M266.28,198.06a13.83,13.83,0,0,1-12.71-6.46,17.3,17.3,0,0,1-.58-16.95,13.87,13.87,0,0,1,12.54-7.32l52.83-1.79a13.9,13.9,0,0,1,13,6.46,17.32,17.32,0,0,1,.57,16.95c-2.49,4.61-6.94,7.18-12.53,7.31l-52.83,1.79ZM265.33,169a12.25,12.25,0,0,0-10.87,6.44,15.59,15.59,0,0,0,.52,15.27,12.28,12.28,0,0,0,11.51,5.68l52.85-1.79a12.28,12.28,0,0,0,11.11-6.44,15.59,15.59,0,0,0-.51-15.27,12.33,12.33,0,0,0-11.51-5.69L265.57,169Z"/><path class="cls-4" d="M517.06,165.4l-16.65.57a4.17,4.17,0,1,1-.28-8.33h0l16.65-.56a4.16,4.16,0,0,1,.28,8.32Z"/><path class="cls-4" d="M517.51,178.73l-16.65.56a4.17,4.17,0,0,1-.29-8.33h0l16.65-.56a4.17,4.17,0,0,1,.29,8.33Z"/><path class="cls-4" d="M518,192.05l-16.66.56a4.16,4.16,0,1,1-.28-8.32l16.65-.57a4.17,4.17,0,1,1,.29,8.33Z"/><path class="cls-4" d="M546.21,164.42l-16.66.56a4.17,4.17,0,1,1-.29-8.33h0l16.65-.56a4.16,4.16,0,1,1,.3,8.32Z"/><path class="cls-4" d="M546.66,177.74,530,178.3a4.16,4.16,0,1,1-.28-8.32h0l16.66-.57a4.17,4.17,0,0,1,.29,8.33Z"/><path class="cls-4" d="M547.11,191.06l-16.65.57a4.17,4.17,0,0,1-.29-8.33h0l16.66-.57a4.17,4.17,0,0,1,.28,8.33Z"/><rect class="cls-3" x="233.29" y="109.87" width="348.93" height="1.67" transform="matrix(1, -0.03, 0.03, 1, -3.52, 13.88)"/><path class="cls-3" d="M559.34,244.42l-294.77,10a27.52,27.52,0,0,1-28.41-26.55L231.3,84.64a27.52,27.52,0,0,1,26.55-28.41l294.77-10A27.52,27.52,0,0,1,581,72.78L585.89,216A27.53,27.53,0,0,1,559.34,244.42ZM257.9,57.89A25.86,25.86,0,0,0,233,84.58l4.85,143.22a25.86,25.86,0,0,0,26.69,24.94l294.77-10a25.86,25.86,0,0,0,24.94-26.69L579.37,72.84A25.86,25.86,0,0,0,552.68,47.9Z"/><path class="cls-7" d="M137,209a10,10,0,0,0-10.49-9.54,9.32,9.32,0,0,0-1.75.23L111.48,181l-13.33,5.29,19.11,26.14A10.08,10.08,0,0,0,137,209Z"/><path class="cls-3" d="M111.14,207.6,71,155.52l15-47.27c1.1-11.89,8.54-15.2,8.85-15.34l.49-.21,13.08,34.91-9.61,25.62,23.59,39.67Z"/><path class="cls-7" d="M250.54,47.06A10.05,10.05,0,0,0,242.21,60L224.6,74.67l6.3,12.87,24.59-21.06a10.09,10.09,0,0,0-5-19.42Z"/><path class="cls-3" d="M251.16,73,202.35,117l-48.3-11.34c-11.93-.18-15.81-7.34-16-7.65l-.25-.46L171.62,81.8l26.29,7.6,37.73-26.58Z"/><polygon class="cls-7" points="166.6 386.08 179.72 386.08 185.96 335.49 166.6 335.5 166.6 386.08"/><path class="cls-1" d="M205,398.26H163.79V382.34H190.9A14.12,14.12,0,0,1,205,396.46h0v1.8Z"/><polygon class="cls-7" points="114.18 386.08 127.3 386.08 133.54 335.49 114.18 335.5 114.18 386.08"/><path class="cls-1" d="M152.59,398.26H111.37V382.34h27.1a14.12,14.12,0,0,1,14.12,14.12h0v1.8Z"/><polygon class="cls-1" points="109.52 201.43 110.59 276.31 111.66 374.74 135.19 372.6 146.96 236.73 161.94 372.6 186.24 372.6 188.69 235.66 180.13 205.7 109.52 201.43"/><path class="cls-3" d="M155.58,211.48c-25.6,0-49.18-11.59-49.5-11.75l-.26-.13L103.67,148c-.62-1.83-12.89-37.79-15-49.22-2.11-11.58,28.41-21.74,32.12-22.93l.84-9.32,34.2-3.68,4.33,11.92,12.27,4.6a6.06,6.06,0,0,1,3.76,7.13l-6.82,27.73L186.06,206l-3.59.15A65,65,0,0,1,155.58,211.48Z"/><circle class="cls-7" cx="140.1" cy="32.35" r="24.62"/><path class="cls-1" d="M120.15,56.19c4.7,5,13.41,2.31,14-4.52a7.68,7.68,0,0,0,0-1.59c-.31-3-2.06-5.77-1.64-9a4.59,4.59,0,0,1,.86-2.2c3.74-5,12.52,2.24,16-2.3,2.17-2.78-.38-7.15,1.29-10.26,2.19-4.1,8.68-2.08,12.75-4.32,4.53-2.5,4.26-9.45,1.28-13.68-3.64-5.16-10-7.91-16.31-8.3S135.88,1.36,130,3.65c-6.68,2.61-13.3,6.2-17.41,12.08-5,7.14-5.48,16.74-3,25.09C111.13,45.9,116.32,52.11,120.15,56.19Z"/><path class="cls-8" d="M815,399.6H1a1,1,0,0,1,0-2H815a1,1,0,0,1,0,2Z"/><polygon class="cls-2" points="453.93 537.34 465.74 537.33 471.36 491.77 453.92 491.77 453.93 537.34"/><path class="cls-1" d="M450.91,533.48h23.27A14.82,14.82,0,0,1,489,548.3v.49h-38.1Z"/><polygon class="cls-2" points="344.07 537.34 355.89 537.33 361.51 491.77 344.07 491.77 344.07 537.34"/><path class="cls-1" d="M341.06,533.48h23.27a14.82,14.82,0,0,1,14.82,14.82v.49H341.06Z"/><path class="cls-1" d="M458.63,306.09s9.92,26.91,8.5,38.25,9.92,90.66,8.5,97.74,1.42,42.5,0,48.17,4,12.43,1.15,18.1S470,525.66,470,525.66l-18.42-1.41-2.83-15.59s-8.5-1.41-7.08-9.91-7.09-65.17-7.09-65.17l-24.08-79.33-34,72.25s-1.42,51-5.66,56.66,4.24,21.25,0,26.92-8.5,15.58-8.5,15.58H341.06V514.33s-12.75-7.08,0-28.33l8.61-127.61,8.5-58.08Z"/><circle class="cls-2" cx="405.83" cy="101.5" r="26.46"/><path class="cls-1" d="M428.34,99.68q-2.79,7.16-5.6,14.31c-2.29,5.86-4.92,12.14-10.3,15.41-6.65,4-15.52,2.07-21.94-2.31a34.25,34.25,0,0,1,15.42-62.35l.26,4.79,5.88-4.93a5.72,5.72,0,0,0,7.82,2.06,5.46,5.46,0,0,0,1.06-.8c-1.54,3.2.24,7.1,2.81,9.55,3.17,3,12.21,6.63,11.83,12C435.33,91,429.8,96,428.34,99.68Z"/><path class="cls-2" d="M333,345.23a11.22,11.22,0,0,1,3.07-15.55,12.63,12.63,0,0,1,1.73-.95l-.52-25.59L352.74,299l.24,36.16a11.27,11.27,0,0,1-20,10.05Z"/><path class="cls-3" d="M386.17,144.32s20.5-10.26,39.87-3.42,29.62,14.81,29.62,14.81l-12.53,66.06,17.08,88.85s-87.71-6.83-95.68,0-8-8-8-8l6.83-84.29-12.53-53.54Z"/><path class="cls-2" d="M472.71,346.74A11.21,11.21,0,0,1,471.29,331a11.57,11.57,0,0,1,1.4-1.4L465,305.15l13.7-8.3,10.38,34.64a11.26,11.26,0,0,1-16.36,15.25Z"/><path class="cls-3" d="M447.68,155.71h8s12.53,8,12.53,19.36,18.22,144.66,18.22,144.66l-19.36,3.42L450,229.75l-12.53-25.06Z"/><path class="cls-3" d="M372.5,164.82H350.86s-6.83,6.83-10.25,22.78-6.84,78.6-6.84,78.6l2.28,56.95h17.09l2.28-74,11.39-47.84Z"/></svg>