<svg id="Layer_1" data-name="Layer 1" xmlns="http://www.w3.org/2000/svg" viewBox="0 0 256 49"><defs><style>.cls-1{fill:#fff;}</style></defs><title>webandcrafts-logo white</title><path class="cls-1" d="M79.21,39.28H73.38V29.14H64.76V39.28H58.9V15h5.86v9.64h8.62V15h5.83Z"/><path class="cls-1" d="M102,15v15.9a9.12,9.12,0,0,1-1.15,4.68,7.42,7.42,0,0,1-3.3,3,11.65,11.65,0,0,1-5.09,1,10,10,0,0,1-7-2.31,8.18,8.18,0,0,1-2.6-6.3V15h5.89V31.12c.06,2.66,1.3,4,3.7,4a3.57,3.57,0,0,0,2.75-1,4.64,4.64,0,0,0,.94-3.25V15Z"/><path class="cls-1" d="M125.91,39.28h-5.83l-8.61-15.11V39.28h-5.85V15h5.85l8.6,15.12V15h5.84Z"/><path class="cls-1" d="M148.2,19.51h-7.29V39.28h-5.86V19.51h-7.16V15H148.2Z"/><path class="cls-1" d="M165.17,29.79h2.47v4.34h-2.47v5.15h-5.63V34.13h-9.39l-.33-3.44L159.54,15v0h5.63Zm-10,0h4.37V22.31l-.35.57Z"/><path class="cls-1" d="M189.53,19.51h-7.29V39.28h-5.86V19.51h-7.16V15h20.31Z"/><path class="cls-1" d="M207.06,29h-9.21v5.81h10.88v4.5H192V15h16.76v4.52H197.85v5.12h9.21Z"/><path class="cls-1" d="M230.77,31.06a8.85,8.85,0,0,1-1.37,4.48,8.23,8.23,0,0,1-3.51,3,12,12,0,0,1-5.16,1.07,9.53,9.53,0,0,1-7.54-3.12q-2.76-3.12-2.76-8.81V26.48a14.63,14.63,0,0,1,1.25-6.24,9.31,9.31,0,0,1,3.58-4.14,10,10,0,0,1,5.4-1.46A10.43,10.43,0,0,1,227.77,17a9.17,9.17,0,0,1,3,6.41H225a4.31,4.31,0,0,0-1.11-3.18,4.6,4.6,0,0,0-3.21-1,3.49,3.49,0,0,0-3.2,1.63,10.45,10.45,0,0,0-1.07,5.22V27.8c0,2.59.33,4.45,1,5.56A3.57,3.57,0,0,0,220.73,35a4.51,4.51,0,0,0,3.08-1,4,4,0,0,0,1.14-3Z"/><path class="cls-1" d="M253.85,39.28H248V29.14H239.4V39.28h-5.86V15h5.86v9.64H248V15h5.83Z"/><polygon class="cls-1" points="30.58 20.62 30.58 39.28 22.34 39.28 22.34 35.12 9 35.12 9 9.36 17.24 9.36 17.24 26.88 22.34 26.88 22.34 20.62 30.58 20.62"/><polygon class="cls-1" points="53.73 3.44 53.73 11.68 43.93 11.68 43.93 39.28 35.69 39.28 35.69 11.68 30.58 11.68 30.58 15.54 22.34 15.54 22.34 3.44 53.73 3.44"/></svg>