<svg id="Layer_1" data-name="Layer 1" xmlns="http://www.w3.org/2000/svg" viewBox="0 0 506 506"><defs><style>.cls-1{fill:#f0f0f0;}.cls-2{fill:#fff;}.cls-3{fill:#3f3d56;}.cls-4{fill:#e5e5e5;}.cls-5{fill:#9e616a;}.cls-6{fill:#2f2e41;}.cls-7{opacity:0.2;isolation:isolate;}.cls-8{fill:#4338ca;}</style></defs><title>IT SERVICES</title><path class="cls-1" d="M192.24,316.07c16.46-28.95,47.85-51.18,81.08-49A153.38,153.38,0,0,0,233,364.34c-.55,14,.3,29.54-9,40-5.76,6.5-14.58,9.65-23.24,10.31s-17.33-.91-25.88-2.47l-2.07.64C172,379.52,175.78,345,192.24,316.07Z"/><path class="cls-2" d="M273.37,267.73A131.14,131.14,0,0,0,215,323.42,56.36,56.36,0,0,0,208.8,340a32.28,32.28,0,0,0,1.68,17c1.83,5.08,4.28,10.06,4.84,15.49A19.82,19.82,0,0,1,210,387.78c-4.64,5.19-10.87,8.42-17.07,11.35-6.89,3.27-14.09,6.55-19,12.63-.59.74-1.7-.22-1.11-.95,8.49-10.6,23-12.59,33.09-21.12,4.7-4,8.23-9.41,8-15.76-.19-5.56-2.72-10.7-4.61-15.82a34.58,34.58,0,0,1-2.27-16.53,52.41,52.41,0,0,1,5.52-16.75A127.33,127.33,0,0,1,236,292.67a133.58,133.58,0,0,1,36.91-26.33c.84-.41,1.31,1,.47,1.39Z"/><path class="cls-2" d="M218.75,315.36a19.67,19.67,0,0,1-5.94-24.77c.43-.84,1.76-.22,1.33.63a18.2,18.2,0,0,0,5.57,23C220.47,314.81,219.51,315.91,218.75,315.36Z"/><path class="cls-2" d="M209.22,354.51a37.94,37.94,0,0,0,24-13.69c.59-.73,1.7.23,1.11,1a39.44,39.44,0,0,1-25,14.19c-.93.14-1-1.33-.1-1.46Z"/><path class="cls-2" d="M247.43,283.66a11.11,11.11,0,0,0,9.95,3.55c.94-.14,1,1.32.11,1.47a12.5,12.5,0,0,1-11-3.91.73.73,0,1,1,1-1.11Z"/><path class="cls-1" d="M339.44,358.36l-1.74.34A146.79,146.79,0,0,0,314.76,365l-1.74.63a154.66,154.66,0,0,0-48.63,29.6,150.67,150.67,0,0,0-15.75,16.5c-6.66,8.14-13.24,17.5-21.94,22.8a23.71,23.71,0,0,1-2.8,1.52l-50.16-20.8-.27-.3-2-.74.7-1,.4-.56.26-.36.08-.11.23-.32c1.36-1.84,2.72-3.67,4.11-5.5l0,0c10.57-13.89,22.4-27,35.85-37.94.41-.33.81-.67,1.24-1a144,144,0,0,1,19.37-13.1c3.73-2.08,7.57-4,11.49-5.68a105.17,105.17,0,0,1,31.91-8.14c21.93-2,44.26,3,61.08,16.74Z"/><path class="cls-2" d="M339.07,359a131.11,131.11,0,0,0-80.15,9.31A56.34,56.34,0,0,0,244,377.77a32.42,32.42,0,0,0-8.87,14.56c-1.6,5.16-2.64,10.61-5.46,15.29a19.84,19.84,0,0,1-13.46,9c-6.84,1.35-13.75.17-20.47-1.21-7.47-1.55-15.19-3.26-22.75-1.34-.92.23-1.23-1.2-.31-1.43,13.15-3.35,25.95,3.8,39.13,3.05,6.15-.35,12.23-2.55,15.88-7.76,3.19-4.55,4.26-10.18,5.84-15.41A34.44,34.44,0,0,1,241.67,378,52,52,0,0,1,256.16,368a127.5,127.5,0,0,1,38-11.59,133.43,133.43,0,0,1,45.32,1.2c.93.18.46,1.58-.45,1.39Z"/><path class="cls-2" d="M266.77,364.1A19.69,19.69,0,0,1,277,340.74c.85-.41,1.53.89.68,1.3a18.22,18.22,0,0,0-9.42,21.75c.28.9-1.16,1.2-1.44.31Z"/><path class="cls-2" d="M235.6,389.61A37.85,37.85,0,0,0,263,393.14c.92-.23,1.23,1.21.31,1.44a39.44,39.44,0,0,1-28.52-3.73C234,390.39,234.77,389.16,235.6,389.61Z"/><path class="cls-2" d="M308.76,356.05a11.13,11.13,0,0,0,5.81,8.83c.84.45,0,1.68-.79,1.23a12.46,12.46,0,0,1-6.45-9.75.73.73,0,1,1,1.43-.31Z"/><path class="cls-3" d="M243.91,392.68c-7-34-15.8-45.28-15.8-45.28l-3.36-2.6-4-3.13,0-.41-1-.32-.22-.18-.37-.28-.06.07-.12.13-18.26-6.21-23.15-7.86-10.72-13.94A18.56,18.56,0,0,0,152,305.43l-34.24.26a18.58,18.58,0,0,0-12.48,4.94l-22.5,20.88L47.74,348.26l-.06-.06-.36.27-5.42,2.59.22,1.16-3.35,2.42S30,365.18,23,396.77c-1.78,8-2.66,25.29-3,46.55a8.11,8.11,0,0,0,8,8.23H238.79a8.11,8.11,0,0,0,8.11-8.12v-.11C246.59,420.2,245.71,401.4,243.91,392.68Z"/><path class="cls-4" d="M267.94,162a27.48,27.48,0,0,0,0,55H472.73a27.48,27.48,0,0,0,0-55Z"/><path class="cls-2" d="M267.94,167.58a21.92,21.92,0,0,0,0,43.84H472.73a21.92,21.92,0,0,0,0-43.84Z"/><circle id="e096411a-cdc3-4e6d-bbd4-4630e1fee17e" class="cls-5" cx="140.3" cy="247.71" r="44.86"/><path class="cls-6" d="M128.82,290.37l-.57-1.27.22,0Z"/><path class="cls-6" d="M94.19,204.88c2.27-1.81,4.92-3.47,7.82-3.38s5.84,2.72,5.24,5.56a46.1,46.1,0,0,1,55.48-20.81c7.21,2.55,14.28,7.63,15.94,15.1.42,1.91.51,4,1.71,5.57,1.51,2,4.4,2.41,6.77,1.72l.07,0a2.11,2.11,0,0,1,2.69,1.32,2.07,2.07,0,0,1-.13,1.67l-2,3.8a16.29,16.29,0,0,0,7.79-.16,2.12,2.12,0,0,1,2.59,1.51,2.1,2.1,0,0,1-.34,1.78,36.88,36.88,0,0,1-29.43,15.13c-8.15,0-16.39-2.86-24.32-1a21.11,21.11,0,0,0-15.7,25.41,20.33,20.33,0,0,0,1.49,4.24c-2.44-2.66-7.15-2-9.64.58S117,269.44,117.29,273c.39,5.51,2.55,10.7,4.82,15.76-19.08-.6-37.13-14-43.21-32.1S79.19,216.84,94.19,204.88Z"/><polygon class="cls-7" points="64.14 382.43 76.72 450.89 84.27 451.55 64.14 382.43"/><polygon class="cls-7" points="202.74 377.27 190.16 450.84 182.61 451.55 202.74 377.27"/><path class="cls-8" d="M104.92,181.84a4.47,4.47,0,0,1-6-2.62,4.55,4.55,0,0,1,2.38-6.2,4.77,4.77,0,0,1,3.61,8.82ZM100.3,168l-1.92.8a2.07,2.07,0,0,1-2.63-1l-.09-.19c-2.07-3.72-2.3-8.25-.7-13.44,1.48-4.66,2.1-7.93.86-10.9-1.43-3.43-4.49-4.51-8.4-2.95-1.51.63-2,.62-3.18,1.8a2.74,2.74,0,0,1-2,.81,2.64,2.64,0,0,1-1.89-.83,2.69,2.69,0,0,1,0-3.69,21,21,0,0,1,7.09-4.87c8.38-3.5,12.6,1.67,14.53,6.3s.83,8.72-.88,14.15c-1.43,4.52-1.34,7.87.28,11.2a2.06,2.06,0,0,1-1,2.74l-.07,0Z"/><path class="cls-8" d="M313.18,202.6H272.43a1,1,0,0,1,0-2h40.76a1,1,0,0,1,1,1A1,1,0,0,1,313.18,202.6Z"/><path class="cls-8" d="M364.87,202.93H324.12a1,1,0,1,1,0-2h40.76a1,1,0,0,1,0,2Z"/><path class="cls-8" d="M416.55,203.26H375.81a1,1,0,0,1,0-2h40.74a1,1,0,0,1,0,2Z"/><path class="cls-8" d="M468.24,203.58H427.5a1,1,0,0,1-1-1,1,1,0,0,1,1-1h40.74a1,1,0,0,1,1,1,1,1,0,0,1-1,1Z"/><circle class="cls-8" cx="292.72" cy="186" r="7.57"/><circle class="cls-8" cx="344.72" cy="186" r="7.57"/><circle class="cls-8" cx="396.72" cy="186" r="7.57"/><circle class="cls-8" cx="448.72" cy="186" r="7.57"/></svg>